<?xml version="1.0" standalone="no"?>
<!DOCTYPE svg PUBLIC "-//W3C//DTD SVG 20010904//EN"
 "http://www.w3.org/TR/2001/REC-SVG-20010904/DTD/svg10.dtd">
<svg version="1.0" xmlns="http://www.w3.org/2000/svg"
 width="300.000000pt" height="300.000000pt" viewBox="0 0 300.000000 300.000000"
 preserveAspectRatio="xMidYMid meet">
<metadata>
Created by potrace 1.11, written by Peter Selinger 2001-2013
</metadata>
<g transform="translate(0.000000,300.000000) scale(0.100000,-0.100000)"
fill="#000000" stroke="none">
<path d="M790 2738 c-93 -13 -148 -50 -210 -138 -14 -20 -26 -22 -110 -24
-111 -3 -158 -15 -222 -55 -48 -30 -95 -90 -103 -129 -2 -12 -7 -27 -10 -33
-10 -15 -6 -183 5 -258 23 -140 27 -160 57 -261 14 -47 30 -91 35 -97 6 -7 8
-13 5 -13 -3 0 8 -27 24 -60 16 -33 29 -63 29 -66 0 -2 5 -10 10 -17 6 -7 29
-41 51 -77 23 -36 44 -67 48 -70 17 -14 61 -82 87 -135 37 -77 91 -131 145
-145 25 -7 73 -9 116 -6 40 3 73 2 73 -2 0 -4 -16 -31 -35 -60 -97 -144 -93
-253 19 -497 21 -44 41 -89 46 -100 40 -91 73 -154 93 -177 36 -41 89 -60 161
-57 56 2 197 38 271 69 80 34 240 113 243 121 2 5 8 9 13 9 11 0 18 5 74 54
37 32 65 91 80 172 2 10 4 20 5 22 4 3 6 13 15 72 5 30 10 60 11 65 1 6 2 17
3 26 1 15 24 17 204 21 218 4 243 9 295 66 20 21 25 22 35 10 23 -28 82 -65
127 -80 40 -13 174 -16 220 -5 104 25 190 127 215 256 7 37 7 159 0 206 -9 52
-46 125 -86 170 -110 120 -350 123 -467 5 -30 -29 -32 -30 -41 -11 -14 25 -73
61 -114 69 -17 3 -116 6 -220 6 -117 1 -187 5 -188 11 -2 26 -13 91 -23 141
-5 27 -27 105 -34 124 -3 8 -6 17 -7 20 -7 30 -30 88 -38 98 -5 6 -7 12 -4 12
11 0 -96 207 -146 280 -99 148 -222 278 -327 348 -63 42 -189 98 -240 107 -90
17 -139 20 -190 13z m1896 -1285 c99 -65 120 -294 37 -394 -61 -72 -173 -79
-241 -16 -50 46 -66 95 -66 198 -1 89 1 99 29 145 41 66 100 98 169 89 26 -3
59 -13 72 -22z m-573 4 c72 -5 97 -25 92 -72 -3 -35 -19 -57 -45 -64 -8 -2
-58 -4 -110 -5 l-95 -1 -3 72 -3 72 38 3 c21 2 45 2 53 1 8 -1 41 -4 73 -6z
m82 -287 c46 -43 27 -127 -32 -147 -22 -7 -153 -9 -205 -4 -5 1 -8 41 -8 90
l0 88 110 -2 c100 -2 113 -5 135 -25z"/>
</g>
</svg>
