<svg width="119" height="36" viewBox="0 0 119 36" fill="none" xmlns="http://www.w3.org/2000/svg">
<path fill-rule="evenodd" clip-rule="evenodd" d="M114.68 35.3094H4.16541C1.8691 35.3094 0 33.4309 0 31.1314V4.1718C0 1.8714 1.8691 0 4.16541 0H114.68C116.976 0 118.911 1.8714 118.911 4.1718V31.1314C118.911 33.4309 116.976 35.3094 114.68 35.3094Z" fill="#111111"/>
<path fill-rule="evenodd" clip-rule="evenodd" d="M25.9536 17.4638C25.9281 14.6188 28.2781 13.2347 28.3856 13.1702C27.0546 11.2256 24.9918 10.9599 24.2668 10.9387C22.5343 10.7559 20.8537 11.9777 19.9711 11.9777C19.0709 11.9777 17.7118 10.9563 16.247 10.9863C14.362 11.0155 12.5986 12.1092 11.6314 13.8076C9.6355 17.2705 11.1241 22.3595 13.0364 25.1586C13.9929 26.5295 15.1107 28.0602 16.5737 28.0063C18.0051 27.9472 18.5397 27.0918 20.267 27.0918C21.9785 27.0918 22.4805 28.0063 23.9726 27.9719C25.5088 27.9472 26.4759 26.5948 27.399 25.2116C28.5045 23.6403 28.9484 22.0929 28.966 22.0135C28.9299 22.0011 25.9827 20.8738 25.9536 17.4638Z" fill="white"/>
<path fill-rule="evenodd" clip-rule="evenodd" d="M23.1347 9.09729C23.9045 8.13246 24.4313 6.81984 24.2851 5.48779C23.1708 5.53723 21.7774 6.26019 20.9749 7.20383C20.265 8.03536 19.6308 9.3983 19.7946 10.68C21.0463 10.7736 22.3314 10.0471 23.1347 9.09729Z" fill="white"/>
<path fill-rule="evenodd" clip-rule="evenodd" d="M47.2515 26.0837H45.2512L44.1554 22.6331H40.3467L39.303 26.0837H37.3555L41.1289 14.3363H43.4596L47.2515 26.0837ZM43.8269 21.1847L42.8359 18.1172C42.7311 17.8038 42.5347 17.0659 42.2449 15.9042H42.2097C42.0943 16.4038 41.9084 17.1418 41.653 18.1172L40.6797 21.1847H43.8269Z" fill="white"/>
<path fill-rule="evenodd" clip-rule="evenodd" d="M56.9561 21.7436C56.9561 23.1842 56.5676 24.3229 55.7908 25.1589C55.0949 25.903 54.2308 26.2746 53.1994 26.2746C52.086 26.2746 51.2862 25.8739 50.7991 25.0724H50.7639V29.5346H48.886V20.4009C48.886 19.4952 48.8622 18.5657 48.8164 17.6124H50.4679L50.5728 18.955H50.608C51.2343 17.9434 52.1847 17.4385 53.4601 17.4385C54.4572 17.4385 55.2896 17.8331 55.9555 18.6231C56.6231 19.414 56.9561 20.4539 56.9561 21.7436ZM55.0438 21.8125C55.0438 20.988 54.8588 20.3083 54.4871 19.7734C54.081 19.2155 53.5358 18.9365 52.8523 18.9365C52.389 18.9365 51.9679 19.0919 51.5918 19.3982C51.2148 19.7072 50.9682 20.1106 50.8528 20.6102C50.7947 20.8432 50.7656 21.0339 50.7656 21.184V22.5963C50.7656 23.2125 50.9541 23.7324 51.3311 24.157C51.7081 24.5816 52.1978 24.7935 52.8003 24.7935C53.5076 24.7935 54.0581 24.5198 54.4519 23.9743C54.8465 23.4279 55.0438 22.7076 55.0438 21.8125Z" fill="white"/>
<path fill-rule="evenodd" clip-rule="evenodd" d="M66.6779 21.7436C66.6779 23.1842 66.2894 24.3229 65.5117 25.1589C64.8167 25.903 63.9526 26.2746 62.9212 26.2746C61.8078 26.2746 61.008 25.8739 60.5218 25.0724H60.4866V29.5346H58.6086V20.4009C58.6086 19.4952 58.5849 18.5657 58.5391 17.6124H60.1906L60.2954 18.955H60.3307C60.956 17.9434 61.9064 17.4385 63.1828 17.4385C64.179 17.4385 65.0113 17.8331 65.679 18.6231C66.344 19.414 66.6779 20.4539 66.6779 21.7436ZM64.7625 21.8125C64.7625 20.988 64.5767 20.3083 64.205 19.7734C63.7989 19.2155 63.2554 18.9365 62.571 18.9365C62.1068 18.9365 61.6867 19.0919 61.3097 19.3982C60.9327 19.7072 60.687 20.1106 60.5716 20.6102C60.5143 20.8432 60.4844 21.0339 60.4844 21.184V22.5963C60.4844 23.2125 60.6729 23.7324 61.0481 24.157C61.4251 24.5807 61.9148 24.7935 62.5191 24.7935C63.2264 24.7935 63.7769 24.5198 64.1706 23.9743C64.5652 23.4279 64.7625 22.7076 64.7625 21.8125Z" fill="white"/>
<path fill-rule="evenodd" clip-rule="evenodd" d="M77.5455 22.7888C77.5455 23.788 77.1993 24.601 76.5044 25.2286C75.7407 25.9145 74.6775 26.257 73.3114 26.257C72.0501 26.257 71.0389 26.0134 70.2734 25.5252L70.7086 23.9566C71.533 24.4563 72.4376 24.707 73.4233 24.707C74.1306 24.707 74.6811 24.5463 75.0766 24.2267C75.4703 23.9072 75.6667 23.4782 75.6667 22.9432C75.6667 22.4666 75.5046 22.0649 75.1796 21.7392C74.8564 21.4135 74.3164 21.1107 73.5624 20.8309C71.5101 20.0638 70.4848 18.94 70.4848 17.4624C70.4848 16.4966 70.8442 15.7048 71.5638 15.0887C72.2808 14.4716 73.2374 14.1636 74.4336 14.1636C75.5002 14.1636 76.3863 14.3498 77.0936 14.7215L76.6242 16.2557C75.9635 15.8955 75.2166 15.7154 74.3807 15.7154C73.7201 15.7154 73.2039 15.8787 72.834 16.2036C72.5213 16.494 72.3645 16.848 72.3645 17.2673C72.3645 17.7316 72.5433 18.1156 72.9027 18.4175C73.2154 18.6964 73.7835 18.9983 74.608 19.324C75.6165 19.731 76.3573 20.2068 76.8338 20.7523C77.3086 21.2961 77.5455 21.9767 77.5455 22.7888Z" fill="white"/>
<path fill-rule="evenodd" clip-rule="evenodd" d="M83.7569 19.0249H81.687V23.1376C81.687 24.1836 82.0516 24.7062 82.7827 24.7062C83.1183 24.7062 83.3966 24.6771 83.6168 24.6188L83.6688 26.048C83.2989 26.1866 82.8118 26.2563 82.2084 26.2563C81.4668 26.2563 80.8872 26.0294 80.4688 25.5766C80.0522 25.1229 79.8425 24.362 79.8425 23.293V19.0232H78.6094V17.6108H79.8425V16.0598L81.687 15.502V17.6108H83.7569V19.0249Z" fill="white"/>
<path fill-rule="evenodd" clip-rule="evenodd" d="M93.0953 21.778C93.0953 23.08 92.7235 24.149 91.9819 24.9849C91.2041 25.8456 90.1718 26.2746 88.8849 26.2746C87.6447 26.2746 86.6573 25.8624 85.921 25.0379C85.1846 24.2134 84.8164 23.1727 84.8164 21.9183C84.8164 20.6057 85.1952 19.5305 85.9553 18.6946C86.7137 17.8577 87.7372 17.4393 89.0241 17.4393C90.2643 17.4393 91.2623 17.8516 92.0154 18.6769C92.7359 19.4776 93.0953 20.5112 93.0953 21.778ZM91.1465 21.8389C91.1465 21.0577 90.98 20.3877 90.6426 19.829C90.2489 19.1528 89.6861 18.8156 88.9568 18.8156C88.2019 18.8156 87.6285 19.1537 87.2347 19.829C86.8974 20.3886 86.7309 21.0692 86.7309 21.8742C86.7309 22.6555 86.8974 23.3255 87.2347 23.8834C87.6408 24.5595 88.2081 24.8967 88.94 24.8967C89.657 24.8967 90.2199 24.5525 90.6259 23.8657C90.9721 23.2963 91.1465 22.6193 91.1465 21.8389Z" fill="white"/>
<path fill-rule="evenodd" clip-rule="evenodd" d="M99.1989 19.2675C99.013 19.2331 98.8149 19.2154 98.607 19.2154C97.9464 19.2154 97.4355 19.4652 97.0761 19.9657C96.7634 20.4071 96.6066 20.965 96.6066 21.6385V26.0831H94.7296L94.7472 20.28C94.7472 19.3037 94.7234 18.4148 94.6768 17.6133H96.3124L96.3811 19.234H96.4331C96.6313 18.677 96.944 18.2285 97.3721 17.8922C97.7905 17.5894 98.2423 17.4385 98.7294 17.4385C98.9029 17.4385 99.0597 17.4508 99.1989 17.4729V19.2675Z" fill="white"/>
<path fill-rule="evenodd" clip-rule="evenodd" d="M107.598 21.447C107.598 21.7842 107.576 22.0684 107.529 22.3006H101.895C101.917 23.1374 102.189 23.7774 102.713 24.2188C103.187 24.6134 103.801 24.8111 104.555 24.8111C105.389 24.8111 106.15 24.6778 106.835 24.4103L107.129 25.7168C106.329 26.0663 105.385 26.2402 104.295 26.2402C102.985 26.2402 101.956 25.8536 101.207 25.0812C100.46 24.3088 100.086 23.2716 100.086 21.9705C100.086 20.6931 100.434 19.6294 101.131 18.7811C101.86 17.8754 102.846 17.4226 104.086 17.4226C105.304 17.4226 106.226 17.8754 106.852 18.7811C107.348 19.5006 107.598 20.3904 107.598 21.447ZM105.807 20.9587C105.819 20.4009 105.697 19.9189 105.442 19.5119C105.117 18.9885 104.618 18.7272 103.946 18.7272C103.332 18.7272 102.832 18.9823 102.451 19.4943C102.138 19.9012 101.953 20.3894 101.895 20.9579H105.807V20.9587Z" fill="white"/>
<path d="M39.4155 11H37.8125V6.1H39.4155C40.2088 6.1 40.8481 6.32633 41.3335 6.779C41.8235 7.23633 42.0685 7.82667 42.0685 8.55C42.0685 9.278 41.8235 9.86833 41.3335 10.321C40.8481 10.7737 40.2088 11 39.4155 11ZM38.3305 6.569V10.531H39.3525C40.0245 10.531 40.5588 10.3513 40.9555 9.992C41.3475 9.63733 41.5435 9.15667 41.5435 8.55C41.5435 7.94333 41.3475 7.46267 40.9555 7.108C40.5588 6.74867 40.0245 6.569 39.3525 6.569H38.3305ZM43.6737 8.06C44.0144 7.71 44.453 7.535 44.9897 7.535C45.5264 7.535 45.965 7.71 46.3057 8.06C46.6464 8.40067 46.8167 8.81833 46.8167 9.313C46.8167 9.80767 46.6464 10.2253 46.3057 10.566C45.9604 10.9113 45.5217 11.084 44.9897 11.084C44.4577 11.084 44.019 10.9113 43.6737 10.566C43.333 10.2253 43.1627 9.80767 43.1627 9.313C43.1627 8.81833 43.333 8.40067 43.6737 8.06ZM46.2987 9.313C46.2987 8.93967 46.175 8.62467 45.9277 8.368C45.6804 8.116 45.3677 7.99 44.9897 7.99C44.6117 7.99 44.299 8.116 44.0517 8.368C43.8044 8.62467 43.6807 8.93967 43.6807 9.313C43.6807 9.68167 43.8044 9.99433 44.0517 10.251C44.299 10.503 44.6117 10.629 44.9897 10.629C45.3677 10.629 45.6804 10.503 45.9277 10.251C46.175 9.99433 46.2987 9.68167 46.2987 9.313ZM49.255 11.021H48.814L47.603 7.619H48.121L49.066 10.251L49.99 7.605H50.417L51.348 10.251L52.286 7.619H52.797L51.586 11.021H51.145L50.193 8.368L49.255 11.021ZM54.4164 8.718V11H53.9124V7.619H54.4164V8.137C54.7757 7.73567 55.226 7.535 55.7674 7.535C56.1827 7.535 56.5 7.65867 56.7194 7.906C56.9434 8.14867 57.0554 8.494 57.0554 8.942V11H56.5514V9.054C56.5514 8.35867 56.2317 8.011 55.5924 8.011C55.359 8.011 55.1327 8.08333 54.9134 8.228C54.6894 8.37267 54.5237 8.536 54.4164 8.718ZM59.2068 11.084C58.9735 11.084 58.7845 11.0163 58.6398 10.881C58.4998 10.7457 58.4298 10.5357 58.4298 10.251V6.1H58.9338V10.132C58.9338 10.4633 59.0808 10.629 59.3748 10.629C59.4915 10.629 59.6012 10.5987 59.7038 10.538V10.986C59.5825 11.0513 59.4168 11.084 59.2068 11.084ZM60.9848 8.06C61.3254 7.71 61.7641 7.535 62.3008 7.535C62.8374 7.535 63.2761 7.71 63.6168 8.06C63.9574 8.40067 64.1278 8.81833 64.1278 9.313C64.1278 9.80767 63.9574 10.2253 63.6168 10.566C63.2714 10.9113 62.8328 11.084 62.3008 11.084C61.7688 11.084 61.3301 10.9113 60.9848 10.566C60.6441 10.2253 60.4738 9.80767 60.4738 9.313C60.4738 8.81833 60.6441 8.40067 60.9848 8.06ZM63.6098 9.313C63.6098 8.93967 63.4861 8.62467 63.2388 8.368C62.9914 8.116 62.6788 7.99 62.3008 7.99C61.9228 7.99 61.6101 8.116 61.3628 8.368C61.1154 8.62467 60.9918 8.93967 60.9918 9.313C60.9918 9.68167 61.1154 9.99433 61.3628 10.251C61.6101 10.503 61.9228 10.629 62.3008 10.629C62.6788 10.629 62.9914 10.503 63.2388 10.251C63.4861 9.99433 63.6098 9.68167 63.6098 9.313ZM66.4524 10.629C66.6858 10.629 66.9074 10.5753 67.1174 10.468C67.3274 10.3607 67.4978 10.2253 67.6284 10.062V9.593C67.2831 9.369 66.9168 9.257 66.5294 9.257C66.2214 9.257 65.9764 9.31767 65.7944 9.439C65.6171 9.56033 65.5284 9.726 65.5284 9.936C65.5284 10.1553 65.6148 10.3257 65.7874 10.447C65.9601 10.5683 66.1818 10.629 66.4524 10.629ZM66.3124 11.084C65.9531 11.084 65.6474 10.986 65.3954 10.79C65.1481 10.5847 65.0244 10.3093 65.0244 9.964C65.0244 9.62333 65.1551 9.35033 65.4164 9.145C65.6778 8.94433 66.0091 8.844 66.4104 8.844C66.8491 8.844 67.2551 8.95367 67.6284 9.173V8.837C67.6284 8.27233 67.2574 7.99 66.5154 7.99C66.1188 7.99 65.7501 8.10433 65.4094 8.333V7.843C65.7408 7.63767 66.1444 7.535 66.6204 7.535C67.0824 7.535 67.4488 7.64467 67.7194 7.864C67.9948 8.07867 68.1324 8.38667 68.1324 8.788V10.181C68.1324 10.3117 68.1604 10.4143 68.2164 10.489C68.2771 10.5637 68.3564 10.601 68.4544 10.601C68.5291 10.601 68.5944 10.587 68.6504 10.559V10.951C68.5758 11.0023 68.4638 11.028 68.3144 11.028C68.1464 11.028 68.0041 10.9837 67.8874 10.895C67.7754 10.8017 67.7054 10.6663 67.6774 10.489C67.3368 10.8857 66.8818 11.084 66.3124 11.084ZM72.4777 8.158V6.1H72.9817V11H72.4777V10.461C72.1603 10.8763 71.724 11.084 71.1687 11.084C70.6693 11.084 70.261 10.9113 69.9437 10.566C69.6263 10.2207 69.4677 9.803 69.4677 9.313C69.4677 8.81833 69.6263 8.39833 69.9437 8.053C70.261 7.70767 70.6693 7.535 71.1687 7.535C71.724 7.535 72.1603 7.74267 72.4777 8.158ZM72.4777 9.866V8.753C72.3797 8.529 72.221 8.347 72.0017 8.207C71.7823 8.06233 71.5443 7.99 71.2877 7.99C70.9097 7.99 70.5993 8.11833 70.3567 8.375C70.1093 8.63167 69.9857 8.94433 69.9857 9.313C69.9857 9.68167 70.1093 9.99433 70.3567 10.251C70.604 10.503 70.9143 10.629 71.2877 10.629C71.5397 10.629 71.7753 10.559 71.9947 10.419C72.214 10.2743 72.375 10.09 72.4777 9.866ZM76.7714 8.06C77.1121 7.71 77.5507 7.535 78.0874 7.535C78.6241 7.535 79.0627 7.71 79.4034 8.06C79.7441 8.40067 79.9144 8.81833 79.9144 9.313C79.9144 9.80767 79.7441 10.2253 79.4034 10.566C79.0581 10.9113 78.6194 11.084 78.0874 11.084C77.5554 11.084 77.1167 10.9113 76.7714 10.566C76.4307 10.2253 76.2604 9.80767 76.2604 9.313C76.2604 8.81833 76.4307 8.40067 76.7714 8.06ZM79.3964 9.313C79.3964 8.93967 79.2727 8.62467 79.0254 8.368C78.7781 8.116 78.4654 7.99 78.0874 7.99C77.7094 7.99 77.3967 8.116 77.1494 8.368C76.9021 8.62467 76.7784 8.93967 76.7784 9.313C76.7784 9.68167 76.9021 9.99433 77.1494 10.251C77.3967 10.503 77.7094 10.629 78.0874 10.629C78.4654 10.629 78.7781 10.503 79.0254 10.251C79.2727 9.99433 79.3964 9.68167 79.3964 9.313ZM81.6021 8.718V11H81.0981V7.619H81.6021V8.137C81.9614 7.73567 82.4117 7.535 82.9531 7.535C83.3684 7.535 83.6857 7.65867 83.9051 7.906C84.1291 8.14867 84.2411 8.494 84.2411 8.942V11H83.7371V9.054C83.7371 8.35867 83.4174 8.011 82.7781 8.011C82.5447 8.011 82.3184 8.08333 82.0991 8.228C81.8751 8.37267 81.7094 8.536 81.6021 8.718ZM89.0502 11.084C88.7376 11.084 88.4996 10.993 88.3362 10.811C88.1776 10.6243 88.0982 10.3677 88.0982 10.041V8.06H87.3002V7.619H88.0982V6.576H88.6022V7.619H89.7852V8.06H88.6022V9.887C88.6022 10.1577 88.6466 10.3443 88.7352 10.447C88.8286 10.5543 88.9802 10.608 89.1902 10.608C89.3956 10.608 89.5799 10.5613 89.7432 10.468V10.93C89.5986 11.0327 89.3676 11.084 89.0502 11.084ZM91.463 8.718V11H90.959V6.1H91.463V8.137C91.8224 7.73567 92.2727 7.535 92.814 7.535C93.2294 7.535 93.5467 7.65867 93.766 7.906C93.99 8.14867 94.102 8.494 94.102 8.942V11H93.598V9.054C93.598 8.35867 93.2784 8.011 92.639 8.011C92.4057 8.011 92.1794 8.08333 91.96 8.228C91.736 8.37267 91.5704 8.536 91.463 8.718ZM97.0935 11.084C96.5662 11.084 96.1228 10.9183 95.7635 10.587C95.4088 10.2603 95.2315 9.83567 95.2315 9.313C95.2315 8.809 95.3902 8.38667 95.7075 8.046C96.0295 7.70533 96.4425 7.535 96.9465 7.535C97.2172 7.535 97.4575 7.591 97.6675 7.703C97.8775 7.81033 98.0432 7.95267 98.1645 8.13C98.2858 8.30733 98.3768 8.49633 98.4375 8.697C98.4982 8.893 98.5285 9.09133 98.5285 9.292V9.432H95.7495C95.7775 9.796 95.9222 10.0877 96.1835 10.307C96.4495 10.5217 96.7855 10.629 97.1915 10.629C97.5835 10.629 97.9452 10.524 98.2765 10.314V10.762C98.0012 10.9767 97.6068 11.084 97.0935 11.084ZM95.7565 9.019H98.0175C98.0035 8.75767 97.9055 8.522 97.7235 8.312C97.5508 8.09733 97.2848 7.99 96.9255 7.99C96.5895 7.99 96.3142 8.09267 96.0995 8.298C95.8895 8.508 95.7752 8.74833 95.7565 9.019Z" fill="white"/>
</svg>
