<svg width="158" height="50" fill="none" xmlns="http://www.w3.org/2000/svg"><path fill-rule="evenodd" clip-rule="evenodd" d="M152.379 50H5.535C2.484 50 0 47.34 0 44.084V5.907C0 2.65 2.484 0 5.535 0h146.844C155.429 0 158 2.65 158 5.907v38.177c0 3.256-2.571 5.916-5.621 5.916z" fill="#004177"/><path fill-rule="evenodd" clip-rule="evenodd" d="M39.55 23.558c-.03-3.35 2.736-4.979 2.862-5.054-1.567-2.29-3.995-2.602-4.848-2.627-2.04-.215-4.018 1.223-5.057 1.223-1.06 0-2.66-1.202-4.384-1.167-2.219.034-4.295 1.322-5.433 3.32-2.35 4.077-.598 10.068 1.654 13.363 1.126 1.614 2.441 3.416 4.164 3.352 1.685-.07 2.314-1.076 4.347-1.076 2.015 0 2.606 1.076 4.362 1.036 1.809-.03 2.947-1.621 4.034-3.25 1.301-1.85 1.824-3.67 1.844-3.764-.042-.015-3.511-1.342-3.546-5.356zm-3.319-9.848c.907-1.137 1.527-2.682 1.355-4.25-1.312.058-2.953.91-3.897 2.02-.836.98-1.582 2.583-1.39 4.092 1.474.11 2.987-.745 3.932-1.863zm28.392 19.994h-2.355l-1.29-4.062h-4.483l-1.229 4.062h-2.292l4.442-13.828h2.743l4.464 13.828zm-4.033-5.766l-1.167-3.61c-.123-.37-.354-1.238-.696-2.606h-.041a104.09 104.09 0 01-.655 2.605l-1.146 3.611h3.705zm15.456.658c0 1.696-.457 3.036-1.371 4.02-.82.876-1.837 1.314-3.05 1.314-1.311 0-2.253-.472-2.826-1.416h-.042v5.253h-2.21V27.015c0-1.066-.028-2.16-.082-3.282h1.944l.123 1.58h.042c.737-1.19 1.856-1.785 3.357-1.785 1.174 0 2.154.465 2.938 1.395.785.93 1.177 2.155 1.177 3.673zm-2.252.08c0-.97-.218-1.77-.655-2.4-.478-.656-1.12-.985-1.924-.985-.546 0-1.041.183-1.484.544a2.522 2.522 0 00-.87 1.427 2.908 2.908 0 00-.103.675V29.6c0 .725.222 1.337.666 1.837.444.5 1.02.75 1.73.75.832 0 1.48-.323 1.944-.965.464-.644.696-1.491.696-2.545zm13.696-.08c0 1.696-.457 3.036-1.372 4.02-.819.876-1.836 1.314-3.05 1.314-1.31 0-2.252-.472-2.824-1.416h-.042v5.253h-2.21V27.015c0-1.066-.028-2.16-.082-3.282h1.944l.123 1.58h.042c.736-1.19 1.855-1.785 3.357-1.785 1.173 0 2.153.465 2.939 1.395.782.93 1.175 2.155 1.175 3.673zm-2.252.08c0-.97-.219-1.77-.656-2.4-.478-.656-1.118-.985-1.923-.985-.547 0-1.041.183-1.485.544a2.521 2.521 0 00-.87 1.427 2.963 2.963 0 00-.102.675V29.6c0 .725.222 1.337.664 1.837.444.499 1.02.75 1.731.75.833 0 1.481-.323 1.945-.965.464-.644.696-1.491.696-2.545zm15.047 1.15c0 1.177-.407 2.134-1.225 2.872-.9.808-2.15 1.211-3.759 1.211-1.485 0-2.675-.287-3.576-.861l.512-1.847a6.05 6.05 0 003.196.883c.832 0 1.48-.189 1.946-.565.463-.376.695-.881.695-1.51 0-.562-.191-1.035-.574-1.418-.38-.384-1.016-.74-1.903-1.07-2.416-.902-3.623-2.225-3.623-3.965 0-1.137.423-2.069 1.27-2.794.844-.726 1.97-1.089 3.378-1.089 1.256 0 2.299.22 3.131.657l-.552 1.806c-.778-.424-1.657-.636-2.641-.636-.778 0-1.386.192-1.821.574a1.644 1.644 0 00-.553 1.252c0 .547.21 1 .634 1.354.368.329 1.037.684 2.007 1.068 1.188.479 2.06 1.039 2.62 1.681.559.64.838 1.441.838 2.397zm7.309-4.431h-2.436v4.842c0 1.231.429 1.846 1.29 1.846.395 0 .722-.034.982-.103l.061 1.683c-.436.163-1.009.245-1.719.245-.873 0-1.556-.267-2.048-.8-.491-.534-.737-1.43-.737-2.688v-5.027h-1.452v-1.662h1.452v-1.826l2.171-.657v2.483h2.436v1.664zm10.994 3.242c0 1.532-.437 2.79-1.31 3.775-.916 1.013-2.131 1.518-3.646 1.518-1.46 0-2.622-.486-3.489-1.456s-1.3-2.196-1.3-3.672c0-1.546.446-2.811 1.34-3.795.893-.985 2.098-1.478 3.613-1.478 1.46 0 2.635.485 3.521 1.457.848.942 1.271 2.16 1.271 3.65zm-2.293.071c0-.92-.196-1.708-.593-2.366-.464-.796-1.126-1.193-1.985-1.193-.888 0-1.563.398-2.027 1.193-.397.659-.593 1.46-.593 2.408 0 .92.196 1.708.593 2.365.478.796 1.146 1.193 2.007 1.193.844 0 1.507-.406 1.985-1.214.407-.67.613-1.467.613-2.386zm9.479-3.027a3.835 3.835 0 00-.697-.061c-.778 0-1.379.294-1.802.883-.368.52-.553 1.176-.553 1.97v5.231h-2.209l.02-6.831c0-1.15-.028-2.196-.083-3.14h1.926l.081 1.909h.061c.233-.656.601-1.184 1.105-1.58a2.672 2.672 0 011.598-.534c.204 0 .389.015.553.04v2.113zm9.886 2.566c0 .397-.026.731-.081 1.005h-6.631c.026.985.346 1.738.962 2.258.559.464 1.281.697 2.169.697.982 0 1.878-.157 2.683-.472l.347 1.538c-.942.411-2.053.616-3.336.616-1.543 0-2.754-.455-3.635-1.364-.879-.91-1.32-2.13-1.32-3.662 0-1.504.409-2.756 1.23-3.754.858-1.067 2.018-1.6 3.478-1.6 1.434 0 2.52.534 3.257 1.6.584.846.877 1.894.877 3.138zm-2.108-.575c.015-.657-.129-1.224-.429-1.703-.383-.616-.97-.924-1.762-.924-.722 0-1.31.3-1.759.903-.368.48-.587 1.054-.654 1.723h4.604v.001z" fill="#fff"/><path d="M55.906 17.094c1.246 0 2.082-.621 2.34-1.735h-.71c-.204.688-.798 1.086-1.626 1.086-1.113 0-1.82-.883-1.82-2.265 0-1.371.715-2.262 1.816-2.262.805 0 1.45.484 1.63 1.223h.71c-.18-1.125-1.113-1.871-2.34-1.871-1.543 0-2.539 1.14-2.539 2.91 0 1.785.985 2.914 2.54 2.914zm4.352-2.047L62.004 17h.875l-1.945-2.14 1.89-1.922h-.84l-1.726 1.796h-.031v-1.796h-.68V17h.68v-1.953h.03zm4.761 2.023c.547 0 1.063-.304 1.305-.77h.016v.7h.644v-2.809c0-.808-.601-1.324-1.554-1.324-.961 0-1.563.54-1.61 1.242h.657c.085-.398.414-.644.937-.644.563 0 .89.297.89.793v.34l-1.163.066c-.938.055-1.473.492-1.473 1.188 0 .73.543 1.218 1.351 1.218zm.153-.578c-.488 0-.813-.254-.813-.64 0-.383.313-.625.86-.66l1.086-.067v.332c0 .586-.493 1.035-1.133 1.035zm6.347.508v-4.063h-.68v1.711c-.19.192-.546.32-1 .32-.562 0-.839-.34-.839-.87v-1.16h-.68v1.167c0 .868.512 1.457 1.496 1.457.43 0 .735-.093.965-.246h.059V17h.68zm2.649.07c.547 0 1.063-.304 1.305-.77h.015v.7h.645v-2.809c0-.808-.602-1.324-1.555-1.324-.96 0-1.562.54-1.61 1.242h.657c.086-.398.414-.644.938-.644.562 0 .89.297.89.793v.34l-1.164.066c-.937.055-1.473.492-1.473 1.188 0 .73.543 1.218 1.352 1.218zm.152-.578c-.488 0-.812-.254-.812-.64 0-.383.312-.625.86-.66l1.085-.067v.332c0 .586-.492 1.035-1.133 1.035zm6.145-3.555h-3.297v.56h1.309V17h.68v-3.504h1.308v-.559zM81.594 17h1.441c.93 0 1.528-.535 1.528-1.383s-.598-1.383-1.528-1.383h-.762v-1.296h-.68V17zm1.43-2.207c.523 0 .867.324.867.824 0 .496-.34.824-.868.824h-.75v-1.648h.75zM89.694 17c.864 0 1.395-.45 1.395-1.168 0-.496-.336-.86-.848-.93v-.03c.375-.079.668-.466.668-.884 0-.652-.465-1.05-1.226-1.05h-1.739V17h1.75zm-1.07-3.512h.957c.426 0 .656.203.656.57 0 .395-.246.587-.757.587h-.856v-1.157zm0 1.703h.91c.594 0 .88.204.88.625 0 .41-.267.633-.759.633h-1.031v-1.258z" fill="#fff"/></svg>