<svg width="158" height="50" fill="none" xmlns="http://www.w3.org/2000/svg"><path fill-rule="evenodd" clip-rule="evenodd" d="M152.379 50H5.535C2.484 50 0 47.34 0 44.084V5.907C0 2.65 2.484 0 5.535 0h146.844C155.429 0 158 2.65 158 5.907v38.177c0 3.256-2.571 5.916-5.621 5.916z" fill="#004177"/><path fill-rule="evenodd" clip-rule="evenodd" d="M39.55 23.558c-.03-3.35 2.736-4.979 2.862-5.054-1.566-2.29-3.995-2.602-4.848-2.627-2.04-.215-4.018 1.223-5.057 1.223-1.06 0-2.66-1.202-4.384-1.167-2.219.034-4.295 1.322-5.433 3.32-2.35 4.077-.597 10.068 1.654 13.363 1.126 1.614 2.441 3.416 4.164 3.352 1.685-.07 2.314-1.076 4.347-1.076 2.015 0 2.606 1.076 4.362 1.036 1.809-.03 2.947-1.621 4.034-3.25 1.301-1.85 1.824-3.67 1.845-3.764-.043-.015-3.512-1.342-3.547-5.356zm-3.319-9.848c.907-1.137 1.527-2.682 1.355-4.25-1.312.058-2.953.91-3.897 2.02-.836.98-1.582 2.583-1.39 4.092 1.474.11 2.987-.745 3.932-1.863zm28.392 19.994h-2.355l-1.29-4.062h-4.483l-1.229 4.062h-2.292l4.442-13.828h2.743l4.464 13.828zm-4.033-5.766l-1.167-3.61c-.123-.37-.354-1.238-.696-2.606h-.041a104.09 104.09 0 01-.655 2.605l-1.146 3.611h3.705zm15.456.658c0 1.696-.457 3.036-1.371 4.02-.82.876-1.837 1.314-3.05 1.314-1.311 0-2.253-.472-2.826-1.416h-.042v5.253h-2.21V27.015c0-1.066-.028-2.16-.082-3.282h1.944l.123 1.58h.042c.737-1.19 1.856-1.785 3.357-1.785 1.174 0 2.154.465 2.938 1.395.785.93 1.177 2.155 1.177 3.673zm-2.252.081c0-.97-.218-1.77-.655-2.4-.478-.657-1.12-.985-1.924-.985-.546 0-1.041.182-1.484.543a2.52 2.52 0 00-.87 1.427 2.908 2.908 0 00-.103.675V29.6c0 .725.222 1.337.666 1.837.444.5 1.02.75 1.73.75.832 0 1.48-.323 1.944-.965.464-.643.696-1.491.696-2.545zm13.696-.081c0 1.696-.457 3.036-1.372 4.02-.819.876-1.836 1.314-3.05 1.314-1.31 0-2.252-.472-2.824-1.416h-.042v5.253h-2.21V27.015c0-1.066-.029-2.16-.082-3.282h1.944l.123 1.58h.042c.736-1.19 1.855-1.785 3.357-1.785 1.173 0 2.153.465 2.938 1.395.783.93 1.176 2.155 1.176 3.673zm-2.252.081c0-.97-.219-1.77-.656-2.4-.478-.657-1.118-.985-1.923-.985-.547 0-1.041.182-1.485.543a2.52 2.52 0 00-.87 1.427 2.964 2.964 0 00-.102.675V29.6c0 .725.222 1.337.664 1.837.444.499 1.02.75 1.731.75.833 0 1.481-.323 1.945-.965.464-.643.696-1.491.696-2.545zm15.047 1.149c0 1.177-.407 2.134-1.225 2.873-.9.807-2.15 1.21-3.759 1.21-1.485 0-2.675-.287-3.576-.861l.512-1.847a6.05 6.05 0 003.196.883c.832 0 1.48-.189 1.946-.565.463-.376.695-.881.695-1.51 0-.562-.191-1.035-.574-1.418-.38-.384-1.016-.74-1.903-1.07-2.416-.902-3.623-2.225-3.623-3.965 0-1.137.423-2.069 1.27-2.794.844-.726 1.97-1.089 3.378-1.089 1.256 0 2.299.22 3.131.657l-.552 1.806c-.778-.424-1.657-.636-2.641-.636-.778 0-1.385.192-1.82.575a1.643 1.643 0 00-.553 1.252c0 .546.21.998.633 1.354.368.328 1.037.683 2.007 1.067 1.188.479 2.06 1.039 2.62 1.681.559.64.838 1.441.838 2.397zm7.309-4.431h-2.436v4.842c0 1.231.429 1.846 1.289 1.846.395 0 .723-.034.982-.103l.062 1.683c-.436.163-1.009.245-1.72.245-.873 0-1.555-.267-2.047-.8-.491-.534-.738-1.43-.738-2.688v-5.027h-1.451v-1.662h1.451v-1.826l2.172-.657v2.483h2.436v1.664zm10.994 3.242c0 1.532-.437 2.79-1.31 3.775-.916 1.013-2.131 1.518-3.646 1.518-1.46 0-2.622-.485-3.489-1.456-.867-.97-1.3-2.196-1.3-3.672 0-1.545.446-2.811 1.34-3.795.893-.985 2.098-1.478 3.613-1.478 1.46 0 2.634.486 3.521 1.457.848.943 1.271 2.16 1.271 3.65zm-2.293.071c0-.92-.196-1.708-.593-2.366-.464-.796-1.126-1.193-1.985-1.193-.889 0-1.564.398-2.027 1.193-.397.659-.593 1.46-.593 2.408 0 .92.196 1.708.593 2.365.478.796 1.146 1.193 2.007 1.193.844 0 1.507-.405 1.985-1.214.407-.67.613-1.467.613-2.386zm9.479-3.027a3.826 3.826 0 00-.697-.061c-.778 0-1.379.294-1.802.883-.368.52-.553 1.177-.553 1.97v5.231h-2.209l.02-6.83c0-1.15-.028-2.197-.083-3.14h1.926l.081 1.908h.061c.233-.656.601-1.184 1.105-1.58a2.672 2.672 0 011.598-.534c.204 0 .389.015.553.04v2.113zm9.886 2.566c0 .397-.026.731-.081 1.005h-6.631c.026.985.346 1.738.962 2.258.559.464 1.281.697 2.169.697.982 0 1.878-.157 2.683-.472l.347 1.538c-.942.412-2.053.616-3.336.616-1.543 0-2.754-.455-3.635-1.364-.879-.91-1.32-2.13-1.32-3.662 0-1.504.409-2.756 1.23-3.754.858-1.067 2.018-1.6 3.478-1.6 1.434 0 2.52.534 3.257 1.6.584.847.877 1.894.877 3.138zm-2.108-.575c.015-.657-.129-1.224-.429-1.703-.383-.616-.97-.924-1.762-.924-.722 0-1.31.3-1.759.903-.368.48-.587 1.054-.654 1.723h4.604v.001z" fill="#fff"/><path d="M53.547 9.363V15h1.894c1.676 0 2.66-1.043 2.66-2.82 0-1.774-.988-2.817-2.66-2.817h-1.894zm.703.633h1.145c1.28 0 1.988.781 1.988 2.191 0 1.399-.711 2.18-1.989 2.18H54.25v-4.37zm6.805 5.074c1.12 0 1.879-.808 1.879-2.101 0-1.297-.758-2.102-1.88-2.102-1.124 0-1.882.805-1.882 2.102 0 1.293.758 2.101 1.883 2.101zm0-.597c-.72 0-1.192-.547-1.192-1.504s.473-1.504 1.192-1.504c.718 0 1.187.547 1.187 1.504s-.469 1.504-1.187 1.504zm8.234-3.536h-.672l-.812 3.305h-.016l-.922-3.305h-.656l-.918 3.305h-.016l-.812-3.305h-.676L64.926 15h.691l.914-3.145h.016L67.465 15h.691l1.133-4.063zM70.348 15h.68v-2.39c0-.688.417-1.141 1.058-1.141.625 0 .933.36.933 1.015V15h.68v-2.637c0-.922-.515-1.496-1.406-1.496-.629 0-1.063.281-1.29.719h-.015v-.649h-.64V15zm4.754 0h.68V9.363h-.68V15zm3.78.07c1.122 0 1.88-.808 1.88-2.101 0-1.297-.758-2.102-1.88-2.102-1.124 0-1.882.805-1.882 2.102 0 1.293.758 2.101 1.883 2.101zm0-.597c-.718 0-1.19-.547-1.19-1.504s.472-1.504 1.19-1.504c.72 0 1.188.547 1.188 1.504s-.468 1.504-1.187 1.504zm4.255.597c.547 0 1.062-.304 1.304-.77h.016v.7h.645v-2.809c0-.808-.602-1.324-1.555-1.324-.961 0-1.563.54-1.61 1.242h.657c.086-.398.414-.644.937-.644.563 0 .89.297.89.793v.34l-1.163.066c-.938.055-1.473.492-1.473 1.188 0 .73.543 1.218 1.352 1.218zm.152-.578c-.488 0-.812-.254-.812-.64 0-.383.312-.625.859-.66l1.086-.067v.332c0 .586-.492 1.035-1.133 1.035zm4.715.578c.586 0 1.05-.289 1.312-.758h.012V15h.649V9.363h-.68v2.235h-.016c-.242-.446-.71-.73-1.293-.73-1.023 0-1.722.827-1.722 2.1 0 1.274.703 2.102 1.738 2.102zm.129-3.605c.699 0 1.168.598 1.168 1.504 0 .91-.469 1.504-1.168 1.504-.719 0-1.172-.582-1.172-1.504 0-.918.453-1.504 1.172-1.504zm7.086 3.605c1.12 0 1.879-.808 1.879-2.101 0-1.297-.758-2.102-1.88-2.102-1.124 0-1.882.805-1.882 2.102 0 1.293.758 2.101 1.883 2.101zm0-.597c-.719 0-1.192-.547-1.192-1.504s.473-1.504 1.192-1.504 1.187.547 1.187 1.504-.469 1.504-1.187 1.504zm3.066.527h.68v-2.39c0-.688.418-1.141 1.058-1.141.625 0 .934.36.934 1.015V15h.68v-2.637c0-.922-.516-1.496-1.407-1.496-.628 0-1.062.281-1.289.719h-.015v-.649h-.64V15zm7.078-5.043v.98h-.605v.56h.605v2.448c0 .782.289 1.086 1.035 1.086.161 0 .348-.011.43-.031v-.57c-.047.008-.203.02-.281.02-.348 0-.504-.169-.504-.54v-2.414h.789v-.559h-.789v-.98h-.68zM108.094 15h.679v-2.367c0-.703.418-1.164 1.094-1.164.637 0 .961.386.961 1.031V15h.68v-2.625c0-.906-.539-1.508-1.43-1.508-.617 0-1.062.266-1.289.719h-.016V9.363h-.679V15zm7.472-1.164c-.113.383-.492.644-1.007.644-.731 0-1.188-.511-1.188-1.289v-.039h2.914v-.257c0-1.23-.676-2.028-1.773-2.028-1.121 0-1.84.856-1.84 2.117 0 1.278.707 2.086 1.871 2.086.887 0 1.574-.523 1.691-1.234h-.668zm-1.066-2.379c.641 0 1.066.484 1.082 1.164h-2.207c.043-.676.488-1.164 1.125-1.164z" fill="#fff"/></svg>