<svg width="158" height="50" fill="none" xmlns="http://www.w3.org/2000/svg"><path fill-rule="evenodd" clip-rule="evenodd" d="M152.148 50H5.852C2.575 50 0 47.25 0 43.75V6.25C0 2.75 2.575 0 5.852 0h146.296C155.425 0 158 2.75 158 6.25v37.5c0 3.5-2.575 6.25-5.852 6.25z" fill="#004177"/><path d="M52.906 16.094c-.778 0-1.397-.262-1.855-.785-.456-.526-.684-1.236-.684-2.13 0-.885.23-1.59.692-2.117.46-.528 1.076-.792 1.847-.792.6 0 1.11.164 1.532.492.424.325.688.759.792 1.3h-.718a1.502 1.502 0 00-.59-.832 1.702 1.702 0 00-1.016-.312c-.55 0-.99.206-1.32.617-.33.412-.496.96-.496 1.645 0 .692.164 1.243.492 1.652.328.409.77.613 1.328.613.399 0 .737-.088 1.016-.265a1.41 1.41 0 00.586-.75h.718c-.138.536-.407.948-.808 1.234-.401.287-.906.43-1.516.43zm5.004-2.235L59.863 16h-.875l-1.754-1.953h-.03V16h-.673v-4.063h.672v1.797h.031l1.735-1.796h.84l-1.899 1.921zm4.246 1.633c.32 0 .589-.099.805-.297a.963.963 0 00.328-.738v-.332l-1.086.066c-.273.019-.486.085-.637.2a.553.553 0 00-.222.46c0 .193.074.348.222.465.149.118.345.176.59.176zm-.152.578c-.404 0-.73-.112-.98-.336-.248-.224-.372-.518-.372-.882 0-.35.128-.628.383-.836.258-.209.621-.326 1.09-.352l1.164-.066v-.34c0-.248-.078-.442-.234-.582-.157-.14-.375-.211-.657-.211-.257 0-.467.057-.629.172a.746.746 0 00-.308.472h-.656c.023-.362.18-.659.468-.89.292-.235.672-.352 1.141-.352.477 0 .854.12 1.133.36.281.24.422.56.422.964V16h-.645v-.7h-.015a1.405 1.405 0 01-.54.56c-.236.14-.492.21-.765.21zm6.5-.07h-.672v-1.754h-.059c-.244.211-.572.316-.984.316-.477 0-.844-.131-1.102-.394-.255-.263-.382-.617-.382-1.063v-1.168h.672v1.16c0 .271.071.485.214.641.144.154.35.23.618.23.445 0 .786-.132 1.023-.398v-1.633h.672V16zm2.8-.508c.321 0 .59-.099.805-.297a.963.963 0 00.329-.738v-.332l-1.086.066c-.274.019-.486.085-.637.2a.553.553 0 00-.223.46c0 .193.074.348.223.465.148.118.345.176.59.176zm-.152.578c-.403 0-.73-.112-.98-.336-.248-.224-.371-.518-.371-.882 0-.35.127-.628.383-.836.257-.209.62-.326 1.09-.352l1.163-.066v-.34c0-.248-.078-.442-.234-.582-.156-.14-.375-.211-.656-.211-.258 0-.468.057-.629.172a.745.745 0 00-.309.472h-.656c.024-.362.18-.659.469-.89.291-.235.672-.352 1.14-.352.477 0 .855.12 1.133.36.282.24.422.56.422.964V16h-.644v-.7h-.016a1.405 1.405 0 01-.539.56 1.48 1.48 0 01-.766.21zm6.297-4.133v.56h-1.312V16h-.672v-3.504h-1.313v-.559h3.297zm2.559 1.856h-.758v1.648h.758c.263 0 .473-.075.629-.226a.786.786 0 00.238-.598c0-.25-.08-.449-.238-.598-.156-.15-.366-.226-.63-.226zM78.578 16v-4.063h.672v1.297h.77c.466 0 .837.125 1.113.375s.414.586.414 1.008c0 .422-.138.758-.414 1.008-.276.25-.647.375-1.114.375h-1.44zm7.996-3.512h-.972v1.137h.87c.506 0 .759-.193.759-.578 0-.18-.056-.318-.168-.414-.112-.096-.275-.145-.489-.145zm-.047 1.684h-.925v1.277h1.046c.245 0 .433-.053.563-.16.13-.11.195-.267.195-.473 0-.43-.293-.644-.879-.644zM84.93 16v-4.063h1.738c.38 0 .68.093.898.278.22.185.328.439.328.762a.901.901 0 01-.195.562.782.782 0 01-.472.313v.03c.255.037.46.141.613.313a.911.911 0 01.234.637c0 .36-.125.645-.375.855-.247.209-.587.313-1.02.313h-1.75z" fill="#fff"/><path fill-rule="evenodd" clip-rule="evenodd" d="M77.36 24.8c-2.4 0-4.3 1.8-4.3 4.3 0 2.4 1.9 4.3 4.3 4.3s4.3-1.8 4.3-4.3c0-2.6-1.9-4.3-4.3-4.3zm0 6.8c-1.3 0-2.4-1.1-2.4-2.6s1.1-2.6 2.4-2.6c1.3 0 2.4 1 2.4 2.6 0 1.5-1.1 2.6-2.4 2.6zm-9.3-6.8c-2.4 0-4.3 1.8-4.3 4.3 0 2.4 1.9 4.3 4.3 4.3s4.3-1.8 4.3-4.3c0-2.6-1.9-4.3-4.3-4.3zm0 6.8c-1.3 0-2.4-1.1-2.4-2.6s1.1-2.6 2.4-2.6c1.3 0 2.4 1 2.4 2.6 0 1.5-1.1 2.6-2.4 2.6zm-11.1-5.5v1.8h4.3c-.1 1-.5 1.8-1 2.3-.6.6-1.6 1.3-3.3 1.3-2.7 0-4.7-2.1-4.7-4.8 0-2.7 2.1-4.8 4.7-4.8 1.4 0 2.5.6 3.3 1.3l1.3-1.3c-1.1-1-2.5-1.8-4.5-1.8-3.6 0-6.7 3-6.7 6.6 0 3.6 3.1 6.6 6.7 6.6 2 0 3.4-.6 4.6-1.9 1.2-1.2 1.6-2.9 1.6-4.2 0-.4 0-.8-.1-1.1h-6.2zm45.4 1.4c-.4-1-1.4-2.7-3.6-2.7s-4 1.7-4 4.3c0 2.4 1.8 4.3 4.2 4.3 1.9 0 3.1-1.2 3.5-1.9l-1.4-1c-.5.7-1.1 1.2-2.1 1.2s-1.6-.4-2.1-1.3l5.7-2.4-.2-.5zm-5.8 1.4c0-1.6 1.3-2.5 2.2-2.5.7 0 1.4.4 1.6.9l-3.8 1.6zm-4.7 4.1h1.9V20.5h-1.9V33zm-3-7.3c-.5-.5-1.3-1-2.3-1-2.1 0-4.1 1.9-4.1 4.3s1.9 4.2 4.1 4.2c1 0 1.8-.5 2.2-1h.1v.6c0 1.6-.9 2.5-2.3 2.5-1.1 0-1.9-.8-2.1-1.5l-1.6.7c.5 1.1 1.7 2.5 3.8 2.5 2.2 0 4-1.3 4-4.4V25h-1.8v.7zm-2.2 5.9c-1.3 0-2.4-1.1-2.4-2.6s1.1-2.6 2.4-2.6c1.3 0 2.3 1.1 2.3 2.6s-1 2.6-2.3 2.6zm24.4-11.1h-4.5V33h1.9v-4.7h2.6c2.1 0 4.1-1.5 4.1-3.9s-2-3.9-4.1-3.9zm.1 6h-2.7v-4.3h2.7c1.4 0 2.2 1.2 2.2 2.1-.1 1.1-.9 2.2-2.2 2.2zm11.5-1.8c-1.4 0-2.8.6-3.3 1.9l1.7.7c.4-.7 1-.9 1.7-.9 1 0 1.9.6 2 1.6v.1c-.3-.2-1.1-.5-1.9-.5-1.8 0-3.6 1-3.6 2.8 0 1.7 1.5 2.8 3.1 2.8 1.3 0 1.9-.6 2.4-1.2h.1v1h1.8v-4.8c-.2-2.2-1.9-3.5-4-3.5zm-.2 6.9c-.6 0-1.5-.3-1.5-1.1 0-1 1.1-1.3 2-1.3.8 0 1.2.2 1.7.4-.2 1.2-1.2 2-2.2 2zm10.5-6.6l-2.1 5.4h-.1l-2.2-5.4h-2l3.3 7.6-1.9 4.2h1.9l5.1-11.8h-2zm-16.8 8h1.9V20.5h-1.9V33zM19.4 11c-.3.3-.4.8-.4 1.4v22.1c0 .6.2 1.1.5 1.4l.1.1L32 23.6v-.2L19.4 11zm17.7 16.5L33 23.4v-.3l4.1-4.1.1.1 4.9 2.8c1.4.8 1.4 2.1 0 2.9l-5 2.7zm-.4.7L32.5 24 20 36.5c.5.5 1.2.5 2.1.1l14.6-8.4zm0-9.571l-14.6-8.3c-.9-.5-1.6-.4-2.1.1l12.5 12.4 4.2-4.2z" fill="#fff"/><path fill-rule="evenodd" clip-rule="evenodd" d="M19.66 35.3c-.3-.3-.4-.8-.4-1.4v.1c0 .6.2 1.1.5 1.4v-.1h-.1z" fill="#000"/></svg>