<svg width="158" height="50" fill="none" xmlns="http://www.w3.org/2000/svg"><path fill-rule="evenodd" clip-rule="evenodd" d="M152.148 50H5.852C2.575 50 0 47.25 0 43.75V6.25C0 2.75 2.575 0 5.852 0h146.296C155.425 0 158 2.75 158 6.25v37.5c0 3.5-2.575 6.25-5.852 6.25z" fill="#004177"/><path d="M55.3 13.668v-.535h-2.292v.617h1.59v.102c0 .945-.688 1.593-1.688 1.593-1.148 0-1.86-.879-1.86-2.297 0-1.394.7-2.23 1.86-2.23.793 0 1.383.434 1.617 1.195h.739c-.211-1.12-1.137-1.843-2.356-1.843-1.578 0-2.582 1.12-2.582 2.882 0 1.793 1.008 2.942 2.582 2.942 1.504 0 2.39-.903 2.39-2.426zm4.895 1.7h-2.789V13.43h2.645v-.625h-2.645v-1.809h2.79v-.633h-3.493V16h3.492v-.633zm3.559.632v-5.004h1.777v-.633h-4.258v.633h1.778V16h.703zm5.863 0v-5.637h-.703V16h.703zm3.723 0v-5.004h1.777v-.633H70.86v.633h1.778V16h.703zm7.539-5.73c-1.598 0-2.598 1.125-2.598 2.914 0 1.789 1 2.91 2.598 2.91 1.598 0 2.598-1.121 2.598-2.91 0-1.79-1-2.914-2.598-2.914zm0 .648c1.152 0 1.875.875 1.875 2.266 0 1.386-.723 2.261-1.875 2.261-1.152 0-1.875-.875-1.875-2.261 0-1.391.723-2.266 1.875-2.266zM85.547 16v-4.41h.035L88.668 16h.684v-5.637h-.696v4.426h-.035l-3.086-4.426h-.683V16h.695z" fill="#fff"/><path fill-rule="evenodd" clip-rule="evenodd" d="M77.36 24.8c-2.4 0-4.3 1.8-4.3 4.3 0 2.4 1.9 4.3 4.3 4.3s4.3-1.8 4.3-4.3c0-2.6-1.9-4.3-4.3-4.3zm0 6.8c-1.3 0-2.4-1.1-2.4-2.6s1.1-2.6 2.4-2.6c1.3 0 2.4 1 2.4 2.6 0 1.5-1.1 2.6-2.4 2.6zm-9.3-6.8c-2.4 0-4.3 1.8-4.3 4.3 0 2.4 1.9 4.3 4.3 4.3s4.3-1.8 4.3-4.3c0-2.6-1.9-4.3-4.3-4.3zm0 6.8c-1.3 0-2.4-1.1-2.4-2.6s1.1-2.6 2.4-2.6c1.3 0 2.4 1 2.4 2.6 0 1.5-1.1 2.6-2.4 2.6zm-11.1-5.5v1.8h4.3c-.1 1-.5 1.8-1 2.3-.6.6-1.6 1.3-3.3 1.3-2.7 0-4.7-2.1-4.7-4.8 0-2.7 2.1-4.8 4.7-4.8 1.4 0 2.5.6 3.3 1.3l1.3-1.3c-1.1-1-2.5-1.8-4.5-1.8-3.6 0-6.7 3-6.7 6.6 0 3.6 3.1 6.6 6.7 6.6 2 0 3.4-.6 4.6-1.9 1.2-1.2 1.6-2.9 1.6-4.2 0-.4 0-.8-.1-1.1h-6.2zm45.4 1.4c-.4-1-1.4-2.7-3.6-2.7s-4 1.7-4 4.3c0 2.4 1.8 4.3 4.2 4.3 1.9 0 3.1-1.2 3.5-1.9l-1.4-1c-.5.7-1.1 1.2-2.1 1.2s-1.6-.4-2.1-1.3l5.7-2.4-.2-.5zm-5.8 1.4c0-1.6 1.3-2.5 2.2-2.5.7 0 1.4.4 1.6.9l-3.8 1.6zm-4.7 4.1h1.9V20.5h-1.9V33zm-3-7.3c-.5-.5-1.3-1-2.3-1-2.1 0-4.1 1.9-4.1 4.3s1.9 4.2 4.1 4.2c1 0 1.8-.5 2.2-1h.1v.6c0 1.6-.9 2.5-2.3 2.5-1.1 0-1.9-.8-2.1-1.5l-1.6.7c.5 1.1 1.7 2.5 3.8 2.5 2.2 0 4-1.3 4-4.4V25h-1.8v.7zm-2.2 5.9c-1.3 0-2.4-1.1-2.4-2.6s1.1-2.6 2.4-2.6c1.3 0 2.3 1.1 2.3 2.6s-1 2.6-2.3 2.6zm24.4-11.1h-4.5V33h1.9v-4.7h2.6c2.1 0 4.1-1.5 4.1-3.9s-2-3.9-4.1-3.9zm.1 6h-2.7v-4.3h2.7c1.4 0 2.2 1.2 2.2 2.1-.1 1.1-.9 2.2-2.2 2.2zm11.5-1.8c-1.4 0-2.8.6-3.3 1.9l1.7.7c.4-.7 1-.9 1.7-.9 1 0 1.9.6 2 1.6v.1c-.3-.2-1.1-.5-1.9-.5-1.8 0-3.6 1-3.6 2.8 0 1.7 1.5 2.8 3.1 2.8 1.3 0 1.9-.6 2.4-1.2h.1v1h1.8v-4.8c-.2-2.2-1.9-3.5-4-3.5zm-.2 6.9c-.6 0-1.5-.3-1.5-1.1 0-1 1.1-1.3 2-1.3.8 0 1.2.2 1.7.4-.2 1.2-1.2 2-2.2 2zm10.5-6.6l-2.1 5.4h-.1l-2.2-5.4h-2l3.3 7.6-1.9 4.2h1.9l5.1-11.8h-2zm-16.8 8h1.9V20.5h-1.9V33zM19.4 11c-.3.3-.4.8-.4 1.4v22.1c0 .6.2 1.1.5 1.4l.1.1L32 23.6v-.2L19.4 11zm17.7 16.5L33 23.4v-.3l4.1-4.1.1.1 4.9 2.8c1.4.8 1.4 2.1 0 2.9l-5 2.7zm-.4.7L32.5 24 20 36.5c.5.5 1.2.5 2.1.1l14.6-8.4zm0-9.571l-14.6-8.3c-.9-.5-1.6-.4-2.1.1l12.5 12.4 4.2-4.2z" fill="#fff"/><path fill-rule="evenodd" clip-rule="evenodd" d="M19.66 35.3c-.3-.3-.4-.8-.4-1.4v.1c0 .6.2 1.1.5 1.4v-.1h-.1z" fill="#000"/></svg>