<svg width="17" height="13" viewBox="0 0 17 13" fill="none" xmlns="http://www.w3.org/2000/svg">
<path d="M14.9319 0.000643766C14.5587 0.0130791 14.205 0.170631 13.9461 0.439787C11.1687 3.22321 8.63531 5.96114 5.95224 8.69355L2.66328 6.06775C2.51617 5.95007 2.34732 5.86252 2.16637 5.81009C1.98542 5.75765 1.79592 5.74137 1.60868 5.76218C1.42144 5.78298 1.24013 5.84046 1.0751 5.93133C0.910079 6.02221 0.764568 6.14469 0.646881 6.2918C0.529193 6.43891 0.441634 6.60775 0.389201 6.7887C0.336769 6.96965 0.320489 7.15916 0.341294 7.3464C0.38331 7.72454 0.573824 8.07051 0.870925 8.30819L5.17257 11.7495C5.44828 11.9695 5.79539 12.0801 6.14753 12.0603C6.49968 12.0404 6.83216 11.8915 7.08142 11.642C10.1699 8.5469 12.942 5.50114 15.9715 2.46514C16.1795 2.26405 16.3219 2.00472 16.3799 1.72121C16.4378 1.43771 16.4086 1.14331 16.2962 0.876691C16.1837 0.610076 15.9932 0.383718 15.7497 0.227366C15.5062 0.0710132 15.2212 -0.00802429 14.9319 0.000643766Z" fill="#004A87"/>
</svg>
