<svg width="12" height="12" viewBox="0 0 12 12" fill="none" xmlns="http://www.w3.org/2000/svg">
<circle cx="6" cy="6" r="6" fill="white"/>
<path fill-rule="evenodd" clip-rule="evenodd" d="M10.245 10.245C11.3309 9.15905 12 7.65631 12 6C12 4.34369 11.3309 2.84095 10.245 1.75503C9.15905 0.669104 7.65631 0 6 0C4.34369 0 2.84095 0.669104 1.75503 1.75503C0.669104 2.84095 0 4.34369 0 6C0 7.65631 0.669104 9.15905 1.75503 10.245C2.84095 11.3309 4.34369 12 6 12C7.65631 12 9.15905 11.3309 10.245 10.245ZM6.8117 8.31444C6.8117 7.86472 6.44973 7.50274 6 7.50274C5.55027 7.50274 5.17733 7.86472 5.17733 8.31444C5.17733 8.76417 5.55027 9.13711 6 9.13711C6.44973 9.13711 6.8117 8.76417 6.8117 8.31444ZM6 6.68007C5.70384 6.68007 5.48446 6.43876 5.45155 6.13163L5.17733 3.68556C5.13346 3.25777 5.58318 2.86289 6 2.86289C6.41682 2.86289 6.86654 3.25777 6.8117 3.68556L6.54845 6.13163C6.51554 6.43876 6.29616 6.68007 6 6.68007Z" fill="#004A87"/>
</svg>
