<svg width="119" height="36" viewBox="0 0 119 36" fill="none" xmlns="http://www.w3.org/2000/svg">
<path fill-rule="evenodd" clip-rule="evenodd" d="M114.625 35.6789H5.29131C2.84224 35.6789 0.917969 33.7166 0.917969 31.2191V4.45987C0.917969 1.96234 2.84224 0 5.29131 0H114.625C117.074 0 118.998 1.96234 118.998 4.45987V31.2191C118.998 33.7166 117.074 35.6789 114.625 35.6789Z" fill="black"/>
<path d="M40.4155 11H38.8125V6.1H40.4155C41.2088 6.1 41.8481 6.32633 42.3335 6.779C42.8235 7.23633 43.0685 7.82667 43.0685 8.55C43.0685 9.278 42.8235 9.86833 42.3335 10.321C41.8481 10.7737 41.2088 11 40.4155 11ZM39.3305 6.569V10.531H40.3525C41.0245 10.531 41.5588 10.3513 41.9555 9.992C42.3475 9.63733 42.5435 9.15667 42.5435 8.55C42.5435 7.94333 42.3475 7.46267 41.9555 7.108C41.5588 6.74867 41.0245 6.569 40.3525 6.569H39.3305ZM44.6737 8.06C45.0144 7.71 45.453 7.535 45.9897 7.535C46.5264 7.535 46.965 7.71 47.3057 8.06C47.6464 8.40067 47.8167 8.81833 47.8167 9.313C47.8167 9.80767 47.6464 10.2253 47.3057 10.566C46.9604 10.9113 46.5217 11.084 45.9897 11.084C45.4577 11.084 45.019 10.9113 44.6737 10.566C44.333 10.2253 44.1627 9.80767 44.1627 9.313C44.1627 8.81833 44.333 8.40067 44.6737 8.06ZM47.2987 9.313C47.2987 8.93967 47.175 8.62467 46.9277 8.368C46.6804 8.116 46.3677 7.99 45.9897 7.99C45.6117 7.99 45.299 8.116 45.0517 8.368C44.8044 8.62467 44.6807 8.93967 44.6807 9.313C44.6807 9.68167 44.8044 9.99433 45.0517 10.251C45.299 10.503 45.6117 10.629 45.9897 10.629C46.3677 10.629 46.6804 10.503 46.9277 10.251C47.175 9.99433 47.2987 9.68167 47.2987 9.313ZM50.255 11.021H49.814L48.603 7.619H49.121L50.066 10.251L50.99 7.605H51.417L52.348 10.251L53.286 7.619H53.797L52.586 11.021H52.145L51.193 8.368L50.255 11.021ZM55.4164 8.718V11H54.9124V7.619H55.4164V8.137C55.7757 7.73567 56.226 7.535 56.7674 7.535C57.1827 7.535 57.5 7.65867 57.7194 7.906C57.9434 8.14867 58.0554 8.494 58.0554 8.942V11H57.5514V9.054C57.5514 8.35867 57.2317 8.011 56.5924 8.011C56.359 8.011 56.1327 8.08333 55.9134 8.228C55.6894 8.37267 55.5237 8.536 55.4164 8.718ZM60.2068 11.084C59.9735 11.084 59.7845 11.0163 59.6398 10.881C59.4998 10.7457 59.4298 10.5357 59.4298 10.251V6.1H59.9338V10.132C59.9338 10.4633 60.0808 10.629 60.3748 10.629C60.4915 10.629 60.6012 10.5987 60.7038 10.538V10.986C60.5825 11.0513 60.4168 11.084 60.2068 11.084ZM61.9848 8.06C62.3254 7.71 62.7641 7.535 63.3008 7.535C63.8374 7.535 64.2761 7.71 64.6168 8.06C64.9574 8.40067 65.1278 8.81833 65.1278 9.313C65.1278 9.80767 64.9574 10.2253 64.6168 10.566C64.2714 10.9113 63.8328 11.084 63.3008 11.084C62.7688 11.084 62.3301 10.9113 61.9848 10.566C61.6441 10.2253 61.4738 9.80767 61.4738 9.313C61.4738 8.81833 61.6441 8.40067 61.9848 8.06ZM64.6098 9.313C64.6098 8.93967 64.4861 8.62467 64.2388 8.368C63.9914 8.116 63.6788 7.99 63.3008 7.99C62.9228 7.99 62.6101 8.116 62.3628 8.368C62.1154 8.62467 61.9918 8.93967 61.9918 9.313C61.9918 9.68167 62.1154 9.99433 62.3628 10.251C62.6101 10.503 62.9228 10.629 63.3008 10.629C63.6788 10.629 63.9914 10.503 64.2388 10.251C64.4861 9.99433 64.6098 9.68167 64.6098 9.313ZM67.4524 10.629C67.6858 10.629 67.9074 10.5753 68.1174 10.468C68.3274 10.3607 68.4978 10.2253 68.6284 10.062V9.593C68.2831 9.369 67.9168 9.257 67.5294 9.257C67.2214 9.257 66.9764 9.31767 66.7944 9.439C66.6171 9.56033 66.5284 9.726 66.5284 9.936C66.5284 10.1553 66.6148 10.3257 66.7874 10.447C66.9601 10.5683 67.1818 10.629 67.4524 10.629ZM67.3124 11.084C66.9531 11.084 66.6474 10.986 66.3954 10.79C66.1481 10.5847 66.0244 10.3093 66.0244 9.964C66.0244 9.62333 66.1551 9.35033 66.4164 9.145C66.6778 8.94433 67.0091 8.844 67.4104 8.844C67.8491 8.844 68.2551 8.95367 68.6284 9.173V8.837C68.6284 8.27233 68.2574 7.99 67.5154 7.99C67.1188 7.99 66.7501 8.10433 66.4094 8.333V7.843C66.7408 7.63767 67.1444 7.535 67.6204 7.535C68.0824 7.535 68.4488 7.64467 68.7194 7.864C68.9948 8.07867 69.1324 8.38667 69.1324 8.788V10.181C69.1324 10.3117 69.1604 10.4143 69.2164 10.489C69.2771 10.5637 69.3564 10.601 69.4544 10.601C69.5291 10.601 69.5944 10.587 69.6504 10.559V10.951C69.5758 11.0023 69.4638 11.028 69.3144 11.028C69.1464 11.028 69.0041 10.9837 68.8874 10.895C68.7754 10.8017 68.7054 10.6663 68.6774 10.489C68.3368 10.8857 67.8818 11.084 67.3124 11.084ZM73.4777 8.158V6.1H73.9817V11H73.4777V10.461C73.1603 10.8763 72.724 11.084 72.1687 11.084C71.6693 11.084 71.261 10.9113 70.9437 10.566C70.6263 10.2207 70.4677 9.803 70.4677 9.313C70.4677 8.81833 70.6263 8.39833 70.9437 8.053C71.261 7.70767 71.6693 7.535 72.1687 7.535C72.724 7.535 73.1603 7.74267 73.4777 8.158ZM73.4777 9.866V8.753C73.3797 8.529 73.221 8.347 73.0017 8.207C72.7823 8.06233 72.5443 7.99 72.2877 7.99C71.9097 7.99 71.5993 8.11833 71.3567 8.375C71.1093 8.63167 70.9857 8.94433 70.9857 9.313C70.9857 9.68167 71.1093 9.99433 71.3567 10.251C71.604 10.503 71.9143 10.629 72.2877 10.629C72.5397 10.629 72.7753 10.559 72.9947 10.419C73.214 10.2743 73.375 10.09 73.4777 9.866ZM77.7714 8.06C78.1121 7.71 78.5507 7.535 79.0874 7.535C79.6241 7.535 80.0627 7.71 80.4034 8.06C80.7441 8.40067 80.9144 8.81833 80.9144 9.313C80.9144 9.80767 80.7441 10.2253 80.4034 10.566C80.0581 10.9113 79.6194 11.084 79.0874 11.084C78.5554 11.084 78.1167 10.9113 77.7714 10.566C77.4307 10.2253 77.2604 9.80767 77.2604 9.313C77.2604 8.81833 77.4307 8.40067 77.7714 8.06ZM80.3964 9.313C80.3964 8.93967 80.2727 8.62467 80.0254 8.368C79.7781 8.116 79.4654 7.99 79.0874 7.99C78.7094 7.99 78.3967 8.116 78.1494 8.368C77.9021 8.62467 77.7784 8.93967 77.7784 9.313C77.7784 9.68167 77.9021 9.99433 78.1494 10.251C78.3967 10.503 78.7094 10.629 79.0874 10.629C79.4654 10.629 79.7781 10.503 80.0254 10.251C80.2727 9.99433 80.3964 9.68167 80.3964 9.313ZM82.6021 8.718V11H82.0981V7.619H82.6021V8.137C82.9614 7.73567 83.4117 7.535 83.9531 7.535C84.3684 7.535 84.6857 7.65867 84.9051 7.906C85.1291 8.14867 85.2411 8.494 85.2411 8.942V11H84.7371V9.054C84.7371 8.35867 84.4174 8.011 83.7781 8.011C83.5447 8.011 83.3184 8.08333 83.0991 8.228C82.8751 8.37267 82.7094 8.536 82.6021 8.718ZM90.0502 11.084C89.7376 11.084 89.4996 10.993 89.3362 10.811C89.1776 10.6243 89.0982 10.3677 89.0982 10.041V8.06H88.3002V7.619H89.0982V6.576H89.6022V7.619H90.7852V8.06H89.6022V9.887C89.6022 10.1577 89.6466 10.3443 89.7352 10.447C89.8286 10.5543 89.9802 10.608 90.1902 10.608C90.3956 10.608 90.5799 10.5613 90.7432 10.468V10.93C90.5986 11.0327 90.3676 11.084 90.0502 11.084ZM92.463 8.718V11H91.959V6.1H92.463V8.137C92.8224 7.73567 93.2727 7.535 93.814 7.535C94.2294 7.535 94.5467 7.65867 94.766 7.906C94.99 8.14867 95.102 8.494 95.102 8.942V11H94.598V9.054C94.598 8.35867 94.2784 8.011 93.639 8.011C93.4057 8.011 93.1794 8.08333 92.96 8.228C92.736 8.37267 92.5704 8.536 92.463 8.718ZM98.0935 11.084C97.5662 11.084 97.1228 10.9183 96.7635 10.587C96.4088 10.2603 96.2315 9.83567 96.2315 9.313C96.2315 8.809 96.3902 8.38667 96.7075 8.046C97.0295 7.70533 97.4425 7.535 97.9465 7.535C98.2172 7.535 98.4575 7.591 98.6675 7.703C98.8775 7.81033 99.0432 7.95267 99.1645 8.13C99.2858 8.30733 99.3768 8.49633 99.4375 8.697C99.4982 8.893 99.5285 9.09133 99.5285 9.292V9.432H96.7495C96.7775 9.796 96.9222 10.0877 97.1835 10.307C97.4495 10.5217 97.7855 10.629 98.1915 10.629C98.5835 10.629 98.9452 10.524 99.2765 10.314V10.762C99.0012 10.9767 98.6068 11.084 98.0935 11.084ZM96.7565 9.019H99.0175C99.0035 8.75767 98.9055 8.522 98.7235 8.312C98.5508 8.09733 98.2848 7.99 97.9255 7.99C97.5895 7.99 97.3142 8.09267 97.0995 8.298C96.8895 8.508 96.7752 8.74833 96.7565 9.019Z" fill="white"/>
<path fill-rule="evenodd" clip-rule="evenodd" d="M60.6919 18.519C58.6531 18.519 57.0391 20.0481 57.0391 22.1719C57.0391 24.2107 58.6531 25.8247 60.6919 25.8247C62.7307 25.8247 64.3447 24.2956 64.3447 22.1719C64.3447 19.9632 62.7307 18.519 60.6919 18.519ZM60.6903 24.2957C59.586 24.2957 58.6515 23.3613 58.6515 22.087C58.6515 20.8128 59.586 19.8783 60.6903 19.8783C61.7947 19.8783 62.7291 20.7278 62.7291 22.087C62.7291 23.3613 61.7947 24.2957 60.6903 24.2957ZM52.7892 18.5192C50.7504 18.5192 49.1364 20.0483 49.1364 22.172C49.1364 24.2108 50.7504 25.8249 52.7892 25.8249C54.828 25.8249 56.4421 24.2958 56.4421 22.172C56.4421 19.9633 54.828 18.5192 52.7892 18.5192ZM52.7896 24.2957C51.6853 24.2957 50.7508 23.3613 50.7508 22.087C50.7508 20.8128 51.6853 19.8783 52.7896 19.8783C53.894 19.8783 54.8284 20.7278 54.8284 22.087C54.8284 23.3613 53.894 24.2957 52.7896 24.2957ZM43.3606 19.6234V21.1525H47.0134C46.9285 22.002 46.5887 22.6816 46.1639 23.1063C45.6542 23.616 44.8047 24.2106 43.3606 24.2106C41.067 24.2106 39.368 22.4267 39.368 20.1331C39.368 17.8394 41.1519 16.0555 43.3606 16.0555C44.5499 16.0555 45.4843 16.5652 46.1639 17.1598L47.2683 16.0555C46.3338 15.206 45.1445 14.5264 43.4455 14.5264C40.3874 14.5264 37.7539 17.0749 37.7539 20.1331C37.7539 23.1912 40.3874 25.7397 43.4455 25.7397C45.1445 25.7397 46.3338 25.23 47.3532 24.1257C48.3726 23.1063 48.7124 21.6622 48.7124 20.5578C48.7124 20.218 48.7124 19.8782 48.6275 19.6234H43.3606ZM81.9288 20.8127C81.589 19.9632 80.7395 18.519 78.8707 18.519C77.0018 18.519 75.4727 19.9632 75.4727 22.1719C75.4727 24.2107 77.0018 25.8247 79.0406 25.8247C80.6546 25.8247 81.674 24.8053 82.0138 24.2107L80.8245 23.3612C80.3997 23.9558 79.89 24.3806 79.0406 24.3806C78.1911 24.3806 77.6814 24.0408 77.2566 23.2762L82.0987 21.2374L81.9288 20.8127ZM77.0003 22.0021C77.0003 20.6429 78.1047 19.8783 78.8692 19.8783C79.4639 19.8783 80.0585 20.2181 80.2284 20.6429L77.0003 22.0021ZM73.0078 25.4849H74.6219V14.8662H73.0078V25.4849ZM70.4594 19.2836C70.0346 18.8589 69.355 18.4341 68.5055 18.4341C66.7216 18.4341 65.0226 20.0482 65.0226 22.087C65.0226 24.1258 66.6366 25.6549 68.5055 25.6549C69.355 25.6549 70.0346 25.2301 70.3744 24.8054H70.4594V25.3151C70.4594 26.6743 69.6948 27.4388 68.5055 27.4388C67.5711 27.4388 66.8915 26.7592 66.7216 26.1646L65.3624 26.7592C65.7871 27.6937 66.8065 28.8829 68.5905 28.8829C70.4594 28.8829 71.9884 27.7786 71.9884 25.1452V18.689H70.4594V19.2836ZM68.5903 24.2957C67.4859 24.2957 66.5515 23.3613 66.5515 22.087C66.5515 20.8128 67.4859 19.8783 68.5903 19.8783C69.6946 19.8783 70.5441 20.8128 70.5441 22.087C70.5441 23.3613 69.6946 24.2957 68.5903 24.2957ZM89.3182 14.8662H85.4955V25.4849H87.1095V21.4923H89.3182C91.1022 21.4923 92.8012 20.218 92.8012 18.1792C92.8012 16.1404 91.1022 14.8662 89.3182 14.8662ZM89.4033 19.9634H87.1097V16.3105H89.4033C90.5926 16.3105 91.2722 17.3299 91.2722 18.0945C91.1873 19.0289 90.5077 19.9634 89.4033 19.9634ZM99.1735 18.4341C97.9842 18.4341 96.7949 18.9438 96.3701 20.0481L97.8143 20.6428C98.1541 20.0481 98.6637 19.8782 99.2584 19.8782C100.108 19.8782 100.872 20.3879 100.957 21.2374V21.3224C100.703 21.1525 100.023 20.8976 99.3433 20.8976C97.8143 20.8976 96.2852 21.7471 96.2852 23.2762C96.2852 24.7204 97.5594 25.6548 98.9186 25.6548C100.023 25.6548 100.533 25.1451 100.957 24.6354H101.042V25.4849H102.571V21.4073C102.402 19.5384 100.957 18.4341 99.1735 18.4341ZM99.0008 24.2956C98.4911 24.2956 97.7266 24.0408 97.7266 23.3612C97.7266 22.5117 98.661 22.2568 99.4256 22.2568C100.105 22.2568 100.445 22.4267 100.87 22.5966C100.7 23.616 99.8503 24.2956 99.0008 24.2956ZM107.922 18.6888L106.138 23.2761H106.053L104.184 18.6888H102.485L105.289 25.145L103.675 28.7129H105.289L109.621 18.6888H107.922ZM93.6523 25.4849H95.2664V14.8662H93.6523V25.4849Z" fill="white"/>
<path fill-rule="evenodd" clip-rule="evenodd" d="M11.6718 6.37134C11.417 6.62619 11.332 7.05094 11.332 7.56064V26.3346C11.332 26.8442 11.5019 27.269 11.7568 27.5238L11.8417 27.6088L22.3755 17.075V16.9051L11.6718 6.37134Z" fill="url(#paint0_linear)"/>
<path fill-rule="evenodd" clip-rule="evenodd" d="M25.772 20.6431L22.2891 17.1602V16.9053L25.772 13.4224L25.857 13.5073L30.0195 15.8859C31.2088 16.5655 31.2088 17.6699 30.0195 18.3495L25.772 20.6431Z" fill="url(#paint1_linear)"/>
<path fill-rule="evenodd" clip-rule="evenodd" d="M25.8585 20.558L22.2906 16.9901L11.6719 27.6088C12.0966 28.0336 12.6913 28.0336 13.4558 27.6938L25.8585 20.558Z" fill="url(#paint2_linear)"/>
<path fill-rule="evenodd" clip-rule="evenodd" d="M25.8585 13.4221L13.4558 6.37129C12.6913 5.94654 12.0966 6.03149 11.6719 6.45624L22.2906 16.99L25.8585 13.4221Z" fill="url(#paint3_linear)"/>
<path fill-rule="evenodd" clip-rule="evenodd" d="M25.7735 20.473L13.4558 27.4389C12.7762 27.8637 12.1816 27.7787 11.7568 27.4389L11.6719 27.5239L11.7568 27.6088C12.1816 27.9486 12.7762 28.0336 13.4558 27.6088L25.7735 20.473Z" fill="black"/>
<path fill-rule="evenodd" clip-rule="evenodd" d="M11.6718 27.4391C11.417 27.1843 11.332 26.7595 11.332 26.2498V26.3348C11.332 26.8445 11.5019 27.2692 11.7568 27.5241V27.4391H11.6718ZM30.0209 18.0945L25.7734 20.4731L25.8584 20.558L30.0209 18.1794C30.6155 17.8396 30.8704 17.4149 30.8704 16.9901C30.8704 17.4149 30.5306 17.7547 30.0209 18.0945Z" fill="black"/>
<path opacity="0.25" fill-rule="evenodd" clip-rule="evenodd" d="M13.4558 6.45644L30.021 15.8859C30.5307 16.2257 30.8705 16.5655 30.8705 16.9902C30.8705 16.5655 30.6156 16.1407 30.021 15.8009L13.4558 6.37149C12.2665 5.69189 11.332 6.20159 11.332 7.56079V7.64574C11.332 6.37149 12.2665 5.77684 13.4558 6.45644Z" fill="white"/>
<defs>
<linearGradient id="paint0_linear" x1="17.6495" y1="-6.30955" x2="0.771578" y2="-1.74604" gradientUnits="userSpaceOnUse">
<stop stop-color="#00A0FF"/>
<stop offset="0.007" stop-color="#00A1FF"/>
<stop offset="0.26" stop-color="#00BEFF"/>
<stop offset="0.512" stop-color="#00D2FF"/>
<stop offset="0.76" stop-color="#00DFFF"/>
<stop offset="1" stop-color="#00E3FF"/>
</linearGradient>
<linearGradient id="paint1_linear" x1="31.5775" y1="8.3842" x2="11.0222" y2="8.3842" gradientUnits="userSpaceOnUse">
<stop stop-color="#FFE000"/>
<stop offset="0.409" stop-color="#FFBD00"/>
<stop offset="0.775" stop-color="#FFA500"/>
<stop offset="1" stop-color="#FF9C00"/>
</linearGradient>
<linearGradient id="paint2_linear" x1="11.4025" y1="11.4803" x2="-2.15986" y2="34.2502" gradientUnits="userSpaceOnUse">
<stop stop-color="#FF3A44"/>
<stop offset="1" stop-color="#C31162"/>
</linearGradient>
<linearGradient id="paint3_linear" x1="3.41652" y1="3.46562" x2="9.42523" y2="13.648" gradientUnits="userSpaceOnUse">
<stop stop-color="#32A071"/>
<stop offset="0.069" stop-color="#2DA771"/>
<stop offset="0.476" stop-color="#15CF74"/>
<stop offset="0.801" stop-color="#06E775"/>
<stop offset="1" stop-color="#00F076"/>
</linearGradient>
</defs>
</svg>
