<svg width="114" height="64" viewBox="0 0 114 64" fill="none" xmlns="http://www.w3.org/2000/svg">
<path d="M44.0087 9.99215C58.9848 32.2259 37.8261 51.9936 26.7284 56.7936C28.226 48.0383 17.244 44.5859 20.7381 29.6197C12.7891 10.7133 30.7118 -6.90079 44.0087 9.99215Z" fill="url(#paint0_linear)"/>
<path d="M30.2072 51.8479C17.3074 51.5795 -1.15685 54.359 11.2638 57.8524L11.5559 57.9306C11.7383 57.9795 11.917 58.0274 12.1004 58.0631L12.2555 58.1046C12.3888 58.1404 12.5277 58.1646 12.6626 58.1963C12.7116 58.2094 12.7636 58.2099 12.8122 58.2229C12.9761 58.2539 13.1408 58.2891 13.3041 58.3239L13.3639 58.3399C13.5408 58.3738 13.7175 58.4033 13.8948 58.4323C13.9527 58.4344 14.0069 58.4489 14.0625 58.4598C14.1987 58.4829 14.3365 58.5019 14.4747 58.5215C14.5215 58.5206 14.5651 58.5322 14.612 58.5403C14.7565 58.5566 14.9016 58.5781 15.0462 58.5939C15.093 58.593 15.1361 58.6046 15.1795 58.6072C15.3557 58.6236 15.532 58.6434 15.7081 58.6582C15.7578 58.6581 15.8048 58.6662 15.8572 58.6668C15.9853 58.6792 16.1143 58.6869 16.2417 58.6946C16.3103 58.6996 16.3799 58.7008 16.4458 58.705C16.579 58.7098 16.7108 58.7177 16.8432 58.7233C16.8836 58.7207 16.9264 58.7277 16.9681 58.7259C17.1504 58.7304 17.3312 58.7355 17.5123 58.7372C17.5485 58.7335 17.5793 58.7373 17.6144 58.7377C17.7392 58.7403 17.8677 58.7383 17.9923 58.7364C18.2608 58.7341 18.5272 58.7268 18.7939 58.7146C18.8342 58.7124 18.8737 58.7096 18.9153 58.7078C19.1518 58.6954 19.386 58.6805 19.6204 58.6611C19.674 58.6575 19.7285 58.6502 19.7812 58.6479C20.041 58.6249 20.3014 58.5991 20.5609 58.5675C20.6122 58.5593 20.6669 58.5515 20.7206 58.5475C20.9501 58.5184 21.1756 58.4861 21.4024 58.4508C21.4479 58.4456 21.4927 58.4396 21.5359 58.4303C21.7946 58.3885 22.0519 58.3414 22.308 58.291C22.3597 58.283 22.416 58.2692 22.4687 58.2579C22.7059 58.2094 22.9432 58.1569 23.1787 58.102C23.2113 58.0973 23.2318 58.0893 23.2568 58.0831C23.5153 58.0218 23.7701 57.9541 24.0254 57.8846C24.0784 57.8719 24.1321 57.8549 24.1831 57.8402C24.432 57.7704 24.6788 57.6976 24.9245 57.6195L24.9277 57.6074C25.1887 57.5239 25.4487 57.4367 25.7065 57.3449C25.7503 57.3298 25.7878 57.3139 25.8294 57.2992C26.0751 57.2101 26.3198 57.1188 26.5621 57.0219C26.5621 57.0219 26.5655 57.0093 26.5942 57.017C26.846 56.9161 27.0963 56.8094 27.3444 56.7001C27.385 56.68 27.4235 56.666 27.4632 56.6492C27.9597 56.4276 28.4484 56.189 28.9288 55.9347C28.9652 55.9136 28.9998 55.8975 29.0343 55.8778C29.514 55.6209 29.984 55.3479 30.4451 55.0585C30.482 55.0376 30.5154 55.0146 30.5504 54.9931C31.0106 54.7016 31.46 54.3946 31.8995 54.0726C31.9359 54.0515 31.9649 54.0249 31.9974 54.0018C32.219 53.8375 32.4392 53.6694 32.6559 53.4974C32.8672 53.3274 33.0784 53.1539 33.286 52.9774C33.3228 52.9564 33.3432 52.9305 33.3688 52.907C33.5775 52.7283 33.7828 52.5452 33.9854 52.3595C33.9887 52.3469 34.0219 52.3379 34.0252 52.3258C34.2226 52.1446 34.4157 51.9588 34.606 51.7707C34.6116 51.7498 34.6458 51.7371 34.6591 51.7207C34.8582 51.522 35.055 51.3192 35.2491 51.1133C35.2524 51.1007 35.2557 51.0886 35.2882 51.0839C35.4418 50.9804 35.2875 50.9946 35.1813 50.9955L35.0745 51.0261C33.4862 51.6283 31.8508 51.8821 30.2072 51.8479Z" fill="url(#paint1_linear)"/>
<path d="M8.1978 36.5182C1.90676 44.4783 -0.319779 54.5938 11.2646 57.852L11.5567 57.9303C11.7391 57.9792 11.9178 58.027 12.1012 58.0628L12.2563 58.1043C12.3896 58.14 12.5285 58.1643 12.6634 58.1959C12.7124 58.2091 12.7644 58.2096 12.813 58.2226C12.9769 58.2536 13.1416 58.2887 13.3049 58.3235L13.3646 58.3395C13.5416 58.3735 13.7183 58.4029 13.8955 58.432C13.9535 58.4341 14.0077 58.4486 14.0633 58.4595C14.1995 58.4826 14.3373 58.5015 14.4755 58.5211C14.5223 58.5202 14.5658 58.5319 14.6128 58.54C14.7573 58.5563 14.9023 58.5777 15.0469 58.5936C15.0938 58.5927 15.1369 58.6042 15.1803 58.6069C15.3565 58.6232 15.5328 58.6431 15.7089 58.6579C15.7586 58.6578 15.8055 58.6658 15.858 58.6664C15.9861 58.6789 16.115 58.6865 16.2425 58.6943C16.3111 58.6992 16.3807 58.7004 16.4466 58.7046C16.5797 58.7094 16.7116 58.7174 16.844 58.723C16.8844 58.7204 16.9272 58.7273 16.9689 58.7255C17.1512 58.7301 17.3319 58.7352 17.5131 58.7369C17.5493 58.7332 17.58 58.7369 17.6151 58.7374C17.74 58.7399 17.8685 58.738 17.9931 58.736C18.2616 58.7338 18.528 58.7264 18.7947 58.7142C18.835 58.7121 18.8744 58.7092 18.9161 58.7074C19.1526 58.6951 19.3868 58.6801 19.6212 58.6608C19.6748 58.6572 19.7293 58.6499 19.782 58.6476C20.0417 58.6245 20.3022 58.5987 20.5617 58.5671C20.613 58.559 20.6677 58.5512 20.7213 58.5472C20.9509 58.518 21.1764 58.4858 21.4032 58.4504C21.4487 58.4452 21.4935 58.4393 21.5366 58.4299C21.7954 58.3882 22.0526 58.3411 22.3087 58.2907C22.3605 58.2826 22.4168 58.2688 22.4694 58.2575C22.7067 58.209 22.944 58.1566 23.1795 58.1016C23.212 58.0969 23.2325 58.089 23.2575 58.0827C23.5161 58.0215 23.7709 57.9538 24.0261 57.8842C24.0792 57.8716 24.1328 57.8546 24.1839 57.8399C24.4328 57.7701 24.6796 57.6972 24.9252 57.6191L24.9285 57.6071C25.1895 57.5236 25.4495 57.4364 25.7073 57.3446C25.7511 57.3294 25.7885 57.3136 25.8302 57.2988C26.0758 57.2098 26.3206 57.1184 26.5629 57.0215C26.5629 57.0215 26.5663 57.009 26.595 57.0166C26.8467 56.9158 27.0971 56.809 27.3452 56.6997C27.3858 56.6797 27.4243 56.6656 27.464 56.6489C27.9605 56.4273 28.4491 56.1887 28.9296 55.9344C28.966 55.9133 29.0006 55.8971 29.0351 55.8775C29.5148 55.6205 29.9848 55.3476 30.4459 55.0582C30.4827 55.0372 30.5162 55.0143 30.5512 54.9928C31.0114 54.7012 31.4607 54.3943 31.9003 54.0723C31.9367 54.0512 31.9656 54.0246 31.9982 54.0014C32.2198 53.8372 32.44 53.6691 32.6567 53.497C32.868 53.327 33.0792 53.1535 33.2867 52.9771C33.3236 52.9561 33.344 52.9301 33.3696 52.9066C33.5782 52.7279 33.7836 52.5449 33.9862 52.3591C33.9895 52.3466 34.0227 52.3375 34.0259 52.3254C34.2233 52.1443 34.4165 51.9584 34.6068 51.7704C34.6124 51.7495 34.6466 51.7367 34.6599 51.7204C34.859 51.5217 35.0557 51.3189 35.2498 51.1129C35.2532 51.1004 35.2564 51.0883 35.289 51.0836C35.4426 50.98 35.2882 50.9943 35.1821 50.9952L35.0752 51.0258C25.341 54.7165 13.8292 45.3078 9.48987 36.7486C9.13928 36.0574 8.63908 36.1726 8.1978 36.5182Z" fill="url(#paint2_linear)"/>
<path d="M30.1821 52.5314C15.2521 51.9785 7.14194 39.1681 4.95312 32.8321L8.29395 31.7953C21.8108 38.9377 45.1121 53.0844 30.1821 52.5314Z" fill="white" fill-opacity="0.18"/>
<path d="M18.8379 9.64446C-6.48972 17.9825 17.4431 57.7039 34.2886 51.7142C34.3934 51.7313 34.4978 51.743 34.6033 51.7557C48.8193 39.1964 41.757 3.81359 18.8379 9.64446Z" fill="url(#paint3_linear)"/>
<path d="M24.3047 5.52964C25.2312 5.03707 26.2058 4.65673 27.2114 4.3953L38.4744 0L46.4232 2.99522C49.6489 18.8161 51.0018 50.4823 49.1881 29.837C47.3609 9.03894 36.0834 2.08879 27.2114 4.3953L24.3047 5.52964Z" fill="white" fill-opacity="0.18"/>
<mask id="mask0" mask-type="alpha" maskUnits="userSpaceOnUse" x="7" y="9" width="35" height="44">
<path d="M18.837 9.64446C-6.4907 17.9825 17.4421 57.7039 34.2876 51.7142C34.3924 51.7313 34.4968 51.743 34.6023 51.7557C48.8183 39.1964 41.756 3.81359 18.837 9.64446Z" fill="url(#paint4_linear)"/>
</mask>
<g mask="url(#mask0)">
<path d="M41.5876 39.7444C40.7582 12.1884 24.9603 8.29461 17.165 9.79222L22.4643 2.18896L43.8916 8.40981C43.4692 30.3364 42.417 67.3004 41.5876 39.7444Z" fill="white" fill-opacity="0.18"/>
</g>
<path d="M60.404 41.138C59.8673 41.138 59.4303 40.977 59.093 40.655C58.771 40.3177 58.61 39.8807 58.61 39.344V26.464C58.61 25.9273 58.7557 25.5133 59.047 25.222C59.3383 24.9307 59.7523 24.785 60.289 24.785H68.201C68.7837 24.785 69.213 24.9 69.489 25.13C69.765 25.36 69.903 25.7203 69.903 26.211C69.903 26.6863 69.765 27.039 69.489 27.269C69.213 27.499 68.7837 27.614 68.201 27.614H62.152V31.34H67.741C68.3237 31.34 68.753 31.455 69.029 31.685C69.305 31.915 69.443 32.2753 69.443 32.766C69.443 33.2413 69.305 33.594 69.029 33.824C68.753 34.054 68.3237 34.169 67.741 34.169H62.152V39.344C62.152 39.896 61.991 40.333 61.669 40.655C61.3623 40.977 60.9407 41.138 60.404 41.138ZM71.9561 41C71.4194 41 71.0054 40.8543 70.7141 40.563C70.4228 40.2717 70.2771 39.8577 70.2771 39.321V26.464C70.2771 25.9273 70.4228 25.5133 70.7141 25.222C71.0054 24.9307 71.4194 24.785 71.9561 24.785H80.0981C81.2328 24.785 81.8001 25.245 81.8001 26.165C81.8001 27.1003 81.2328 27.568 80.0981 27.568H73.7731V31.363H79.6381C80.7728 31.363 81.3401 31.8307 81.3401 32.766C81.3401 33.686 80.7728 34.146 79.6381 34.146H73.7731V38.217H80.0981C81.2328 38.217 81.8001 38.6847 81.8001 39.62C81.8001 40.54 81.2328 41 80.0981 41H71.9561ZM92.8349 32.605C93.7702 32.881 94.4909 33.364 94.9969 34.054C95.5182 34.7287 95.7789 35.5643 95.7789 36.561C95.7789 37.9257 95.2729 39.0067 94.2609 39.804C93.2642 40.6013 91.8842 41 90.1209 41H84.0949C83.5582 41 83.1442 40.8543 82.8529 40.563C82.5616 40.2717 82.4159 39.8577 82.4159 39.321V26.464C82.4159 25.9273 82.5616 25.5133 82.8529 25.222C83.1442 24.9307 83.5582 24.785 84.0949 24.785H89.8909C91.5776 24.785 92.9116 25.1607 93.8929 25.912C94.8896 26.6633 95.3879 27.6907 95.3879 28.994C95.3879 29.8373 95.1579 30.581 94.6979 31.225C94.2532 31.8537 93.6322 32.3137 92.8349 32.605ZM85.9119 31.386H89.2929C90.2129 31.386 90.8876 31.2327 91.3169 30.926C91.7616 30.604 91.9839 30.121 91.9839 29.477C91.9839 28.8023 91.7616 28.3117 91.3169 28.005C90.8876 27.683 90.2129 27.522 89.2929 27.522H85.9119V31.386ZM89.7069 38.263C90.6576 38.263 91.3476 38.102 91.7769 37.78C92.2062 37.458 92.4209 36.9367 92.4209 36.216C92.4209 35.4953 92.2062 34.9663 91.7769 34.629C91.3476 34.2917 90.6576 34.123 89.7069 34.123H85.9119V38.263H89.7069ZM104.23 41.207C102.62 41.207 101.217 40.8697 100.021 40.195C98.8407 39.505 97.9283 38.539 97.2843 37.297C96.6403 36.0397 96.3183 34.5677 96.3183 32.881C96.3183 31.1943 96.6403 29.73 97.2843 28.488C97.9283 27.2307 98.8407 26.2647 100.021 25.59C101.217 24.9153 102.62 24.578 104.23 24.578C105.84 24.578 107.236 24.9153 108.416 25.59C109.612 26.2647 110.532 27.2307 111.176 28.488C111.82 29.73 112.142 31.1943 112.142 32.881C112.142 34.5677 111.82 36.0397 111.176 37.297C110.532 38.539 109.612 39.505 108.416 40.195C107.236 40.8697 105.84 41.207 104.23 41.207ZM104.23 38.424C105.58 38.424 106.638 37.9487 107.404 36.998C108.186 36.0473 108.577 34.675 108.577 32.881C108.577 31.087 108.194 29.7223 107.427 28.787C106.661 27.8363 105.595 27.361 104.23 27.361C102.866 27.361 101.8 27.8363 101.033 28.787C100.282 29.7223 99.9063 31.087 99.9063 32.881C99.9063 34.675 100.29 36.0473 101.056 36.998C101.823 37.9487 102.881 38.424 104.23 38.424Z" fill="#055284"/>
<defs>
<linearGradient id="paint0_linear" x1="32.213" y1="2.99483" x2="32.213" y2="57.3397" gradientUnits="userSpaceOnUse">
<stop stop-color="#044D7C"/>
<stop offset="1" stop-color="#0D80CB"/>
</linearGradient>
<linearGradient id="paint1_linear" x1="26.8372" y1="34.2222" x2="15.684" y2="59.2565" gradientUnits="userSpaceOnUse">
<stop stop-color="#42DAFD"/>
<stop offset="1" stop-color="#6C8EFE"/>
</linearGradient>
<linearGradient id="paint2_linear" x1="28.846" y1="42.5401" x2="23.5272" y2="58.333" gradientUnits="userSpaceOnUse">
<stop stop-color="#2EC6F7"/>
<stop offset="1" stop-color="#00A7CF"/>
</linearGradient>
<linearGradient id="paint3_linear" x1="39.9054" y1="16.0123" x2="25.0753" y2="45.1286" gradientUnits="userSpaceOnUse">
<stop stop-color="#25CCF0"/>
<stop offset="1" stop-color="#00A7CF"/>
</linearGradient>
<linearGradient id="paint4_linear" x1="39.9044" y1="16.0123" x2="25.0743" y2="45.1286" gradientUnits="userSpaceOnUse">
<stop stop-color="#2EC6F7"/>
<stop offset="1" stop-color="#00A7CF"/>
</linearGradient>
</defs>
</svg>
