<svg width="44" height="56" viewBox="0 0 44 56" fill="none" xmlns="http://www.w3.org/2000/svg">
<path d="M38.727 8.79309C51.9059 28.3588 33.2863 45.7543 23.5204 49.9783C24.8383 42.2737 15.1741 39.2356 18.2489 26.0653C11.2538 9.42769 27.0257 -6.07267 38.727 8.79309Z" fill="url(#paint0_linear)"/>
<path d="M26.5821 45.6261C15.2303 45.3899 -1.01821 47.8358 9.91197 50.9101L10.169 50.9789C10.3295 51.0219 10.4867 51.0641 10.6482 51.0955L10.7846 51.1321C10.9019 51.1635 11.0242 51.1848 11.1429 51.2127C11.186 51.2243 11.2318 51.2247 11.2745 51.2362C11.4187 51.2634 11.5637 51.2944 11.7074 51.325L11.76 51.3391C11.9157 51.369 12.0712 51.3948 12.2272 51.4204C12.2782 51.4223 12.3259 51.435 12.3748 51.4446C12.4947 51.4649 12.6159 51.4816 12.7375 51.4989C12.7788 51.4981 12.817 51.5083 12.8584 51.5155C12.9855 51.5298 13.1132 51.5487 13.2404 51.5626C13.2817 51.5618 13.3196 51.572 13.3578 51.5743C13.5129 51.5887 13.668 51.6062 13.823 51.6192C13.8667 51.6191 13.908 51.6262 13.9541 51.6267C14.0669 51.6377 14.1803 51.6444 14.2925 51.6512C14.3529 51.6556 14.4141 51.6567 14.4721 51.6604C14.5893 51.6646 14.7053 51.6716 14.8218 51.6765C14.8574 51.6742 14.895 51.6803 14.9317 51.6788C15.0922 51.6827 15.2512 51.6872 15.4106 51.6887C15.4425 51.6854 15.4695 51.6888 15.5004 51.6891C15.6103 51.6914 15.7234 51.6897 15.833 51.688C16.0693 51.686 16.3037 51.6795 16.5384 51.6688C16.5739 51.6669 16.6086 51.6644 16.6453 51.6628C16.8534 51.652 17.0595 51.6388 17.2658 51.6218C17.3129 51.6186 17.3609 51.6122 17.4073 51.6102C17.6358 51.5899 17.865 51.5671 18.0934 51.5394C18.1385 51.5322 18.1866 51.5253 18.2339 51.5218C18.4359 51.4961 18.6343 51.4678 18.8339 51.4367C18.874 51.4321 18.9133 51.4268 18.9514 51.4186C19.1791 51.3819 19.4054 51.3404 19.6308 51.2961C19.6764 51.289 19.7259 51.2768 19.7722 51.2669C19.981 51.2242 20.1898 51.1781 20.3971 51.1297C20.4257 51.1256 20.4437 51.1186 20.4657 51.1131C20.6932 51.0592 20.9174 50.9996 21.1421 50.9384C21.1888 50.9272 21.236 50.9123 21.2809 50.8993C21.5 50.8379 21.7171 50.7739 21.9333 50.7051L21.9362 50.6945C22.1658 50.621 22.3947 50.5443 22.6215 50.4635C22.66 50.4502 22.693 50.4362 22.7297 50.4232C22.9458 50.3449 23.1612 50.2645 23.3744 50.1792C23.3744 50.1792 23.3774 50.1682 23.4027 50.1749C23.6242 50.0862 23.8446 49.9922 24.0629 49.896C24.0986 49.8784 24.1325 49.866 24.1674 49.8513C24.6043 49.6563 25.0343 49.4463 25.4571 49.2225C25.4892 49.204 25.5196 49.1898 25.55 49.1725C25.9721 48.9463 26.3857 48.7061 26.7914 48.4515C26.8239 48.433 26.8533 48.4129 26.8841 48.3939C27.2891 48.1374 27.6845 47.8673 28.0713 47.5839C28.1034 47.5653 28.1289 47.5419 28.1575 47.5215C28.3525 47.377 28.5463 47.229 28.737 47.0777C28.9229 46.9281 29.1088 46.7754 29.2914 46.6201C29.3239 46.6016 29.3418 46.5788 29.3643 46.5581C29.5479 46.4009 29.7286 46.2398 29.9069 46.0763C29.9099 46.0653 29.9391 46.0573 29.9419 46.0467C30.1156 45.8872 30.2856 45.7237 30.4531 45.5582C30.458 45.5398 30.4881 45.5286 30.4998 45.5142C30.675 45.3394 30.8481 45.1609 31.0189 44.9797C31.0219 44.9686 31.0248 44.958 31.0534 44.9538C31.1886 44.8627 31.0527 44.8752 30.9593 44.8761L30.8653 44.903C29.4676 45.4329 28.0285 45.6562 26.5821 45.6261Z" fill="url(#paint1_linear)"/>
<path d="M7.21383 32.136C1.67772 39.1409 -0.281631 48.0425 9.91261 50.9097L10.1696 50.9786C10.3301 51.0216 10.4874 51.0638 10.6488 51.0952L10.7853 51.1317C10.9026 51.1632 11.0248 51.1845 11.1435 51.2124C11.1867 51.224 11.2324 51.2244 11.2752 51.2358C11.4194 51.2631 11.5643 51.294 11.7081 51.3247L11.7606 51.3387C11.9163 51.3686 12.0718 51.3945 12.2278 51.4201C12.2789 51.4219 12.3265 51.4347 12.3755 51.4443C12.4953 51.4646 12.6166 51.4813 12.7382 51.4985C12.7794 51.4978 12.8177 51.508 12.859 51.5151C12.9861 51.5295 13.1138 51.5484 13.2411 51.5623C13.2823 51.5615 13.3202 51.5717 13.3584 51.574C13.5135 51.5884 13.6686 51.6059 13.8236 51.6189C13.8673 51.6188 13.9086 51.6259 13.9548 51.6264C14.0675 51.6374 14.181 51.6441 14.2931 51.6509C14.3535 51.6553 14.4148 51.6563 14.4727 51.66C14.5899 51.6643 14.7059 51.6712 14.8225 51.6762C14.858 51.6739 14.8957 51.68 14.9323 51.6784C15.0928 51.6824 15.2518 51.6869 15.4112 51.6884C15.4431 51.6851 15.4702 51.6884 15.5011 51.6888C15.6109 51.6911 15.724 51.6894 15.8336 51.6876C16.0699 51.6857 16.3044 51.6792 16.5391 51.6685C16.5745 51.6666 16.6093 51.6641 16.6459 51.6625C16.854 51.6516 17.0601 51.6385 17.2664 51.6214C17.3135 51.6183 17.3615 51.6119 17.4079 51.6098C17.6365 51.5895 17.8657 51.5668 18.094 51.539C18.1392 51.5318 18.1873 51.525 18.2345 51.5214C18.4366 51.4958 18.635 51.4675 18.8345 51.4363C18.8746 51.4317 18.914 51.4265 18.952 51.4183C19.1797 51.3816 19.4061 51.3401 19.6314 51.2957C19.677 51.2887 19.7265 51.2765 19.7729 51.2666C19.9816 51.2239 20.1905 51.1777 20.3977 51.1294C20.4263 51.1252 20.4444 51.1182 20.4664 51.1127C20.6939 51.0589 20.9181 50.9993 21.1428 50.9381C21.1894 50.9269 21.2366 50.912 21.2816 50.899C21.5006 50.8376 21.7178 50.7735 21.934 50.7048L21.9368 50.6942C22.1665 50.6207 22.3953 50.544 22.6222 50.4632C22.6607 50.4498 22.6937 50.4359 22.7303 50.4229C22.9465 50.3445 23.1619 50.2642 23.3751 50.1789C23.3751 50.1789 23.378 50.1678 23.4033 50.1746C23.6249 50.0858 23.8452 49.9919 24.0635 49.8957C24.0992 49.8781 24.1331 49.8657 24.1681 49.851C24.605 49.656 25.035 49.446 25.4577 49.2222C25.4898 49.2036 25.5202 49.1894 25.5506 49.1722C25.9727 48.946 26.3864 48.7058 26.7921 48.4512C26.8245 48.4327 26.854 48.4125 26.8848 48.3936C27.2897 48.137 27.6852 47.8669 28.072 47.5836C28.104 47.565 28.1295 47.5416 28.1581 47.5212C28.3531 47.3767 28.5469 47.2287 28.7376 47.0774C28.9236 46.9278 29.1094 46.7751 29.2921 46.6198C29.3245 46.6013 29.3424 46.5785 29.365 46.5578C29.5486 46.4005 29.7293 46.2395 29.9076 46.076C29.9105 46.0649 29.9397 46.057 29.9426 46.0464C30.1163 45.8869 30.2863 45.7234 30.4537 45.5579C30.4587 45.5395 30.4887 45.5283 30.5004 45.5139C30.6757 45.339 30.8488 45.1606 31.0196 44.9793C31.0225 44.9683 31.0254 44.9577 31.054 44.9535C31.1892 44.8624 31.0534 44.8749 30.9599 44.8757L30.8659 44.9027C22.2998 48.1505 12.1695 39.8708 8.35085 32.3388C8.04233 31.7305 7.60215 31.8319 7.21383 32.136Z" fill="url(#paint2_linear)"/>
<path d="M26.5599 46.2276C13.4215 45.741 6.28455 34.468 4.3584 28.8922L7.29832 27.9799C19.1932 34.2652 39.6983 46.7142 26.5599 46.2276Z" fill="white" fill-opacity="0.18"/>
<path d="M16.5773 8.48706C-5.71097 15.8245 15.3498 50.7793 30.1739 45.5084C30.2661 45.5234 30.358 45.5337 30.4508 45.5449C42.9609 34.4927 36.7461 3.3559 16.5773 8.48706Z" fill="url(#paint3_linear)"/>
<path d="M21.3877 4.86607C22.203 4.43261 23.0607 4.09792 23.9456 3.86786L33.857 0L40.852 2.63579C43.6905 16.5582 44.8811 44.4244 43.285 26.2565C41.6771 7.95425 31.7529 1.83814 23.9456 3.86786L21.3877 4.86607Z" fill="white" fill-opacity="0.18"/>
<mask id="mask0" mask-type="alpha" maskUnits="userSpaceOnUse" x="0" y="3" width="44" height="46">
<path d="M16.5764 8.48706C-5.71194 15.8245 15.3489 50.7793 30.1729 45.5084C30.2651 45.5234 30.357 45.5337 30.4499 45.5449C42.9599 34.4927 36.7451 3.3559 16.5764 8.48706Z" fill="url(#paint4_linear)"/>
</mask>
<g mask="url(#mask0)">
<path d="M36.5963 34.975C35.8664 10.7258 21.9643 7.29923 15.1045 8.61712L19.7678 1.92627L38.6238 7.4006C38.2521 26.6959 37.3262 59.2243 36.5963 34.975Z" fill="white" fill-opacity="0.18"/>
</g>
<defs>
<linearGradient id="paint0_linear" x1="28.3468" y1="2.63546" x2="28.3468" y2="50.4589" gradientUnits="userSpaceOnUse">
<stop stop-color="#044D7C"/>
<stop offset="1" stop-color="#0D80CB"/>
</linearGradient>
<linearGradient id="paint1_linear" x1="23.6165" y1="30.1155" x2="13.8018" y2="52.1457" gradientUnits="userSpaceOnUse">
<stop stop-color="#42DAFD"/>
<stop offset="1" stop-color="#6C8EFE"/>
</linearGradient>
<linearGradient id="paint2_linear" x1="25.3842" y1="37.4353" x2="20.7037" y2="51.333" gradientUnits="userSpaceOnUse">
<stop stop-color="#2EC6F7"/>
<stop offset="1" stop-color="#00A7CF"/>
</linearGradient>
<linearGradient id="paint3_linear" x1="35.1167" y1="14.0907" x2="22.0662" y2="39.713" gradientUnits="userSpaceOnUse">
<stop stop-color="#25CCF0"/>
<stop offset="1" stop-color="#00A7CF"/>
</linearGradient>
<linearGradient id="paint4_linear" x1="35.1157" y1="14.0907" x2="22.0652" y2="39.713" gradientUnits="userSpaceOnUse">
<stop stop-color="#2EC6F7"/>
<stop offset="1" stop-color="#00A7CF"/>
</linearGradient>
</defs>
</svg>
