<svg width="1548" height="840" viewBox="0 0 1548 840" fill="none" xmlns="http://www.w3.org/2000/svg">
<rect width="1548" height="840" fill="white"/>
<path d="M932.558 258.309C932.558 258.309 980.85 281.952 1032.95 258.92C1085.06 235.888 1115.66 181.906 1141.6 138.83C1167.54 95.7534 1159.95 48.0937 1124.57 22.7191C1089.19 -2.65554 1060.46 25.5777 1007.62 21.1302C954.781 16.6827 941.379 7.49567 894.61 32.5512C847.841 57.6066 832.733 127.613 861.888 183.93C891.042 240.247 932.558 258.309 932.558 258.309Z" fill="#E7FBFF"/>
<path d="M633.589 708.805C633.589 708.805 596.67 726.928 556.835 709.273C517.001 691.618 493.605 650.239 473.774 617.22C453.943 584.2 459.746 547.667 486.794 528.217C513.842 508.766 535.809 530.408 576.205 526.999C616.6 523.589 626.846 516.547 662.602 535.753C698.357 554.959 709.907 608.621 687.618 651.79C665.329 694.96 633.589 708.805 633.589 708.805Z" fill="#E7FBFF"/>
</svg>
