<svg width="2794" height="4196" viewBox="0 0 2794 4196" fill="none" xmlns="http://www.w3.org/2000/svg">
<rect width="2794" height="4196" fill="white"/>
<path d="M1072.55 518.822C1072.55 518.822 985.934 561.232 892.483 519.918C799.032 478.604 744.146 381.773 697.622 304.504C651.097 227.235 664.712 141.744 728.167 96.2276C791.621 50.7113 843.155 101.355 937.923 93.3775C1032.69 85.3997 1056.73 68.9202 1140.61 113.864C1224.49 158.808 1251.59 284.383 1199.3 385.403C1147.01 486.423 1072.55 518.822 1072.55 518.822Z" fill="#E7FBFF"/>
<path d="M1725.85 689.272C1725.85 689.272 1787.85 719.631 1854.74 690.056C1921.64 660.482 1960.92 591.168 1994.23 535.855C2027.53 480.543 2017.79 419.346 1972.36 386.764C1926.94 354.182 1890.05 390.434 1822.21 384.724C1754.38 379.013 1737.17 367.216 1677.12 399.389C1617.08 431.561 1597.68 521.452 1635.11 593.766C1672.54 666.08 1725.85 689.272 1725.85 689.272Z" fill="#E7FBFF"/>
<path d="M1949.5 2066.06C1949.5 2066.06 1886.56 2096.88 1818.66 2066.86C1750.76 2036.84 1710.88 1966.47 1677.07 1910.32C1643.26 1854.17 1653.16 1792.05 1699.27 1758.97C1745.37 1725.9 1782.82 1762.7 1851.68 1756.9C1920.54 1751.1 1938 1739.13 1998.95 1771.79C2059.9 1804.45 2079.59 1895.7 2041.6 1969.11C2003.6 2042.52 1949.5 2066.06 1949.5 2066.06Z" fill="#E7FBFF"/>
<path d="M890.35 2822.56C890.35 2822.56 937.395 2845.65 988.155 2823.15C1038.91 2800.66 1068.73 2747.94 1094 2705.87C1119.27 2663.8 1111.87 2617.25 1077.41 2592.47C1042.94 2567.69 1014.95 2595.26 963.474 2590.92C911.999 2586.57 898.944 2577.6 853.381 2602.07C807.819 2626.54 793.102 2694.91 821.503 2749.92C849.905 2804.92 890.35 2822.56 890.35 2822.56Z" fill="#E7FBFF"/>
</svg>
