<svg width="2557" height="4240" viewBox="0 0 2557 4240" fill="none" xmlns="http://www.w3.org/2000/svg">
<g clip-path="url(#clip0)">
<rect width="2557" height="4240" rx="15" fill="white"/>
<path d="M759.548 569.822C759.548 569.822 672.934 612.232 579.483 570.918C486.032 529.604 431.146 432.773 384.622 355.504C338.097 278.235 351.712 192.744 415.167 147.228C478.621 101.711 530.155 152.355 624.923 144.378C719.69 136.4 743.727 119.92 827.609 164.864C911.492 209.808 938.588 335.383 886.298 436.403C834.009 537.423 759.548 569.822 759.548 569.822Z" fill="#E7FBFF"/>
<path d="M2241.55 1931.82C2241.55 1931.82 2154.93 1974.23 2061.48 1932.92C1968.03 1891.6 1913.15 1794.77 1866.62 1717.5C1820.1 1640.23 1833.71 1554.74 1897.17 1509.23C1960.62 1463.71 2012.16 1514.36 2106.92 1506.38C2201.69 1498.4 2225.73 1481.92 2309.61 1526.86C2393.49 1571.81 2420.59 1697.38 2368.3 1798.4C2316.01 1899.42 2241.55 1931.82 2241.55 1931.82Z" fill="#E7FBFF"/>
<path d="M1859.85 681.272C1859.85 681.272 1921.85 711.631 1988.74 682.056C2055.64 652.482 2094.92 583.168 2128.23 527.855C2161.53 472.543 2151.79 411.346 2106.36 378.764C2060.94 346.182 2024.05 382.434 1956.21 376.724C1888.38 371.013 1871.17 359.216 1811.12 391.389C1751.08 423.561 1731.68 513.452 1769.11 585.766C1806.54 658.08 1859.85 681.272 1859.85 681.272Z" fill="#E7FBFF"/>
<path d="M443.845 2643.27C443.845 2643.27 505.846 2673.63 572.74 2644.06C639.635 2614.48 678.924 2545.17 712.228 2489.86C745.531 2434.54 735.785 2373.35 690.363 2340.76C644.94 2308.18 608.051 2344.43 540.214 2338.72C472.376 2333.01 455.171 2321.22 395.125 2353.39C335.079 2385.56 315.683 2475.45 353.114 2547.77C390.544 2620.08 443.845 2643.27 443.845 2643.27Z" fill="#E7FBFF"/>
<path d="M1093.85 89.2716C1093.85 89.2716 1155.85 119.631 1222.74 90.0563C1289.64 60.4821 1328.92 -8.83243 1362.23 -64.1446C1395.53 -119.457 1385.79 -180.654 1340.36 -213.236C1294.94 -245.818 1258.05 -209.566 1190.21 -215.276C1122.38 -220.987 1105.17 -232.784 1045.12 -200.611C985.079 -168.439 965.683 -78.548 1003.11 -6.23424C1040.54 66.0796 1093.85 89.2716 1093.85 89.2716Z" fill="#E7FBFF"/>
</g>
<defs>
<clipPath id="clip0">
<rect width="2557" height="4240" rx="15" fill="white"/>
</clipPath>
</defs>
</svg>
