<svg width="340" height="345" viewBox="0 0 340 345" fill="none" xmlns="http://www.w3.org/2000/svg">
<path d="M339.711 225.011H209.582V149.709H339.711V225.011ZM210.376 224.217H338.917V150.503H210.376V224.217Z" fill="#C5EFF9"/>
<path d="M312.866 189.861H227.011V192.378H312.866V189.861Z" fill="#F2FBFD"/>
<path d="M318.781 199.246H227.011V201.994H318.781V199.246Z" fill="#F2FBFD"/>
<path d="M318.781 208.742H227.011V211.49H318.781V208.742Z" fill="#F2FBFD"/>
<path d="M257.016 176.228H227.011V182.763H257.016V176.228Z" fill="#F2FBFD"/>
<path d="M339.314 150.106H210.003V162.095H339.314V150.106Z" fill="#C5EFF9"/>
<path d="M329.365 160.301C329.198 160.142 330.866 158.133 333.081 155.814C335.296 153.496 337.242 151.741 337.4 151.892C337.559 152.043 335.9 154.06 333.684 156.386C331.469 158.713 329.524 160.459 329.365 160.301Z" fill="white"/>
<path d="M337.416 160.301C337.257 160.459 335.32 158.713 333.097 156.386C330.874 154.06 329.214 152.051 329.381 151.892C329.548 151.733 331.477 153.48 333.7 155.814C335.923 158.149 337.567 160.142 337.416 160.301Z" fill="white"/>
<path d="M179.585 0.984406H50.2742V75.5013H179.585V0.984406Z" fill="#E6F9FD"/>
<path d="M153.145 40.7479H67.2896V43.2649H153.145V40.7479Z" fill="#F2FBFD"/>
<path d="M159.06 50.133H67.2896V52.8802H159.06V50.133Z" fill="#F2FBFD"/>
<path d="M159.06 59.6293H67.2896V62.3765H159.06V59.6293Z" fill="#F2FBFD"/>
<path d="M97.2949 27.115H67.2896V33.6496H97.2949V27.115Z" fill="#F2FBFD"/>
<path d="M179.585 0.984406H50.2742V12.9738H179.585V0.984406Z" fill="#C5EFF9"/>
<path d="M169.2 11.1238C169.033 10.9729 170.7 8.95616 172.915 6.63768C175.131 4.31919 177.076 2.56445 177.235 2.72325C177.394 2.88205 175.734 4.89087 173.519 7.20936C171.304 9.52784 169.358 11.2667 169.2 11.1238Z" fill="white"/>
<path d="M177.235 11.1238C177.076 11.2826 175.139 9.5358 172.915 7.20938C170.692 4.88296 169.033 2.88208 169.199 2.72328C169.366 2.56448 171.296 4.31128 173.519 6.6377C175.742 8.96412 177.402 10.9729 177.235 11.1238Z" fill="white"/>
<path d="M130.611 139.41H0.506104V64.0995H130.611V139.41ZM1.3001 138.616H129.817V64.8935H1.3001V138.616Z" fill="#C5EFF9"/>
<path d="M103.774 104.26H17.9185V106.777H103.774V104.26Z" fill="#F2FBFD"/>
<path d="M109.689 113.645H17.9185V116.392H109.689V113.645Z" fill="#F2FBFD"/>
<path d="M109.689 123.141H17.9185V125.889H109.689V123.141Z" fill="#F2FBFD"/>
<path d="M47.9237 90.627H17.9185V97.1616H47.9237V90.627Z" fill="#F2FBFD"/>
<path d="M130.214 64.4965H0.903076V76.4859H130.214V64.4965Z" fill="#C5EFF9"/>
<path d="M280.764 156.664H128.078V293.359H280.764V156.664Z" fill="#E6F9FD"/>
<path d="M135.756 113.605H16.1483V237.874H135.756V113.605Z" fill="#F2FBFD"/>
<path d="M135.756 113.605H16.1483V127.143H135.756V113.605Z" fill="#C5EFF9"/>
<path d="M26.0257 120.235C26.0039 120.726 25.8384 121.2 25.5498 121.598C25.2612 121.995 24.8622 122.3 24.4023 122.473C23.9423 122.646 23.4417 122.68 22.9625 122.571C22.4834 122.462 22.0468 122.214 21.7069 121.859C21.367 121.505 21.1389 121.058 21.0507 120.574C20.9626 120.091 21.0183 119.592 21.2111 119.14C21.4038 118.688 21.7251 118.303 22.1349 118.031C22.5448 117.76 23.0252 117.616 23.5166 117.615C24.1962 117.632 24.8415 117.917 25.3116 118.408C25.7817 118.899 26.0384 119.556 26.0257 120.235Z" fill="white"/>
<path d="M36.2122 120.235C36.1919 120.729 36.0271 121.205 35.7381 121.605C35.4492 122.005 35.0489 122.312 34.5872 122.486C34.1254 122.661 33.6225 122.696 33.141 122.587C32.6596 122.478 32.2208 122.229 31.8794 121.873C31.538 121.516 31.3089 121.067 31.2208 120.581C31.1326 120.096 31.1893 119.595 31.3836 119.141C31.578 118.687 31.9015 118.301 32.314 118.029C32.7264 117.758 33.2095 117.614 33.7031 117.615C34.3827 117.632 35.028 117.917 35.4981 118.408C35.9683 118.899 36.225 119.556 36.2122 120.235Z" fill="white"/>
<path d="M46.399 120.235C46.3788 120.729 46.2139 121.205 45.925 121.605C45.636 122.005 45.2358 122.312 44.774 122.486C44.3122 122.661 43.8093 122.696 43.3278 122.587C42.8464 122.478 42.4077 122.229 42.0662 121.873C41.7248 121.516 41.4958 121.067 41.4076 120.581C41.3195 120.096 41.3761 119.595 41.5705 119.141C41.7648 118.687 42.0884 118.301 42.5008 118.029C42.9132 117.758 43.3963 117.614 43.89 117.615C44.5695 117.632 45.2148 117.917 45.685 118.408C46.1551 118.899 46.4118 119.556 46.399 120.235Z" fill="white"/>
<path d="M322.632 28.163H169.945V180.341H322.632V28.163Z" fill="#F2FBFD"/>
<path d="M322.632 28.163H169.945V45.9883H322.632V28.163Z" fill="#C5EFF9"/>
<path d="M182.952 36.8971C182.924 37.5451 182.706 38.1706 182.325 38.696C181.945 39.2213 181.419 39.6234 180.812 39.8522C180.205 40.0811 179.544 40.1266 178.911 39.9831C178.279 39.8397 177.702 39.5136 177.254 39.0454C176.805 38.5771 176.503 37.9874 176.387 37.3493C176.27 36.7112 176.343 36.053 176.598 35.4563C176.852 34.8595 177.276 34.3506 177.817 33.9927C178.358 33.6349 178.992 33.4438 179.641 33.4431C180.537 33.464 181.389 33.8391 182.009 34.4864C182.63 35.1337 182.969 36.0005 182.952 36.8971Z" fill="white"/>
<path d="M195.393 34.5626C195.833 35.0407 196.123 35.6376 196.226 36.2792C196.33 36.9208 196.242 37.5785 195.974 38.1705C195.706 38.7626 195.27 39.2627 194.72 39.6085C194.17 39.9544 193.53 40.1307 192.88 40.1156C192.231 40.1004 191.6 39.8944 191.066 39.5233C190.533 39.1521 190.121 38.6322 189.881 38.0284C189.641 37.4245 189.584 36.7633 189.717 36.1273C189.85 35.4913 190.167 34.9085 190.629 34.4515C191.276 33.8357 192.141 33.5016 193.034 33.5224C193.927 33.5433 194.776 33.9174 195.393 34.5626Z" fill="white"/>
<path d="M209.773 36.8971C209.745 37.5451 209.527 38.1706 209.147 38.696C208.766 39.2213 208.24 39.6234 207.633 39.8522C207.026 40.0811 206.365 40.1266 205.733 39.9831C205.1 39.8397 204.524 39.5136 204.075 39.0454C203.626 38.5771 203.324 37.9874 203.208 37.3493C203.091 36.7112 203.165 36.053 203.419 35.4563C203.673 34.8595 204.097 34.3506 204.638 33.9927C205.179 33.6349 205.813 33.4438 206.462 33.4431C207.358 33.464 208.21 33.8391 208.83 34.4864C209.451 35.1337 209.79 36.0005 209.773 36.8971Z" fill="white"/>
<path d="M235.927 236.533C223.659 227.965 220.88 212.061 221.365 197.761C221.444 195.379 221.182 192.855 222.317 190.766C223.453 188.678 226.105 187.241 228.241 188.241C230.011 189.075 230.781 191.139 231.774 192.847C233.098 195.12 235.039 196.973 237.372 198.19C238.888 198.984 240.77 199.461 242.271 198.635C244.335 197.499 244.573 194.665 244.557 192.283C244.557 187.852 244.531 183.427 244.478 179.007C244.335 176.634 244.577 174.253 245.193 171.956C245.931 169.701 247.575 167.613 249.822 166.978C252.069 166.343 254.871 167.653 255.38 169.971C255.467 170.953 255.491 171.94 255.451 172.925C255.515 173.918 255.975 175.005 256.904 175.307C257.833 175.609 258.802 174.918 259.516 174.219C261.962 171.837 263.629 168.733 265.178 165.668C266.726 162.603 268.242 159.451 270.466 156.839C272.689 154.226 275.762 152.154 279.2 151.956C282.638 151.757 286.219 153.869 287.076 157.204C287.934 160.539 285.988 163.945 283.9 166.653C280.749 170.671 277.034 174.215 272.871 177.173C272.059 177.617 271.41 178.31 271.021 179.15C270.505 180.738 272.006 182.326 273.57 182.826C275.341 183.414 277.262 183.231 279.128 183.454C280.994 183.676 282.979 184.486 283.686 186.233C284.654 188.662 282.622 191.203 280.629 192.87C276.627 196.205 272.083 198.829 267.194 200.628C265.447 201.263 263.613 201.827 262.2 203.05C260.787 204.272 259.945 206.408 260.795 208.083C261.644 209.759 263.828 210.291 265.662 209.949C267.496 209.608 269.124 208.623 270.871 207.964C274.134 206.734 278.342 206.956 280.398 209.775C281.036 210.746 281.439 211.851 281.577 213.004C281.714 214.157 281.583 215.327 281.192 216.42C280.398 218.597 279.175 220.592 277.596 222.288C272.395 228.501 265.638 233.223 258.016 235.969C250.449 238.589 243.438 239.304 235.919 236.548" fill="#004177"/>
<path d="M283.582 153.917C283.582 153.917 283.511 153.996 283.352 154.139L282.646 154.766C282.026 155.322 281.113 156.132 279.962 157.204C276.698 160.235 273.666 163.507 270.894 166.994C269.124 169.193 267.29 171.686 265.336 174.394C263.383 177.102 261.366 180.023 259.365 183.128C257.232 186.402 255.279 189.789 253.514 193.275C252.593 195.094 251.783 196.991 250.949 198.929L248.488 204.844C245.243 212.295 242.417 219.921 240.024 227.687C238.095 234.041 236.766 240.562 236.054 247.164C235.592 251.619 235.517 256.106 235.831 260.575C235.958 262.163 236.077 263.378 236.189 264.203C236.236 264.6 236.268 264.918 236.3 265.148V265.474C236.266 265.37 236.242 265.264 236.228 265.156C236.189 264.926 236.141 264.616 236.077 264.219C235.935 263.425 235.784 262.171 235.641 260.583C235.258 256.106 235.284 251.604 235.72 247.132C236.389 240.502 237.689 233.951 239.603 227.568C241.977 219.78 244.795 212.135 248.043 204.669L250.568 198.778C251.402 196.848 252.219 194.935 253.148 193.109C254.926 189.612 256.895 186.216 259.048 182.937C261.08 179.761 263.129 176.887 265.058 174.203C266.988 171.52 268.854 169.011 270.616 166.819C273.417 163.342 276.489 160.092 279.803 157.101C280.978 156.045 281.915 155.251 282.55 154.719L283.289 154.123C283.379 154.044 283.478 153.975 283.582 153.917Z" fill="#11B0DB"/>
<path d="M253.252 193.093C253.14 192.766 253.063 192.428 253.022 192.084C252.895 191.425 252.752 190.496 252.585 189.289C252.243 186.907 251.894 183.644 251.521 180.031C251.148 176.419 250.727 173.147 250.378 170.789C250.195 169.614 250.036 168.669 249.925 168.01C249.838 167.673 249.793 167.326 249.79 166.978C249.927 167.296 250.025 167.629 250.084 167.971C250.258 168.622 250.457 169.559 250.679 170.742C251.132 173.124 251.576 176.363 251.95 179.984C252.323 183.604 252.64 186.78 252.887 189.25C253.006 190.361 253.109 191.306 253.188 192.061C253.25 192.401 253.271 192.747 253.252 193.093Z" fill="#11B0DB"/>
<path d="M283.804 187.392C283.418 187.476 283.025 187.524 282.629 187.535C281.835 187.606 280.708 187.701 279.31 187.86C276.516 188.162 272.673 188.718 268.456 189.512C264.24 190.306 260.453 191.203 257.73 191.894C256.372 192.243 255.276 192.561 254.554 192.775C254.168 192.912 253.769 193.008 253.363 193.061C253.729 192.876 254.112 192.725 254.506 192.608C255.252 192.346 256.332 191.981 257.682 191.592C260.389 190.798 264.177 189.853 268.409 189.043C271.994 188.358 275.611 187.854 279.247 187.535C280.652 187.416 281.788 187.368 282.582 187.352C282.99 187.324 283.399 187.338 283.804 187.392Z" fill="#11B0DB"/>
<path d="M239.991 227.012C239.907 226.898 239.837 226.772 239.785 226.639L239.261 225.536C238.808 224.575 238.197 223.154 237.467 221.415C235.99 217.921 234.108 213.03 232.107 207.599C230.106 202.168 228.264 197.277 226.867 193.744C226.184 192.029 225.62 190.623 225.199 189.575L224.755 188.44C224.693 188.309 224.65 188.17 224.628 188.027C224.712 188.142 224.782 188.267 224.834 188.4L225.358 189.504C225.803 190.465 226.422 191.886 227.153 193.625C228.629 197.118 230.511 202.009 232.512 207.44C234.513 212.871 236.355 217.762 237.752 221.296C238.435 223.011 238.999 224.416 239.412 225.464C239.595 225.917 239.745 226.258 239.864 226.6C239.926 226.731 239.969 226.87 239.991 227.012Z" fill="#263238"/>
<path d="M280.549 213.935C280.422 214.008 280.286 214.064 280.144 214.102L278.969 214.499L274.626 215.904C270.958 217.095 265.892 218.794 260.334 220.668C254.776 222.542 249.687 224.21 245.994 225.321C244.152 225.885 242.652 226.314 241.612 226.6L240.413 226.909C240.273 226.953 240.13 226.983 239.984 226.997C240.111 226.924 240.247 226.867 240.389 226.83L241.564 226.433L245.907 225.027C249.575 223.836 254.641 222.137 260.199 220.263C265.757 218.39 270.839 216.722 274.531 215.611C276.381 215.047 277.874 214.618 278.922 214.332L280.121 214.023C280.26 213.978 280.404 213.949 280.549 213.935Z" fill="#11B0DB"/>
<path d="M222.199 273.541L142.886 273.176C138.306 273.15 133.923 271.308 130.7 268.054C127.477 264.8 125.677 260.399 125.696 255.819L126.538 56.9932C126.547 54.724 127.003 52.4789 127.881 50.3862C128.758 48.2935 130.04 46.3943 131.652 44.7971C133.264 43.1999 135.175 41.936 137.275 41.0778C139.376 40.2195 141.625 39.7837 143.894 39.7952L223.199 40.1604C227.779 40.1835 232.163 42.0236 235.388 45.2764C238.612 48.5293 240.414 52.929 240.397 57.5093L239.555 256.327C239.546 258.597 239.09 260.843 238.212 262.936C237.335 265.03 236.054 266.93 234.442 268.529C232.83 270.127 230.92 271.392 228.819 272.252C226.718 273.112 224.469 273.55 222.199 273.541Z" fill="#455A64"/>
<path d="M223.08 46.9967H207.708C207.207 47.006 206.712 47.114 206.252 47.3146C205.792 47.5152 205.376 47.8044 205.028 48.1657C204.68 48.527 204.407 48.9533 204.224 49.4203C204.04 49.8873 203.951 50.3858 203.961 50.8873V53.6743C203.97 54.1754 203.88 54.6736 203.697 55.1401C203.514 55.6066 203.24 56.0324 202.892 56.3931C202.544 56.7537 202.128 57.0422 201.668 57.2419C201.209 57.4416 200.714 57.5487 200.213 57.5569L170.247 57.4219C169.234 57.3949 168.272 56.9667 167.574 56.2312C166.876 55.4958 166.498 54.5133 166.523 53.4996V50.7126C166.549 49.7002 166.172 48.7189 165.476 47.9837C164.779 47.2485 163.82 46.8194 162.807 46.7903H157.4L143.942 46.7268C140.741 46.7077 137.663 47.9579 135.381 50.2035C133.1 52.4491 131.801 55.5072 131.77 58.7082L130.976 252.778C130.969 254.366 131.274 255.94 131.875 257.41C132.476 258.88 133.361 260.217 134.479 261.345C135.596 262.473 136.925 263.37 138.39 263.984C139.854 264.599 141.425 264.919 143.013 264.926L222.159 265.291C223.748 265.298 225.323 264.993 226.794 264.391C228.265 263.79 229.603 262.905 230.732 261.786C231.861 260.668 232.758 259.338 233.373 257.873C233.988 256.407 234.308 254.835 234.315 253.246L235.109 59.1767C235.128 55.9667 233.872 52.8805 231.616 50.5965C229.36 48.3125 226.29 47.0177 223.08 46.9967Z" fill="white"/>
<path d="M212.432 239.399L153.581 239.145C152.97 239.145 152.477 238.478 152.485 237.668L152.549 222.272C152.549 221.478 153.049 220.795 153.66 220.795L212.512 221.065C212.851 221.124 213.154 221.311 213.358 221.588C213.562 221.864 213.651 222.209 213.608 222.55L213.552 237.93C213.552 238.748 213.044 239.407 212.432 239.399Z" fill="#11B0DB"/>
<path d="M165.659 233.042C165.237 233.042 164.83 232.974 164.44 232.838C164.055 232.703 163.757 232.524 163.545 232.302L163.781 231.838C163.987 232.044 164.261 232.212 164.602 232.342C164.944 232.467 165.296 232.529 165.659 232.529C166.169 232.529 166.551 232.437 166.806 232.253C167.061 232.063 167.188 231.819 167.188 231.521C167.188 231.293 167.118 231.112 166.977 230.976C166.841 230.841 166.673 230.738 166.473 230.667C166.272 230.591 165.993 230.51 165.635 230.423C165.207 230.315 164.865 230.212 164.61 230.114C164.356 230.011 164.136 229.857 163.952 229.651C163.773 229.445 163.684 229.166 163.684 228.813C163.684 228.526 163.759 228.266 163.911 228.033C164.063 227.794 164.296 227.605 164.61 227.464C164.925 227.323 165.315 227.252 165.781 227.252C166.107 227.252 166.424 227.298 166.733 227.39C167.047 227.477 167.318 227.599 167.546 227.756L167.343 228.236C167.104 228.079 166.849 227.962 166.578 227.886C166.307 227.805 166.042 227.764 165.781 227.764C165.283 227.764 164.906 227.862 164.651 228.057C164.402 228.247 164.277 228.494 164.277 228.797C164.277 229.025 164.345 229.209 164.48 229.35C164.621 229.486 164.795 229.591 165.001 229.667C165.212 229.738 165.494 229.816 165.846 229.903C166.264 230.006 166.6 230.109 166.855 230.212C167.115 230.31 167.334 230.461 167.513 230.667C167.692 230.868 167.782 231.142 167.782 231.489C167.782 231.776 167.703 232.039 167.546 232.277C167.394 232.51 167.158 232.697 166.838 232.838C166.519 232.974 166.126 233.042 165.659 233.042ZM169.093 227.301H169.694V232.993H169.093V227.301ZM176.303 227.301V232.993H175.807L172.148 228.374V232.993H171.546V227.301H172.042L175.71 231.92V227.301H176.303ZM182.17 230.147H182.747V232.318C182.481 232.551 182.167 232.73 181.804 232.855C181.441 232.979 181.058 233.042 180.657 233.042C180.088 233.042 179.576 232.917 179.121 232.668C178.665 232.418 178.307 232.074 178.047 231.635C177.787 231.19 177.657 230.694 177.657 230.147C177.657 229.599 177.787 229.106 178.047 228.667C178.307 228.223 178.665 227.876 179.121 227.626C179.576 227.377 180.091 227.252 180.665 227.252C181.099 227.252 181.498 227.323 181.861 227.464C182.224 227.599 182.53 227.802 182.78 228.073L182.406 228.456C181.956 228.011 181.384 227.789 180.69 227.789C180.229 227.789 179.812 227.892 179.438 228.098C179.069 228.298 178.779 228.58 178.568 228.944C178.356 229.301 178.25 229.702 178.25 230.147C178.25 230.591 178.356 230.993 178.568 231.35C178.779 231.708 179.069 231.99 179.438 232.196C179.806 232.402 180.221 232.505 180.682 232.505C181.267 232.505 181.763 232.359 182.17 232.066V230.147ZM188.871 233.042C188.134 233.042 187.559 232.83 187.147 232.407C186.735 231.985 186.529 231.369 186.529 230.562V227.301H187.131V230.537C187.131 231.199 187.28 231.692 187.578 232.017C187.876 232.342 188.307 232.505 188.871 232.505C189.44 232.505 189.874 232.342 190.172 232.017C190.47 231.692 190.619 231.199 190.619 230.537V227.301H191.205V230.562C191.205 231.369 190.999 231.985 190.587 232.407C190.18 232.83 189.608 233.042 188.871 233.042ZM195.148 227.301C195.875 227.301 196.444 227.474 196.856 227.821C197.268 228.168 197.474 228.645 197.474 229.252C197.474 229.86 197.268 230.337 196.856 230.684C196.444 231.025 195.875 231.196 195.148 231.196H193.62V232.993H193.018V227.301H195.148ZM195.132 230.667C195.696 230.667 196.127 230.545 196.425 230.301C196.723 230.052 196.872 229.702 196.872 229.252C196.872 228.792 196.723 228.439 196.425 228.195C196.127 227.946 195.696 227.821 195.132 227.821H193.62V230.667H195.132Z" fill="#F2FBFD"/>
<path d="M165.32 104.046L144.898 103.953L144.881 107.701L165.303 107.794L165.32 104.046Z" fill="#11B0DB"/>
<path opacity="0.1" d="M165.32 104.046L144.898 103.953L144.881 107.701L165.303 107.794L165.32 104.046Z" fill="black"/>
<path d="M225.184 127.056C225.345 127.04 225.502 127.002 225.653 126.945C225.873 126.859 226.064 126.713 226.204 126.523C226.345 126.333 226.429 126.108 226.447 125.873C226.447 124.61 226.447 122.768 226.447 120.402C226.447 119.219 226.447 117.893 226.447 116.432C226.447 116.075 226.447 115.702 226.447 115.328C226.499 114.966 226.42 114.598 226.225 114.288C226.115 114.14 225.973 114.019 225.809 113.935C225.645 113.851 225.464 113.806 225.28 113.804H224.041H212.568L146.158 113.558C145.988 113.555 145.819 113.593 145.667 113.669C145.515 113.745 145.384 113.857 145.284 113.994C145.092 114.305 145.019 114.674 145.078 115.035C145.078 115.829 145.078 116.623 145.078 117.417C145.078 119.005 145.078 120.593 145.078 122.181C145.078 122.975 145.078 123.769 145.078 124.563C145.045 124.932 145.045 125.304 145.078 125.674C145.119 125.833 145.197 125.98 145.304 126.103C145.412 126.227 145.546 126.325 145.697 126.389C145.853 126.451 146.021 126.481 146.189 126.476H150.231L167.866 126.571L197.72 126.754L217.848 126.913L223.318 126.976H224.74C225.065 126.976 225.224 126.976 225.224 126.976H224.74H223.318H217.848H197.72L167.866 126.881L150.231 126.81H146.189C145.967 126.819 145.745 126.781 145.538 126.698C145.329 126.609 145.143 126.473 144.995 126.301C144.846 126.129 144.739 125.926 144.681 125.706C144.635 125.498 144.619 125.284 144.633 125.071V124.483C144.633 123.689 144.633 122.895 144.633 122.101C144.633 120.513 144.633 118.925 144.633 117.337C144.633 116.543 144.633 115.749 144.633 114.955C144.618 114.744 144.618 114.531 144.633 114.32C144.663 114.086 144.753 113.865 144.895 113.677C145.032 113.485 145.213 113.329 145.423 113.223C145.634 113.117 145.866 113.063 146.102 113.065L212.512 113.431L223.985 113.51H225.224C225.442 113.51 225.657 113.563 225.851 113.664C226.044 113.765 226.211 113.911 226.336 114.09C226.56 114.435 226.65 114.85 226.59 115.257C226.59 115.63 226.59 116.003 226.59 116.361C226.59 117.806 226.59 119.132 226.59 120.331C226.59 122.713 226.534 124.539 226.518 125.809C226.499 126.053 226.41 126.287 226.262 126.483C226.115 126.678 225.914 126.827 225.685 126.913C225.534 127.006 225.361 127.055 225.184 127.056Z" fill="#C5EFF9"/>
<path d="M188.382 117.544H151.032V121.045H188.382V117.544Z" fill="#11B0DB"/>
<path opacity="0.2" d="M188.382 117.544H151.032V121.045H188.382V117.544Z" fill="white"/>
<path d="M165.18 138.234L144.759 138.142L144.742 141.889L165.163 141.982L165.18 138.234Z" fill="#11B0DB"/>
<path opacity="0.1" d="M165.18 138.234L144.759 138.142L144.742 141.889L165.163 141.982L165.18 138.234Z" fill="black"/>
<path d="M224.668 161.245C224.828 161.226 224.987 161.196 225.144 161.158C225.366 161.087 225.57 160.97 225.743 160.814C225.915 160.658 226.053 160.467 226.145 160.253C226.27 159.932 226.319 159.587 226.288 159.244C226.288 158.863 226.288 158.45 226.288 157.99C226.288 157.069 226.288 156.021 226.288 154.814V149.772C226.326 149.407 226.245 149.04 226.058 148.724C225.862 148.4 225.554 148.16 225.192 148.049C224.797 147.979 224.394 147.957 223.993 147.986H212.567L146.388 147.739C146.032 147.74 145.688 147.87 145.421 148.105C145.154 148.341 144.981 148.665 144.935 149.018C144.935 149.772 144.935 150.606 144.935 151.4C144.935 152.988 144.935 154.576 144.935 156.164C144.935 156.958 144.935 157.752 144.935 158.546C144.905 158.917 144.921 159.29 144.982 159.657C145.081 159.979 145.285 160.259 145.562 160.451C145.855 160.638 146.2 160.726 146.546 160.705H147.65H149.945L167.516 160.793L197.267 160.975L217.324 161.134L222.778 161.198H224.2H224.676H224.2H222.778H217.324H197.267L167.5 161.166L149.929 161.102H146.475C146.045 161.128 145.619 161.014 145.26 160.777C144.899 160.527 144.635 160.159 144.514 159.737C144.443 159.333 144.421 158.923 144.45 158.514C144.45 157.72 144.45 156.926 144.45 156.132C144.45 154.544 144.45 152.956 144.45 151.368C144.45 150.574 144.45 149.78 144.45 148.986C144.508 148.532 144.73 148.115 145.073 147.812C145.416 147.51 145.858 147.343 146.316 147.342L212.496 147.708L223.922 147.795C224.347 147.769 224.774 147.798 225.192 147.882C225.605 148.017 225.953 148.3 226.169 148.676C226.374 149.026 226.463 149.432 226.423 149.836C226.423 150.209 226.423 150.574 226.423 150.939C226.423 152.376 226.423 153.694 226.423 154.909C226.423 156.124 226.423 157.148 226.423 158.085C226.423 158.538 226.423 158.959 226.423 159.348C226.452 159.703 226.394 160.06 226.256 160.388C226.153 160.607 226.004 160.801 225.819 160.957C225.634 161.114 225.417 161.228 225.184 161.293C225.011 161.307 224.836 161.291 224.668 161.245Z" fill="#C5EFF9"/>
<path d="M165.027 173.908L144.605 173.815L144.588 177.563L165.01 177.655L165.027 173.908Z" fill="#11B0DB"/>
<path opacity="0.1" d="M165.027 173.908L144.605 173.815L144.588 177.563L165.01 177.655L165.027 173.908Z" fill="black"/>
<path d="M224.51 196.904C224.67 196.885 224.829 196.856 224.986 196.817C225.207 196.746 225.41 196.63 225.583 196.476C225.755 196.321 225.893 196.131 225.986 195.919C226.111 195.599 226.16 195.254 226.129 194.911C226.129 194.522 226.129 194.117 226.129 193.649C226.129 192.735 226.129 191.679 226.129 190.473V185.431C226.167 185.066 226.086 184.698 225.899 184.383C225.699 184.065 225.392 183.829 225.034 183.716C224.638 183.642 224.236 183.618 223.835 183.644H212.409L146.229 183.398C145.873 183.399 145.53 183.529 145.262 183.764C144.995 183.999 144.822 184.323 144.776 184.676C144.776 185.47 144.776 186.264 144.776 187.058C144.776 188.646 144.776 190.234 144.776 191.822C144.776 192.616 144.776 193.41 144.776 194.204C144.746 194.573 144.762 194.944 144.824 195.308C144.919 195.632 145.124 195.913 145.403 196.102C145.695 196.292 146.041 196.382 146.388 196.356H149.842L167.413 196.451L197.164 196.634L217.221 196.793L222.675 196.856H224.097C224.414 196.856 224.573 196.856 224.573 196.856C224.573 196.856 224.414 196.856 224.097 196.856H222.675H217.221H197.164L167.413 196.769L149.842 196.698H146.388C145.958 196.727 145.531 196.612 145.173 196.372C144.812 196.122 144.548 195.754 144.427 195.332C144.356 194.928 144.334 194.518 144.363 194.109C144.363 193.315 144.363 192.521 144.363 191.727C144.363 190.139 144.363 188.551 144.363 186.963C144.363 186.169 144.363 185.375 144.363 184.541C144.419 184.088 144.639 183.671 144.981 183.368C145.323 183.065 145.764 182.898 146.221 182.898L212.401 183.263L223.827 183.35C224.252 183.324 224.679 183.354 225.097 183.438C225.51 183.572 225.858 183.855 226.074 184.232C226.279 184.581 226.368 184.987 226.328 185.391C226.328 185.764 226.328 186.137 226.328 186.495C226.328 187.932 226.328 189.25 226.328 190.465C226.328 191.679 226.328 192.704 226.328 193.641C226.328 194.093 226.328 194.514 226.328 194.903C226.358 195.258 226.301 195.615 226.161 195.943C226.058 196.162 225.909 196.357 225.724 196.513C225.539 196.669 225.322 196.783 225.089 196.848C224.903 196.912 224.704 196.931 224.51 196.904Z" fill="#C5EFF9"/>
<path d="M187.585 152.723L150.235 152.554L150.22 156.055L187.569 156.225L187.585 152.723Z" fill="#11B0DB"/>
<path opacity="0.2" d="M187.585 152.723L150.235 152.554L150.22 156.055L187.569 156.225L187.585 152.723Z" fill="white"/>
<path d="M153.613 190.425C153.59 190.744 153.473 191.05 153.277 191.304C153.082 191.557 152.816 191.748 152.514 191.852C152.211 191.956 151.884 191.969 151.574 191.889C151.264 191.809 150.984 191.64 150.769 191.403C150.554 191.165 150.414 190.87 150.365 190.554C150.317 190.237 150.362 189.913 150.496 189.622C150.629 189.331 150.846 189.086 151.117 188.917C151.389 188.747 151.705 188.662 152.025 188.67C152.467 188.695 152.882 188.893 153.179 189.221C153.477 189.55 153.632 189.982 153.613 190.425Z" fill="#11B0DB"/>
<path d="M158.67 190.449C158.686 190.673 158.655 190.897 158.58 191.109C158.506 191.32 158.388 191.514 158.235 191.678C158.082 191.842 157.897 191.973 157.691 192.063C157.485 192.152 157.263 192.198 157.039 192.198C156.814 192.198 156.592 192.152 156.386 192.063C156.181 191.973 155.996 191.842 155.842 191.678C155.689 191.514 155.572 191.32 155.497 191.109C155.422 190.897 155.391 190.673 155.407 190.449C155.391 190.225 155.422 190 155.497 189.789C155.572 189.577 155.689 189.383 155.842 189.219C155.996 189.055 156.181 188.924 156.386 188.835C156.592 188.745 156.814 188.699 157.039 188.699C157.263 188.699 157.485 188.745 157.691 188.835C157.897 188.924 158.082 189.055 158.235 189.219C158.388 189.383 158.506 189.577 158.58 189.789C158.655 190 158.686 190.225 158.67 190.449Z" fill="#11B0DB"/>
<path d="M163.737 190.473C163.713 190.792 163.597 191.097 163.401 191.351C163.206 191.605 162.94 191.796 162.637 191.9C162.334 192.004 162.008 192.017 161.698 191.937C161.387 191.857 161.108 191.688 160.893 191.45C160.678 191.213 160.537 190.918 160.489 190.601C160.44 190.285 160.486 189.961 160.619 189.67C160.753 189.379 160.969 189.133 161.241 188.964C161.513 188.795 161.829 188.709 162.149 188.718C162.59 188.744 163.004 188.943 163.301 189.271C163.598 189.599 163.754 190.03 163.737 190.473Z" fill="#11B0DB"/>
<path d="M168.794 190.496C168.771 190.816 168.654 191.121 168.459 191.375C168.263 191.629 167.998 191.819 167.695 191.923C167.392 192.028 167.065 192.04 166.755 191.961C166.445 191.881 166.165 191.712 165.95 191.474C165.736 191.237 165.595 190.941 165.547 190.625C165.498 190.308 165.543 189.985 165.677 189.694C165.811 189.403 166.027 189.157 166.299 188.988C166.571 188.819 166.886 188.733 167.206 188.742C167.648 188.768 168.062 188.967 168.358 189.295C168.655 189.623 168.812 190.054 168.794 190.496Z" fill="#11B0DB"/>
<path d="M173.852 190.512C173.83 190.832 173.714 191.138 173.52 191.393C173.325 191.648 173.06 191.84 172.757 191.945C172.454 192.051 172.127 192.065 171.817 191.986C171.506 191.907 171.225 191.738 171.01 191.501C170.794 191.264 170.653 190.968 170.604 190.651C170.555 190.335 170.6 190.01 170.733 189.719C170.867 189.427 171.083 189.182 171.355 189.012C171.627 188.843 171.943 188.757 172.264 188.765C172.704 188.792 173.116 188.99 173.413 189.316C173.71 189.642 173.867 190.072 173.852 190.512Z" fill="#11B0DB"/>
<path d="M178.918 190.536C178.896 190.854 178.782 191.159 178.589 191.413C178.397 191.667 178.134 191.86 177.833 191.966C177.533 192.073 177.207 192.09 176.898 192.014C176.588 191.938 176.307 191.773 176.089 191.54C175.872 191.307 175.728 191.015 175.674 190.7C175.62 190.386 175.659 190.063 175.787 189.771C175.915 189.478 176.125 189.23 176.392 189.055C176.659 188.881 176.971 188.788 177.29 188.789C177.737 188.806 178.16 188.999 178.465 189.326C178.77 189.654 178.933 190.089 178.918 190.536Z" fill="#11B0DB"/>
<path d="M183.976 190.56C183.991 190.784 183.961 191.008 183.886 191.22C183.811 191.431 183.693 191.625 183.54 191.789C183.387 191.953 183.202 192.084 182.996 192.174C182.79 192.263 182.568 192.309 182.344 192.309C182.119 192.309 181.897 192.263 181.692 192.174C181.486 192.084 181.301 191.953 181.148 191.789C180.995 191.625 180.877 191.431 180.802 191.22C180.727 191.008 180.697 190.784 180.712 190.56C180.697 190.336 180.727 190.111 180.802 189.9C180.877 189.688 180.995 189.494 181.148 189.33C181.301 189.166 181.486 189.035 181.692 188.946C181.897 188.857 182.119 188.81 182.344 188.81C182.568 188.81 182.79 188.857 182.996 188.946C183.202 189.035 183.387 189.166 183.54 189.33C183.693 189.494 183.811 189.688 183.886 189.9C183.961 190.111 183.991 190.336 183.976 190.56Z" fill="#11B0DB"/>
<path d="M189.033 190.584C189.012 190.902 188.897 191.207 188.705 191.461C188.512 191.715 188.249 191.907 187.949 192.014C187.648 192.121 187.323 192.137 187.013 192.061C186.703 191.986 186.422 191.821 186.205 191.588C185.987 191.354 185.843 191.062 185.789 190.748C185.736 190.434 185.775 190.11 185.902 189.818C186.03 189.526 186.24 189.277 186.507 189.103C186.774 188.929 187.087 188.836 187.406 188.837C187.853 188.853 188.275 189.047 188.58 189.374C188.885 189.701 189.048 190.136 189.033 190.584Z" fill="#11B0DB"/>
<path d="M194.091 190.608C194.069 190.927 193.954 191.234 193.759 191.489C193.565 191.743 193.299 191.935 192.997 192.041C192.694 192.146 192.367 192.16 192.056 192.081C191.745 192.002 191.465 191.833 191.249 191.596C191.033 191.359 190.892 191.063 190.843 190.747C190.794 190.43 190.839 190.106 190.972 189.814C191.106 189.523 191.322 189.277 191.595 189.107C191.867 188.938 192.183 188.852 192.503 188.861C192.943 188.887 193.356 189.085 193.652 189.411C193.949 189.738 194.106 190.167 194.091 190.608Z" fill="#11B0DB"/>
<g opacity="0.2">
<path opacity="0.2" d="M153.613 190.425C153.59 190.744 153.473 191.05 153.277 191.304C153.082 191.557 152.816 191.748 152.514 191.852C152.211 191.956 151.884 191.969 151.574 191.889C151.264 191.809 150.984 191.64 150.769 191.403C150.554 191.165 150.414 190.87 150.365 190.554C150.317 190.237 150.362 189.913 150.496 189.622C150.629 189.331 150.846 189.086 151.117 188.917C151.389 188.747 151.705 188.662 152.025 188.67C152.467 188.695 152.882 188.893 153.179 189.221C153.477 189.55 153.632 189.982 153.613 190.425Z" fill="white"/>
<path opacity="0.2" d="M158.671 190.449C158.687 190.673 158.656 190.897 158.581 191.109C158.506 191.32 158.389 191.514 158.236 191.678C158.083 191.842 157.897 191.973 157.692 192.063C157.486 192.152 157.264 192.198 157.039 192.198C156.815 192.198 156.593 192.152 156.387 192.063C156.182 191.973 155.996 191.842 155.843 191.678C155.69 191.514 155.573 191.32 155.498 191.109C155.423 190.897 155.392 190.673 155.408 190.449C155.392 190.225 155.423 190 155.498 189.789C155.573 189.577 155.69 189.383 155.843 189.219C155.996 189.055 156.182 188.924 156.387 188.835C156.593 188.745 156.815 188.699 157.039 188.699C157.264 188.699 157.486 188.745 157.692 188.835C157.897 188.924 158.083 189.055 158.236 189.219C158.389 189.383 158.506 189.577 158.581 189.789C158.656 190 158.687 190.225 158.671 190.449Z" fill="white"/>
<path opacity="0.2" d="M163.737 190.473C163.713 190.792 163.597 191.097 163.401 191.351C163.206 191.605 162.94 191.795 162.637 191.9C162.334 192.004 162.008 192.017 161.698 191.937C161.387 191.857 161.108 191.688 160.893 191.45C160.678 191.213 160.537 190.918 160.489 190.601C160.44 190.285 160.486 189.961 160.619 189.67C160.753 189.379 160.969 189.133 161.241 188.964C161.513 188.795 161.829 188.709 162.149 188.718C162.59 188.744 163.004 188.943 163.301 189.271C163.598 189.599 163.754 190.03 163.737 190.473Z" fill="white"/>
<path opacity="0.2" d="M168.795 190.496C168.771 190.816 168.654 191.121 168.459 191.375C168.264 191.629 167.998 191.819 167.695 191.923C167.392 192.028 167.066 192.041 166.755 191.961C166.445 191.881 166.165 191.712 165.951 191.474C165.736 191.237 165.595 190.941 165.547 190.625C165.498 190.308 165.543 189.985 165.677 189.694C165.811 189.403 166.027 189.157 166.299 188.988C166.571 188.819 166.886 188.733 167.207 188.742C167.648 188.768 168.062 188.967 168.359 189.295C168.655 189.623 168.812 190.054 168.795 190.496Z" fill="white"/>
<path opacity="0.2" d="M173.852 190.512C173.83 190.832 173.714 191.138 173.52 191.393C173.325 191.648 173.06 191.84 172.757 191.945C172.455 192.051 172.127 192.065 171.817 191.986C171.506 191.907 171.225 191.738 171.01 191.501C170.794 191.264 170.653 190.968 170.604 190.651C170.555 190.335 170.6 190.01 170.733 189.719C170.867 189.427 171.083 189.182 171.355 189.012C171.627 188.843 171.943 188.757 172.264 188.765C172.704 188.792 173.116 188.99 173.413 189.316C173.71 189.642 173.867 190.072 173.852 190.512Z" fill="white"/>
<path opacity="0.2" d="M178.918 190.536C178.896 190.854 178.782 191.159 178.589 191.413C178.397 191.667 178.134 191.86 177.833 191.966C177.533 192.073 177.207 192.089 176.898 192.014C176.588 191.938 176.307 191.773 176.09 191.54C175.872 191.307 175.728 191.015 175.674 190.7C175.62 190.386 175.66 190.063 175.787 189.771C175.915 189.478 176.125 189.23 176.392 189.055C176.659 188.881 176.971 188.789 177.29 188.789C177.738 188.806 178.16 188.999 178.465 189.326C178.77 189.654 178.933 190.089 178.918 190.536Z" fill="white"/>
<path opacity="0.2" d="M183.975 190.56C183.991 190.784 183.96 191.008 183.885 191.22C183.81 191.431 183.693 191.625 183.54 191.789C183.387 191.953 183.201 192.084 182.996 192.174C182.79 192.263 182.568 192.309 182.343 192.309C182.119 192.309 181.897 192.263 181.691 192.174C181.485 192.084 181.3 191.953 181.147 191.789C180.994 191.625 180.877 191.431 180.802 191.22C180.727 191.008 180.696 190.784 180.712 190.56C180.696 190.336 180.727 190.111 180.802 189.9C180.877 189.688 180.994 189.495 181.147 189.33C181.3 189.166 181.485 189.035 181.691 188.946C181.897 188.857 182.119 188.81 182.343 188.81C182.568 188.81 182.79 188.857 182.996 188.946C183.201 189.035 183.387 189.166 183.54 189.33C183.693 189.495 183.81 189.688 183.885 189.9C183.96 190.111 183.991 190.336 183.975 190.56Z" fill="white"/>
<path opacity="0.2" d="M189.033 190.584C189.012 190.902 188.897 191.207 188.705 191.461C188.512 191.715 188.249 191.907 187.948 192.014C187.648 192.121 187.323 192.137 187.013 192.061C186.703 191.986 186.422 191.821 186.205 191.588C185.987 191.354 185.843 191.062 185.789 190.748C185.735 190.434 185.775 190.11 185.902 189.818C186.03 189.526 186.24 189.277 186.507 189.103C186.774 188.929 187.087 188.836 187.406 188.837C187.853 188.854 188.275 189.047 188.58 189.374C188.885 189.701 189.048 190.136 189.033 190.584Z" fill="white"/>
<path opacity="0.2" d="M194.091 190.608C194.069 190.927 193.954 191.234 193.759 191.489C193.565 191.743 193.3 191.935 192.997 192.041C192.694 192.146 192.367 192.16 192.056 192.081C191.745 192.002 191.465 191.833 191.249 191.596C191.033 191.359 190.892 191.063 190.843 190.747C190.794 190.43 190.839 190.106 190.973 189.814C191.106 189.523 191.323 189.277 191.595 189.107C191.867 188.938 192.183 188.852 192.503 188.861C192.943 188.887 193.356 189.085 193.652 189.411C193.949 189.738 194.107 190.167 194.091 190.608Z" fill="white"/>
</g>
<path d="M186.906 75.9857C187.457 75.7428 187.925 75.3431 188.252 74.8362C188.578 74.3294 188.748 73.7379 188.74 73.1352C188.761 72.7435 188.701 72.3516 188.565 71.9836C188.43 71.6155 188.22 71.279 187.95 70.9944C187.68 70.7098 187.355 70.4832 186.995 70.3284C186.634 70.1735 186.246 70.0936 185.854 70.0936C185.462 70.0936 185.073 70.1735 184.713 70.3284C184.352 70.4832 184.027 70.7098 183.757 70.9944C183.487 71.279 183.278 71.6155 183.142 71.9836C183.006 72.3516 182.947 72.7435 182.968 73.1352C182.956 73.7439 183.124 74.3425 183.452 74.8555C183.78 75.3685 184.252 75.7728 184.81 76.0174C180.363 76.6844 180.562 81.5119 180.562 81.5119L191.074 81.5596C191.074 81.5596 191.321 76.6447 186.906 75.9857Z" fill="#11B0DB"/>
<path opacity="0.1" d="M186.906 75.9857C187.457 75.7428 187.925 75.3431 188.252 74.8362C188.578 74.3294 188.748 73.7379 188.74 73.1352C188.761 72.7435 188.701 72.3516 188.565 71.9836C188.43 71.6155 188.22 71.279 187.95 70.9944C187.68 70.7098 187.355 70.4832 186.995 70.3284C186.634 70.1735 186.246 70.0936 185.854 70.0936C185.462 70.0936 185.073 70.1735 184.713 70.3284C184.352 70.4832 184.027 70.7098 183.757 70.9944C183.487 71.279 183.278 71.6155 183.142 71.9836C183.006 72.3516 182.947 72.7435 182.968 73.1352C182.956 73.7439 183.124 74.3425 183.452 74.8555C183.78 75.3685 184.252 75.7728 184.81 76.0174C180.363 76.6844 180.562 81.5119 180.562 81.5119L191.074 81.5596C191.074 81.5596 191.321 76.6447 186.906 75.9857Z" fill="black"/>
<path d="M203.988 84.6732L166.519 84.5032L166.499 88.9813L203.968 89.1513L203.988 84.6732Z" fill="#11B0DB"/>
<path opacity="0.2" d="M203.988 84.6732L166.519 84.5032L166.499 88.9813L203.968 89.1513L203.988 84.6732Z" fill="white"/>
<path d="M66.2414 107.881H65.8683L64.7884 107.96C64.204 107.995 63.6229 108.072 63.0495 108.19C62.6782 108.243 62.3098 108.314 61.9459 108.405L60.7152 108.746C58.6205 109.389 56.6441 110.368 54.8634 111.644C52.5107 113.352 50.5461 115.538 49.099 118.06C48.2484 119.513 47.5715 121.062 47.0822 122.673C46.5681 124.424 46.2721 126.232 46.2009 128.056C46.1535 129.014 46.1694 129.974 46.2485 130.931C46.2485 131.415 46.3835 131.899 46.447 132.391C46.5004 132.888 46.5933 133.379 46.7249 133.86C47.4389 137.046 48.8876 140.022 50.9554 142.549C53.0233 145.075 55.653 147.084 58.6349 148.414C60.7931 149.346 63.1063 149.865 65.4554 149.947C67.8816 150.08 70.3103 149.732 72.6014 148.923L73.3001 148.66H73.3954L73.4748 148.708L83.4871 153.79L83.1934 154.044C82.1215 150.725 81.0893 147.509 80.0888 144.421V144.301L80.1762 144.214C82.605 141.768 84.4081 138.772 85.4324 135.48C86.3602 132.471 86.631 129.297 86.2264 126.174C85.8666 123.399 84.9742 120.719 83.5983 118.282C82.4123 116.189 80.8823 114.31 79.0725 112.724C77.5793 111.469 75.9267 110.417 74.1576 109.596C72.819 109.018 71.4249 108.579 69.9971 108.286L68.4091 108.024L67.2578 107.936L66.559 107.889H66.3208C66.4 107.88 66.4799 107.88 66.559 107.889H67.2657L68.417 107.936L70.005 108.167C71.4506 108.439 72.8638 108.862 74.2211 109.429C76.0206 110.241 77.703 111.29 79.2234 112.549C81.0664 114.128 82.6289 116.007 83.8444 118.107C85.2594 120.571 86.1791 123.287 86.552 126.103C86.9901 129.274 86.7382 132.503 85.8135 135.567C84.7825 138.928 82.9515 141.987 80.4779 144.484L80.5255 144.278C81.526 147.366 82.5661 150.582 83.6459 153.893L83.7968 154.377L83.3442 154.147L73.3319 149.073H73.5065L72.7919 149.335C70.4567 150.157 67.9831 150.513 65.511 150.383C63.1112 150.292 60.7496 149.754 58.5476 148.795C54.3471 146.997 50.8523 143.87 48.5987 139.895C47.5617 138.059 46.8044 136.079 46.3517 134.019C46.2278 133.525 46.1349 133.024 46.0738 132.519C46.0103 132.018 45.9071 131.526 45.8833 131.034C45.6684 128.209 45.967 125.368 46.7646 122.649C47.2661 121.016 47.9618 119.448 48.8369 117.98C50.3186 115.436 52.3241 113.236 54.7205 111.525C56.5305 110.245 58.5401 109.274 60.6675 108.651L61.9141 108.333C62.281 108.248 62.652 108.182 63.0257 108.135C63.6051 108.027 64.1916 107.964 64.7805 107.944L65.8683 107.905C65.9919 107.888 66.1166 107.88 66.2414 107.881Z" fill="#11B0DB"/>
<path d="M70.7671 126.397H69.2982L66.1222 121.934V119.005C66.1222 119.005 63.8513 118.862 64.1213 122.697C64.3912 126.532 64.1213 125.555 64.1213 125.555C64.1213 125.555 59.3017 125.555 58.9047 125.992C58.5077 126.429 58.4839 131.081 58.4283 133.678C58.3979 134.304 58.5775 134.922 58.9386 135.434C59.2996 135.946 59.8215 136.323 60.4212 136.504C60.5894 136.551 60.7629 136.575 60.9373 136.576C62.1442 136.576 68.2818 135.599 68.2818 135.599H70.8147L70.7671 126.397Z" fill="#11B0DB"/>
<path d="M74.9669 125.611L74.0618 135.647H71.5527V125.817L74.9669 125.611Z" fill="#11B0DB"/>
<path d="M165.42 344.147C74.614 344.147 1.00122 339.85 1.00122 334.548C1.00122 329.247 74.614 324.949 165.42 324.949C256.226 324.949 329.839 329.247 329.839 334.548C329.839 339.85 256.226 344.147 165.42 344.147Z" fill="#F2FBFD"/>
<path d="M104.893 329.931V323.142L92.7208 323.055L92.6176 333.321L93.3719 333.377C96.7305 333.591 110.459 333.909 112.714 333.21C115.223 332.432 104.893 329.931 104.893 329.931Z" fill="#11B0DB"/>
<path d="M113 332.575C113 332.686 108.442 332.781 102.829 332.781C97.2151 332.781 92.6575 332.686 92.6575 332.575C92.6575 332.464 97.2151 332.368 102.829 332.368C108.442 332.368 113 332.464 113 332.575Z" fill="#263238"/>
<path d="M105.107 331.32C105.004 331.265 105.107 330.907 105.353 330.526C105.599 330.145 105.933 329.986 106.012 330.066C106.092 330.145 105.925 330.447 105.687 330.772C105.449 331.098 105.21 331.376 105.107 331.32Z" fill="#263238"/>
<path d="M105.885 331.765C105.774 331.765 105.83 331.32 106.068 330.899C106.306 330.478 106.624 330.224 106.711 330.288C106.798 330.351 106.656 330.709 106.433 331.082C106.211 331.455 105.989 331.804 105.885 331.765Z" fill="#263238"/>
<path d="M96.3253 332.543C96.2777 332.543 96.0951 332.4 95.8331 332.098C95.5132 331.71 95.1569 331.354 94.7691 331.034C94.3877 330.73 93.9334 330.53 93.4511 330.455C93.0779 330.407 92.8397 330.455 92.8159 330.407C92.7921 330.359 93.0223 330.193 93.459 330.161C94.0353 330.149 94.5975 330.34 95.047 330.701C95.4681 331.044 95.8233 331.461 96.0951 331.932C96.2777 332.281 96.373 332.511 96.3253 332.543Z" fill="#263238"/>
<path d="M105.147 330.042C105.203 330.137 104.996 330.375 104.647 330.502C104.297 330.629 103.988 330.582 103.972 330.502C103.956 330.423 104.202 330.256 104.504 330.145C104.806 330.034 105.083 329.947 105.147 330.042Z" fill="#263238"/>
<path d="M104.957 329.383C104.957 329.502 104.639 329.597 104.226 329.605C103.813 329.613 103.488 329.518 103.496 329.407C103.504 329.296 103.829 329.192 104.226 329.184C104.623 329.176 104.941 329.272 104.957 329.383Z" fill="#263238"/>
<path d="M134.866 329.931V323.142L122.694 323.055L122.591 333.218L123.345 333.273C126.704 333.488 140.44 333.909 142.687 333.21C145.196 332.432 134.866 329.931 134.866 329.931Z" fill="#11B0DB"/>
<path d="M142.973 332.591C142.973 332.702 138.424 332.797 132.802 332.797C127.181 332.797 122.639 332.702 122.639 332.591C122.639 332.479 127.189 332.384 132.802 332.384C138.416 332.384 142.973 332.479 142.973 332.591Z" fill="#263238"/>
<path d="M135.081 331.32C134.986 331.265 135.081 330.907 135.327 330.526C135.573 330.145 135.907 329.986 135.986 330.066C136.065 330.145 135.899 330.447 135.66 330.772C135.422 331.098 135.184 331.376 135.081 331.32Z" fill="#263238"/>
<path d="M135.859 331.765C135.756 331.765 135.803 331.32 136.05 330.899C136.296 330.478 136.605 330.224 136.693 330.288C136.78 330.351 136.629 330.709 136.407 331.082C136.184 331.455 135.97 331.804 135.859 331.765Z" fill="#263238"/>
<path d="M126.299 332.543C126.251 332.543 126.077 332.4 125.807 332.098C125.487 331.71 125.131 331.354 124.743 331.034C124.361 330.73 123.907 330.53 123.425 330.455C123.059 330.407 122.813 330.455 122.79 330.407C122.766 330.359 122.996 330.193 123.433 330.161C124.009 330.149 124.571 330.34 125.021 330.701C125.444 331.042 125.799 331.459 126.069 331.932C126.251 332.281 126.347 332.511 126.299 332.543Z" fill="#263238"/>
<path d="M135.121 330.042C135.176 330.137 134.97 330.375 134.62 330.502C134.271 330.629 133.961 330.582 133.945 330.502C133.93 330.423 134.176 330.256 134.477 330.145C134.779 330.034 135.057 329.947 135.121 330.042Z" fill="#263238"/>
<path d="M134.946 329.383C134.946 329.502 134.628 329.597 134.215 329.605C133.803 329.613 133.485 329.518 133.493 329.407C133.501 329.296 133.818 329.192 134.215 329.184C134.612 329.176 134.946 329.272 134.946 329.383Z" fill="#263238"/>
<path d="M179.712 128.334C179.394 128.009 178.608 128.167 178.608 128.167C178.687 127.71 178.687 127.243 178.608 126.786C178.465 126.341 177.464 126.428 177.464 126.428C177.418 126.054 177.418 125.675 177.464 125.301C177.472 125.218 177.455 125.135 177.413 125.062C177.372 124.99 177.31 124.932 177.234 124.896C176.761 124.703 176.252 124.611 175.742 124.626C175.13 124.189 177.607 120.72 178.528 119.608C179.45 118.496 179.283 117.631 178.465 117.631C177.901 117.631 175.011 120.966 174.122 122.085C173.232 123.205 170.874 126.317 170.795 123.832C170.715 121.347 169.715 119.473 169.088 119.155C168.461 118.838 167.794 119.584 168.135 120.275C168.435 121.06 168.622 121.883 168.691 122.72C168.777 123.387 168.747 124.064 168.603 124.721C168.34 125.944 167.982 127.144 167.532 128.31H167.468C167.468 128.31 150.143 144.929 148.888 146.112C147.769 147.176 125.251 144.849 120.733 144.373C119.198 144.148 117.648 144.042 116.096 144.055C114.135 144.143 113.786 144.42 111.832 144.444C106.9 144.499 101.978 144.932 97.1117 145.739C94.9081 146.113 92.8496 147.086 91.161 148.55C89.4724 150.015 88.2185 151.915 87.536 154.044C82.9864 168.256 72.6803 201.898 70.862 220.795C69.4881 223.287 68.2477 225.85 67.1461 228.473C65.8678 231.951 66.1774 232.07 66.6062 232.15C67.7654 232.364 69.0835 226.123 69.5758 227.632C70.068 229.14 67.0747 235.071 68.2895 235.246C69.8775 235.468 71.1399 228.894 71.2908 228.37C71.4417 227.846 72.2277 228.013 72.0848 228.505C71.8545 229.204 69.6234 236.612 71.1796 236.85C72.0372 236.977 72.1324 235.413 72.1324 235.413C72.1324 235.413 73.7204 228.322 74.443 228.465C75.1655 228.608 74.3953 232.793 74.0301 234.19C73.6649 235.588 74.173 236.294 74.9194 235.953C75.4275 235.715 76.6424 231.467 76.9759 230.085C77.3093 228.704 78.143 224.877 79.2626 227.092C80.3821 229.307 82.0813 230.593 82.78 230.625C82.9374 230.607 83.0858 230.542 83.2061 230.439C83.3264 230.336 83.413 230.199 83.4549 230.046C83.4967 229.893 83.4919 229.731 83.4409 229.581C83.39 229.431 83.2953 229.3 83.169 229.204C82.5681 228.617 82.0523 227.949 81.6366 227.219C81.2662 226.65 80.9976 226.022 80.8426 225.361C80.5227 224.044 80.3365 222.698 80.2868 221.343L80.1598 220.549C81.9383 211.744 87.0596 185.899 94.4518 169.392L97.4849 175.633L98.8029 180.254L90.72 200.207L125.195 199.754L120.05 179.952L126.299 159.308C133.056 159.459 150.405 159.713 153.295 158.403C156.932 156.815 175.742 133.058 175.742 133.058C176.968 132.106 178.142 131.088 179.259 130.009C179.259 130.009 180.402 129.049 179.712 128.334Z" fill="#FFC3BD"/>
<path d="M89.2033 185.462C90.2038 182.048 95.3409 165.168 95.3409 165.168C95.3409 165.168 97.8659 178.928 97.1989 180.587C96.5854 182.008 95.8606 183.378 95.0313 184.684C89.2033 193.553 89.9656 197.992 89.9656 197.992L125.179 196.92C125.259 191.997 122.345 180.548 121.741 178.721C121.138 176.895 123.147 170.916 123.147 170.916C123.147 170.916 127.117 166.875 126.974 164.795C126.899 162.926 126.667 161.067 126.283 159.237L147.721 160.031L147.046 145.5L116.255 142.42C115.183 145.445 105.488 143.96 105.488 143.96C95.0233 144.309 94.3723 146.231 90.0211 149.613C85.67 152.996 78.4684 182.024 78.4684 182.024L89.2033 185.462Z" fill="#11B0DB"/>
<path d="M110.022 182.024C109.412 182.133 108.79 182.165 108.172 182.12C107.021 182.12 105.441 182.04 103.702 181.866C101.963 181.691 100.391 181.445 99.2715 181.222C98.6542 181.143 98.0489 180.988 97.4691 180.762C98.0899 180.762 98.7093 180.821 99.3191 180.937C100.447 181.079 102.011 181.278 103.742 181.453C105.473 181.627 107.045 181.746 108.18 181.826C108.799 181.834 109.416 181.9 110.022 182.024Z" fill="#263238"/>
<path d="M112.436 179.031C111.826 179.33 111.18 179.551 110.515 179.69C107.347 180.522 104.079 180.91 100.804 180.841C100.126 180.863 99.4488 180.799 98.7874 180.651C99.4561 180.566 100.13 180.532 100.804 180.548C102.051 180.508 103.766 180.421 105.655 180.198C107.545 179.976 109.228 179.658 110.419 179.404C111.081 179.228 111.755 179.103 112.436 179.031Z" fill="#263238"/>
<path d="M124.282 165.676C124.266 166.281 124.184 166.883 124.036 167.47C123.83 168.574 123.512 170.083 123.107 171.734C122.702 173.386 122.313 174.91 121.964 175.942C121.823 176.533 121.615 177.106 121.344 177.649C121.389 177.046 121.501 176.449 121.678 175.871C121.98 174.632 122.321 173.203 122.702 171.639C123.083 170.075 123.449 168.645 123.75 167.407C123.858 166.811 124.036 166.23 124.282 165.676Z" fill="#263238"/>
<path d="M89.5767 183.438C87.7398 183.154 85.927 182.732 84.1537 182.175C82.3417 181.752 80.5636 181.194 78.8339 180.508C80.6699 180.796 82.4824 181.218 84.2569 181.77C86.0693 182.192 87.8476 182.75 89.5767 183.438Z" fill="#263238"/>
<path d="M126.665 159.062C126.365 159.113 126.059 159.113 125.76 159.062C124.93 158.977 124.116 158.782 123.338 158.482C122.039 157.994 120.857 157.24 119.867 156.268C118.877 155.295 118.101 154.127 117.589 152.837C117.024 151.418 116.783 149.891 116.883 148.367C116.918 147.11 117.294 145.886 117.97 144.825C118.446 144.111 119.157 143.586 119.979 143.341C120.199 143.28 120.426 143.251 120.654 143.253C120.813 143.253 120.892 143.253 120.892 143.253C120.892 143.253 120.559 143.253 120.027 143.468C119.272 143.746 118.633 144.269 118.209 144.952C117.129 146.652 116.827 149.756 117.978 152.654C118.514 154.021 119.353 155.248 120.432 156.243C121.316 157.058 122.334 157.713 123.441 158.181C124.48 158.591 125.561 158.887 126.665 159.062Z" fill="#263238"/>
<path d="M145.172 159.745C144.974 157.31 144.91 154.866 144.982 152.424C144.92 149.984 144.994 147.543 145.204 145.111C145.403 147.543 145.466 149.985 145.395 152.424C145.461 154.867 145.387 157.311 145.172 159.745Z" fill="#263238"/>
<path d="M116.048 143.309C116.136 141.538 116.318 139.537 116.318 139.537C116.318 139.537 120.701 139.053 120.963 134.527C121.225 130.001 120.963 119.56 120.963 119.56L113.023 115.495L104.21 122.427L105.567 145.056L113.65 145.572C114.268 145.589 114.868 145.36 115.317 144.936C115.767 144.512 116.03 143.927 116.048 143.309Z" fill="#FFC3BD"/>
<path d="M116.835 130.946C116.835 130.946 116.835 131.034 116.763 131.137C116.704 131.212 116.628 131.271 116.541 131.31C116.454 131.349 116.358 131.366 116.263 131.359C115.755 131.359 115.263 130.772 115.088 130.089C115.005 129.758 115.005 129.411 115.088 129.08C115.104 128.936 115.156 128.798 115.24 128.679C115.323 128.559 115.434 128.463 115.564 128.398C115.671 128.353 115.791 128.353 115.898 128.398C115.977 128.437 116.041 128.501 116.081 128.58C116.136 128.715 116.081 128.803 116.081 128.795C116.081 128.787 116.081 128.715 116.001 128.636C115.96 128.579 115.899 128.539 115.83 128.525C115.761 128.51 115.689 128.521 115.628 128.556C115.531 128.615 115.45 128.698 115.393 128.796C115.336 128.895 115.305 129.006 115.302 129.12C115.236 129.415 115.236 129.722 115.302 130.017C115.461 130.637 115.89 131.137 116.271 131.185C116.346 131.195 116.421 131.189 116.494 131.169C116.566 131.148 116.634 131.113 116.692 131.065C116.787 131.002 116.819 130.938 116.835 130.946Z" fill="#EB996E"/>
<path d="M123.687 117.115C123.075 115.035 120.86 114.002 118.843 113.431C115.77 112.557 112.451 112.176 109.45 113.28C106.449 114.383 102.844 116.321 102.844 119.632C101.073 119.489 100.057 121.037 99.3584 122.959C98.9117 124.129 98.644 125.361 98.5644 126.611C98.3421 130.946 97.1273 136.933 94.3165 140.109C92.7285 141.88 90.5292 143.102 89.624 145.31C88.83 147.223 89.2429 149.494 88.5045 151.432C87.8454 153.139 86.3924 154.353 85.3285 155.838C84.2445 157.523 83.6066 159.455 83.4746 161.454C83.3427 163.452 83.721 165.452 84.5742 167.264C85.4334 169.03 86.6431 170.602 88.1297 171.885C89.6162 173.168 91.3484 174.135 93.2208 174.728C96.9296 175.856 100.885 175.894 104.615 174.839C107.414 174.169 110.026 172.874 112.253 171.051C114.532 169.19 116.097 166.598 116.684 163.715C117.247 160.475 116.342 157.18 115.667 153.956C113.555 143.769 114.159 143.237 116.826 133.781C116.89 133.614 116.922 133.44 116.969 133.273C117.017 133.106 117.041 133.027 117.073 132.9C117.148 132.526 117.188 132.146 117.192 131.764C116.802 131.909 116.379 131.94 115.973 131.853C115.566 131.765 115.193 131.564 114.897 131.272C114.6 130.961 114.394 130.575 114.299 130.155C114.203 129.736 114.224 129.299 114.357 128.89C114.544 128.443 114.824 128.04 115.176 127.708C115.529 127.375 115.948 127.121 116.406 126.96C117.287 126.595 118.232 126.405 119.097 126C120.931 125.126 122.202 123.316 123.067 121.418C123.779 120.103 123.998 118.577 123.687 117.115Z" fill="#004177"/>
<path d="M117.152 131.161C117.32 131.409 117.459 131.675 117.565 131.955C117.803 132.455 118.121 133.162 118.47 133.979L118.534 134.13H118.367L117.573 134.202C117.025 134.202 116.565 134.305 116.025 134.297C115.978 134.286 115.934 134.264 115.898 134.232C115.862 134.2 115.835 134.16 115.818 134.114C115.795 134.042 115.795 133.964 115.818 133.892C115.837 133.785 115.861 133.679 115.89 133.574L116.033 133.011C116.105 132.635 116.216 132.267 116.366 131.915C116.351 132.298 116.296 132.679 116.199 133.05L116.088 133.614C116.049 133.805 115.977 134.099 116.088 134.075C116.485 134.075 117.049 133.987 117.573 133.956L118.367 133.884L118.264 134.059C117.922 133.265 117.637 132.518 117.47 132.002C117.324 131.739 117.217 131.455 117.152 131.161Z" fill="#11B0DB"/>
<path d="M89.9653 197.992L125.179 196.92L140.503 256.74L137.685 325.357H119.065L121.344 258.201L107.727 216.555L109.823 328.017L91.0055 328.295L89.0284 223.527C88.9411 220.613 87.9883 214.046 88.3456 211.156L89.9653 197.992Z" fill="#004177"/>
<path d="M112.412 217.405C111.836 217.441 111.257 217.407 110.689 217.302C109.625 217.175 108.172 216.952 106.576 216.635C104.981 216.317 103.551 215.952 102.519 215.658C101.967 215.537 101.434 215.345 100.931 215.087C100.931 214.967 103.52 215.587 106.696 216.23C109.872 216.873 112.428 217.286 112.412 217.405Z" fill="#455A64"/>
<path d="M137.495 321.594C137.495 321.705 133.279 321.8 128.078 321.8C122.877 321.8 118.653 321.705 118.653 321.594C118.653 321.482 122.869 321.387 128.078 321.387C133.286 321.387 137.495 321.475 137.495 321.594Z" fill="#455A64"/>
<path d="M109.657 325.119C109.657 325.238 105.56 325.325 100.51 325.325C95.4603 325.325 91.3712 325.238 91.3712 325.119C91.3712 325 95.4683 324.913 100.51 324.913C105.552 324.913 109.657 325.008 109.657 325.119Z" fill="#455A64"/>
<path d="M107.227 324.833C107.116 324.833 106.624 300.481 106.124 270.444C105.623 240.407 105.33 216.039 105.433 216.039C105.536 216.039 106.044 240.383 106.537 270.436C107.029 300.489 107.347 324.833 107.227 324.833Z" fill="#455A64"/>
<path d="M134.994 321.594C134.985 321.485 134.985 321.376 134.994 321.268V320.315C134.994 319.458 135.057 318.227 135.105 316.663C135.216 313.487 135.375 308.874 135.574 303.22C136.002 291.85 136.606 276.177 137.265 258.876C137.265 258.709 137.265 258.55 137.265 258.407V258.463C133.096 241.789 129.325 226.655 126.585 215.706L123.409 202.756C123.044 201.239 122.766 200.056 122.568 199.23C122.473 198.841 122.409 198.54 122.353 198.309C122.322 198.206 122.304 198.099 122.298 197.992C122.339 198.092 122.371 198.195 122.393 198.301C122.457 198.524 122.536 198.825 122.647 199.207C122.862 200.001 123.171 201.207 123.568 202.716C124.362 205.781 125.482 210.196 126.879 215.634C129.642 226.576 133.454 241.67 137.678 258.367V258.423C137.678 258.566 137.678 258.733 137.678 258.891C136.971 276.193 136.328 291.858 135.859 303.228C135.613 308.89 135.407 313.471 135.264 316.663C135.184 318.251 135.121 319.458 135.081 320.315C135.081 320.72 135.034 321.038 135.026 321.268C135.027 321.377 135.016 321.487 134.994 321.594Z" fill="#455A64"/>
<path d="M128.919 257.01C127.582 257.449 126.204 257.755 124.806 257.923C123.091 258.217 121.63 258.423 120.971 258.455V258.296C121.186 258.36 121.297 258.399 121.297 258.431C121.297 258.463 121.162 258.431 120.94 258.431H120.463L120.94 258.288C121.559 258.105 123.02 257.804 124.735 257.494C126.11 257.196 127.512 257.033 128.919 257.01Z" fill="#455A64"/>
<path d="M128.594 259.288C127.355 259.345 126.114 259.289 124.886 259.122C123.646 259.096 122.41 258.961 121.194 258.717C123.675 258.514 126.173 258.707 128.594 259.288Z" fill="#455A64"/>
<path opacity="0.2" d="M89.8148 199.254C90.2318 199.79 90.7571 200.231 91.3563 200.55C91.9556 200.869 92.6153 201.058 93.2925 201.104C94.7107 201.272 96.1453 201.245 97.5563 201.025C106.648 200.016 116.279 199.087 125.18 196.92C113.659 197.563 101.487 197.349 89.9656 197.992L89.8465 198.976" fill="black"/>
<g opacity="0.2">
<path opacity="0.2" d="M101.685 215.491L108.18 240.693L107.727 216.555L101.685 215.491Z" fill="black"/>
</g>
</svg>
