<svg width="405" height="239" viewBox="0 0 405 239" fill="none" xmlns="http://www.w3.org/2000/svg">
<path d="M202.5 239C90.6624 239 0 234.747 0 229.5C0 224.253 90.6624 220 202.5 220C314.338 220 405 224.253 405 229.5C405 234.747 314.338 239 202.5 239Z" fill="#F2FBFD"/>
<path d="M367.893 74.3432C368.608 75.135 369.157 76.0627 369.506 77.0711C369.855 78.0794 369.998 79.1478 369.925 80.2124C369.766 82.3437 369.118 84.4098 368.033 86.251C366.047 89.8601 362.333 92.7918 358.771 94.865C356.727 90.777 357.988 85.6202 358.771 83.0506C360.038 78.9626 364.803 72.4043 367.869 74.3432" fill="#E6F9FD"/>
<path d="M359.909 102.632C360.137 101.461 360.67 100.371 361.454 99.4726C362.239 98.5742 363.247 97.8992 364.377 97.5163C365.511 97.1502 366.706 97.0133 367.893 97.1136C369.08 97.2138 370.235 97.5492 371.292 98.1003C372.273 98.5908 373.242 99.3384 373.482 100.436C373.559 100.945 373.5 101.466 373.311 101.945C373.123 102.423 372.811 102.844 372.407 103.164C371.589 103.795 370.617 104.198 369.592 104.332C366.088 104.916 362.648 104.869 359.909 102.65" fill="#E6F9FD"/>
<path d="M351.056 112.554C351.179 112.299 351.323 112.055 351.488 111.824L352.738 109.885C353.812 108.274 355.296 105.943 357.667 104.045C359.652 102.4 362.042 101.315 364.587 100.903C365.361 100.79 366.145 100.77 366.923 100.845C367.133 100.862 367.342 100.891 367.548 100.933C367.694 100.933 367.764 100.974 367.764 100.985C366.719 100.922 365.67 100.965 364.634 101.114C362.137 101.59 359.802 102.693 357.848 104.32C355.512 106.159 354.028 108.443 352.913 110.026C352.358 110.826 351.909 111.474 351.582 111.912C351.428 112.143 351.252 112.358 351.056 112.554Z" fill="#A9DEE9"/>
<path d="M364.704 79.6751C364.678 79.7965 364.643 79.9157 364.599 80.0314L364.26 81.03C363.956 81.9002 363.501 83.1441 362.928 84.68C361.76 87.7518 360.131 91.9742 358.21 96.5936C356.288 101.213 354.454 105.354 353.082 108.344C352.399 109.833 351.832 111.03 351.435 111.848C351.242 112.233 351.085 112.548 350.968 112.794C350.918 112.906 350.857 113.014 350.787 113.115C350.815 112.996 350.856 112.88 350.91 112.77C351.02 112.519 351.155 112.186 351.33 111.795L352.889 108.244C354.209 105.243 356.014 101.09 357.935 96.471C359.856 91.8515 361.533 87.6467 362.73 84.5924L364.149 80.9775C364.312 80.5803 364.441 80.2533 364.546 80.0022C364.586 79.8876 364.639 79.7779 364.704 79.6751Z" fill="#A9DEE9"/>
<path d="M353.45 102.673C354.01 100.22 353.977 97.6688 353.353 95.2311C352.729 92.7935 351.533 90.5398 349.864 88.657C349.012 87.7051 347.756 86.8057 346.553 87.2379C345.35 87.67 344.964 89.1709 344.941 90.4499C344.938 93.1192 345.725 95.7296 347.203 97.9525C348.681 100.175 350.783 101.911 353.246 102.942" fill="#E6F9FD"/>
<path d="M348.936 92.4706C349.142 92.6436 349.328 92.8395 349.49 93.0545C349.702 93.28 349.897 93.52 350.074 93.7729C350.291 94.0707 350.559 94.3861 350.799 94.7832C351.076 95.2017 351.331 95.6344 351.564 96.0797C351.841 96.5847 352.088 97.1053 352.305 97.6389C352.804 98.8675 353.16 100.149 353.368 101.458C353.556 102.77 353.591 104.098 353.473 105.418C353.42 105.993 353.332 106.564 353.211 107.129C353.114 107.623 352.987 108.11 352.831 108.589C352.714 108.985 352.575 109.375 352.416 109.757C352.308 110.05 352.179 110.335 352.031 110.61C351.928 110.855 351.801 111.09 351.651 111.31C351.587 111.31 352.13 110.277 352.632 108.525C352.77 108.05 352.881 107.569 352.965 107.082C353.074 106.524 353.152 105.961 353.199 105.394C353.301 104.095 353.26 102.789 353.076 101.499C352.868 100.215 352.526 98.9564 352.054 97.7441C351.821 97.1893 351.605 96.6637 351.348 96.1906C351.127 95.7462 350.883 95.3135 350.618 94.8941C349.636 93.3407 348.854 92.5114 348.936 92.4706Z" fill="#A9DEE9"/>
<path d="M4.99497 37.9425C4.99497 37.9425 -0.377827 39.6945 4.83145 51.1993C10.0407 62.7041 13.7608 68.474 13.7608 68.474C13.7608 68.474 14.6543 71.1312 12.4351 71.4349C10.2159 71.7386 5.42713 70.7399 4.30585 73.3854C3.13785 76.1244 5.06505 78.8517 9.06545 81.357C13.0658 83.8624 21.6331 89.6615 22.404 90.1871C23.1749 90.7127 23.8874 91.9391 22.404 92.4063C20.9206 92.8735 9.98233 93.4809 10.5897 98.6551C11.197 103.829 23.4961 108.992 24.8159 109.576C26.1358 110.16 26.4453 110.744 26.2993 111.491C26.1533 112.239 22.4566 112.075 19.3497 112.402C16.2428 112.729 12.6979 113.606 13.2994 116.561C13.901 119.516 21.0199 126.004 38.9253 128.608L47.2999 129.274L52.1938 122.401C61.7831 107.059 61.4327 97.4345 59.5697 95.0635C57.7068 92.6925 54.7225 94.8182 52.4858 96.9907C50.2491 99.1632 47.954 102.072 47.2999 101.704C46.6458 101.336 46.383 100.728 46.7918 99.3326C47.2006 97.9368 51.2361 85.2348 47.6795 81.4271C44.1229 77.6194 36.5835 85.5618 35.2753 86.4028C33.9672 87.2438 33.4941 85.8772 33.5876 84.9603C33.681 84.0434 34.7906 73.7475 35.4681 69.0755C36.1455 64.4035 35.2987 61.1915 32.4663 60.3155C29.7332 59.4512 27.3855 63.7611 25.7211 65.2562C24.0567 66.7512 22.6084 64.351 22.6084 64.351C22.6084 64.351 20.617 57.7985 15.1974 46.3755C9.77793 34.9524 4.87817 38.0301 4.87817 38.0301" fill="#E6F9FD"/>
<path d="M47.6503 131.254C43.7024 122.844 36.9397 107.789 31.0647 94.8941C25.1896 81.9994 19.8636 70.3311 15.9566 61.9098L11.3255 51.9351L10.0699 49.2254L9.7487 48.5129C9.70462 48.4297 9.66562 48.3438 9.6319 48.2559C9.6319 48.2559 9.67862 48.3318 9.76038 48.4895L10.1049 49.1903C10.4028 49.8152 10.8408 50.7204 11.4073 51.8826C12.5344 54.2186 14.1404 57.6116 16.1143 61.8106C20.0621 70.2143 25.4174 81.8709 31.2983 94.7657C37.1792 107.66 43.9127 122.751 47.8196 131.184" fill="#A9DEE9"/>
<path d="M10.975 75.0498C11.1753 75.0953 11.3709 75.1599 11.559 75.2426C11.9211 75.3769 12.4467 75.593 13.0891 75.8616C14.3738 76.4047 16.1317 77.1989 18.0589 78.11L22.9762 80.446L24.4712 81.1468C24.6589 81.2227 24.8388 81.3166 25.0085 81.4271C24.8068 81.3895 24.6105 81.3268 24.4245 81.2402C24.0566 81.1059 23.5368 80.8898 22.8944 80.6153C21.6096 80.0314 19.8634 79.2429 17.9421 78.3319L13.0073 75.9959L11.5123 75.301C11.3243 75.2377 11.144 75.1535 10.975 75.0498Z" fill="#A9DEE9"/>
<path d="M25.5986 80.9599C25.5344 80.9599 27.0119 77.234 28.8982 72.708C30.7845 68.182 32.4022 64.532 32.4373 64.532C32.4723 64.532 31.0298 68.2579 29.1377 72.7897C27.2455 77.3216 25.6687 80.9599 25.5986 80.9599Z" fill="#A9DEE9"/>
<path d="M33.7277 101.137C33.8324 100.959 33.9557 100.793 34.0956 100.641C34.3759 100.284 34.7321 99.8465 35.1526 99.3267C36.0403 98.2171 37.2667 96.6753 38.5573 94.9292C39.848 93.183 40.9634 91.5712 41.7635 90.3915L42.7096 88.9958C42.8167 88.8193 42.9399 88.6532 43.0775 88.4994C43.0073 88.6944 42.911 88.8791 42.7913 89.0483C42.5928 89.3987 42.2949 89.8893 41.9153 90.4908C41.1561 91.6997 40.064 93.3407 38.7617 95.0869C37.4594 96.833 36.2213 98.3631 35.2928 99.4435C34.8256 99.9808 34.446 100.413 34.1715 100.705C34.0417 100.867 33.8927 101.012 33.7277 101.137Z" fill="#A9DEE9"/>
<path d="M19.3265 98.7369C19.5218 98.724 19.718 98.7358 19.9105 98.7719L21.4581 98.9646C22.7604 99.1457 24.5591 99.4085 26.5447 99.7121C28.5303 100.016 30.3232 100.296 31.6197 100.53L33.1556 100.81C33.3453 100.832 33.5316 100.877 33.7104 100.944C33.515 100.957 33.3188 100.945 33.1264 100.909L31.5846 100.717C30.2765 100.536 28.4777 100.273 26.4921 99.9691C24.5066 99.6654 22.7137 99.3851 21.4172 99.1515L19.8871 98.8712C19.6958 98.8474 19.5078 98.8023 19.3265 98.7369Z" fill="#A9DEE9"/>
<path d="M24.2319 117.489C24.4763 117.483 24.7208 117.501 24.9619 117.542L26.9475 117.787C28.6177 118.003 30.9245 118.318 33.4707 118.686C36.017 119.054 38.3238 119.399 39.9882 119.667L41.9621 119.989C42.2054 120.022 42.4456 120.075 42.6804 120.146C42.434 120.152 42.1876 120.135 41.9446 120.094L39.9648 119.848C38.2946 119.632 35.9819 119.311 33.4357 118.943C30.8895 118.575 28.5827 118.231 26.9183 117.968L24.9502 117.641C24.7065 117.613 24.4661 117.562 24.2319 117.489Z" fill="#A9DEE9"/>
<path d="M42.2602 119.959C42.3906 119.73 42.5411 119.514 42.7099 119.311C43.0369 118.867 43.4691 118.295 43.9888 117.6C45.0692 116.152 46.5526 114.149 48.1294 111.889C49.7062 109.628 51.0844 107.549 52.0656 106.049L53.2336 104.256C53.3658 104.03 53.5162 103.815 53.6832 103.613C53.5811 103.855 53.458 104.088 53.3153 104.308C53.0642 104.746 52.6904 105.377 52.2174 106.142C51.2713 107.684 49.9164 109.786 48.3338 112.046C46.7512 114.306 45.2503 116.304 44.129 117.723C43.545 118.429 43.107 119.002 42.78 119.387C42.6256 119.594 42.4515 119.786 42.2602 119.959Z" fill="#A9DEE9"/>
<path d="M178.682 107.035C163.72 99.5077 158.09 82.3265 156.338 66.4067C156.046 63.7495 155.351 61.0047 156.274 58.5051C157.197 56.0056 159.901 53.9908 162.43 54.7675C164.526 55.4041 165.712 57.5649 167.101 59.2935C168.933 61.603 171.381 63.3464 174.162 64.3218C175.972 64.9525 178.133 65.1861 179.663 64.0298C181.76 62.4413 181.573 59.2527 181.176 56.6247C180.436 51.7229 179.696 46.8251 178.957 41.9312C178.56 39.3032 178.168 36.6227 178.624 34.0063C179.079 31.39 180.551 28.8146 182.951 27.7517C185.351 26.6888 188.657 27.6816 189.556 30.1812C189.93 31.2207 189.872 32.3653 190.105 33.4457C190.339 34.5261 191.016 35.6591 192.097 35.8167C193.177 35.9744 194.141 35.0751 194.812 34.1874C197.148 31.1448 198.491 27.4539 199.724 23.8039C200.956 20.1539 202.118 16.428 204.162 13.1751C206.206 9.9222 209.284 7.13652 213.016 6.37732C216.747 5.61812 221.104 7.36428 222.587 10.9267C224.071 14.4891 222.459 18.5712 220.537 21.9117C217.701 26.8733 214.16 31.3977 210.025 35.3437C209.278 36.0503 208.472 36.8154 208.273 37.8374C207.958 39.6711 209.868 41.172 211.684 41.4991C213.74 41.867 215.836 41.3589 217.921 41.3005C220.006 41.2421 222.36 41.8319 223.417 43.6365C224.882 46.1711 223.043 49.313 221.081 51.4796C217.186 55.8162 212.573 59.4492 207.444 62.2194C205.61 63.2063 203.666 64.1232 202.299 65.7234C200.933 67.3235 200.337 69.8114 201.546 71.5225C202.755 73.2336 205.26 73.4847 207.234 72.8131C209.208 72.1415 210.861 70.7808 212.688 69.7763C216.105 67.89 220.806 67.4403 223.574 70.2494C225.39 72.0831 225.939 74.9214 225.525 77.4851C225.11 80.0489 223.855 82.3732 222.476 84.5574C217.664 92.1902 211.042 98.7369 203.076 102.854C195.11 106.971 187.46 108.881 178.688 107.041" fill="#E6F9FD"/>
<path d="M181.328 96.5118C182.713 87.5027 184.612 78.5802 187.016 69.788L188.873 62.8559C189.486 60.5842 190.094 58.3299 190.824 56.1633C192.233 52.003 193.873 47.9243 195.735 43.946C197.487 40.1383 199.28 36.5876 200.991 33.2763C202.702 29.9651 204.367 26.9166 205.99 24.201C208.537 19.9028 211.422 15.8137 214.616 11.972C215.743 10.6113 216.654 9.58348 217.279 8.9002L217.991 8.12348C218.069 8.03028 218.155 7.94428 218.248 7.86652C218.187 7.96964 218.115 8.06563 218.032 8.15268L217.349 8.96444C216.765 9.67108 215.866 10.7164 214.762 12.0947C211.634 15.9657 208.799 20.0651 206.282 24.3587C204.676 27.0801 203.041 30.1344 201.347 33.4457C199.654 36.757 197.873 40.3135 196.138 44.1154C194.289 48.0916 192.659 52.1662 191.256 56.321C190.532 58.4818 189.93 60.7126 189.317 62.9902C188.704 65.2678 188.096 67.5805 187.471 69.9165C185.069 78.6912 183.16 87.5936 181.754 96.5819" fill="#A9DEE9"/>
<path d="M190.958 56.1282C190.778 55.7826 190.637 55.4184 190.537 55.042C190.298 54.3354 189.953 53.29 189.603 52.0227C188.855 49.4531 187.939 45.8791 186.946 41.9312C185.953 37.9834 184.983 34.4268 184.201 31.8806C183.81 30.6075 183.483 29.5796 183.249 28.873C183.105 28.5114 182.999 28.1355 182.934 27.7517C183.137 28.0821 183.302 28.4348 183.424 28.8029C183.716 29.492 184.09 30.5082 184.528 31.7755C185.398 34.2983 186.42 37.8549 187.419 41.8086L189.936 51.9293C190.243 53.144 190.506 54.1641 190.724 54.9895C190.845 55.3589 190.924 55.741 190.958 56.1282Z" fill="#A9DEE9"/>
<path d="M223.854 44.9213C223.425 45.0814 222.981 45.2007 222.529 45.2775C221.676 45.4819 220.432 45.7681 218.914 46.1711C215.865 46.9536 211.69 48.18 207.146 49.7334C202.603 51.2869 198.55 52.8929 195.653 54.1251C194.199 54.7091 193.037 55.2581 192.231 55.6143C191.824 55.826 191.397 55.9981 190.958 56.1282C191.325 55.8626 191.716 55.6318 192.126 55.4391C192.908 55.0303 194.053 54.458 195.489 53.8039C198.363 52.4841 202.41 50.8372 206.965 49.2662C210.851 47.9185 214.804 46.7723 218.809 45.8323C220.345 45.4703 221.6 45.2483 222.47 45.0907C222.925 44.9896 223.389 44.9328 223.854 44.9213Z" fill="#A9DEE9"/>
<path d="M181.661 95.8285C181.547 95.7178 181.449 95.592 181.369 95.4548C181.164 95.1452 180.919 94.7657 180.615 94.2868C179.961 93.294 179.056 91.834 177.964 90.0177C175.774 86.3794 172.907 81.2577 169.817 75.5637C166.728 69.8697 163.907 64.7539 161.793 61.1039L159.282 56.7589L158.604 55.5909C158.516 55.4566 158.445 55.3113 158.394 55.1588C158.509 55.2708 158.607 55.3986 158.686 55.5384L159.439 56.7064C160.094 57.6992 160.999 59.1592 162.091 60.9813C164.281 64.6196 167.154 69.7413 170.267 75.4352C173.38 81.1292 176.171 86.2626 178.285 89.9418L180.796 94.2926C181.071 94.7656 181.293 95.1628 181.474 95.4606C181.55 95.5757 181.613 95.6991 181.661 95.8285Z" fill="#A9DEE9"/>
<path d="M224.497 74.8571C224.368 74.9563 224.227 75.0387 224.077 75.1024L222.839 75.7039L218.254 77.9582C214.382 79.8678 209.062 82.5601 203.193 85.5501C197.324 88.5402 191.968 91.1799 188.056 93.0078C186.099 93.9189 184.511 94.643 183.384 95.1219L182.105 95.6592C181.96 95.7353 181.804 95.7885 181.643 95.8168C181.774 95.7195 181.915 95.6372 182.064 95.5716L183.302 94.9467L187.892 92.6924C191.764 90.7886 197.078 88.0964 202.953 85.1005C208.828 82.1045 214.172 79.4707 218.085 77.6428C220.041 76.7318 221.63 76.0076 222.757 75.5287L224.036 74.9914C224.182 74.9234 224.337 74.8781 224.497 74.8571Z" fill="#A9DEE9"/>
<path d="M298.84 35.2035C298.84 25.6727 288.83 19.6399 278.622 24.4112C276.315 25.4931 274.427 27.3028 273.249 29.5621C270.686 34.5378 271.818 40.2143 274.149 44.933L282.091 65.0634C282.341 65.7055 282.78 66.2571 283.349 66.646C283.917 67.0349 284.591 67.243 285.28 67.243C285.969 67.243 286.642 67.0349 287.211 66.646C287.78 66.2571 288.218 65.7055 288.468 65.0634L296.259 44.822C298.951 38.6375 298.84 35.2035 298.84 35.2035ZM289.251 43.4963C282.389 47.485 275.433 40.1091 279.194 32.8325C279.685 31.8617 280.443 31.0513 281.379 30.4965C288.241 26.5078 295.19 33.8837 291.429 41.1603C290.941 42.1307 290.185 42.9412 289.251 43.4963Z" fill="#E6F9FD"/>
<path d="M156.31 229.343L78.6845 228.986C74.2029 228.959 69.915 227.156 66.7603 223.972C63.6056 220.789 61.8411 216.485 61.8536 212.004L62.677 17.3975C62.7033 12.9139 64.5064 8.62364 67.691 5.46747C70.8757 2.31129 75.1819 0.54676 79.6656 0.560752L157.291 0.916989C161.77 0.944784 166.056 2.74618 169.211 5.92686C172.365 9.10754 174.131 13.4084 174.122 17.888L173.298 212.494C173.275 216.98 171.473 221.273 168.288 224.432C165.103 227.59 160.795 229.357 156.31 229.343Z" fill="#455A64"/>
<path d="M157.18 7.63298L142.13 7.5629C141.139 7.58133 140.196 7.99188 139.508 8.70456C138.819 9.41723 138.441 10.3739 138.457 11.3647V14.0979C138.464 14.5884 138.375 15.0757 138.195 15.5318C138.014 15.9879 137.745 16.4038 137.403 16.7559C137.061 17.1079 136.654 17.3891 136.203 17.5834C135.753 17.7776 135.268 17.8812 134.778 17.888L105.437 17.7537C104.447 17.7246 103.508 17.3048 102.827 16.5858C102.145 15.8669 101.776 14.9073 101.799 13.9168V11.1837C101.816 10.1997 101.446 9.24849 100.767 8.53587C100.088 7.82325 99.1561 7.40657 98.1725 7.37602H92.8814L79.7122 7.27674C76.5721 7.26121 73.5544 8.49334 71.3225 10.7022C69.0906 12.9111 67.8273 15.9159 67.8103 19.056L67.0102 209.008C66.9963 212.148 68.2299 215.165 70.4399 217.396C72.6498 219.626 75.6553 220.888 78.7954 220.904L156.269 221.26C157.824 221.267 159.365 220.967 160.805 220.379C162.245 219.79 163.554 218.923 164.659 217.828C165.763 216.733 166.642 215.432 167.243 213.997C167.845 212.563 168.158 211.024 168.165 209.469L168.965 19.5232C168.972 17.9687 168.672 16.428 168.084 14.9891C167.495 13.5503 166.629 12.2414 165.535 11.1373C164.441 10.0332 163.139 9.15542 161.706 8.55415C160.272 7.95288 158.734 7.63987 157.18 7.63298Z" fill="#E6F9FD"/>
<path d="M67.7166 41.8612H80.4128L91.7424 53.1967L79.9631 64.9759L67.8509 52.8579L67.7166 41.8612Z" fill="#E6F9FD"/>
<path d="M94.3298 48.221L87.9642 41.8612H102.284L94.3298 48.221Z" fill="#E6F9FD"/>
<path d="M99.8951 53.4185L111.044 42.27H149.996C149.996 42.27 155.959 68.9004 132.476 85.9999L99.8951 53.4185Z" fill="#E6F9FD"/>
<path d="M95.1238 56.9693L83.1985 68.9004L116.2 101.902L128.126 89.574L95.1238 56.9693Z" fill="#E6F9FD"/>
<path d="M67.5706 75.6631L75.0458 67.9076L67.7166 60.5784L67.5706 75.6631Z" fill="#E6F9FD"/>
<path d="M79.5197 72.4803L68.0383 83.9617V99.9166L91.7428 124.17L111.827 105.482L79.5197 72.4803Z" fill="#E6F9FD"/>
<path d="M136.944 89.3462C136.944 89.3462 161.542 71.3123 153.588 42.27H168.883L168.696 124.24L136.944 89.3462Z" fill="#E6F9FD"/>
<path d="M132.319 94.0766L120.428 106.492L156.893 142.963L168.048 131.143L132.319 94.0766Z" fill="#E6F9FD"/>
<path d="M115.459 109.891L96.7653 128.451L134.153 165.576L152.812 147.536L115.459 109.891Z" fill="#E6F9FD"/>
<path d="M105.659 202.882L134.24 173.261L161.426 200.972L105.659 202.882Z" fill="#E6F9FD"/>
<path d="M138.696 169.436L168.48 139.944C168.48 141.252 168.223 201.094 168.223 201.094L138.696 169.436Z" fill="#E6F9FD"/>
<path d="M113.216 152.874L130.1 169.757L96.7651 204.155L81.3651 185.683L113.216 152.874Z" fill="#E6F9FD"/>
<path d="M67.6001 188.077C69.1944 187.92 110.022 149.685 110.022 149.685L67.6001 105.727V188.077Z" fill="#E6F9FD"/>
<path d="M67.0103 196.79L76.839 188.077L90.4521 204.155H67.0103V198.005" fill="#E6F9FD"/>
<path d="M79.7125 30.2864C78.6738 29.5199 77.6974 28.6724 76.7925 27.7518C76.7925 27.308 76.7925 27.6292 76.7925 27.5299L76.8334 27.4948L76.9034 27.4306L77.0494 27.2963L77.3298 27.0335L77.8612 26.5429L78.7781 25.7253C79.0558 25.4416 79.37 25.1961 79.7125 24.9953C79.5041 25.3129 79.2526 25.5998 78.965 25.848L78.089 26.7123L77.5692 27.2145L77.2889 27.4832L77.1487 27.6175L77.0728 27.6817L77.0378 27.7168V27.4948C78.0006 28.3543 78.8949 29.2877 79.7125 30.2864Z" fill="#263238"/>
<path d="M160.45 25.8304C160.451 25.9568 160.415 26.0807 160.345 26.1862C160.276 26.2918 160.177 26.3743 160.06 26.4232C159.943 26.4721 159.815 26.4852 159.691 26.4608C159.567 26.4365 159.453 26.3757 159.364 26.2863C159.274 26.197 159.213 26.083 159.189 25.959C159.165 25.835 159.178 25.7065 159.227 25.5899C159.276 25.4734 159.358 25.374 159.464 25.3045C159.569 25.235 159.693 25.1985 159.82 25.1997C159.987 25.1997 160.147 25.2661 160.266 25.3844C160.384 25.5027 160.45 25.6631 160.45 25.8304Z" fill="#263238"/>
<path d="M160.269 27.5649C160.359 27.6539 160.419 27.7673 160.444 27.8908C160.469 28.0143 160.456 28.1424 160.408 28.2588C160.36 28.3751 160.278 28.4746 160.174 28.5446C160.069 28.6146 159.946 28.652 159.82 28.652C159.694 28.652 159.571 28.6146 159.466 28.5446C159.361 28.4746 159.28 28.3751 159.232 28.2588C159.183 28.1424 159.171 28.0143 159.195 27.8908C159.22 27.7673 159.281 27.6539 159.37 27.5649C159.49 27.4472 159.652 27.3813 159.82 27.3813C159.988 27.3813 160.149 27.4472 160.269 27.5649Z" fill="#263238"/>
<path d="M160.45 30.1929C160.435 30.3504 160.362 30.4967 160.245 30.6031C160.128 30.7096 159.975 30.7685 159.817 30.7685C159.658 30.7685 159.506 30.7096 159.389 30.6031C159.271 30.4967 159.198 30.3504 159.183 30.1929C159.175 30.1045 159.185 30.0154 159.213 29.9312C159.241 29.847 159.286 29.7696 159.346 29.7039C159.405 29.6382 159.478 29.5858 159.559 29.5499C159.64 29.514 159.728 29.4954 159.817 29.4954C159.905 29.4954 159.993 29.514 160.074 29.5499C160.155 29.5858 160.228 29.6382 160.288 29.7039C160.348 29.7696 160.393 29.847 160.421 29.9312C160.449 30.0154 160.459 30.1045 160.45 30.1929Z" fill="#263238"/>
<path d="M133.084 28.4175H105.765V30.6951H133.084V28.4175Z" fill="#263238"/>
<path d="M130.112 69.28C130.112 58.6395 118.934 51.9002 107.534 57.2321C104.955 58.437 102.845 60.4588 101.531 62.9845C98.6633 68.5383 99.9305 74.8805 102.529 80.1482L111.406 102.638C111.686 103.355 112.176 103.97 112.812 104.404C113.447 104.838 114.199 105.07 114.969 105.07C115.738 105.07 116.49 104.838 117.125 104.404C117.761 103.97 118.251 103.355 118.531 102.638L127.227 80.0314C130.24 73.1402 130.112 69.28 130.112 69.28ZM119.424 78.5656C111.762 83.0215 103.995 74.7871 108.194 66.6578C108.747 65.5858 109.591 64.6912 110.629 64.0765C118.297 59.6206 126.065 67.855 121.86 75.9843C121.309 77.058 120.464 77.9531 119.424 78.5656Z" fill="#004177"/>
<path d="M362.408 150.526H38.3937V198.069H362.408V150.526Z" fill="#11B0DB"/>
<g opacity="0.5">
<path opacity="0.5" d="M362.408 150.526H38.3937V198.069H362.408V150.526Z" fill="black"/>
</g>
<path d="M84.0352 228.919C101.252 227.761 114.269 212.864 113.111 195.648C111.952 178.431 97.0561 165.414 79.8394 166.572C62.6228 167.731 49.6052 182.627 50.7638 199.844C51.9224 217.06 66.8185 230.078 84.0352 228.919Z" fill="#364F5B"/>
<path d="M50.6989 197.217C50.6989 197.246 50.6989 197.275 50.6989 197.298C50.6395 201.401 51.3888 205.476 52.904 209.289C54.4192 213.103 56.6708 216.581 59.53 219.524C62.3892 222.467 65.8002 224.818 69.5682 226.444C73.3361 228.069 77.3872 228.936 81.4903 228.995C85.5933 229.054 89.6678 228.305 93.4813 226.79C97.2947 225.275 100.772 223.023 103.716 220.164C106.659 217.305 109.01 213.894 110.635 210.126C112.26 206.358 113.127 202.307 113.187 198.204C113.187 198.174 113.187 198.145 113.187 198.122L50.6989 197.217Z" fill="#364F5B"/>
<path d="M60.0019 197.433C59.9377 201.771 61.1615 206.031 63.5186 209.674C65.8758 213.317 69.2603 216.179 73.2442 217.898C77.228 219.617 81.6321 220.116 85.8996 219.331C90.167 218.547 94.1059 216.515 97.2182 213.491C100.33 210.468 102.476 206.59 103.384 202.347C104.292 198.104 103.921 193.687 102.318 189.655C100.716 185.623 97.9533 182.157 94.3804 179.695C90.8076 177.233 86.5849 175.886 82.2465 175.825C76.4317 175.742 70.8222 177.972 66.6509 182.024C62.4796 186.076 60.088 191.618 60.0019 197.433Z" fill="#E6F9FD"/>
<path d="M82.2464 175.819C76.4313 175.735 70.8208 177.964 66.6492 182.016C62.4776 186.068 60.0865 191.612 60.0019 197.427L103.866 198.063C103.949 192.247 101.717 186.635 97.6631 182.464C93.6086 178.292 88.0631 175.902 82.2464 175.819Z" fill="#A9DEE9"/>
<path d="M68.5751 197.555C68.5361 200.198 69.2817 202.793 70.7177 205.012C72.1538 207.231 74.2156 208.975 76.6425 210.022C79.0694 211.069 81.7523 211.372 84.3519 210.894C86.9514 210.416 89.3508 209.178 91.2465 207.336C93.1423 205.494 94.4492 203.132 95.002 200.547C95.5547 197.962 95.3286 195.272 94.352 192.816C93.3755 190.36 91.6924 188.248 89.5158 186.749C87.3392 185.25 84.7667 184.429 82.1239 184.392C80.3699 184.367 78.628 184.687 76.9978 185.335C75.3676 185.982 73.881 186.945 72.6228 188.167C71.3647 189.39 70.3596 190.848 69.6651 192.459C68.9706 194.07 68.6002 195.801 68.5751 197.555Z" fill="#364F5B"/>
<path d="M322.671 228.908C339.897 227.909 353.052 213.134 352.053 195.907C351.054 178.681 336.279 165.526 319.052 166.525C301.825 167.525 288.671 182.3 289.67 199.526C290.669 216.753 305.444 229.908 322.671 228.908Z" fill="#364F5B"/>
<path d="M289.613 197.217C289.613 197.246 289.613 197.275 289.613 197.298C289.554 201.401 290.303 205.476 291.818 209.289C293.334 213.103 295.585 216.581 298.444 219.524C301.304 222.467 304.714 224.818 308.482 226.444C312.25 228.069 316.302 228.936 320.405 228.995C324.508 229.054 328.582 228.305 332.396 226.79C336.209 225.275 339.687 223.023 342.63 220.164C345.573 217.305 347.925 213.894 349.55 210.126C351.175 206.358 352.042 202.307 352.101 198.204C352.101 198.174 352.101 198.145 352.101 198.122L289.613 197.217Z" fill="#364F5B"/>
<path d="M298.916 197.433C298.852 201.771 300.076 206.031 302.433 209.674C304.79 213.317 308.175 216.179 312.158 217.898C316.142 219.617 320.546 220.116 324.814 219.331C329.081 218.547 333.02 216.515 336.132 213.491C339.245 210.468 341.39 206.59 342.298 202.347C343.206 198.104 342.835 193.687 341.233 189.655C339.63 185.623 336.867 182.157 333.295 179.695C329.722 177.233 325.499 175.886 321.161 175.825C315.346 175.742 309.736 177.972 305.565 182.024C301.394 186.076 299.002 191.618 298.916 197.433Z" fill="#E6F9FD"/>
<path d="M321.161 175.819C315.346 175.735 309.735 177.964 305.563 182.016C301.392 186.068 299.001 191.612 298.916 197.427L342.78 198.063C342.863 192.247 340.632 186.635 336.577 182.464C332.523 178.292 326.977 175.902 321.161 175.819Z" fill="#A9DEE9"/>
<path d="M307.472 197.555C307.433 200.198 308.178 202.793 309.614 205.012C311.05 207.231 313.112 208.975 315.539 210.022C317.966 211.069 320.649 211.372 323.248 210.894C325.848 210.416 328.247 209.178 330.143 207.336C332.039 205.494 333.346 203.132 333.899 200.547C334.451 197.962 334.225 195.272 333.249 192.816C332.272 190.36 330.589 188.248 328.412 186.749C326.236 185.25 323.663 184.429 321.02 184.392C319.266 184.367 317.525 184.687 315.894 185.335C314.264 185.982 312.778 186.945 311.519 188.167C310.261 189.39 309.256 190.848 308.562 192.459C307.867 194.07 307.497 195.801 307.472 197.555Z" fill="#364F5B"/>
<path d="M122.887 123.779C122.887 123.779 76.8796 127.172 59.8151 130.997C47.7964 133.689 24.6233 138.344 24.9036 152.92L26.7432 163.374C26.7432 163.374 18.1526 167.298 18.1526 177.32C18.1526 187.341 16.056 202.876 36.1223 203.501C39.4277 203.6 45.7057 203.501 45.7057 203.501C45.7057 203.501 41.8571 160.763 81.1136 159.514C121.053 158.241 118.402 203.109 118.402 203.109H285.093C285.093 203.109 278.248 159.397 321.243 159.309C364.237 159.222 357.696 203.395 357.696 203.395C357.696 203.395 373.51 204.762 380.869 191.47C388.227 178.178 386.318 168.694 386.318 168.694L386.072 160.29C386.026 158.911 385.457 157.601 384.481 156.626C383.505 155.65 382.195 155.081 380.816 155.034C380.816 155.034 383.69 133.882 379.28 130.22C374.871 126.559 350.711 104.466 350.711 104.466L351.879 103.748C352.312 103.474 352.659 103.083 352.879 102.62C353.099 102.158 353.183 101.642 353.122 101.134C353.061 100.625 352.856 100.144 352.533 99.7469C352.21 99.3496 351.781 99.052 351.295 98.8887C342.12 95.7351 323.981 89.4921 319.718 88.0029C319.08 87.776 318.414 87.6346 317.739 87.5824C315.192 87.3897 307.986 86.9342 294.758 86.7941C278.646 86.6189 214.674 86.7941 214.674 86.7941C214.674 86.7941 192.657 88.6045 180.393 94.0006C167.534 99.6771 122.887 123.779 122.887 123.779Z" fill="#11B0DB"/>
<g opacity="0.4">
<path opacity="0.4" d="M29.821 176.152C28.1508 175.813 25.5928 175.784 24.3197 176.911C23.3736 177.752 23.1225 179.113 22.9824 180.368C22.7141 182.088 22.7537 183.842 23.0992 185.548C23.2753 186.401 23.6256 187.207 24.1281 187.918C24.6306 188.628 25.2744 189.227 26.0192 189.677C27.5492 190.507 29.64 190.372 30.8255 189.093C31.9117 187.925 32.0344 186.173 31.9935 184.614C31.9526 182.36 32.1336 180.45 31.719 178.237C31.6275 177.767 31.4276 177.325 31.135 176.946C30.9895 176.719 30.7937 176.529 30.5628 176.39C30.3318 176.252 30.072 176.168 29.8035 176.146" fill="black"/>
</g>
<path d="M26.7548 163.374C31.6371 163.374 36.3733 163.105 41.2497 162.79C41.7809 162.813 42.3042 162.655 42.733 162.34C42.9292 162.096 43.0751 161.816 43.1623 161.515C43.2495 161.214 43.2763 160.899 43.2411 160.588C43.2411 157.972 43.136 154.993 41.1504 153.288C39.9357 152.249 38.2713 151.922 36.677 151.776C32.7178 151.348 28.7129 151.746 24.9152 152.944L26.7548 163.374Z" fill="#E6F9FD"/>
<path d="M128.184 201.772C128.184 201.772 128.184 201.632 128.149 201.351C128.114 201.071 128.102 200.656 128.067 200.125C128.009 199.039 127.921 197.456 127.81 195.412C127.699 193.368 127.559 190.863 127.267 187.966C126.965 184.686 126.389 181.438 125.544 178.254C124.478 174.409 122.897 170.726 120.843 167.304C118.517 163.354 115.425 159.907 111.75 157.166C103.872 151.56 93.2256 148.406 82.0888 148.254C70.9519 148.102 60.2997 151.624 52.6143 157.528C48.9304 160.254 45.7034 163.548 43.0542 167.287C40.7411 170.533 38.8604 174.067 37.4595 177.799C36.3039 180.883 35.5102 184.091 35.0943 187.359C34.7686 189.823 34.6728 192.311 34.8082 194.793C34.904 196.361 35.099 197.922 35.3922 199.465C35.4856 199.985 35.5615 200.388 35.6082 200.668C35.655 200.948 35.6725 201.083 35.6725 201.083C35.6725 201.083 35.6374 200.948 35.579 200.68L35.3279 199.512C35.0101 197.971 34.7993 196.41 34.6972 194.84C34.5384 192.35 34.6166 189.851 34.9308 187.376C35.3333 184.092 36.1172 180.866 37.2668 177.764C38.6629 174.002 40.5436 170.439 42.8615 167.164C45.5167 163.395 48.758 160.075 52.4625 157.33C60.1829 151.396 70.8585 147.84 82.0829 147.986C93.3074 148.132 103.971 151.314 111.914 156.973C115.611 159.741 118.718 163.22 121.053 167.205C123.105 170.653 124.677 174.364 125.725 178.237C126.565 181.433 127.13 184.696 127.413 187.989C127.687 190.909 127.81 193.397 127.904 195.441C127.997 197.485 128.061 199.074 128.108 200.16C128.108 200.691 128.143 201.1 128.155 201.386C128.166 201.673 128.184 201.772 128.184 201.772Z" fill="white"/>
<path d="M129.936 202.496V202.146L129.901 201.112C129.872 200.189 129.831 198.84 129.772 197.077C129.673 193.532 129.527 188.352 129.34 181.758C129.153 175.165 128.937 167.158 128.686 157.989C128.622 155.694 128.563 153.317 128.493 150.894C128.452 149.655 128.507 148.416 128.657 147.185L128.92 145.305L129.305 143.419C129.91 140.842 130.781 138.335 131.904 135.938C133.06 133.425 134.49 131.047 136.167 128.848L165.034 110.662L172.831 105.757C175.458 104.01 178.217 102.47 181.082 101.149C184.012 99.7689 187.019 98.5581 190.088 97.5221C191.618 96.9848 193.189 96.5468 194.76 96.0796C196.331 95.6124 197.931 95.227 199.554 94.9116C205.676 93.602 211.899 92.8205 218.155 92.5756C224.157 92.288 230.171 92.3075 236.171 92.634H236.341L236.3 92.8034L228.544 127.499C227.111 129.852 225.937 132.352 225.04 134.956C224.158 137.427 223.761 140.044 223.872 142.665C224.071 145.229 224.141 147.74 224.205 150.176C224.269 152.611 224.298 154.97 224.345 157.265C224.479 166.434 224.515 174.429 224.538 181.017C224.561 187.604 224.538 192.784 224.538 196.323C224.538 198.075 224.538 199.436 224.538 200.359C224.538 200.808 224.538 201.153 224.538 201.392C224.538 201.632 224.538 201.743 224.538 201.743C224.538 201.743 224.538 201.62 224.538 201.392C224.538 201.165 224.538 200.808 224.538 200.359C224.538 199.436 224.538 198.087 224.538 196.323C224.538 192.784 224.485 187.604 224.444 181.022C224.404 174.441 224.345 166.422 224.187 157.265C224.141 154.976 224.09 152.615 224.036 150.181C223.966 147.746 223.895 145.247 223.691 142.683C223.573 140.029 223.969 137.378 224.859 134.875C225.749 132.249 226.924 129.729 228.363 127.359V127.4C230.74 116.718 233.339 105.062 236.089 92.6983L236.224 92.8735C230.237 92.5509 224.237 92.5353 218.248 92.8268C212.008 93.0683 205.8 93.8499 199.695 95.1628C198.077 95.484 196.5 95.9336 194.917 96.3308C193.335 96.7279 191.787 97.236 190.245 97.7674C187.177 98.805 184.17 100.018 181.24 101.4C178.389 102.712 175.644 104.243 173.029 105.978L165.227 110.884L136.36 129.029V129C134.686 131.185 133.26 133.549 132.108 136.049C130.986 138.427 130.117 140.917 129.515 143.477C128.201 148.482 128.861 153.405 128.873 157.989L129.457 181.758C129.615 188.346 129.737 193.532 129.819 197.071C129.86 198.823 129.883 200.189 129.907 201.112C129.907 201.56 129.907 201.904 129.907 202.146C129.936 202.379 129.936 202.496 129.936 202.496Z" fill="#263238"/>
<path d="M235.961 93.5977H236.236L237.036 93.5685L240.137 93.4925L251.636 93.2706L290.402 92.6049H290.478L290.525 92.6633L295.956 99.315C301.457 106.072 306.701 112.496 311.467 118.336L313.219 120.497C313.786 121.221 314.273 122.004 314.673 122.833C315.396 124.369 315.79 126.041 315.827 127.739C315.864 129.437 315.544 131.124 314.889 132.691L313.137 136.779L307.776 149.183L306.304 152.547L305.913 153.423C305.825 153.615 305.773 153.715 305.773 153.715C305.773 153.715 305.808 153.609 305.884 153.411C305.96 153.212 306.094 152.903 306.246 152.523C306.579 151.741 307.052 150.596 307.665 149.136L312.921 136.697C313.925 134.057 315.695 131.277 315.572 127.89C315.546 126.169 315.148 124.473 314.404 122.92C314.013 122.114 313.535 121.352 312.979 120.649L311.227 118.488L295.699 99.4844L290.273 92.8326L290.39 92.891L251.618 93.475L240.12 93.6093H237.018H236.224L235.961 93.5977Z" fill="#263238"/>
<path d="M216.368 145.153C216.368 145.153 216.531 145.153 216.829 145.083C217.267 145.005 217.684 144.838 218.055 144.592C218.644 144.209 219.084 143.636 219.305 142.969C219.439 142.555 219.494 142.119 219.469 141.684C219.455 141.199 219.331 140.724 219.106 140.294C218.845 139.805 218.458 139.395 217.984 139.106C217.511 138.817 216.969 138.661 216.414 138.653H212.478H203.455C202.693 138.654 201.959 138.942 201.4 139.459C200.853 139.957 200.505 140.635 200.418 141.369C200.33 142.078 200.46 142.797 200.792 143.43C201.131 144.025 201.657 144.491 202.287 144.756C202.912 144.97 203.574 145.052 204.232 144.995H206.142H209.576L214.545 145.042L215.894 145.071C216.053 145.068 216.211 145.08 216.368 145.106C216.211 145.125 216.053 145.135 215.894 145.136H214.545L209.576 145.182H206.142H204.232C203.899 145.182 203.578 145.182 203.222 145.182C202.864 145.16 202.513 145.08 202.182 144.943C201.49 144.658 200.912 144.151 200.541 143.5C200.17 142.817 200.025 142.034 200.126 141.264C200.218 140.444 200.608 139.687 201.222 139.137C201.836 138.587 202.631 138.281 203.455 138.279H212.478H216.42C217.016 138.292 217.598 138.465 218.103 138.781C218.609 139.096 219.02 139.543 219.293 140.072C219.527 140.532 219.653 141.04 219.661 141.556C219.68 142.011 219.615 142.467 219.469 142.899C219.222 143.593 218.746 144.182 218.12 144.569C217.733 144.815 217.296 144.969 216.841 145.019C216.689 145.082 216.53 145.127 216.368 145.153Z" fill="#263238"/>
<path d="M302.799 145.153C302.799 145.153 302.963 145.153 303.261 145.083C303.699 145.005 304.116 144.838 304.487 144.592C305.076 144.209 305.516 143.636 305.737 142.969C305.871 142.555 305.926 142.119 305.9 141.684C305.887 141.199 305.763 140.724 305.538 140.294C305.277 139.805 304.89 139.395 304.416 139.106C303.943 138.817 303.401 138.661 302.846 138.653H298.91H289.887C289.125 138.654 288.391 138.942 287.832 139.459C287.285 139.957 286.937 140.635 286.85 141.369C286.762 142.078 286.892 142.797 287.224 143.43C287.563 144.025 288.089 144.491 288.719 144.756C289.344 144.97 290.006 145.052 290.664 144.995H292.574H296.008L300.977 145.042L302.326 145.071C302.485 145.068 302.643 145.08 302.799 145.106C302.642 145.125 302.484 145.135 302.326 145.136H300.977L296.008 145.182H292.574H290.664C290.331 145.182 290.01 145.182 289.654 145.182C289.296 145.16 288.945 145.08 288.614 144.943C287.922 144.658 287.344 144.151 286.973 143.5C286.602 142.817 286.457 142.034 286.558 141.264C286.65 140.444 287.04 139.687 287.654 139.137C288.268 138.587 289.063 138.281 289.887 138.279H298.91H302.852C303.448 138.292 304.029 138.465 304.535 138.781C305.041 139.096 305.452 139.543 305.725 140.072C305.959 140.532 306.085 141.04 306.093 141.556C306.112 142.011 306.047 142.467 305.9 142.899C305.654 143.593 305.178 144.182 304.551 144.569C304.165 144.815 303.728 144.969 303.272 145.019C303.121 145.082 302.962 145.127 302.799 145.153Z" fill="#263238"/>
<path d="M378.539 131.055H361.253C360.091 131.055 358.95 131.372 357.955 131.972C356.96 132.572 356.148 133.432 355.605 134.46C355.16 135.31 354.912 136.25 354.879 137.21C354.847 138.169 355.031 139.124 355.418 140.002L362.193 155.402L379.503 155.233C379.503 155.233 383.188 135.71 378.539 131.055Z" fill="#E6F9FD"/>
<path d="M138.462 128.877L227.656 127.23L285.706 126.167L304.85 115.112C305.213 114.9 305.528 114.613 305.773 114.271C306.018 113.928 306.187 113.537 306.269 113.124C306.351 112.711 306.345 112.285 306.25 111.875C306.155 111.465 305.975 111.079 305.72 110.744L293.8 95.0869C293.188 94.2807 292.399 93.6257 291.494 93.1721C290.589 92.7186 289.592 92.4786 288.579 92.4705L223.65 91.9449C223.65 91.9449 199.204 90.52 179.938 101.289C159.679 112.659 138.462 128.877 138.462 128.877Z" fill="#364F5B"/>
<path d="M179.337 93.5626C179.337 93.5626 183.81 95.6008 180.902 97.4871C177.993 99.3734 132.804 127.855 132.804 127.855L122.414 123.154C140.816 112.916 159.399 102.959 179.337 93.5626Z" fill="#455A64"/>
<path d="M134.264 128.579L133.983 128.649L133.16 128.83L129.989 129.484C127.232 130.033 123.238 130.804 118.309 131.657C108.381 133.362 94.6451 135.348 79.3618 136.668C75.5366 137.001 71.7698 137.252 68.1958 137.509C64.6217 137.766 61.106 137.97 57.8006 138.268C51.1838 138.852 45.2621 139.81 40.4499 141.24C36.625 142.304 32.944 143.83 29.4883 145.784C28.2443 146.438 27.3567 147.08 26.7318 147.466L26.0193 147.915L25.7682 148.061C25.8431 148.001 25.9211 147.945 26.0018 147.892L26.6968 147.413C27.3158 147.01 28.1918 146.35 29.4299 145.661C32.8647 143.654 36.5374 142.084 40.3623 140.989C45.1862 139.523 51.1254 138.536 57.748 137.947C61.0593 137.631 64.5399 137.409 68.149 137.17C71.7581 136.93 75.4899 136.65 79.3093 136.317C94.5867 134.997 108.34 133.047 118.25 131.394C123.208 130.571 127.203 129.835 129.965 129.321L133.148 128.737L133.977 128.585L134.264 128.579Z" fill="#004177"/>
<path d="M385.448 168.519C385.448 168.607 379.503 168.671 372.173 168.671C364.844 168.671 358.893 168.607 358.893 168.519C358.893 168.431 364.838 168.367 372.173 168.367C379.509 168.367 385.448 168.437 385.448 168.519Z" fill="#263238"/>
<path d="M276.689 183.691C276.689 183.779 243.133 183.843 201.745 183.843C160.357 183.843 126.794 183.779 126.794 183.691C126.794 183.604 160.345 183.539 201.745 183.539C243.145 183.539 276.689 183.61 276.689 183.691Z" fill="#263238"/>
<path d="M41.7522 169.021C41.7522 169.109 37.0043 169.173 31.1526 169.173C25.3009 169.173 20.553 169.109 20.553 169.021C20.553 168.934 25.3009 168.869 31.1526 168.869C37.0043 168.869 41.7522 168.939 41.7522 169.021Z" fill="#263238"/>
<path d="M350.262 103.859C350.262 103.859 346.279 108.314 347.844 111.585C349.409 114.855 365.592 126.313 365.592 126.313L377.336 128.515L350.262 103.859Z" fill="#455A64"/>
<path d="M238.601 95.8752L235.961 124.398L283.219 123.049L302.263 111.976L289.935 95.8752H238.601Z" fill="#455A64"/>
<path d="M149.652 125.858C149.652 125.858 178.163 105.266 189.411 101.172C200.267 97.2243 205.926 96.2315 216.123 95.9161C225.87 95.6358 231.809 95.9161 231.809 95.9161L224.275 124.912L149.652 125.858Z" fill="#455A64"/>
<path d="M145.482 125.928C145.482 125.041 145.718 124.171 146.166 123.405C146.613 122.64 147.256 122.007 148.028 121.571L154.581 117.892C156.447 116.841 158.553 116.29 160.695 116.292C162.014 116.294 163.325 116.503 164.579 116.911C165.944 117.383 167.133 118.261 167.986 119.426C168.84 120.592 169.318 121.99 169.356 123.434C169.393 124.404 169.234 125.372 168.888 126.279C168.542 127.186 168.016 128.013 167.343 128.713C166.67 129.412 165.862 129.968 164.968 130.347C164.075 130.727 163.114 130.922 162.144 130.921H150.464C149.141 130.918 147.874 130.391 146.94 129.454C146.006 128.518 145.482 127.25 145.482 125.928Z" fill="#11B0DB"/>
<path d="M145.482 125.928C145.482 125.928 145.482 126.15 145.558 126.559C145.646 127.16 145.844 127.74 146.142 128.27C146.614 129.104 147.31 129.79 148.151 130.249C148.675 130.524 149.245 130.702 149.833 130.775C150.503 130.825 151.176 130.838 151.848 130.816L161.84 130.781C162.787 130.806 163.73 130.652 164.62 130.325C165.558 129.974 166.412 129.429 167.125 128.724C167.837 128.019 168.393 127.172 168.754 126.237C169.122 125.251 169.272 124.197 169.192 123.148C169.114 122.114 168.809 121.11 168.3 120.206C167.79 119.303 167.088 118.523 166.243 117.921C165.428 117.358 164.509 116.961 163.539 116.753C160.876 116.123 158.079 116.392 155.585 117.518C154.832 117.857 154.143 118.283 153.459 118.651L151.509 119.737L148.151 121.595C147.306 122.049 146.609 122.736 146.142 123.574C145.847 124.106 145.65 124.685 145.558 125.285C145.5 125.694 145.505 125.916 145.488 125.916C145.466 125.703 145.466 125.487 145.488 125.274C145.553 124.661 145.736 124.066 146.025 123.522C146.484 122.65 147.189 121.931 148.052 121.454L151.386 119.556L153.325 118.453C154.003 118.079 154.692 117.647 155.463 117.285C158.004 116.115 160.863 115.827 163.586 116.467C164.59 116.667 165.545 117.064 166.395 117.635C167.278 118.261 168.012 119.073 168.545 120.015C169.078 120.957 169.397 122.005 169.478 123.084C169.564 124.179 169.409 125.279 169.023 126.307C168.646 127.284 168.066 128.169 167.321 128.904C166.576 129.639 165.683 130.207 164.701 130.571C163.779 130.903 162.802 131.059 161.822 131.032L151.83 131.003C151.15 131.017 150.47 130.996 149.792 130.939C149.177 130.853 148.583 130.655 148.04 130.355C147.179 129.873 146.474 129.156 146.008 128.287C145.722 127.742 145.542 127.147 145.476 126.535C145.462 126.333 145.464 126.13 145.482 125.928Z" fill="#263238"/>
<path d="M365.136 202.035C365.136 202.035 365.136 201.9 365.136 201.632C365.136 201.363 365.183 200.96 365.218 200.464C365.253 199.967 365.311 199.296 365.346 198.537C365.382 197.777 365.405 196.89 365.434 195.903C365.463 194.916 365.434 193.806 365.434 192.603C365.434 191.4 365.346 190.086 365.183 188.684C364.918 185.508 364.353 182.364 363.495 179.294C362.99 177.503 362.368 175.747 361.632 174.038C360.851 172.191 359.909 170.417 358.817 168.735C356.384 165.028 353.287 161.801 349.684 159.216C345.717 156.336 341.289 154.152 336.59 152.757C331.72 151.268 326.417 150.724 321.021 150.684C315.758 150.635 310.518 151.398 305.487 152.944C303.104 153.696 300.791 154.652 298.572 155.799C296.456 156.924 294.447 158.237 292.568 159.724C289.076 162.459 285.965 165.649 283.318 169.208C282.154 170.842 281.126 172.568 280.246 174.371C279.443 176.041 278.734 177.755 278.12 179.504C276.254 184.775 275.119 190.277 274.745 195.856C274.651 197.836 274.663 199.36 274.716 200.423C274.745 200.937 274.768 201.328 274.78 201.591C274.792 201.854 274.78 201.994 274.78 201.994C274.78 201.994 274.78 201.859 274.733 201.591C274.686 201.322 274.675 200.919 274.634 200.423C274.557 198.9 274.557 197.373 274.634 195.85C274.957 190.24 276.063 184.702 277.922 179.399C278.535 177.642 279.241 175.919 280.036 174.236C280.924 172.421 281.955 170.679 283.119 169.027C285.775 165.445 288.896 162.232 292.399 159.473C294.289 157.974 296.31 156.649 298.438 155.513C300.672 154.356 303.001 153.393 305.399 152.634C310.459 151.07 315.731 150.3 321.027 150.351C326.446 150.392 331.772 150.935 336.684 152.441C341.414 153.849 345.869 156.054 349.859 158.959C351.706 160.319 353.434 161.835 355.021 163.491C356.53 165.044 357.874 166.749 359.033 168.577C360.129 170.274 361.073 172.064 361.854 173.927C362.588 175.635 363.207 177.391 363.705 179.183C364.558 182.268 365.111 185.429 365.358 188.62C365.516 190.022 365.516 191.336 365.58 192.545C365.644 193.754 365.58 194.881 365.58 195.85C365.58 196.82 365.492 197.725 365.457 198.49C365.422 199.255 365.347 199.891 365.3 200.417C365.253 200.943 365.218 201.322 365.195 201.585C365.171 201.848 365.136 202.035 365.136 202.035Z" fill="white"/>
<path d="M223.026 128.877H222.892H222.494L220.97 128.912L215.37 129.011C210.639 129.099 204.11 129.274 196.892 129.473C189.674 129.671 183.139 129.806 178.408 129.841C176.043 129.841 174.128 129.841 172.802 129.841H171.278H170.886C170.84 129.849 170.793 129.849 170.746 129.841C170.793 129.833 170.84 129.833 170.886 129.841H171.278L172.802 129.806L178.402 129.706C183.133 129.619 189.668 129.444 196.886 129.251C204.104 129.058 210.639 128.912 215.37 128.877C217.706 128.877 219.65 128.877 220.97 128.877H222.494H222.892H223.026Z" fill="white"/>
<path d="M215.282 137.655C213.581 137.808 211.873 137.859 210.166 137.806C208.459 137.859 206.751 137.808 205.05 137.655C206.751 137.504 208.459 137.453 210.166 137.503C211.873 137.453 213.581 137.504 215.282 137.655Z" fill="white"/>
<path d="M217.162 106.405C217.191 106.481 210.843 109.126 202.977 112.309C195.11 115.492 188.71 118.015 188.674 117.933C188.639 117.851 194.993 115.211 202.86 112.029C210.726 108.846 217.127 106.329 217.162 106.405Z" fill="white"/>
<path d="M204.291 108.408C204.326 108.49 198.276 111.153 190.783 114.359C183.29 117.565 177.193 120.105 177.158 120.03C177.123 119.954 183.173 117.291 190.666 114.079C198.159 110.867 204.256 108.32 204.291 108.408Z" fill="white"/>
<path d="M285.911 105.301C285.946 105.377 279.592 108.022 271.725 111.205C263.859 114.388 257.458 116.905 257.423 116.829C257.388 116.753 263.742 114.108 271.614 110.925C279.487 107.742 285.864 105.219 285.911 105.301Z" fill="white"/>
<path d="M273.016 107.292C273.051 107.374 267.001 110.037 259.514 113.243C252.027 116.45 245.918 118.99 245.883 118.914C245.848 118.838 251.898 116.175 259.391 112.963C266.884 109.751 273.016 107.24 273.016 107.292Z" fill="white"/>
<path d="M287.155 128.848C287.155 128.93 274.523 129.076 258.942 129.169C243.36 129.262 230.729 129.268 230.729 129.169C230.729 129.07 243.355 128.941 258.942 128.854C274.528 128.766 287.155 128.784 287.155 128.848Z" fill="white"/>
<path d="M301.141 137.17C301.141 137.252 297.602 137.351 293.228 137.392C288.854 137.433 285.315 137.392 285.315 137.316C285.315 137.24 288.854 137.129 293.228 137.088C297.602 137.047 301.141 137.082 301.141 137.17Z" fill="white"/>
<path d="M59.2723 132.848C59.1608 132.886 59.0451 132.909 58.9278 132.918L57.9408 133.047C57.5086 133.094 56.983 133.158 56.3757 133.263C55.7683 133.368 55.0734 133.444 54.3142 133.596C52.7899 133.864 50.9854 134.262 49.0114 134.764C46.8732 135.354 44.7661 136.052 42.6984 136.854C40.5026 137.725 38.4644 138.677 36.6423 139.617C34.8203 140.557 33.2435 141.503 31.9703 142.35C31.3104 142.753 30.7381 143.162 30.2183 143.518C29.6986 143.874 29.2723 144.166 28.9219 144.423L28.1101 145.007C28.0171 145.079 27.9174 145.142 27.8123 145.194C27.8896 145.108 27.9758 145.029 28.0692 144.96L28.8518 144.336C29.1905 144.067 29.611 143.752 30.1191 143.384C30.6271 143.016 31.1819 142.607 31.8711 142.216C33.1559 141.345 34.7443 140.394 36.5431 139.418C40.4809 137.313 44.6518 135.676 48.9706 134.542C50.9562 134.028 52.7724 133.648 54.3083 133.409C55.0734 133.269 55.7683 133.199 56.3815 133.117C56.9947 133.035 57.5495 132.983 57.9525 132.953L58.9511 132.877C59.0574 132.86 59.1647 132.85 59.2723 132.848Z" fill="white"/>
<path d="M163.563 119.072C163.563 119.072 163.393 118.844 162.979 118.529C162.419 118.1 161.753 117.831 161.052 117.752C160 117.664 158.942 117.777 157.933 118.085C154.377 118.98 151.074 120.681 148.279 123.055C146.89 124.223 146.154 125.081 146.113 125.04C146.254 124.817 146.419 124.61 146.603 124.421C147.086 123.885 147.597 123.374 148.133 122.891C149.918 121.302 151.944 120.009 154.137 119.06C155.341 118.533 156.59 118.117 157.869 117.816C158.911 117.513 160.002 117.418 161.081 117.536C161.814 117.636 162.5 117.951 163.055 118.441C163.202 118.573 163.333 118.722 163.446 118.885C163.539 119.002 163.574 119.066 163.563 119.072Z" fill="white"/>
<path d="M351.587 103.648C350.773 103.845 349.936 103.931 349.099 103.905C348.117 103.876 347.139 103.755 346.179 103.543C344.913 103.245 343.669 102.855 342.459 102.375C341.11 101.867 339.674 101.207 338.12 100.559L335.697 99.5836C334.861 99.2508 333.98 98.9646 333.092 98.6376C329.194 97.3175 325.219 96.2351 321.19 95.3964C313.865 93.8716 306.427 92.9497 298.951 92.6399C297.515 92.564 296.218 92.564 295.074 92.5348H292.154L290.308 92.5756H289.66C289.714 92.5654 289.769 92.5654 289.823 92.5756L290.302 92.5406L292.154 92.4413L295.074 92.3888C296.242 92.3888 297.515 92.3888 298.951 92.4588C306.448 92.7035 313.908 93.6024 321.248 95.1452C325.286 95.9747 329.267 97.0592 333.168 98.3923C334.056 98.7193 334.92 99.0113 335.778 99.35L338.202 100.349C339.755 101.02 341.186 101.674 342.524 102.194C343.717 102.675 344.945 103.066 346.197 103.362C347.144 103.589 348.109 103.726 349.082 103.771C349.696 103.792 350.311 103.771 350.921 103.707L351.395 103.648H351.587Z" fill="#263238"/>
<path d="M70.6069 104.454C68.2709 91.6763 66.6999 89.7141 65.3801 85.3166C64.0602 80.919 61.9637 78.0633 59.3532 77.053C57.6012 76.3755 48.8003 73.2044 45.7402 74.2556C42.7462 75.3201 39.8959 76.7521 37.2547 78.5188C35.205 79.8783 33.6516 81.8661 32.8279 84.1836L28.1559 97.3645L36.3787 105.54L40.5017 96.7805L44.9751 107.292L44.3152 117.892L69.9703 124.795C72.283 121.057 71.9326 111.702 70.6069 104.454Z" fill="#11B0DB"/>
<g opacity="0.2">
<path opacity="0.2" d="M63.9433 90.5142C62.8104 97.1659 62.6293 98.1062 61.4964 104.735C61.1051 107.018 59.9663 110.575 58.3428 112.233C57.1397 113.454 55.9601 114.628 54.284 115.025C52.7305 115.393 50.3653 115.433 48.9053 114.791C47.4453 114.149 46.1956 111.287 46.7971 109.821C48.9754 110.288 49.647 110.989 51.5216 109.821C53.1568 108.782 55.4812 106.481 56.3689 104.758C60.1123 97.5163 61.146 97.2594 63.9609 90.5142" fill="black"/>
</g>
<path d="M45.3545 103.403C44.9396 102.844 44.5611 102.259 44.2215 101.651L41.5819 97.3119L38.8721 93.0429C38.4681 92.4685 38.1033 91.8675 37.78 91.2441C37.9206 91.3719 38.0442 91.5172 38.148 91.6763C38.3699 91.9625 38.6794 92.3888 39.0473 92.9202C39.7948 93.9831 40.7993 95.4723 41.8388 97.1484C42.8783 98.8245 43.7836 100.378 44.4084 101.517C44.7238 102.101 44.9924 102.545 45.1326 102.872C45.2338 103.036 45.3087 103.215 45.3545 103.403Z" fill="#004177"/>
<path d="M63.2606 115.334C63.0747 115.431 62.8789 115.507 62.6766 115.562C62.4373 115.642 62.1936 115.708 61.9466 115.76C61.6239 115.848 61.2963 115.916 60.9655 115.965C60.1094 116.117 59.2421 116.197 58.3726 116.204C57.3056 116.206 56.2406 116.114 55.1898 115.93C54.14 115.732 53.11 115.441 52.1121 115.06C51.3047 114.744 50.5236 114.365 49.7761 113.927C49.4491 113.746 49.1921 113.547 48.9351 113.389C48.7225 113.251 48.5178 113.101 48.3219 112.94C48.1439 112.818 47.9811 112.674 47.8372 112.513C47.8723 112.467 48.5964 113.033 49.8812 113.74C50.6344 114.146 51.415 114.499 52.2172 114.797C54.1887 115.532 56.2744 115.913 58.3784 115.924C59.2358 115.925 60.0923 115.868 60.9422 115.755C62.3671 115.55 63.2431 115.276 63.2606 115.334Z" fill="#004177"/>
<path d="M52.9645 95.4256C52.9178 95.6534 50.1613 101.143 50.1613 101.143L37.1498 94.2868L35.8241 88.6804C35.6053 87.7801 35.0389 87.0031 34.2487 86.5194C33.4585 86.0356 32.5089 85.8846 31.6076 86.0991L27.7707 87.6701C27.6125 87.732 27.4721 87.8321 27.362 87.9615C27.2519 88.091 27.1757 88.2456 27.14 88.4118C27.0875 88.6921 27.14 88.9958 27.6481 88.9315C28.6 88.8556 30.5681 88.6454 30.5681 88.6454L29.6629 91.8399C29.424 92.677 29.516 93.574 29.9198 94.3452L30.5038 95.449L31.7711 97.4988H31.7419C31.7419 97.4988 44.3914 110.493 51.4928 111.34C55.7618 111.848 60.5974 99.8815 60.5974 99.8815L52.9645 95.4256Z" fill="#FFC3BD"/>
<path d="M30.4744 88.8615C30.4744 88.8615 30.5736 88.7271 30.7897 88.5811C31.0791 88.3796 31.4241 88.2735 31.7767 88.2775C31.9608 88.2878 32.1387 88.3475 32.2918 88.4502C32.4449 88.553 32.5675 88.695 32.6468 88.8615C32.7695 89.1243 32.6877 89.2995 32.6468 89.2878C32.606 89.2761 32.6468 89.1243 32.5067 88.9257C32.4205 88.7996 32.307 88.6947 32.1745 88.6189C32.0419 88.543 31.894 88.4981 31.7416 88.4877C31.4256 88.4922 31.1152 88.5723 30.8364 88.7213C30.6554 88.8089 30.4919 88.8848 30.4744 88.8615Z" fill="#E79C95"/>
<path d="M32.1154 90.8529C32.1154 90.8529 32.0278 90.7478 31.9052 90.5901C31.7484 90.3889 31.5406 90.2334 31.3033 90.1399C31.066 90.0464 30.808 90.0184 30.5561 90.0586C30.3575 90.0586 30.2349 90.1287 30.2232 90.1053C30.2115 90.082 30.3167 89.9944 30.5269 89.9243C30.8048 89.8432 31.1017 89.8565 31.3712 89.9622C31.6407 90.0678 31.8675 90.2599 32.0161 90.5083C32.1212 90.7069 32.1329 90.847 32.1154 90.8529Z" fill="#E79C95"/>
<path d="M55.6626 78.0983L52.1586 94.7949L61.5026 100.407L65.0884 90.1463C65.0884 90.1463 63.5817 77.6837 55.6626 78.0983Z" fill="#11B0DB"/>
<path d="M60.6963 78.3904C60.6963 78.3904 60.6203 78.4546 60.4568 78.5422C60.2933 78.6298 60.0597 78.7583 59.7502 78.9159C59.1312 79.2313 58.2201 79.6751 57.0813 80.1832C54.1207 81.5366 51.0037 82.5174 47.8016 83.1032C44.5793 83.679 41.2717 83.5676 38.0955 82.7762C37.1448 82.5265 36.2184 82.1922 35.3273 81.7775C35.0061 81.6432 34.7433 81.4972 34.609 81.4155C34.5252 81.3736 34.4451 81.3248 34.3696 81.2695C34.7116 81.3852 35.0469 81.5197 35.374 81.6724C36.2817 82.0391 37.2146 82.3396 38.1656 82.5718C41.3177 83.2934 44.583 83.3729 47.7665 82.8054C50.9472 82.2199 54.0508 81.2735 57.0171 79.9847C58.1851 79.5058 59.0786 79.0911 59.7151 78.8167C60.0324 78.653 60.3602 78.5106 60.6963 78.3904Z" fill="#E6F9FD"/>
<path d="M63.1553 80.2357C63.0753 80.3081 62.9871 80.3708 62.8925 80.4226L62.1216 80.919C61.7141 81.1859 61.2931 81.4315 60.8602 81.6549C60.3579 81.9177 59.7973 82.2389 59.1374 82.5309L58.1212 82.9981C57.765 83.1616 57.3795 83.2959 56.9882 83.4536C56.2115 83.7748 55.3472 84.0376 54.4479 84.3296C50.5047 85.5189 46.3834 86.0071 42.2715 85.7721C41.3254 85.6961 40.426 85.6436 39.5967 85.5093C39.1763 85.445 38.7733 85.4042 38.3879 85.3341L37.2841 85.1121C36.5833 84.9895 35.9584 84.8026 35.4095 84.6625C34.9374 84.5484 34.4715 84.41 34.0137 84.2478L33.1435 83.9441C33.0393 83.9164 32.9392 83.8752 32.8457 83.8215C32.9534 83.8274 33.0596 83.849 33.1611 83.8857L34.0487 84.131C34.4283 84.2478 34.8955 84.3821 35.4503 84.4989C36.0051 84.6157 36.6183 84.7968 37.3308 84.9019L38.4287 85.1005C38.8083 85.1705 39.2113 85.2056 39.5967 85.2581C40.426 85.3808 41.3487 85.4275 42.2539 85.4917C46.3354 85.6992 50.4225 85.2155 54.3427 84.0609C55.2362 83.7806 56.0947 83.5295 56.8714 83.2141C57.2569 83.0623 57.6423 82.9338 57.9986 82.782L59.0206 82.3323C59.6805 82.0637 60.2411 81.7483 60.7726 81.503C61.304 81.2577 61.7128 81.0183 62.0515 80.8197L62.8574 80.3759C62.95 80.3161 63.0502 80.2689 63.1553 80.2357Z" fill="#E6F9FD"/>
<path d="M61.4791 100.407C61.2173 100.297 60.9636 100.168 60.7199 100.022L58.6642 98.8536L51.6562 94.8065L51.5686 94.754V94.6547C51.8197 93.4108 52.0884 92.0676 52.3687 90.6893C52.7892 88.6103 53.198 86.6364 53.5367 84.8493C53.7294 83.95 53.8871 83.0973 54.0623 82.2856C54.2207 81.5352 54.4718 80.8074 54.8098 80.1189C55.2994 79.0964 56.1659 78.3032 57.2276 77.9056C57.515 77.8066 57.8171 77.7572 58.1211 77.7596C58.2255 77.7524 58.3304 77.7643 58.4306 77.7946C58.0322 77.808 57.6382 77.8829 57.2626 78.0166C56.2595 78.4397 55.4511 79.223 54.9967 80.2124C54.6809 80.8927 54.4476 81.6083 54.3017 82.344C54.144 83.1441 53.9805 84.0025 53.8053 84.8961C53.4432 86.7065 53.0461 88.6804 52.6373 90.7361C52.357 92.1201 52.0825 93.4575 51.8314 94.7014L51.7613 94.5496L58.7285 98.6901L60.7433 99.9165C61.0018 100.059 61.2479 100.223 61.4791 100.407Z" fill="#004177"/>
<path d="M64.335 89.6498C64.3864 90.1695 64.3707 90.6935 64.2883 91.2091C64.1659 92.4572 63.9433 93.6935 63.6225 94.9058C63.3019 96.1195 62.888 97.3067 62.3844 98.4566C62.2017 98.9456 61.9563 99.4089 61.6544 99.8348C61.7973 99.3363 61.9749 98.8485 62.1859 98.3748C63.0723 96.0512 63.7067 93.639 64.078 91.1799C64.1312 90.665 64.217 90.1539 64.335 89.6498Z" fill="#004177"/>
<path d="M13.6727 182.523L13.5675 191.435C13.5675 191.435 4.46884 194.326 4.29364 195.973L21.5683 196.79L22.3042 182.909L13.6727 182.523Z" fill="#455A64"/>
<path d="M18.9756 190.939C19.1396 190.997 19.2761 191.114 19.3591 191.267C19.4421 191.42 19.4657 191.599 19.4253 191.768C19.3738 191.935 19.2601 192.075 19.1078 192.16C18.9555 192.244 18.7764 192.267 18.6077 192.223C18.4346 192.16 18.2908 192.035 18.2036 191.872C18.1164 191.71 18.0919 191.521 18.1347 191.342C18.208 191.175 18.3433 191.042 18.512 190.973C18.6808 190.903 18.8699 190.901 19.0399 190.968" fill="#A9DEE9"/>
<path d="M21.5685 196.79V195.389L4.9946 195.126C4.9946 195.126 4.20621 195.424 4.27045 195.973L21.5685 196.79Z" fill="#A9DEE9"/>
<path d="M13.2936 191.336C13.2936 191.418 13.714 191.476 14.1112 191.768C14.5083 192.06 14.6952 192.422 14.8003 192.393C14.9054 192.364 14.8003 191.873 14.2805 191.529C13.7608 191.184 13.276 191.254 13.2936 191.336Z" fill="#263238"/>
<path d="M11.4417 191.996C11.4417 192.078 11.7804 192.241 12.0257 192.609C12.271 192.977 12.3586 193.362 12.4462 193.362C12.5338 193.362 12.6039 192.889 12.2593 192.434C11.9148 191.978 11.4476 191.92 11.4417 191.996Z" fill="#263238"/>
<path d="M10.3093 194.116C10.3852 194.116 10.5254 193.724 10.3093 193.251C10.0932 192.778 9.7253 192.58 9.69026 192.667C9.65522 192.755 9.88298 192.994 10.0348 193.386C10.1867 193.777 10.2159 194.104 10.3093 194.116Z" fill="#263238"/>
<path d="M13.5383 189.304C13.5734 189.385 13.9647 189.304 14.4435 189.339C14.9224 189.374 15.2787 189.566 15.3254 189.496C15.3721 189.426 15.0334 189.105 14.4727 189.047C13.9121 188.988 13.5033 189.239 13.5383 189.304Z" fill="#263238"/>
<g opacity="0.3">
<path opacity="0.3" d="M13.6551 184.287L13.6318 185.875L22.129 186.202L22.2049 184.772L13.6551 184.287Z" fill="black"/>
</g>
<path d="M13.597 187.505C13.8759 187.598 14.1749 187.612 14.4613 187.546C14.7758 187.505 15.0839 187.425 15.3782 187.306C15.554 187.241 15.724 187.161 15.8863 187.067C15.9872 187.02 16.0799 186.957 16.1607 186.88C16.2193 186.822 16.2569 186.747 16.2675 186.665C16.278 186.584 16.261 186.501 16.2191 186.43C16.179 186.37 16.1254 186.319 16.0626 186.283C15.9998 186.246 15.9295 186.225 15.8571 186.22C15.7472 186.214 15.6371 186.224 15.53 186.249C15.3445 186.285 15.1627 186.338 14.9869 186.407C14.6897 186.526 14.4121 186.69 14.1635 186.892C13.743 187.248 13.5795 187.557 13.6203 187.575C13.6612 187.592 13.8656 187.347 14.2861 187.061C14.5334 186.896 14.8002 186.763 15.0803 186.664C15.2442 186.608 15.4121 186.565 15.5826 186.535C15.7695 186.494 15.9271 186.5 15.968 186.582C16.0089 186.664 15.968 186.629 15.968 186.681C15.9075 186.736 15.8409 186.783 15.7695 186.822C15.6118 186.909 15.4541 186.991 15.3023 187.061C15.0271 187.18 14.7417 187.274 14.4496 187.341C14.1622 187.377 13.8774 187.432 13.597 187.505Z" fill="#263238"/>
<path d="M13.7199 187.633C13.8935 187.394 13.9856 187.105 13.9827 186.81C14.0151 186.491 13.9914 186.169 13.9126 185.858C13.8655 185.672 13.799 185.492 13.714 185.321C13.673 185.204 13.6024 185.101 13.5092 185.02C13.4161 184.939 13.3035 184.884 13.1826 184.859C13.1063 184.856 13.0308 184.876 12.9654 184.915C12.9001 184.955 12.8476 185.012 12.8147 185.081C12.7631 185.18 12.7276 185.287 12.7095 185.397C12.6803 185.59 12.6803 185.787 12.7095 185.981C12.7415 186.307 12.8539 186.62 13.0366 186.892C13.3519 187.359 13.7023 187.476 13.7082 187.446C13.714 187.417 13.4512 187.23 13.2118 186.786C13.0748 186.532 12.9951 186.251 12.9782 185.963C12.9688 185.795 12.9825 185.626 13.0191 185.461C13.0541 185.28 13.13 185.134 13.2001 185.157C13.2702 185.181 13.422 185.303 13.4863 185.455C13.5654 185.608 13.63 185.769 13.679 185.934C13.7629 186.216 13.8061 186.509 13.8075 186.804C13.7607 187.306 13.6556 187.616 13.7199 187.633Z" fill="#263238"/>
<path d="M48.8884 117.986C48.8884 117.986 21.896 106.656 13.5448 106.183C8.28876 105.879 4.34093 109.243 5.05341 114.663C5.40965 117.378 12.8673 149.119 12.8673 149.119L24.232 143.933L18.7657 121.98L40.9577 132.761L48.8884 117.986Z" fill="#004177"/>
<path d="M15.3725 116.426C15.2849 116.502 16.1784 117.653 17.1245 119.177C18.0705 120.701 18.7013 122.015 18.8064 121.974C18.9115 121.933 18.4268 120.526 17.4632 118.972C16.4996 117.419 15.4717 116.356 15.3725 116.426Z" fill="#455A64"/>
<path d="M13.1651 117.688C13.1067 117.787 14.4674 118.651 16.0851 119.831C17.7028 121.011 18.9175 122.044 19.0051 121.963C19.0927 121.881 17.9247 120.672 16.3012 119.504C14.6776 118.336 13.2118 117.594 13.1651 117.688Z" fill="#455A64"/>
<path d="M69.9414 124.795C69.9414 124.795 66.5483 129.169 63.313 130.366C59.225 131.867 29.1723 146.053 29.1723 146.053C29.1723 146.053 23.7178 186.576 24.15 184.883L11.5648 184.579L12.9313 147.256C13.0948 142.478 16.9259 136.989 21.0431 134.548L48.8882 117.986L69.9414 124.795Z" fill="#004177"/>
<path d="M12.6914 154.088C12.7314 153.92 12.7491 153.747 12.744 153.574C12.744 153.201 12.7907 152.716 12.8199 152.109C12.8914 150.312 13.0591 148.52 13.3222 146.742C13.6908 144.113 14.6231 141.595 16.0553 139.36C16.9415 138.075 18.0348 136.946 19.2906 136.019C20.6535 135.026 22.0795 134.123 23.5597 133.315C29.6157 129.847 34.8425 126.307 38.7086 123.884C40.6358 122.657 42.2126 121.682 43.2872 121.016L44.5369 120.246C44.6881 120.162 44.8309 120.064 44.9633 119.954C44.8024 120.012 44.6478 120.086 44.5019 120.175C44.2041 120.333 43.7661 120.567 43.2113 120.882C42.0958 121.507 40.5073 122.453 38.5393 123.644C34.6323 126.015 29.3763 129.514 23.3553 132.988C21.8599 133.806 20.4201 134.721 19.0454 135.727C17.758 136.682 16.6406 137.847 15.7399 139.173C14.2993 141.466 13.3802 144.048 13.0477 146.736C12.8072 148.527 12.6823 150.331 12.6739 152.138C12.6739 152.722 12.6739 153.23 12.6739 153.609C12.6655 153.769 12.6713 153.93 12.6914 154.088Z" fill="#455A64"/>
<path d="M58.8335 129.064C58.6003 128.702 58.3427 128.357 58.0626 128.03C57.4825 127.187 57.0799 126.234 56.8791 125.23C56.6783 124.226 56.6836 123.192 56.8946 122.19C57.0244 121.779 57.1259 121.36 57.1983 120.935C56.9148 121.273 56.7147 121.673 56.6143 122.103C56.3152 123.14 56.2712 124.234 56.4858 125.291C56.6954 126.349 57.1606 127.34 57.8407 128.176C58.3722 128.848 58.8102 129.099 58.8335 129.064Z" fill="#455A64"/>
<path d="M16.1901 184.579C16.2108 184.513 16.2225 184.444 16.2252 184.375C16.2252 184.211 16.2719 184.012 16.3011 183.761C16.3653 183.177 16.4471 182.406 16.5522 181.425C16.7566 179.346 17.0486 176.385 17.4107 172.741C17.58 170.908 17.7728 168.899 17.9947 166.744C18.2166 164.589 18.421 162.282 18.5787 159.852C18.7364 157.423 18.9933 154.883 19.4372 152.26C19.8706 149.57 20.656 146.949 21.7732 144.464C22.9398 142.008 24.4804 139.749 26.34 137.766C28.0825 135.921 29.9904 134.24 32.0399 132.743C35.5523 130.27 39.2002 127.994 42.9665 125.928C46.161 124.094 48.7072 122.529 50.395 121.349C51.2476 120.765 51.89 120.292 52.3222 119.959L52.8069 119.58C52.9159 119.494 52.9685 119.447 52.9646 119.44C52.8996 119.466 52.8386 119.501 52.7835 119.545L52.2754 119.895C51.8316 120.205 51.1717 120.66 50.3132 121.227C48.5963 122.36 46.0383 123.884 42.8263 125.688C39.0292 127.725 35.3554 129.983 31.8238 132.451C29.747 133.951 27.8153 135.642 26.0539 137.503C24.1611 139.513 22.5945 141.806 21.4111 144.3C20.2892 146.816 19.5038 149.469 19.0751 152.19C18.6371 154.818 18.4152 157.37 18.2341 159.782C18.0531 162.194 17.872 164.519 17.6501 166.674C17.4282 168.828 17.288 170.837 17.1304 172.677C16.8208 176.327 16.5464 179.288 16.4004 181.373C16.3225 182.377 16.2641 183.156 16.2252 183.709C16.2252 183.96 16.196 184.164 16.1843 184.322C16.1726 184.48 16.1784 184.579 16.1901 184.579Z" fill="#455A64"/>
<path d="M45.8394 53.7105C45.4156 52.619 44.6166 51.7144 43.5859 51.1589C42.5552 50.6034 41.3602 50.4334 40.2155 50.6795C39.7118 50.8638 39.1852 50.9777 38.6504 51.0182C38.0022 50.9072 37.3651 50.7391 36.7465 50.516C36.0456 50.4024 35.3274 50.5535 34.7316 50.9399C34.1358 51.3263 33.705 51.9204 33.5229 52.6067C32.9743 52.4734 32.4033 52.4613 31.8495 52.5713C31.2958 52.6812 30.7727 52.9105 30.3167 53.2433C29.8695 53.5896 29.552 54.0764 29.4153 54.6252C29.2786 55.174 29.3308 55.7529 29.5633 56.2684C29.7911 56.6947 30.1473 57.0334 30.3751 57.4714C30.7197 58.1898 30.562 59.0541 30.8014 59.8074C31.0262 60.3553 31.4006 60.8288 31.8819 61.1737C32.3632 61.5187 32.9319 61.7212 33.5229 61.758C34.7119 61.8191 35.9016 61.6506 37.0269 61.2616" fill="#004177"/>
<path d="M40.4025 76.8077C40.2565 75.6747 40.1631 74.8805 40.1631 74.8805C40.1631 74.8805 36.3963 74.8805 34.9071 70.2085C34.1537 67.8725 33.6515 63.9714 33.3478 60.7477C33.2814 60.061 33.3548 59.3679 33.5634 58.7103C33.7721 58.0527 34.1118 57.4442 34.562 56.9214C35.0122 56.3986 35.5636 55.9724 36.183 55.6685C36.8024 55.3646 37.4769 55.1892 38.1658 55.153L48.1639 54.6332L48.38 56.1808L51.0138 75.4061C51.1091 76.1031 51.0656 76.8121 50.8858 77.4923C50.7061 78.1724 50.3937 78.8104 49.9666 79.3694C49.5394 79.9284 49.006 80.3974 48.397 80.7496C47.788 81.1017 47.1153 81.33 46.4177 81.4213C45.7196 81.5148 45.0099 81.4695 44.3294 81.2881C43.6488 81.1066 43.0107 80.7925 42.4519 80.3639C41.893 79.9352 41.4242 79.4004 41.0726 78.7901C40.7209 78.1799 40.4932 77.5062 40.4025 76.8077Z" fill="#FFC3BD"/>
<path d="M34.7434 63.4983C34.768 63.658 34.8536 63.802 34.9821 63.9C35.1106 63.998 35.272 64.0424 35.4326 64.0239C35.512 64.0189 35.5896 63.9978 35.6606 63.9617C35.7316 63.9256 35.7945 63.8754 35.8453 63.8141C35.8962 63.7529 35.934 63.6819 35.9564 63.6055C35.9788 63.5291 35.9854 63.4489 35.9757 63.3698C35.9539 63.2088 35.8691 63.063 35.7399 62.9644C35.6107 62.8659 35.4476 62.8227 35.2866 62.8442C35.2071 62.8492 35.1295 62.8704 35.0585 62.9065C34.9875 62.9426 34.9246 62.9928 34.8738 63.054C34.8229 63.1153 34.7851 63.1863 34.7627 63.2627C34.7403 63.3391 34.7337 63.4193 34.7434 63.4983Z" fill="#263238"/>
<path d="M34.4868 62.634C34.5744 62.6982 34.9832 62.2836 35.6548 62.1785C36.3264 62.0733 36.8228 62.3303 36.9104 62.2369C36.998 62.1434 36.8403 62.0617 36.6067 61.9449C36.29 61.7895 35.9323 61.7384 35.5847 61.7989C35.2409 61.8502 34.9231 62.0122 34.6795 62.2602C34.4868 62.4471 34.4401 62.6048 34.4868 62.634Z" fill="#263238"/>
<path d="M41.0043 62.4354C41.0289 62.5947 41.1147 62.7382 41.2434 62.8352C41.372 62.9323 41.5335 62.9753 41.6934 62.9552C41.7729 62.9509 41.8506 62.9305 41.9218 62.8951C41.993 62.8597 42.0563 62.8102 42.1077 62.7495C42.1591 62.6888 42.1976 62.6182 42.2207 62.5421C42.2439 62.466 42.2513 62.386 42.2424 62.307C42.2178 62.1472 42.1323 62.0033 42.0038 61.9053C41.8753 61.8073 41.7138 61.7629 41.5533 61.7814C41.4733 61.7856 41.395 61.8062 41.3234 61.8419C41.2517 61.8777 41.1882 61.9278 41.1367 61.9891C41.0852 62.0505 41.0469 62.1217 41.0241 62.1985C41.0013 62.2753 40.9946 62.3559 41.0043 62.4354Z" fill="#263238"/>
<path d="M40.9926 61.723C41.0802 61.7931 41.489 61.3726 42.1606 61.2733C42.8322 61.174 43.3286 61.4193 43.4162 61.3259C43.5038 61.2324 43.3461 61.1565 43.1125 61.0339C42.7942 60.8837 42.4381 60.8328 42.0905 60.8879C41.7479 60.9432 41.4314 61.1045 41.1853 61.3492C40.9926 61.5361 40.9517 61.688 40.9926 61.723Z" fill="#263238"/>
<path d="M39.3747 67.0023C39.0085 66.9529 38.6373 66.9529 38.271 67.0023C38.1016 67.0023 37.9381 67.0023 37.8914 66.8914C37.8377 66.7223 37.8377 66.5407 37.8914 66.3716C37.9848 65.9394 38.0841 65.4839 38.1892 65.0109C38.4744 63.8499 38.6696 62.6687 38.7732 61.4777C38.3906 62.6207 38.0996 63.7924 37.9031 64.9817C37.8096 65.4606 37.7162 65.9161 37.6344 66.3541C37.5528 66.5705 37.5528 66.8093 37.6344 67.0257C37.6685 67.081 37.7145 67.1281 37.7691 67.1634C37.8236 67.1988 37.8854 67.2216 37.9498 67.2301C38.0467 67.2423 38.1448 67.2423 38.2418 67.2301C38.6276 67.2024 39.0082 67.1259 39.3747 67.0023Z" fill="#263238"/>
<path d="M40.1631 74.8805C42.4202 74.5565 44.543 73.6124 46.2951 72.1532C46.2951 72.1532 45.2556 75.7039 40.4026 76.0017L40.1631 74.8805Z" fill="#E79C95"/>
<path d="M41.3898 67.1483C41.2788 67.1483 41.3898 67.8725 40.8642 68.4798C40.3386 69.0872 39.556 69.1281 39.5619 69.2274C39.5677 69.3267 39.7546 69.3442 40.0816 69.2975C40.5025 69.2409 40.8885 69.0333 41.1679 68.7134C41.4414 68.4104 41.5841 68.0116 41.565 67.6038C41.5475 67.3002 41.4365 67.1366 41.3898 67.1483Z" fill="#263238"/>
<path d="M40.4084 59.1651C40.5018 59.3345 41.15 59.1651 41.9384 59.1125C42.7268 59.06 43.3867 59.1943 43.4627 59.0191C43.5386 58.8439 43.3634 58.7855 43.0831 58.6512C42.7113 58.4889 42.3072 58.4146 41.9021 58.4338C41.497 58.4531 41.1018 58.5654 40.7471 58.7621C40.4901 58.9198 40.3675 59.0833 40.4084 59.1651Z" fill="#263238"/>
<path d="M34.4221 60.6835C34.5622 60.812 35.0061 60.5842 35.5375 60.4908C36.0689 60.3973 36.5653 60.4324 36.6471 60.2572C36.6821 60.1754 36.5829 60.0352 36.3609 59.9301C36.0622 59.7972 35.7295 59.7605 35.409 59.825C35.0892 59.8814 34.7951 60.0366 34.5681 60.2688C34.3987 60.4557 34.3578 60.6192 34.4221 60.6835Z" fill="#263238"/>
<path d="M32.8219 58.6395C32.8219 58.6395 35.4674 59.533 38.5042 57.5007C40.4957 56.1691 42.9134 55.334 43.515 55.6961C44.1165 56.0582 44.5077 58.2307 46.6977 58.6161C46.6977 58.6161 47.0832 62.8209 48.7359 62.4588C49.9039 62.2019 49.2265 57.5649 48.7359 54.9194C48.6334 54.4079 48.3627 53.9455 47.9669 53.6057C47.571 53.266 47.0729 53.0685 46.5517 53.0448L43.4741 52.9221L39.6314 53.9967L35.5083 55.118L32.3664 56.4319L32.8219 58.6395Z" fill="#004177"/>
<path d="M48.3685 60.7477C48.4269 60.7068 50.979 59.3636 51.4521 62.1493C51.9251 64.935 49.0343 64.8299 49.0109 64.7539C48.9876 64.678 48.3685 60.7477 48.3685 60.7477Z" fill="#FFC3BD"/>
<path d="M49.6818 63.5509C49.6818 63.5509 49.7402 63.5801 49.8278 63.6034C49.9508 63.6326 50.0803 63.6138 50.1899 63.5509C50.3487 63.4058 50.4668 63.2216 50.5324 63.0167C50.598 62.8118 50.6088 62.5932 50.5637 62.3829C50.5299 62.1434 50.4442 61.9141 50.3125 61.7113C50.2701 61.6292 50.2088 61.5583 50.1337 61.5045C50.0586 61.4507 49.9718 61.4155 49.8804 61.4018C49.8224 61.3968 49.7645 61.4121 49.7165 61.4452C49.6686 61.4782 49.6336 61.5268 49.6176 61.5828C49.6176 61.6646 49.6176 61.7171 49.6176 61.7288C49.6176 61.7405 49.5533 61.6879 49.5533 61.5711C49.5583 61.4995 49.5871 61.4317 49.6351 61.3784C49.7026 61.3079 49.7946 61.2661 49.8921 61.2616C50.0109 61.2638 50.1271 61.2967 50.2294 61.3571C50.3317 61.4175 50.4167 61.5033 50.4761 61.6062C50.6358 61.8267 50.7382 62.0836 50.7739 62.3537C50.8318 62.5995 50.815 62.8571 50.7255 63.0933C50.636 63.3295 50.478 63.5336 50.2717 63.6793C50.2005 63.7131 50.1227 63.7306 50.0439 63.7306C49.9651 63.7306 49.8873 63.7131 49.8161 63.6793C49.6993 63.6209 49.676 63.5625 49.6818 63.5509Z" fill="#E79C95"/>
<path d="M34.1599 51.5789C34.1599 51.5789 34.2533 51.7307 34.4519 51.9526C34.7362 52.2674 35.0989 52.5011 35.5031 52.6301C36.1034 52.824 36.7451 52.8523 37.3602 52.7118C38.125 52.5259 38.8762 52.2879 39.6086 51.9994C40.3667 51.7008 41.1766 51.5559 41.9913 51.573C42.6802 51.5979 43.3321 51.8914 43.8075 52.3906C44.1313 52.7165 44.3281 53.1473 44.3623 53.6054C44.3866 53.7715 44.358 53.9411 44.2806 54.0901C44.2514 54.0901 44.2806 53.9149 44.2455 53.617C44.1727 53.2033 43.9678 52.8242 43.6615 52.5366C43.2115 52.1054 42.6145 51.8612 41.9913 51.8534C41.2137 51.854 40.4431 52.0006 39.7195 52.2855C38.975 52.5817 38.2074 52.8161 37.4244 52.9863C36.7633 53.1231 36.0771 53.0704 35.4446 52.8345C35.0153 52.6768 34.6417 52.3966 34.3701 52.0286C34.1599 51.7599 34.1599 51.5847 34.1599 51.5789Z" fill="#455A64"/>
<path d="M43.5677 54.2478C43.5677 54.2478 43.4276 54.1018 43.1356 53.8974C42.7191 53.6425 42.2398 53.509 41.7515 53.5119C41.0111 53.5092 40.2813 53.6876 39.6257 54.0317C38.8064 54.4742 37.9599 54.8643 37.0912 55.1997C36.267 55.4555 35.399 55.5393 34.5411 55.4459C33.6832 55.3524 32.8536 55.0838 32.1038 54.6566C31.6502 54.4014 31.2353 54.0828 30.8716 53.7105C30.73 53.5839 30.6114 53.4338 30.5212 53.2667C31.0382 53.7237 31.602 54.1249 32.2031 54.4639C33.6799 55.2389 35.4026 55.4005 36.9977 54.9135C37.8541 54.5671 38.6923 54.1773 39.5089 53.7455C40.206 53.3928 40.9829 53.2278 41.7632 53.2667C42.2934 53.287 42.804 53.4728 43.2232 53.7981C43.3764 53.9143 43.4954 54.0696 43.5677 54.2478Z" fill="#455A64"/>
<path d="M34.919 101.704L21.3586 90.1462L16.8851 91.1566C16.8851 91.1566 21.598 100.956 25.0086 104.548C25.0086 104.548 28.3782 109.056 33.9379 107.106C39.4976 105.155 34.919 101.704 34.919 101.704Z" fill="#FFC3BD"/>
<path d="M20.3306 77.415H14.5665C14.349 77.4268 14.1368 77.487 13.9455 77.5911C13.7541 77.6952 13.5884 77.8406 13.4603 78.0168C13.3322 78.193 13.245 78.3955 13.205 78.6096C13.165 78.8237 13.1733 79.0441 13.2291 79.2546L19.0282 90.5434C19.1382 90.7584 19.3055 90.9387 19.5117 91.0645C19.7178 91.1902 19.9548 91.2565 20.1962 91.2559H27.2042C27.369 91.2375 27.5266 91.1786 27.6631 91.0845C27.7996 90.9904 27.9107 90.864 27.9864 90.7166C28.0622 90.5691 28.1002 90.4052 28.0972 90.2395C28.0943 90.0737 28.0503 89.9113 27.9693 89.7667L22.3804 78.7115C22.1902 78.3285 21.8984 78.005 21.5369 77.7764C21.1755 77.5478 20.7582 77.4228 20.3306 77.415Z" fill="#455A64"/>
<path d="M19.9448 78.0983H14.1807C14.0153 78.0973 13.8524 78.1389 13.7077 78.2191C13.563 78.2992 13.4414 78.4153 13.3545 78.5561C13.2677 78.697 13.2186 78.8578 13.2119 79.0231C13.2052 79.1884 13.2412 79.3526 13.3164 79.4999L18.9754 90.5434C19.0864 90.7575 19.2539 90.9371 19.4599 91.0628C19.6658 91.1884 19.9022 91.2552 20.1434 91.2558H27.093C27.1884 91.2519 27.2814 91.2245 27.3638 91.1763C27.4462 91.128 27.5155 91.0603 27.5656 90.979C27.6158 90.8977 27.6452 90.8054 27.6514 90.7101C27.6576 90.6148 27.6403 90.5195 27.6011 90.4324L22.0063 79.3831C21.8173 78.9976 21.5239 78.6728 21.1595 78.4457C20.7951 78.2185 20.3742 78.0982 19.9448 78.0983Z" fill="#004177"/>
<path d="M19.4544 82.7119L15.9504 84.1135L15.2029 86.9401L16.8906 91.1449L23.0635 92.0559L21.2531 90.2046L21.4809 88.587C21.4809 88.587 23.2329 88.0438 23.2329 87.781C23.2329 87.5182 23.0168 86.613 22.754 86.5838C22.0626 86.7417 21.385 86.9546 20.7275 87.2204C20.7275 87.2204 22.8708 85.521 22.8124 85.2465C22.754 84.972 22.5204 84.277 22.0941 84.1953C21.6678 84.1135 18.1988 85.7546 18.1988 85.7546L17.6148 87.0335L17.1242 84.9837C17.1242 84.9837 20.2136 84.1194 19.4544 82.7119Z" fill="#FFC3BD"/>
<path d="M19.8983 89.3462C19.8983 89.3462 19.8107 89.2294 19.7757 88.9958C19.7388 88.6983 19.7724 88.3963 19.8739 88.1143C19.9753 87.8322 20.1418 87.578 20.3597 87.3722C20.5349 87.2204 20.6692 87.1678 20.6809 87.1854C20.4144 87.4805 20.1956 87.8155 20.0327 88.1782C19.9287 88.5584 19.8834 88.9523 19.8983 89.3462Z" fill="#E79C95"/>
<path d="M18.2282 88.7329C18.2966 88.431 18.3434 88.1246 18.3684 87.8161C18.3826 87.4712 18.4415 87.1296 18.5436 86.7999C18.6103 86.5882 18.7268 86.3955 18.8832 86.238C19.0397 86.0805 19.2316 85.9628 19.4429 85.8947C20.2781 85.591 21.0373 85.3457 21.5862 85.1647C21.8797 85.0538 22.1827 84.9697 22.4914 84.9136C22.2195 85.0687 21.9317 85.194 21.6329 85.2873C21.0898 85.4976 20.3306 85.7662 19.5072 86.0641C19.3149 86.1303 19.1394 86.238 18.9932 86.3794C18.8636 86.5169 18.7641 86.6801 18.7012 86.8583C18.5943 87.174 18.5257 87.5015 18.4969 87.8336C18.4855 88.1514 18.393 88.461 18.2282 88.7329Z" fill="#E79C95"/>
<path d="M17.4222 88.1022C17.367 87.8739 17.367 87.6356 17.4222 87.4073C17.4865 87.0335 17.5741 86.7415 17.6266 86.7473C17.6814 86.9757 17.6814 87.2139 17.6266 87.4423C17.5624 87.8161 17.4748 88.108 17.4222 88.1022Z" fill="#E79C95"/>
<path d="M17.3283 80.2299C17.3283 80.3755 17.3715 80.5177 17.4523 80.6387C17.5332 80.7597 17.6481 80.8541 17.7826 80.9098C17.917 80.9654 18.065 80.98 18.2077 80.9516C18.3505 80.9232 18.4816 80.8532 18.5845 80.7502C18.6874 80.6473 18.7575 80.5162 18.7859 80.3735C18.8143 80.2307 18.7997 80.0828 18.744 79.9483C18.6883 79.8139 18.594 79.6989 18.473 79.6181C18.352 79.5372 18.2097 79.4941 18.0642 79.4941C17.9673 79.4933 17.8713 79.5118 17.7817 79.5485C17.692 79.5852 17.6106 79.6394 17.5421 79.7079C17.4736 79.7763 17.4195 79.8578 17.3828 79.9474C17.3461 80.037 17.3276 80.1331 17.3283 80.2299Z" fill="#E6F9FD"/>
</svg>
