<svg width="424" height="292" viewBox="0 0 424 292" fill="none" xmlns="http://www.w3.org/2000/svg">
<path d="M0 253.275H424V253.487H0V253.275Z" fill="#EBEBEB"/>
<path d="M42.4843 266.92H70.5701V267.132H42.4843V266.92Z" fill="#EBEBEB"/>
<path d="M143.125 269.226H150.494V269.438H143.125V269.226Z" fill="#EBEBEB"/>
<path d="M71.4185 259.05H87.6918V259.262H71.4185V259.05Z" fill="#EBEBEB"/>
<path d="M342.889 260.475H379.514V260.687H342.889V260.475Z" fill="#EBEBEB"/>
<path d="M329.965 260.475H335.333V260.687H329.965V260.475Z" fill="#EBEBEB"/>
<path d="M233.073 264.053H312.514V264.265H233.073V264.053Z" fill="#EBEBEB"/>
<path d="M50.7016 253.275H134.832L142.294 68.6486H58.164L50.7016 253.275Z" fill="#D0E9EF"/>
<path d="M48.1241 253.275H132.254L139.725 68.6486H55.595L48.1241 253.275Z" fill="#F2FBFD"/>
<path d="M127.217 248.026L134.255 73.8977H60.6317L53.5933 248.026H127.217Z" fill="#F2FBFD"/>
<path d="M184.553 0.808624H359.27C364.24 0.808624 368.27 4.83805 368.27 9.80862V127.489C368.27 132.459 364.24 136.489 359.27 136.489H184.553C179.583 136.489 175.553 132.459 175.553 127.489V9.80862C175.553 4.83806 179.583 0.808624 184.553 0.808624Z" fill="#D0E9EF"/>
<path d="M179.304 0.808624H358.582C363 0.808624 366.582 4.39034 366.582 8.80861V128.489C366.582 132.907 363 136.489 358.582 136.489H179.304C174.886 136.489 171.304 132.907 171.304 128.489V8.80862C171.304 4.39035 174.886 0.808624 179.304 0.808624Z" fill="#F2FBFD"/>
<path d="M168.167 136.489H368.27V141.059H168.167V136.489Z" fill="#D0E9EF"/>
<path d="M163.554 136.489H357.161V141.059H163.554V136.489Z" fill="#F2FBFD"/>
<path d="M178.928 128.263V9.02576L358.958 9.02576V128.263H178.928Z" fill="#D8F6FD"/>
<path d="M264.695 128.263V9.02576H273.192V128.263H264.695Z" fill="#F2FBFD"/>
<path d="M178.919 128.272V9.03424H182.133V128.272H178.919Z" fill="#D0E9EF"/>
<path d="M273.183 128.263V9.02576H276.397V128.263H273.183Z" fill="#D0E9EF"/>
<path d="M165.615 176.709H180.972V253.275H165.615V176.709Z" fill="#D0E9EF"/>
<path d="M170.219 253.275H165.614V244.049H175.044L170.219 253.275Z" fill="#F2FBFD"/>
<path d="M341.718 176.709H357.076V253.275H341.718V176.709Z" fill="#D0E9EF"/>
<path d="M165.606 176.709H345.73V250.206H165.606V176.709Z" fill="#F2FBFD"/>
<path d="M341.134 253.275H345.73V244.049H336.3L341.134 253.275Z" fill="#F2FBFD"/>
<path d="M169.185 181.882H342.16V211.291H169.185V181.882Z" fill="#D0E9EF"/>
<path d="M196.736 191.032H311.487C315.981 191.032 320.272 187.403 323.359 181H184.864C187.984 187.386 192.275 191.032 196.736 191.032Z" fill="#F2FBFD"/>
<path d="M169.185 216.039H342.16V245.448H169.185V216.039Z" fill="#D0E9EF"/>
<path d="M196.736 225.181H311.487C315.981 225.181 320.272 221.552 323.359 215.149H184.864C187.984 221.56 192.275 225.181 196.736 225.181Z" fill="#F2FBFD"/>
<path d="M283.122 176.709H321.392C322.23 176.653 323.023 176.312 323.639 175.743C324.884 174.695 325.772 173.288 326.183 171.715L328.414 163.54H276.109L278.339 171.715C278.747 173.289 279.636 174.698 280.883 175.743C281.496 176.312 282.287 176.654 283.122 176.709Z" fill="#D0E9EF"/>
<path d="M276.643 167.076H327.837C329.066 167.076 330.093 166.703 330.237 166.228L331.28 162.488C331.441 161.92 330.322 161.411 328.888 161.411H275.6C274.158 161.411 273.056 161.92 273.2 162.488L274.252 166.228C274.387 166.703 275.414 167.076 276.643 167.076Z" fill="#F2FBFD"/>
<path d="M212 291.571C121.194 291.571 47.5809 287.273 47.5809 281.972C47.5809 276.67 121.194 272.372 212 272.372C302.806 272.372 376.418 276.67 376.418 281.972C376.418 287.273 302.806 291.571 212 291.571Z" fill="#F2FBFD"/>
<path d="M256.096 181.39H345.552C351.172 181.39 355.728 185.946 355.728 191.566V233.975C355.728 239.595 351.172 244.151 345.552 244.151H256.096C250.476 244.151 245.92 239.595 245.92 233.975V191.566C245.92 185.946 250.476 181.39 256.096 181.39Z" fill="#11B0DB"/>
<path opacity="0.7" d="M256.096 181.39H345.552C351.172 181.39 355.728 185.946 355.728 191.566V233.975C355.728 239.595 351.172 244.151 345.552 244.151H256.096C250.476 244.151 245.92 239.595 245.92 233.975V191.566C245.92 185.946 250.476 181.39 256.096 181.39Z" fill="white"/>
<path opacity="0.2" d="M355.728 191.558V233.958C355.728 236.657 354.655 239.245 352.747 241.153C350.839 243.062 348.25 244.134 345.552 244.134V189.082C345.552 188.019 345.906 186.987 346.558 186.149C347.211 185.31 348.123 184.712 349.153 184.45C350.182 184.187 351.27 184.275 352.244 184.699C353.218 185.123 354.023 185.86 354.532 186.792C355.317 188.258 355.728 189.895 355.728 191.558Z" fill="#11B0DB"/>
<path d="M78.457 227.131H345.552C351.172 227.131 355.728 231.687 355.728 237.307V245.991C355.728 251.611 351.172 256.167 345.552 256.167H78.457C72.8369 256.167 68.281 251.611 68.281 245.991V237.307C68.281 231.687 72.8369 227.131 78.457 227.131Z" fill="#11B0DB"/>
<path opacity="0.7" d="M78.457 227.131H345.552C351.172 227.131 355.728 231.687 355.728 237.307V245.991C355.728 251.611 351.172 256.167 345.552 256.167H78.457C72.8369 256.167 68.281 251.611 68.281 245.991V237.307C68.281 231.687 72.8369 227.131 78.457 227.131Z" fill="white"/>
<path opacity="0.2" d="M179.708 227.131H345.552C351.172 227.131 355.728 231.687 355.728 237.307V245.991C355.728 251.611 351.172 256.167 345.552 256.167H179.708C174.088 256.167 169.532 251.611 169.532 245.991V237.307C169.532 231.687 174.088 227.131 179.708 227.131Z" fill="#11B0DB"/>
<path d="M192.428 281.971H189.392L183.38 256.167H192.428V281.971Z" fill="#11B0DB"/>
<path opacity="0.7" d="M192.428 281.971H189.392L183.38 256.167H192.428V281.971Z" fill="white"/>
<path d="M194.896 281.971H191.86L185.856 256.167H194.896V281.971Z" fill="#11B0DB"/>
<path opacity="0.4" d="M194.896 281.971H191.86L185.856 256.167H194.896V281.971Z" fill="white"/>
<path d="M92.2202 281.971H89.1843L83.1719 256.167H92.2202V281.971Z" fill="#11B0DB"/>
<path opacity="0.7" d="M92.2202 281.971H89.1843L83.1719 256.167H92.2202V281.971Z" fill="white"/>
<path d="M94.6877 281.971H91.6519L85.648 256.167H94.6877V281.971Z" fill="#11B0DB"/>
<path opacity="0.4" d="M94.6877 281.971H91.6519L85.648 256.167H94.6877V281.971Z" fill="white"/>
<path d="M340.413 281.971H337.377L331.365 256.167H340.413V281.971Z" fill="#11B0DB"/>
<path opacity="0.7" d="M340.413 281.971H337.377L331.365 256.167H340.413V281.971Z" fill="white"/>
<path d="M342.889 281.971H339.853L333.841 256.167H342.889V281.971Z" fill="#11B0DB"/>
<path opacity="0.4" d="M342.889 281.971H339.853L333.841 256.167H342.889V281.971Z" fill="white"/>
<path d="M240.205 281.971H237.169L231.157 256.167H240.205V281.971Z" fill="#11B0DB"/>
<path opacity="0.7" d="M240.205 281.971H237.169L231.157 256.167H240.205V281.971Z" fill="white"/>
<path d="M242.681 281.971H239.645L233.633 256.167H242.681V281.971Z" fill="#11B0DB"/>
<path opacity="0.4" d="M242.681 281.971H239.645L233.633 256.167H242.681V281.971Z" fill="white"/>
<path d="M313.904 227.131C332.179 227.131 336.3 195.213 336.877 180.907C337.453 166.601 290.347 181.831 282.053 180.907C273.76 179.983 250.889 170.519 243.673 182.518C236.456 194.517 239.653 202.387 232.649 209.535C225.644 216.684 219.454 221.407 225.297 227.131H313.904Z" fill="#11B0DB"/>
<path opacity="0.4" d="M313.904 227.131C332.179 227.131 336.3 195.213 336.877 180.907C337.453 166.601 290.347 181.831 282.053 180.907C273.76 179.983 250.889 170.519 243.673 182.518C236.456 194.517 239.653 202.387 232.649 209.535C225.644 216.684 219.454 221.407 225.297 227.131H313.904Z" fill="white"/>
<path opacity="0.4" d="M313.904 227.131C332.178 227.131 336.3 195.213 336.876 180.907C337.097 175.539 330.609 174.326 321.968 174.861C311.792 177.286 326.073 194.204 316.728 204.422C308.333 213.597 306.704 226.445 313.904 227.131Z" fill="#11B0DB"/>
<path d="M291.432 121.038C296.851 123.582 297.58 132.554 298.14 142.942C298.7 153.33 296.359 153.83 293.501 155.416C288.62 157.855 283.313 159.327 277.873 159.749C270.029 160.504 265.305 156.976 263.457 154.738C261.201 152.024 267.595 139.287 266.56 134.572C265.526 129.857 265.051 121.852 270.699 119.215C276.448 116.518 290.296 114.051 291.432 121.038Z" fill="#004177"/>
<path d="M260.743 163.396L260.276 163.65L259.683 163.955C259.284 164.15 258.877 164.362 258.453 164.557C257.605 164.956 256.757 165.321 255.909 165.66C254.176 166.332 252.403 166.898 250.601 167.356C247.072 168.293 243.415 168.654 239.772 168.424L242.799 170.171C242.799 170.171 242.74 170.171 242.697 170.095C242.623 169.921 242.591 169.732 242.604 169.544C242.668 168.662 242.892 167.8 243.266 167C244.277 164.786 245.535 162.692 247.014 160.758C248.54 158.664 250.245 156.62 252.008 154.602C253.772 152.584 255.646 150.599 257.478 148.666L257.529 148.615C257.931 148.16 258.157 147.576 258.166 146.969C258.176 146.362 257.967 145.771 257.579 145.304C257.191 144.837 256.649 144.524 256.05 144.422C255.451 144.32 254.836 144.436 254.315 144.748C253.077 145.596 251.949 146.376 250.813 147.241C249.676 148.106 248.557 148.937 247.421 149.895C245.194 151.744 243.081 153.727 241.095 155.832C238.941 158.063 237.08 160.559 235.557 163.26C234.643 164.906 234.026 166.7 233.734 168.56C233.557 169.747 233.595 170.956 233.844 172.13C234.124 173.447 234.685 174.688 235.489 175.768C236.168 176.673 237.171 177.281 238.288 177.464L238.525 177.506C240.905 177.918 243.32 178.086 245.733 178.007C248.117 177.934 250.489 177.65 252.822 177.159C255.134 176.674 257.402 176.004 259.606 175.157C260.7 174.733 261.777 174.267 262.846 173.758C263.38 173.504 263.914 173.241 264.449 172.953L265.246 172.503C265.534 172.342 265.746 172.215 266.145 171.969C267.231 171.255 268.003 170.153 268.302 168.889C268.601 167.624 268.406 166.293 267.755 165.169C267.104 164.044 266.048 163.211 264.802 162.84C263.557 162.469 262.216 162.589 261.057 163.175L260.743 163.396Z" fill="#FFC3BD"/>
<path d="M256.461 149.014L261.65 145.435L255.816 140.686C254.735 142.946 254.082 145.387 253.891 147.886L256.461 149.014Z" fill="#FFC3BD"/>
<path d="M263.728 140.703L261.676 137.65C261.523 137.42 261.32 137.228 261.082 137.088C260.844 136.948 260.578 136.864 260.303 136.842C260.027 136.819 259.751 136.86 259.494 136.961C259.236 137.061 259.006 137.219 258.818 137.421L255.774 140.686L261.608 145.435L263.643 142.891C263.892 142.585 264.035 142.206 264.051 141.811C264.066 141.417 263.953 141.028 263.728 140.703Z" fill="#FFC3BD"/>
<path d="M256.656 147.233L264.211 151.108C264.338 151.168 264.475 151.202 264.615 151.208C264.755 151.214 264.894 151.191 265.025 151.141C265.156 151.091 265.275 151.015 265.376 150.917C265.477 150.82 265.556 150.703 265.61 150.574L272.954 134.911C273.083 134.653 273.109 134.356 273.025 134.08C272.941 133.804 272.755 133.57 272.505 133.427L264.949 129.552C264.822 129.493 264.685 129.46 264.546 129.455C264.406 129.45 264.267 129.473 264.136 129.523C264.006 129.573 263.887 129.648 263.786 129.745C263.685 129.842 263.605 129.958 263.55 130.086L256.206 145.749C256.077 146.007 256.052 146.304 256.135 146.58C256.219 146.856 256.405 147.09 256.656 147.233Z" fill="#004177"/>
<path d="M257.453 147.207L264.737 150.947C264.859 151.003 264.992 151.034 265.126 151.039C265.261 151.043 265.395 151.021 265.52 150.972C265.646 150.924 265.761 150.851 265.858 150.758C265.955 150.665 266.032 150.553 266.085 150.43L273.166 135.327C273.289 135.078 273.311 134.792 273.229 134.527C273.147 134.262 272.967 134.038 272.725 133.902L265.441 130.162C265.319 130.105 265.187 130.073 265.052 130.068C264.917 130.063 264.782 130.085 264.657 130.134C264.531 130.182 264.416 130.255 264.319 130.349C264.222 130.443 264.145 130.555 264.093 130.68L257.02 145.774C256.895 146.023 256.87 146.31 256.95 146.577C257.031 146.844 257.211 147.07 257.453 147.207Z" fill="white"/>
<path d="M295.104 163.048C297.322 163.394 299.316 164.597 300.655 166.399C301.994 168.202 302.571 170.458 302.261 172.681C300.023 188.2 291.11 203.845 279.128 217.201C274.735 222.094 269.537 227.216 266.476 227.216C245.674 227.216 246.59 224.825 239.518 212.325C238.813 211.087 238.48 209.672 238.559 208.249C238.637 206.827 239.123 205.457 239.959 204.303C244.75 197.714 252.569 189.234 252.348 186.224C251.568 175.955 259.005 175.853 259.022 166.72C259.01 165.7 259.366 164.71 260.025 163.931C260.683 163.152 261.601 162.637 262.609 162.48C264.831 162.183 267.697 161.861 270.784 161.632C276.339 161.38 281.905 161.53 287.438 162.081C290.101 162.319 292.755 162.675 295.104 163.048Z" fill="#11B0DB"/>
<path opacity="0.15" d="M294.571 173.283L301.193 178.092C299.345 185.409 296.437 192.417 292.561 198.893C292.128 187.08 294.571 173.283 294.571 173.283Z" fill="black"/>
<path d="M243.164 200.937C243.164 200.937 219.691 198.003 207.124 198.003C200.526 198.986 196.761 208.034 197.982 215.242C198.924 220.899 206.242 227.216 217.631 227.216C224.55 227.216 246.717 227.318 253.408 227.318C259.632 227.318 253.281 202.539 243.164 200.937Z" fill="#004177"/>
<path d="M162.715 223.96C162.377 221.659 162.343 219.324 162.613 217.015C162.986 215.404 160.917 213.911 159.543 213.58C157.983 213.385 155.871 212.41 155.379 214.522C155.015 216.116 149.621 222.696 140.87 224.774C139.649 225.062 139.776 227.004 142.642 227.131C145.508 227.259 151.572 226.512 153.666 226.606C157.126 226.767 158.856 227.377 160.908 227.454C162.816 227.496 163.147 225.69 162.715 223.96Z" fill="#FFC3BD"/>
<path d="M216.019 203.235C215.695 202.905 215.353 202.593 214.993 202.302L213.976 201.454L211.966 199.868L207.929 196.79C205.233 194.755 202.519 192.77 199.755 190.854C194.239 186.938 188.45 183.424 182.43 180.339L181.294 179.762C180.026 179.083 178.653 178.622 177.232 178.397C175.749 178.166 174.236 178.215 172.771 178.541C171.583 178.812 170.44 179.255 169.379 179.855C167.922 180.692 166.614 181.767 165.512 183.035C164.697 183.94 163.965 184.916 163.325 185.953C162.261 187.655 161.344 189.445 160.586 191.303C159.856 192.999 159.28 194.695 158.745 196.391C157.739 199.696 156.941 203.061 156.354 206.466C155.75 209.829 155.365 213.228 155.201 216.642C155.168 217.453 155.407 218.253 155.88 218.914C156.353 219.574 157.033 220.058 157.812 220.288C158.592 220.517 159.425 220.48 160.181 220.182C160.937 219.885 161.572 219.343 161.985 218.643L162.044 218.541C165.3 212.987 168.336 207.254 171.567 202.158C172.364 200.886 173.195 199.673 174.001 198.537C174.731 197.514 175.536 196.548 176.409 195.645C176.695 195.347 177.014 195.083 177.359 194.857C177.58 194.729 177.741 194.755 177.359 195.077C177.016 195.299 176.637 195.46 176.24 195.552C175.572 195.72 174.878 195.757 174.196 195.662C173.578 195.584 172.979 195.401 172.424 195.119L173.382 195.781C178.47 199.275 183.626 202.794 188.646 206.44C191.19 208.272 193.675 210.137 196.108 212.071C197.329 213.038 198.534 214.013 199.712 215.013L201.468 216.514C202.008 217.008 202.574 217.472 203.164 217.905L203.647 218.21C205.661 219.496 208.076 219.999 210.436 219.627C212.796 219.255 214.938 218.032 216.459 216.189C217.98 214.346 218.773 212.011 218.691 209.623C218.608 207.235 217.655 204.96 216.011 203.226L216.019 203.235Z" fill="#FFC3BD"/>
<path opacity="0.15" d="M140.87 224.774C149.494 222.73 154.845 216.294 155.354 214.598C155.557 211.859 155.922 209.196 156.38 206.491C156.966 203.086 157.765 199.722 158.771 196.417C159.306 194.721 159.882 193.025 160.611 191.329C161.37 189.47 162.287 187.68 163.35 185.978C163.991 184.942 164.723 183.965 165.538 183.061C166.64 181.792 167.947 180.717 169.405 179.881C170.466 179.28 171.609 178.837 172.797 178.566C174.262 178.24 175.775 178.192 177.258 178.422C178.671 178.655 180.035 179.122 181.294 179.804L182.431 180.381C188.45 183.466 194.24 186.98 199.755 190.896C202.52 192.83 205.233 194.814 207.93 196.832L212 199.902L214.01 201.488L215.028 202.336C215.387 202.627 215.73 202.938 216.054 203.269C217.698 205.002 218.651 207.277 218.734 209.665C218.816 212.053 218.022 214.388 216.502 216.231C214.981 218.074 212.839 219.297 210.479 219.669C208.119 220.042 205.704 219.538 203.69 218.253L203.207 217.947C202.617 217.515 202.051 217.05 201.511 216.557L199.755 215.056C198.576 214.055 197.372 213.08 196.151 212.113C193.717 210.18 191.216 208.314 188.689 206.483C184.237 203.269 179.717 200.156 175.206 197.07C174.815 197.545 174.425 198.053 174.035 198.579C173.187 199.716 172.399 200.928 171.602 202.2C168.515 207.068 165.598 212.52 162.502 217.846C162.36 219.897 162.434 221.958 162.723 223.994C163.155 225.69 162.833 227.496 160.942 227.454C158.89 227.411 157.16 226.801 153.7 226.606C151.58 226.512 145.593 227.267 142.676 227.131C139.759 226.996 139.649 225.062 140.87 224.774ZM177.385 194.865C177.127 195.03 176.885 195.221 176.664 195.433C176.907 195.34 177.14 195.224 177.359 195.085C177.766 194.763 177.605 194.738 177.385 194.865Z" fill="#B84539"/>
<path d="M139.072 225.563C140.176 223.52 141.547 221.635 143.151 219.957C144.415 218.889 143.66 216.438 142.77 215.344C141.65 214.242 140.548 212.181 138.894 213.572C137.639 214.632 129.405 216.625 121.197 212.987C120.052 212.486 118.856 213.775 121.061 215.616C123.266 217.456 128.693 220.856 130.296 222.221C132.95 224.443 133.967 225.978 135.57 227.259C137.173 228.539 138.377 227.216 139.072 225.563Z" fill="#FFC3BD"/>
<path d="M254.256 205.872C254.256 205.872 243.724 198.003 231.165 198.003C224.568 198.986 220.794 208.034 222.024 215.242C222.965 220.899 230.283 227.216 241.663 227.216C248.591 227.216 257.775 227.318 264.432 227.318C270.656 227.318 264.373 207.475 254.256 205.872Z" fill="#004177"/>
<path d="M237.44 202.675C237.379 202.356 237.235 202.058 237.022 201.813C236.809 201.567 236.535 201.382 236.228 201.276L234.693 200.547L231.623 199.097L225.484 196.205L213.154 190.523C209.015 188.675 204.852 186.868 200.646 185.147C198.534 184.299 196.406 183.451 194.294 182.603L193.497 182.298L193.098 182.145C192.238 181.756 191.327 181.488 190.393 181.348C189.353 181.203 188.297 181.203 187.256 181.348C186.636 181.426 186.021 181.542 185.416 181.696C184.55 181.924 183.701 182.207 182.872 182.544C182.142 182.823 181.489 183.103 180.862 183.392C178.386 184.562 176.291 185.766 174.214 187.004C172.136 188.242 170.194 189.548 168.278 190.812C164.428 193.432 160.646 196.061 157.033 198.842C149.723 204.354 142.676 210.078 135.901 216.26C135.272 216.842 134.871 217.63 134.773 218.481C134.674 219.333 134.883 220.191 135.363 220.902C135.843 221.612 136.561 222.127 137.388 222.353C138.214 222.58 139.095 222.503 139.87 222.137C147.993 218.219 155.982 214.098 163.987 210.078C167.989 208.111 171.924 206.067 175.901 204.227C177.877 203.294 179.836 202.37 181.778 201.539C183.588 200.719 185.439 199.992 187.324 199.359C187.739 199.224 188.172 199.105 188.477 199.02C188.703 198.955 188.937 198.918 189.172 198.91C189.172 198.91 189.172 198.91 188.994 198.978C188.514 199.057 188.024 199.057 187.544 198.978C186.887 198.883 186.248 198.695 185.645 198.418L186.009 198.622L186.738 199.02L192.632 202.2C196.567 204.32 200.527 206.44 204.504 208.467L216.444 214.623L222.38 217.719L225.356 219.27L226.84 220.051C227.104 220.229 227.411 220.334 227.728 220.354C228.046 220.373 228.363 220.306 228.647 220.161L229.062 219.974C232.277 218.545 234.883 216.024 236.416 212.857C237.95 209.691 238.313 206.084 237.44 202.675Z" fill="#FFC3BD"/>
<path d="M292.908 170.892C294.171 177.048 295.384 183.375 296.402 189.59C296.893 192.703 297.368 195.823 297.691 198.918C297.826 200.445 297.979 201.98 298.047 203.455C298.106 204.218 298.106 204.931 298.106 205.643V206.669C298.106 206.861 298.089 207.056 298.055 207.254C297.893 208.18 297.509 209.053 296.936 209.798C296.195 210.784 295.321 211.662 294.341 212.41C292.024 214.16 289.504 215.623 286.836 216.769C284 218.004 281.098 219.083 278.144 220C275.185 220.992 272.081 221.823 269.087 222.544H268.977C268.396 222.728 267.901 223.114 267.581 223.632C267.261 224.15 267.137 224.766 267.232 225.368C267.328 225.969 267.636 226.517 268.101 226.91C268.566 227.304 269.157 227.518 269.766 227.513C276.501 227.084 283.156 225.813 289.575 223.731C292.988 222.637 296.243 221.104 299.259 219.169C300.937 218.061 302.457 216.731 303.779 215.217C305.744 213.011 306.956 210.237 307.239 207.297C307.239 207.135 307.239 207.017 307.239 206.907V206.576V205.897C307.298 204.99 307.341 204.091 307.332 203.235C307.332 201.479 307.29 199.783 307.205 198.079C307.01 194.687 306.662 191.388 306.238 188.098C305.39 181.509 304.203 175.107 302.719 168.594C302.434 167.275 301.636 166.123 300.501 165.393C299.366 164.662 297.988 164.412 296.669 164.697C295.35 164.983 294.198 165.781 293.467 166.916C292.737 168.05 292.486 169.429 292.772 170.748L292.908 170.892Z" fill="#FFC3BD"/>
<path d="M286.276 143.315C285.089 148.649 283.732 158.443 287.429 162.115C287.429 162.115 280.17 169.094 273.285 168.899C266.399 168.704 270.741 161.666 270.741 161.666C276.761 160.402 276.728 155.967 275.829 151.77L286.276 143.315Z" fill="#FFC3BD"/>
<path opacity="0.2" d="M282.02 146.766L275.829 151.77C276.059 152.745 276.204 153.738 276.262 154.738C278.551 154.466 282.045 152.516 282.35 150.133C282.439 149 282.327 147.86 282.02 146.766Z" fill="black"/>
<path d="M291.712 134.216C289.456 142.891 288.685 146.614 283.368 150.252C275.371 155.73 265.204 151.057 264.822 141.882C264.483 133.622 268.214 120.818 277.542 118.986C279.586 118.581 281.7 118.705 283.683 119.346C285.666 119.988 287.453 121.125 288.872 122.651C290.292 124.177 291.298 126.04 291.795 128.064C292.292 130.089 292.263 132.206 291.712 134.216Z" fill="#FFC3BD"/>
<path d="M292.077 142.153C291.228 143.661 289.816 144.771 288.15 145.24C285.929 145.851 284.835 143.858 285.462 141.78C286.022 139.898 287.862 137.32 290.075 137.633C292.289 137.947 293.103 140.288 292.077 142.153Z" fill="#FFC3BD"/>
<path d="M286.717 120.037C282.571 118.553 282.197 147.369 282.757 152.567C283.317 157.765 285.725 157.443 290.296 155.467C294.867 153.491 295.672 149.573 295.104 142.272C294.536 134.971 293.688 122.531 286.717 120.037Z" fill="#004177"/>
<path d="M287.429 121.309C283.35 129.518 266.755 127.669 268.324 125.032C269.893 122.395 273.412 118.952 277.219 118.477C281.027 118.002 286.106 118.392 287.429 121.309Z" fill="#004177"/>
<path d="M277.619 135.284C277.474 135.997 276.983 136.497 276.516 136.412C276.05 136.327 275.787 135.666 275.923 134.945C276.058 134.224 276.559 133.733 277.025 133.817C277.491 133.902 277.754 134.564 277.619 135.284Z" fill="#263238"/>
<path d="M269.528 133.699C269.393 134.411 268.901 134.92 268.434 134.826C267.968 134.733 267.697 134.08 267.841 133.368C267.985 132.656 268.468 132.147 268.943 132.24C269.418 132.333 269.664 132.986 269.528 133.699Z" fill="#263238"/>
<path d="M269.138 132.316L267.519 131.468C267.519 131.468 268.138 133.003 269.138 132.316Z" fill="#263238"/>
<path d="M272.208 135.064C270.949 136.435 269.508 137.627 267.926 138.609C268.157 139.001 268.471 139.339 268.846 139.598C269.221 139.857 269.648 140.032 270.097 140.11L272.208 135.064Z" fill="#ED847E"/>
<path d="M272.395 143.654C272.357 143.637 272.327 143.607 272.309 143.569C272.292 143.532 272.287 143.49 272.297 143.45C272.307 143.41 272.331 143.374 272.364 143.35C272.398 143.325 272.438 143.313 272.48 143.315C273.372 143.507 274.297 143.488 275.181 143.258C276.064 143.028 276.882 142.595 277.568 141.992C277.602 141.96 277.648 141.942 277.695 141.942C277.742 141.942 277.788 141.96 277.822 141.992C277.854 142.025 277.871 142.069 277.871 142.115C277.871 142.161 277.854 142.205 277.822 142.238C277.1 142.891 276.232 143.362 275.291 143.61C274.349 143.858 273.362 143.876 272.412 143.663L272.395 143.654Z" fill="#263238"/>
<path d="M280.561 132.622C280.477 132.597 280.405 132.543 280.358 132.469C280.087 131.991 279.707 131.584 279.248 131.282C278.79 130.98 278.266 130.791 277.72 130.731C277.626 130.724 277.537 130.682 277.473 130.613C277.408 130.544 277.372 130.452 277.373 130.358C277.375 130.311 277.386 130.265 277.406 130.223C277.426 130.18 277.454 130.142 277.489 130.111C277.524 130.079 277.564 130.055 277.608 130.039C277.652 130.023 277.699 130.016 277.746 130.018C278.41 130.08 279.05 130.302 279.611 130.663C280.172 131.025 280.637 131.516 280.968 132.096C280.993 132.136 281.009 132.181 281.017 132.227C281.024 132.273 281.022 132.321 281.011 132.367C281 132.412 280.98 132.455 280.952 132.493C280.925 132.531 280.89 132.563 280.849 132.588C280.762 132.637 280.658 132.649 280.561 132.622Z" fill="#263238"/>
<path d="M266.272 129.501C266.184 129.476 266.108 129.419 266.06 129.34C266.038 129.299 266.024 129.254 266.019 129.207C266.014 129.16 266.019 129.113 266.032 129.068C266.045 129.023 266.068 128.982 266.097 128.945C266.127 128.909 266.163 128.879 266.204 128.857C266.776 128.512 267.423 128.312 268.089 128.274C268.756 128.235 269.421 128.36 270.029 128.636C270.099 128.686 270.149 128.759 270.17 128.842C270.19 128.926 270.18 129.014 270.141 129.09C270.101 129.166 270.036 129.226 269.956 129.258C269.876 129.29 269.788 129.292 269.707 129.264C269.202 129.046 268.652 128.952 268.104 128.989C267.555 129.026 267.023 129.193 266.552 129.476C266.51 129.5 266.463 129.515 266.415 129.52C266.367 129.524 266.318 129.518 266.272 129.501Z" fill="#263238"/>
<path d="M277.22 133.902L275.6 133.054C275.6 133.054 276.219 134.581 277.22 133.902Z" fill="#263238"/>
<path d="M271.843 227.309L263.881 228.412L264.245 220.899C264.245 220.899 270.181 222.417 272.725 224.638L271.843 227.309Z" fill="#FFC3BD"/>
<path d="M259.404 226.936L259.582 225.342C259.698 224.28 260.155 223.284 260.884 222.503C261.613 221.722 262.575 221.198 263.627 221.009L264.246 220.899L263.881 228.412L260.489 228.208C260.333 228.2 260.18 228.16 260.04 228.091C259.899 228.021 259.775 227.924 259.673 227.805C259.572 227.686 259.495 227.548 259.449 227.399C259.403 227.249 259.387 227.092 259.404 226.936Z" fill="#FFC3BD"/>
<path d="M167.548 227.131C167.548 227.131 178.318 223.646 186.382 222.849C187.257 222.736 188.138 222.685 189.019 222.696H189.316H189.723C193.085 222.847 196.415 223.417 199.636 224.392C204.36 225.842 210.593 224.002 215.842 223.409C221.091 222.815 237.55 225.062 241.282 223.926C245.013 222.79 263.448 224.486 266.569 225.164C269.69 225.842 279.026 225.817 283.198 224.511C287.37 223.205 306.052 223.663 305.942 227.776C305.662 237.825 310.47 263.137 302.796 271.431C301.218 273.127 286.438 271.176 276.601 270.303C266.764 269.43 248.193 271.465 239.967 270.498C231.742 269.531 219.327 270.21 213.484 270.21C207.641 270.21 184.966 274.755 184.652 270.693C184.389 267.242 180.887 237.324 182.108 227.123L167.548 227.131Z" fill="#11B0DB"/>
<path opacity="0.2" d="M167.548 227.131C167.548 227.131 178.318 223.646 186.382 222.849C187.257 222.736 188.138 222.685 189.019 222.696H189.316H189.723C193.085 222.847 196.415 223.417 199.636 224.392C204.36 225.842 210.593 224.002 215.842 223.409C221.091 222.815 237.55 225.062 241.282 223.926C245.013 222.79 263.448 224.486 266.569 225.164C269.69 225.842 279.026 225.817 283.198 224.511C287.37 223.205 306.052 223.663 305.942 227.776C305.662 237.825 310.47 263.137 302.796 271.431C301.218 273.127 286.438 271.176 276.601 270.303C266.764 269.43 248.193 271.465 239.967 270.498C231.742 269.531 219.327 270.21 213.484 270.21C207.641 270.21 184.966 274.755 184.652 270.693C184.389 267.242 180.887 237.324 182.108 227.123L167.548 227.131Z" fill="white"/>
<path opacity="0.5" d="M278.517 267.988C278.348 262.9 277.915 248.671 277.898 234.755C277.898 232.652 275.965 232.347 275.693 234.416C273.997 247.857 272.513 262.34 272.013 267.42C271.911 268.437 272.395 269.362 273.048 269.43L277.347 269.828C278 269.896 278.551 269.048 278.517 267.988Z" fill="#11B0DB"/>
<path opacity="0.5" d="M222.49 267.946C222.142 263.222 221.006 247.348 220.336 232.33C220.268 230.795 218.835 230.761 218.742 232.33C217.894 246.966 217.3 263.366 217.148 268.056C217.148 268.777 217.487 269.37 217.945 269.37H221.693C222.176 269.353 222.541 268.7 222.49 267.946Z" fill="#11B0DB"/>
<path d="M200.034 33.1004C229.435 33.1004 253.263 51.7564 253.263 74.7965C253.191 82.556 250.545 90.072 245.742 96.1661L250.304 113.491L234.489 106.571C225.161 112.753 213.178 116.493 200.034 116.493C170.643 116.493 146.814 97.8367 146.814 74.7965C146.814 51.7564 170.643 33.1004 200.034 33.1004Z" fill="#004177"/>
<path d="M169.396 64.0608L230.655 64.0608C231.699 64.0608 232.7 63.6463 233.438 62.9084C234.176 62.1705 234.59 61.1697 234.59 60.1261C234.59 59.0826 234.176 58.0818 233.438 57.3439C232.7 56.606 231.699 56.1914 230.655 56.1914L169.379 56.1914C168.335 56.1914 167.335 56.606 166.597 57.3439C165.859 58.0818 165.444 59.0826 165.444 60.1261C165.444 61.1697 165.859 62.1705 166.597 62.9084C167.335 63.6463 168.335 64.0608 169.379 64.0608L169.396 64.0608ZM230.655 57.1581C231.443 57.1581 232.198 57.4708 232.754 58.0274C233.311 58.584 233.623 59.339 233.623 60.1261C233.623 60.9133 233.311 61.6682 232.754 62.2248C232.198 62.7814 231.443 63.0941 230.655 63.0941L169.379 63.0941C168.592 63.0941 167.837 62.7814 167.28 62.2248C166.724 61.6682 166.411 60.9133 166.411 60.1261C166.411 59.339 166.724 58.584 167.28 58.0274C167.837 57.4708 168.592 57.1581 169.379 57.1581L230.655 57.1581Z" fill="white"/>
<path d="M169.396 78.7312L230.656 78.7312C231.699 78.7312 232.7 78.3167 233.438 77.5788C234.176 76.8409 234.59 75.84 234.59 74.7965C234.59 73.7529 234.176 72.7521 233.438 72.0142C232.7 71.2763 231.699 70.8618 230.656 70.8618L169.379 70.8618C168.336 70.8618 167.335 71.2763 166.597 72.0142C165.859 72.7521 165.444 73.753 165.444 74.7965C165.444 75.8401 165.859 76.8409 166.597 77.5788C167.335 78.3167 168.336 78.7312 169.379 78.7312L169.396 78.7312ZM230.656 71.8285C231.443 71.8285 232.198 72.1412 232.754 72.6978C233.311 73.2544 233.624 74.0093 233.624 74.7965C233.624 75.5837 233.311 76.3386 232.754 76.8952C232.198 77.4518 231.443 77.7645 230.656 77.7645L169.379 77.7645C168.592 77.7645 167.837 77.4518 167.28 76.8952C166.724 76.3386 166.411 75.5837 166.411 74.7965C166.411 74.0093 166.724 73.2544 167.28 72.6978C167.837 72.1412 168.592 71.8285 169.379 71.8285L230.656 71.8285Z" fill="white"/>
<path d="M185.262 93.4102L230.656 93.4102C231.699 93.4102 232.7 92.9956 233.438 92.2577C234.176 91.5198 234.59 90.519 234.59 89.4754C234.59 88.4319 234.176 87.4311 233.438 86.6932C232.7 85.9553 231.699 85.5407 230.656 85.5407L185.245 85.5407C184.202 85.5407 183.201 85.9553 182.463 86.6932C181.725 87.4311 181.31 88.4319 181.31 89.4754C181.31 90.519 181.725 91.5198 182.463 92.2577C183.201 92.9956 184.202 93.4102 185.245 93.4102L185.262 93.4102ZM230.656 86.5074C231.443 86.5074 232.198 86.8201 232.754 87.3767C233.311 87.9333 233.624 88.6883 233.624 89.4754C233.624 90.2626 233.311 91.0175 232.754 91.5741C232.198 92.1307 231.443 92.4435 230.656 92.4435L185.245 92.4435C184.458 92.4435 183.703 92.1308 183.146 91.5741C182.59 91.0175 182.277 90.2626 182.277 89.4754C182.277 88.6883 182.59 87.9333 183.146 87.3767C183.703 86.8201 184.458 86.5074 185.245 86.5074L230.656 86.5074Z" fill="white"/>
</svg>
