<svg width="984" height="374" viewBox="0 0 984 374" fill="none" xmlns="http://www.w3.org/2000/svg">
<path d="M285.258 235.48C285.258 235.48 223.881 265.379 157.659 236.252C91.4364 207.126 52.5424 138.862 19.5736 84.3879C-13.3951 29.9139 -3.74719 -30.3562 41.2188 -62.4447C86.1849 -94.5333 122.704 -58.8297 189.859 -64.454C257.014 -70.0783 274.047 -81.6961 333.489 -50.0112C392.932 -18.3262 412.132 70.2027 375.078 141.421C338.024 212.639 285.258 235.48 285.258 235.48Z" fill="white" fill-opacity="0.1"/>
<path d="M867.174 364.473C867.174 364.473 910.169 385.541 956.559 365.018C1002.95 344.495 1030.19 296.395 1053.29 258.012C1076.38 219.629 1069.62 177.161 1038.13 154.551C1006.63 131.941 981.045 157.098 934.002 153.135C886.959 149.173 875.028 140.986 833.388 163.312C791.748 185.638 778.298 248.017 804.255 298.198C830.212 348.379 867.174 364.473 867.174 364.473Z" fill="white" fill-opacity="0.1"/>
</svg>
