<svg width="106" height="93" viewBox="0 0 106 93" fill="none" xmlns="http://www.w3.org/2000/svg">
<path d="M80.0566 3.42189C80.0566 3.42189 65.4133 -3.75385 49.6141 3.23642C33.8148 10.2267 24.5355 26.6101 16.6699 39.6839C8.80421 52.7577 11.106 67.2225 21.8339 74.9237C32.5619 82.625 41.2745 74.0561 57.2963 75.406C73.3181 76.7558 77.3818 79.5441 91.5635 71.9397C105.745 64.3353 110.326 43.0884 101.486 25.996C92.6453 8.90365 80.0566 3.42189 80.0566 3.42189Z" fill="#E74386"/>
<path d="M68.0566 88.9321C68.0566 88.9321 53.4133 96.1078 37.6141 89.1176C21.8148 82.1273 12.5355 65.7439 4.66986 52.6701C-3.19579 39.5963 -0.894 25.1315 9.83394 17.4303C20.5619 9.72902 29.2745 18.2979 45.2963 16.948C61.3181 15.5982 65.3818 12.8099 79.5635 20.4143C93.7451 28.0187 98.326 49.2656 89.4857 66.358C80.6453 83.4504 68.0566 88.9321 68.0566 88.9321Z" fill="#004A87"/>
<path d="M45.8184 30.518C49.3444 30.518 52.125 31.7507 54.1604 34.216C56.1957 36.6813 57.2134 39.892 57.2134 43.848C57.2134 48.32 55.9807 52.3477 53.5154 55.931C52.34 57.7083 50.835 59.1273 49.0004 60.188C47.1657 61.22 45.202 61.736 43.1094 61.736C39.612 61.736 36.8457 60.5033 34.8104 58.038C32.775 55.5727 31.7574 52.3477 31.7574 48.363C31.7574 45.439 32.2877 42.6583 33.3484 40.021C34.409 37.3837 36.043 35.1333 38.2504 33.27C40.429 31.4353 42.9517 30.518 45.8184 30.518ZM43.3244 57.307C45.1877 57.307 46.836 56.5903 48.2694 55.157C51.0787 52.3477 52.4834 48.621 52.4834 43.977C52.4834 41.4543 51.91 39.3187 50.7634 37.57C49.6167 35.8213 47.911 34.947 45.6464 34.947C43.8117 34.947 42.149 35.6637 40.6584 37.097C37.849 39.9063 36.4444 43.633 36.4444 48.277C36.4444 50.7997 37.0177 52.9353 38.1644 54.684C39.311 56.4327 41.031 57.307 43.3244 57.307ZM69.7737 61.177H65.1297L69.1287 36.151L61.9907 39.677L62.7217 35.076L70.4187 31.077H74.5467L69.7737 61.177Z" fill="white"/>
</svg>
