<svg width="98" height="102" viewBox="0 0 98 102" fill="none" xmlns="http://www.w3.org/2000/svg">
<path d="M95.745 62.8486C95.745 62.8486 101.393 47.4211 92.7249 32.327C84.0572 17.233 66.6645 9.66098 52.7369 3.15677C38.8093 -3.34744 24.5586 0.482121 17.9721 12.042C11.3855 23.6019 20.8886 31.4292 21.2234 47.6244C21.5582 63.8197 19.1924 68.185 28.3051 81.5935C37.4178 95.002 59.1887 97.3544 75.3834 86.6968C91.5782 76.0392 95.745 62.8486 95.745 62.8486Z" fill="#E74386"/>
<path d="M6.67449 45.9491C12.8563 39.3457 28.6745 38.2037 37.1745 36.4491C50.6318 33.5366 51.7063 17.2643 66.9584 16.8562C78.7628 16.5403 94.7379 21.0366 96.6315 38.5362C98.0517 51.6656 99.2203 68.5366 94.1745 76.4491C86.7619 88.0731 73.1949 94.9743 58.1738 100.449C40.674 104.449 19.655 100.148 9.13176 84.0366C-1.39147 67.9257 -3.61597 56.9414 6.67449 45.9491Z" fill="#004A87"/>
<path d="M39.9743 35.1854C43.5003 35.1854 46.2809 36.418 48.3163 38.8834C50.3516 41.3487 51.3693 44.5594 51.3693 48.5154C51.3693 52.9874 50.1366 57.015 47.6713 60.5984C46.4959 62.3757 44.9909 63.7947 43.1563 64.8554C41.3216 65.8874 39.3579 66.4034 37.2653 66.4034C33.7679 66.4034 31.0016 65.1707 28.9663 62.7054C26.9309 60.24 25.9133 57.015 25.9133 53.0304C25.9133 50.1064 26.4436 47.3257 27.5043 44.6884C28.5649 42.051 30.1989 39.8007 32.4063 37.9374C34.5849 36.1027 37.1076 35.1854 39.9743 35.1854ZM37.4803 61.9744C39.3436 61.9744 40.9919 61.2577 42.4253 59.8244C45.2346 57.015 46.6393 53.2884 46.6393 48.6444C46.6393 46.1217 46.0659 43.986 44.9193 42.2374C43.7726 40.4887 42.0669 39.6144 39.8023 39.6144C37.9676 39.6144 36.3049 40.331 34.8143 41.7644C32.0049 44.5737 30.6003 48.3004 30.6003 52.9444C30.6003 55.467 31.1736 57.6027 32.3203 59.3514C33.4669 61.1 35.1869 61.9744 37.4803 61.9744ZM56.6626 43.0114L57.4796 38.0664C60.0596 36.1744 62.9693 35.2284 66.2086 35.2284C68.9606 35.2284 71.2683 36.031 73.1316 37.6364C74.9663 39.213 75.8836 41.32 75.8836 43.9574C75.8836 45.9927 75.253 47.9134 73.9916 49.7194C72.759 51.5254 70.7523 53.532 67.9716 55.7394L60.5756 61.6304H74.8516L74.2496 65.8444H53.2226L53.7386 62.4044L64.3166 53.6754C66.696 51.7834 68.4303 50.1494 69.5196 48.7734C70.5803 47.4547 71.1106 46.093 71.1106 44.6884C71.1106 43.1404 70.5803 41.9077 69.5196 40.9904C68.459 40.073 67.0543 39.6144 65.3056 39.6144C62.4103 39.6144 59.5293 40.7467 56.6626 43.0114Z" fill="white"/>
</svg>
