<svg width="113" height="100" viewBox="0 0 113 100" fill="none" xmlns="http://www.w3.org/2000/svg">
<path d="M21.8959 62.7273C21.8959 62.7273 29.5248 77.1397 46.4154 80.771C63.3061 84.4024 80.4432 76.6021 94.4912 70.6485C108.539 64.6949 115.179 51.6397 111.027 39.1035C106.874 26.5673 94.7891 28.3786 82.6206 17.8691C70.4521 7.35968 68.8034 2.71535 52.8604 0.531664C36.9175 -1.65202 20.7228 12.8445 17.8282 31.8688C14.9335 50.893 21.8959 62.7273 21.8959 62.7273Z" fill="#E74386"/>
<path d="M69.014 24.422C69.014 24.422 54.3707 17.2463 38.5715 24.2365C22.7722 31.2268 13.4929 47.6102 5.62725 60.684C-2.23839 73.7578 0.0633972 88.2226 10.7913 95.9239C21.5193 103.625 30.2319 95.0563 46.2537 96.4061C62.2755 97.7559 66.3392 100.544 80.5209 92.9398C94.7025 85.3354 99.2834 64.0885 90.4431 46.9961C81.6027 29.9038 69.014 24.422 69.014 24.422Z" fill="#004A87"/>
<path d="M45.8073 37.5181C49.3333 37.5181 52.1139 38.7508 54.1493 41.2161C56.1846 43.6815 57.2023 46.8921 57.2023 50.8481C57.2023 55.3201 55.9696 59.3478 53.5043 62.9311C52.3289 64.7085 50.8239 66.1275 48.9893 67.1881C47.1546 68.2201 45.1909 68.7361 43.0983 68.7361C39.6009 68.7361 36.8346 67.5035 34.7993 65.0381C32.7639 62.5728 31.7463 59.3478 31.7463 55.3631C31.7463 52.4391 32.2766 49.6585 33.3373 47.0211C34.3979 44.3838 36.0319 42.1335 38.2393 40.2701C40.4179 38.4355 42.9406 37.5181 45.8073 37.5181ZM43.3133 64.3071C45.1766 64.3071 46.8249 63.5905 48.2583 62.1571C51.0676 59.3478 52.4723 55.6211 52.4723 50.9771C52.4723 48.4545 51.8989 46.3188 50.7523 44.5701C49.6056 42.8215 47.8999 41.9471 45.6353 41.9471C43.8006 41.9471 42.1379 42.6638 40.6473 44.0971C37.8379 46.9065 36.4333 50.6331 36.4333 55.2771C36.4333 57.7998 37.0066 59.9355 38.1533 61.6841C39.2999 63.4328 41.0199 64.3071 43.3133 64.3071ZM82.5766 41.6031L73.3316 49.5151C75.539 49.8591 77.388 50.7335 78.8786 52.1381C80.4266 53.5141 81.2006 55.4061 81.2006 57.8141C81.2006 61.1395 79.9966 63.7911 77.5886 65.7691C75.2093 67.7471 72.228 68.7361 68.6446 68.7361C64.7746 68.7361 61.607 67.8761 59.1416 66.1561L59.8726 61.6841C62.3666 63.5761 65.2476 64.5221 68.5156 64.5221C70.6656 64.5221 72.529 63.9488 74.1056 62.8021C75.711 61.6268 76.5136 60.0071 76.5136 57.9431C76.5136 56.3091 75.8973 55.0191 74.6646 54.0731C73.432 53.1271 71.7693 52.6541 69.6766 52.6541C68.5586 52.6541 67.4693 52.8261 66.4086 53.1701L66.9246 50.0311L76.2126 42.2051H63.6996L64.3876 38.0771H83.1356L82.5766 41.6031Z" fill="white"/>
</svg>
