<svg width="151" height="140" viewBox="0 0 151 140" fill="none" xmlns="http://www.w3.org/2000/svg">
<path d="M144.186 24.4669L143.358 23.1162C136.375 11.7556 123.74 4.90957 110.446 5.73769C108.733 5.84557 107.029 6.07665 105.349 6.42913C93.2525 8.98987 82.7241 18.0228 78.3584 29.5964C75.7896 36.4023 75.074 44.2372 70.2058 49.6401C63.8663 56.6671 53.1047 56.8761 43.6417 56.5987C34.1786 56.3214 23.413 56.5545 17.1097 63.6136C13.158 68.0356 11.9038 74.3189 12.2213 80.2404C13.0655 95.9184 24.1246 109.924 38.1905 116.891C52.2565 123.857 68.8149 124.48 84.2075 121.417C105.771 117.124 126.281 105.337 138.606 87.1306C150.931 68.9241 154.047 44.1166 144.186 24.4669Z" fill="#D6F7FF"/>
<path d="M141.119 84.2412H9.57646C4.57217 84.2412 0.515381 88.298 0.515381 93.3023V94.6812C0.515381 99.6855 4.57217 103.742 9.57646 103.742H141.119C146.123 103.742 150.18 99.6855 150.18 94.6812V93.3023C150.18 88.298 146.123 84.2412 141.119 84.2412Z" fill="#FAFAFA"/>
<path d="M9.57646 84.2912H141.119C146.096 84.2912 150.13 88.3256 150.13 93.3023V94.6812C150.13 99.6578 146.096 103.692 141.119 103.692H9.57646C4.59978 103.692 0.565381 99.6578 0.565381 94.6812V93.3023C0.565381 88.3256 4.59978 84.2912 9.57646 84.2912Z" fill="#FAFAFA" stroke="#263238" stroke-width="0.1"/>
<path d="M115.64 84.2404H141.448C143.763 84.2404 145.983 85.1598 147.619 86.7966C149.256 88.4333 150.176 90.6531 150.176 92.9678V95.0099C150.176 97.3246 149.256 99.5445 147.619 101.181C145.983 102.818 143.763 103.737 141.448 103.737H115.64V84.2404Z" fill="#11B0DB"/>
<path d="M130.309 96.65C129.473 96.65 128.656 96.4021 127.961 95.9377C127.266 95.4732 126.725 94.8131 126.405 94.0409C126.085 93.2686 126.002 92.4189 126.165 91.5992C126.328 90.7795 126.731 90.0267 127.323 89.436C127.914 88.8453 128.667 88.4432 129.487 88.2806C130.307 88.1181 131.156 88.2023 131.928 88.5227C132.7 88.8431 133.36 89.3853 133.824 90.0806C134.287 90.7759 134.534 91.5932 134.534 92.429C134.533 93.5488 134.087 94.6224 133.295 95.4139C132.503 96.2054 131.429 96.65 130.309 96.65V96.65ZM130.309 88.5376C129.539 88.536 128.786 88.7629 128.145 89.1895C127.504 89.6162 127.004 90.2233 126.708 90.9342C126.412 91.6452 126.334 92.4278 126.483 93.1832C126.632 93.9386 127.002 94.6327 127.546 95.1777C128.09 95.7227 128.783 96.0942 129.538 96.245C130.294 96.3958 131.076 96.3192 131.788 96.0249C132.499 95.7306 133.108 95.2318 133.536 94.5917C133.964 93.9516 134.192 93.199 134.192 92.429C134.191 91.3986 133.782 90.4107 133.054 89.6814C132.326 88.9521 131.339 88.5408 130.309 88.5376V88.5376Z" fill="white"/>
<path d="M136.942 99.8218C136.897 99.8209 136.853 99.8021 136.821 99.7695L132.986 95.6249C132.962 95.5916 132.95 95.5503 132.954 95.5089C132.957 95.4675 132.976 95.429 133.006 95.4006C133.037 95.3722 133.077 95.356 133.118 95.3551C133.16 95.3543 133.2 95.3687 133.232 95.3958L137.087 99.5404C137.117 99.5725 137.134 99.6149 137.134 99.659C137.134 99.7031 137.117 99.7455 137.087 99.7776C137.067 99.7947 137.044 99.8075 137.019 99.8151C136.994 99.8228 136.968 99.825 136.942 99.8218V99.8218Z" fill="white"/>
<path d="M8.50991 93.392V96H7.93391V90.4H8.50991V92.728C8.92057 92.2693 9.43524 92.04 10.0539 92.04C10.5286 92.04 10.8912 92.1813 11.1419 92.464C11.3979 92.7413 11.5259 93.136 11.5259 93.648V96H10.9499V93.776C10.9499 92.9813 10.5846 92.584 9.85391 92.584C9.58724 92.584 9.32857 92.6667 9.07791 92.832C8.82191 92.9973 8.63257 93.184 8.50991 93.392ZM14.3527 96.096C13.9954 96.096 13.7234 95.992 13.5367 95.784C13.3554 95.5707 13.2647 95.2773 13.2647 94.904V92.64H12.3527V92.136H13.2647V90.944H13.8407V92.136H15.1927V92.64H13.8407V94.728C13.8407 95.0373 13.8914 95.2507 13.9927 95.368C14.0994 95.4907 14.2727 95.552 14.5127 95.552C14.7474 95.552 14.9581 95.4987 15.1447 95.392V95.92C14.9794 96.0373 14.7154 96.096 14.3527 96.096ZM17.7902 96.096C17.4329 96.096 17.1609 95.992 16.9742 95.784C16.7929 95.5707 16.7022 95.2773 16.7022 94.904V92.64H15.7902V92.136H16.7022V90.944H17.2782V92.136H18.6302V92.64H17.2782V94.728C17.2782 95.0373 17.3289 95.2507 17.4302 95.368C17.5369 95.4907 17.7102 95.552 17.9502 95.552C18.1849 95.552 18.3956 95.4987 18.5822 95.392V95.92C18.4169 96.0373 18.1529 96.096 17.7902 96.096ZM20.2677 95.384V97.6H19.6917V92.136H20.2677V92.752C20.6304 92.2773 21.1291 92.04 21.7637 92.04C22.3344 92.04 22.8011 92.2373 23.1637 92.632C23.5264 93.0267 23.7077 93.504 23.7077 94.064C23.7077 94.6293 23.5264 95.1093 23.1637 95.504C22.8011 95.8987 22.3344 96.096 21.7637 96.096C21.1291 96.096 20.6304 95.8587 20.2677 95.384ZM20.2677 93.432V94.704C20.3797 94.96 20.5611 95.1707 20.8117 95.336C21.0624 95.496 21.3344 95.576 21.6277 95.576C22.0597 95.576 22.4144 95.432 22.6917 95.144C22.9744 94.8453 23.1157 94.4853 23.1157 94.064C23.1157 93.6427 22.9744 93.2853 22.6917 92.992C22.4144 92.704 22.0597 92.56 21.6277 92.56C21.3397 92.56 21.0704 92.6427 20.8197 92.808C20.5691 92.968 20.3851 93.176 20.2677 93.432ZM25.0417 93.072C24.9243 93.072 24.8257 93.032 24.7457 92.952C24.6657 92.872 24.6257 92.7733 24.6257 92.656C24.6257 92.5387 24.6657 92.44 24.7457 92.36C24.8257 92.28 24.9243 92.24 25.0417 92.24C25.159 92.24 25.2577 92.28 25.3377 92.36C25.4177 92.44 25.4577 92.5387 25.4577 92.656C25.4577 92.7733 25.4177 92.872 25.3377 92.952C25.2577 93.032 25.159 93.072 25.0417 93.072ZM25.0417 96.048C24.9243 96.048 24.8257 96.008 24.7457 95.928C24.6657 95.848 24.6257 95.7493 24.6257 95.632C24.6257 95.5147 24.6657 95.416 24.7457 95.336C24.8257 95.256 24.9243 95.216 25.0417 95.216C25.159 95.216 25.2577 95.256 25.3377 95.336C25.4177 95.416 25.4577 95.5147 25.4577 95.632C25.4577 95.7493 25.4177 95.848 25.3377 95.928C25.2577 96.008 25.159 96.048 25.0417 96.048ZM26.6283 97.12H26.0283L29.3963 89.664H29.9963L26.6283 97.12ZM30.7142 97.12H30.1142L33.4822 89.664H34.0822L30.7142 97.12ZM35.7202 92.64V96H35.1442V92.64H34.3762V92.136H35.1442V91.488C35.1442 91.1307 35.2402 90.8507 35.4322 90.648C35.6242 90.44 35.8962 90.336 36.2482 90.336C36.5735 90.336 36.8455 90.3867 37.0642 90.488V91.016C36.8082 90.9093 36.5842 90.856 36.3922 90.856C35.9442 90.856 35.7202 91.104 35.7202 91.6V92.136H37.0642V92.64H35.7202ZM39.6803 96.096C39.0777 96.096 38.571 95.9067 38.1603 95.528C37.755 95.1547 37.5523 94.6693 37.5523 94.072C37.5523 93.496 37.7337 93.0133 38.0963 92.624C38.4643 92.2347 38.9363 92.04 39.5123 92.04C39.8217 92.04 40.0963 92.104 40.3363 92.232C40.5763 92.3547 40.7657 92.5173 40.9043 92.72C41.043 92.9227 41.147 93.1387 41.2163 93.368C41.2857 93.592 41.3203 93.8187 41.3203 94.048V94.208H38.1443C38.1763 94.624 38.3417 94.9573 38.6403 95.208C38.9443 95.4533 39.3283 95.576 39.7923 95.576C40.2403 95.576 40.6537 95.456 41.0323 95.216V95.728C40.7177 95.9733 40.267 96.096 39.6803 96.096ZM38.1523 93.736H40.7363C40.7203 93.4373 40.6083 93.168 40.4003 92.928C40.203 92.6827 39.899 92.56 39.4883 92.56C39.1043 92.56 38.7897 92.6773 38.5443 92.912C38.3043 93.152 38.1737 93.4267 38.1523 93.736ZM42.4027 96V90.4H42.9787V92.752C43.3413 92.2773 43.84 92.04 44.4747 92.04C45.0453 92.04 45.512 92.2373 45.8747 92.632C46.2373 93.0267 46.4187 93.5067 46.4187 94.072C46.4187 94.632 46.2373 95.1093 45.8747 95.504C45.512 95.8987 45.0453 96.096 44.4747 96.096C43.84 96.096 43.3413 95.8587 42.9787 95.384V96H42.4027ZM42.9787 93.432V94.704C43.096 94.96 43.28 95.1707 43.5307 95.336C43.7813 95.496 44.0507 95.576 44.3387 95.576C44.7707 95.576 45.1253 95.432 45.4027 95.144C45.6853 94.8507 45.8267 94.4933 45.8267 94.072C45.8267 93.6507 45.6853 93.2933 45.4027 93C45.1253 92.7067 44.7707 92.56 44.3387 92.56C44.0453 92.56 43.7733 92.6427 43.5227 92.808C43.272 92.968 43.0907 93.176 42.9787 93.432ZM47.7926 92.64C48.1819 92.24 48.6833 92.04 49.2966 92.04C49.9099 92.04 50.4113 92.24 50.8006 92.64C51.1899 93.0293 51.3846 93.5067 51.3846 94.072C51.3846 94.6373 51.1899 95.1147 50.8006 95.504C50.4059 95.8987 49.9046 96.096 49.2966 96.096C48.6886 96.096 48.1873 95.8987 47.7926 95.504C47.4033 95.1147 47.2086 94.6373 47.2086 94.072C47.2086 93.5067 47.4033 93.0293 47.7926 92.64ZM50.7926 94.072C50.7926 93.6453 50.6513 93.2853 50.3686 92.992C50.0859 92.704 49.7286 92.56 49.2966 92.56C48.8646 92.56 48.5073 92.704 48.2246 92.992C47.9419 93.2853 47.8006 93.6453 47.8006 94.072C47.8006 94.4933 47.9419 94.8507 48.2246 95.144C48.5073 95.432 48.8646 95.576 49.2966 95.576C49.7286 95.576 50.0859 95.432 50.3686 95.144C50.6513 94.8507 50.7926 94.4933 50.7926 94.072ZM52.4792 96.048C52.3618 96.048 52.2632 96.008 52.1832 95.928C52.1032 95.848 52.0632 95.7493 52.0632 95.632C52.0632 95.5147 52.1032 95.416 52.1832 95.336C52.2632 95.256 52.3618 95.216 52.4792 95.216C52.5965 95.216 52.6952 95.256 52.7752 95.336C52.8552 95.416 52.8952 95.5147 52.8952 95.632C52.8952 95.7493 52.8552 95.848 52.7752 95.928C52.6952 96.008 52.5965 96.048 52.4792 96.048ZM54.6818 96H54.1058V92.136H54.6818V92.712C55.0018 92.264 55.4658 92.04 56.0738 92.04C56.3884 92.04 56.6524 92.1067 56.8658 92.24C57.0844 92.3733 57.2338 92.56 57.3138 92.8C57.4631 92.5707 57.6658 92.3867 57.9218 92.248C58.1831 92.1093 58.4764 92.04 58.8018 92.04C59.2338 92.04 59.5698 92.176 59.8098 92.448C60.0498 92.7147 60.1698 93.096 60.1698 93.592V96H59.5938V93.72C59.5938 92.9627 59.2738 92.584 58.6338 92.584C58.3991 92.584 58.1644 92.6667 57.9298 92.832C57.7004 92.992 57.5271 93.1867 57.4098 93.416C57.4098 93.4693 57.4098 93.5307 57.4098 93.6C57.4151 93.6693 57.4178 93.7227 57.4178 93.76C57.4231 93.7973 57.4258 93.8267 57.4258 93.848V96H56.8498V93.72C56.8498 92.9627 56.5298 92.584 55.8898 92.584C55.6658 92.584 55.4364 92.664 55.2018 92.824C54.9778 92.9733 54.8044 93.16 54.6818 93.384V96ZM61.7613 92.64C62.1507 92.24 62.652 92.04 63.2653 92.04C63.8787 92.04 64.38 92.24 64.7693 92.64C65.1587 93.0293 65.3533 93.5067 65.3533 94.072C65.3533 94.6373 65.1587 95.1147 64.7693 95.504C64.3747 95.8987 63.8733 96.096 63.2653 96.096C62.6573 96.096 62.156 95.8987 61.7613 95.504C61.372 95.1147 61.1773 94.6373 61.1773 94.072C61.1773 93.5067 61.372 93.0293 61.7613 92.64ZM64.7613 94.072C64.7613 93.6453 64.62 93.2853 64.3373 92.992C64.0547 92.704 63.6973 92.56 63.2653 92.56C62.8333 92.56 62.476 92.704 62.1933 92.992C61.9107 93.2853 61.7693 93.6453 61.7693 94.072C61.7693 94.4933 61.9107 94.8507 62.1933 95.144C62.476 95.432 62.8333 95.576 63.2653 95.576C63.6973 95.576 64.0547 95.432 64.3373 95.144C64.62 94.8507 64.7613 94.4933 64.7613 94.072Z" fill="black"/>
<path d="M66.0884 97.844C66.0402 97.844 66 95.8581 66 93.422C66 90.9859 66.0402 89 66.0884 89C66.1367 89 66.1729 90.9859 66.1729 93.422C66.1729 95.8581 66.1367 97.844 66.0884 97.844Z" fill="#11B0DB"/>
<path d="M74.7726 17.0178C74.1303 22.2245 74.1371 27.4908 74.7927 32.6958C74.9575 34.0144 75.2389 35.4535 76.2761 36.2776C77.5142 37.2585 79.4559 36.9168 80.5815 35.8113C81.7071 34.7058 82.1251 33.0456 82.105 31.4657C82.0849 29.8858 81.6789 28.3462 81.3935 26.7945C81.0156 24.7483 80.8267 22.6257 79.9101 20.7645C78.9936 18.9032 77.0961 17.3073 75.0379 17.5163" fill="#263238"/>
<path d="M77.8198 1.70565C80.1796 -0.617905 85.2407 -0.0269632 87.8698 1.97098C90.4989 3.96892 91.8898 7.26129 92.4446 10.5296C92.9993 13.7978 92.8707 17.1425 93.14 20.4429C93.4094 23.7433 94.1531 27.1482 96.1912 29.7612C97.0636 30.8748 98.153 31.8195 98.9288 33.0014C99.6659 34.1278 100.084 35.4331 100.137 36.7781C100.191 38.1232 99.8791 39.4576 99.2344 40.6394C98.5485 41.7983 97.5303 42.7246 96.3118 43.298C95.0933 43.8715 93.7306 44.0656 92.4004 43.8553C89.6587 43.3368 87.5522 41.0012 86.503 38.4163C85.4538 35.8314 85.297 32.9853 85.0679 30.2034C84.4004 21.5435 83.2353 12.9292 81.5785 4.40307" fill="#263238"/>
<path d="M74.9331 27.2407L77.3893 26.5734H88.2152L94.0844 30.0386C94.0844 30.0386 83.8213 34.6576 80.0144 32.8044C77.7539 31.7058 75.9532 29.8453 74.9291 27.5502" fill="#FFC3BD"/>
<path d="M88.3005 7.64316L88.3648 6.19998L79.7218 4.27843C77.0485 3.90859 74.0657 6.50952 73.8124 9.19488C73.531 12.1777 73.3059 15.8319 73.5913 18.071C74.1622 22.5815 77.5832 23.2568 77.5832 23.2568L77.949 33.1099L87.8704 33.536L88.3005 7.64316Z" fill="#FFC3BD"/>
<path d="M75.0983 12.3426C75.0917 12.4925 75.1439 12.639 75.2438 12.7509C75.3437 12.8628 75.4834 12.9312 75.633 12.9416C75.7062 12.9493 75.7803 12.9425 75.8508 12.9213C75.9214 12.9002 75.987 12.8652 76.0438 12.8184C76.1007 12.7716 76.1477 12.714 76.1821 12.6489C76.2165 12.5838 76.2375 12.5124 76.2441 12.4391C76.2496 12.2899 76.197 12.1444 76.0972 12.0334C75.9974 11.9223 75.8583 11.8545 75.7094 11.8441C75.6364 11.8358 75.5624 11.8422 75.4919 11.8628C75.4214 11.8835 75.3557 11.9181 75.2988 11.9646C75.2418 12.011 75.1948 12.0684 75.1604 12.1333C75.1259 12.1982 75.1048 12.2694 75.0983 12.3426V12.3426Z" fill="#263238"/>
<path d="M74.6959 10.7869C74.7643 10.8633 75.2105 10.5537 75.8296 10.5778C76.4487 10.6019 76.8949 10.9195 76.9632 10.8472C77.0315 10.7748 76.927 10.6783 76.7341 10.5256C76.472 10.3338 76.1581 10.2259 75.8336 10.216C75.511 10.2073 75.1937 10.2986 74.9251 10.4773C74.7442 10.622 74.6959 10.7507 74.6959 10.7869Z" fill="#263238"/>
<path d="M81.1521 12.632C81.1454 12.7819 81.1976 12.9284 81.2975 13.0403C81.3974 13.1522 81.5371 13.2207 81.6867 13.231C81.7599 13.2388 81.834 13.2319 81.9045 13.2107C81.9751 13.1896 82.0407 13.1546 82.0975 13.1078C82.1544 13.061 82.2014 13.0034 82.2358 12.9383C82.2702 12.8732 82.2912 12.8019 82.2978 12.7285C82.3033 12.5787 82.2501 12.4326 82.1494 12.3215C82.0488 12.2103 81.9087 12.1429 81.7591 12.1335C81.6863 12.1252 81.6126 12.1316 81.5423 12.1523C81.472 12.1731 81.4066 12.2077 81.35 12.2542C81.2934 12.3007 81.2467 12.3581 81.2127 12.423C81.1787 12.4879 81.158 12.559 81.1521 12.632V12.632Z" fill="#263238"/>
<path d="M80.7906 11.1085C80.8589 11.1849 81.3051 10.8754 81.9242 10.8955C82.5433 10.9156 82.9855 11.2412 83.0579 11.1688C83.1302 11.0965 83.0217 10.996 82.8287 10.8472C82.5656 10.6547 82.2501 10.5468 81.9242 10.5377C81.6027 10.5271 81.2861 10.6186 81.0197 10.799C80.8268 10.9397 80.7584 11.0723 80.7906 11.1085Z" fill="#263238"/>
<path d="M78.4028 15.9485C78.0792 15.8365 77.7429 15.7649 77.4018 15.7354C77.245 15.7354 77.0963 15.6791 77.0722 15.5706C77.0638 15.4065 77.1058 15.2437 77.1928 15.1043C77.3536 14.7264 77.5224 14.3324 77.6953 13.8983C78.3987 12.2059 78.9012 10.8109 78.845 10.7828C78.7887 10.7546 78.1495 12.1054 77.45 13.8018L76.9636 15.0078C76.86 15.1965 76.8245 15.4151 76.8631 15.6269C76.8844 15.6836 76.9183 15.7347 76.9621 15.7765C77.006 15.8182 77.0587 15.8495 77.1164 15.8681C77.2029 15.8927 77.2919 15.9075 77.3817 15.9123C77.7191 15.9677 78.0623 15.9799 78.4028 15.9485V15.9485Z" fill="#263238"/>
<path d="M77.595 23.2649C79.7546 23.3665 81.9009 22.8758 83.8018 21.8458C83.8018 21.8458 82.2823 24.9493 77.6513 24.3945L77.595 23.2649Z" fill="#EBA39C"/>
<path d="M78.6163 17.456C78.7373 17.3086 78.8937 17.1945 79.0709 17.1242C79.2481 17.0539 79.4403 17.0297 79.6293 17.054C79.7657 17.071 79.8972 17.1154 80.0161 17.1844C80.1349 17.2535 80.2385 17.3459 80.3208 17.456C80.4 17.5618 80.4451 17.6893 80.4502 17.8214C80.4552 17.9535 80.4199 18.0841 80.3489 18.1956C80.2468 18.3004 80.1165 18.3732 79.9737 18.4053C79.831 18.4374 79.6821 18.4274 79.5449 18.3765C79.2559 18.2632 78.9923 18.0938 78.7691 17.8781C78.7005 17.8272 78.6431 17.7629 78.6002 17.6891C78.5763 17.6557 78.5635 17.6156 78.5635 17.5745C78.5635 17.5335 78.5763 17.4934 78.6002 17.46" fill="#EBA39C"/>
<path d="M80.2112 16.435C80.1107 16.435 80.0866 17.0983 79.4956 17.5566C78.9047 18.0149 78.1931 17.9184 78.1851 18.0108C78.1771 18.1033 78.3419 18.1475 78.6434 18.1636C79.0368 18.1827 79.4243 18.0616 79.7368 17.8219C80.0356 17.5911 80.2342 17.2543 80.2916 16.8812C80.3238 16.5998 80.2554 16.431 80.2112 16.435Z" fill="#263238"/>
<path d="M80.7267 9.23917C80.7829 9.40801 81.402 9.34771 82.1256 9.45625C82.8492 9.56479 83.4321 9.78589 83.5326 9.63715C83.5768 9.56479 83.4803 9.40399 83.2472 9.23515C82.9408 9.01875 82.5861 8.88073 82.2141 8.83315C81.8448 8.77571 81.4671 8.80741 81.1126 8.92561C80.8191 9.01405 80.6824 9.15877 80.7267 9.23917Z" fill="#263238"/>
<path d="M74.7922 8.66436C74.8967 8.80908 75.3309 8.66436 75.8414 8.68446C76.352 8.70456 76.7861 8.80908 76.8907 8.66436C76.9349 8.592 76.8907 8.4513 76.6856 8.3106C76.436 8.14313 76.1421 8.05371 75.8414 8.05371C75.5408 8.05371 75.2469 8.14313 74.9972 8.3106C74.8123 8.4513 74.748 8.6121 74.7922 8.66436Z" fill="#263238"/>
<path d="M88.1671 14.6983C88.951 14.1797 89.2927 9.70547 89.2605 7.86431C89.2284 6.02315 88.2435 4.39103 86.949 3.08855C85.5501 1.68155 83.9099 1.18709 81.932 0.974031C80.8225 0.853431 79.6326 0.70871 78.5592 1.01423C77.4859 1.31975 76.8869 1.69763 76.3643 2.68253C76.0749 3.22925 75.9985 4.00913 76.501 4.36691C77.0035 4.72469 77.6346 4.43525 78.2015 4.27445C79.705 3.84431 81.3532 4.33073 82.6516 5.19905C83.9501 6.06737 84.9712 7.29347 85.9721 8.49947C87.2706 10.0713 87.8857 12.6843 88.1751 14.6983" fill="#11B0DB"/>
<path d="M73.0284 4.23824C73.6032 2.41316 77.1569 0.153924 80.9196 1.82624C82.6482 1.88654 84.3286 2.17196 86.1697 3.83624C89.4943 6.87134 88.2199 14.2882 88.2199 14.2882C86.1793 13.2372 84.3749 11.7803 82.9176 10.0069C80.7829 7.43414 79.6131 5.42012 79.195 4.19804C75.7218 5.0342 74.4112 8.0693 73.8002 9.38384C73.0163 8.52356 72.0113 7.45826 73.0284 4.23824Z" fill="#263238"/>
<path d="M87.4844 13.8621C87.5567 13.826 90.4431 12.8531 90.4712 15.84C90.4994 18.8269 87.4964 18.252 87.4924 18.1515C87.4884 18.051 87.4844 13.8621 87.4844 13.8621Z" fill="#FFC3BD"/>
<path d="M88.3926 17.0098C88.3926 17.0098 88.4448 17.0459 88.5333 17.0861C88.5968 17.1133 88.6652 17.1274 88.7343 17.1274C88.8034 17.1274 88.8717 17.1133 88.9353 17.0861C89.1268 16.9617 89.2818 16.7885 89.3842 16.5843C89.4867 16.3801 89.5329 16.1523 89.5182 15.9244C89.5217 15.6696 89.4696 15.4172 89.3654 15.1847C89.3366 15.0898 89.2849 15.0034 89.2147 14.9333C89.1446 14.8632 89.0583 14.8115 88.9634 14.7827C88.9036 14.7667 88.84 14.7725 88.7841 14.799C88.7281 14.8255 88.6834 14.871 88.6579 14.9274C88.6177 15.0118 88.6378 15.0721 88.6217 15.0761C88.6056 15.0802 88.5574 15.0279 88.5815 14.9033C88.5969 14.8295 88.6365 14.763 88.6941 14.7143C88.7771 14.6526 88.8808 14.6252 88.9835 14.638C89.1065 14.6606 89.2214 14.7147 89.3173 14.795C89.4131 14.8753 89.4864 14.9791 89.5302 15.0962C89.6594 15.3529 89.7242 15.6371 89.7192 15.9244C89.7192 16.5274 89.4016 17.0942 88.9714 17.2228C88.8918 17.2473 88.8076 17.2532 88.7253 17.24C88.6431 17.2267 88.565 17.1947 88.4971 17.1464C88.3966 17.0821 88.3644 17.0178 88.3926 17.0098Z" fill="#936457"/>
<path d="M55.34 80.4975L49.31 81.1649L45.6397 83.4683C45.6397 83.4683 45.5674 84.216 46.6126 84.0954L48.6829 83.2231L47.0427 85.016C47.0427 85.016 47.4447 85.7356 48.3412 85.2331C48.9022 84.9088 49.3961 84.4804 49.7964 83.9708L53.4144 83.7176C53.4144 83.7176 50.6808 86.3466 51.1833 87.03C51.6858 87.7134 52.0114 87.5687 52.3893 87.3195C52.7672 87.0702 53.0044 86.2019 53.9008 85.9165C54.7973 85.6311 56.2887 84.7869 57.8967 84.0231C59.2836 83.3678 60.6866 78.6765 60.6866 78.6765L56.0676 77.776L55.34 80.4975Z" fill="#FFC3BD"/>
<path d="M52.9439 82.0333C52.9439 82.1097 51.4243 82.4032 49.5229 82.6886H49.4746L49.551 82.6484C48.2244 84.0071 47.1109 85.0604 47.0546 85.0081C46.9983 84.9559 48.0274 83.8021 49.354 82.4554L49.3862 82.4192H49.4304H49.4826C51.3801 82.1298 52.9318 81.9569 52.9439 82.0333Z" fill="#936457"/>
<path d="M91.4437 118.362L90.3222 108.642L81.3093 111.166L83.5846 120.489L91.4437 118.362Z" fill="#C69481"/>
<path d="M91.5442 118.358L93.0677 129.686L96.8586 138.301C96.9232 138.448 96.9569 138.607 96.9575 138.767C96.9582 138.928 96.9259 139.087 96.8625 139.234C96.7992 139.381 96.7062 139.514 96.5893 139.624C96.4725 139.734 96.3342 139.819 96.1832 139.873V139.873C96.0077 139.937 95.8193 139.958 95.634 139.934C95.4486 139.91 95.2717 139.843 95.1179 139.736C93.1361 138.354 85.8719 133.24 85.7955 132.404C85.7192 131.435 83.3835 120.561 83.3835 120.561L91.5442 118.358Z" fill="#11B0DB"/>
<g opacity="0.6">
<path opacity="0.6" d="M96.1837 139.853L85.6754 131.624L85.7518 132.102C85.816 132.515 86.0255 132.892 86.3427 133.164C87.195 133.895 89.5829 135.857 95.0862 139.72C95.2438 139.832 95.4266 139.902 95.6182 139.926C95.8098 139.949 96.0042 139.924 96.1837 139.853V139.853Z" fill="white"/>
</g>
<g opacity="0.6">
<path opacity="0.6" d="M87.419 127.604C87.5738 127.684 87.6936 127.819 87.7552 127.982C87.8167 128.146 87.8158 128.326 87.7526 128.488C87.6789 128.646 87.5472 128.77 87.3848 128.834C87.2224 128.897 87.0418 128.896 86.8803 128.83C86.716 128.745 86.5892 128.602 86.5245 128.429C86.4599 128.256 86.462 128.065 86.5305 127.893C86.6244 127.737 86.7754 127.623 86.9517 127.576C87.1279 127.528 87.3157 127.552 87.4752 127.64" fill="white"/>
</g>
<path d="M92.8227 135.326C93.0376 134.93 93.327 134.58 93.6749 134.293C94.2819 133.851 94.9331 133.911 94.9372 133.839C94.9412 133.767 94.7844 133.742 94.5151 133.751C94.1604 133.762 93.8174 133.88 93.5302 134.088C93.2396 134.287 93.0133 134.567 92.8789 134.892C92.7865 135.153 92.7865 135.322 92.8227 135.326Z" fill="#263238"/>
<path d="M93.8678 136.713C93.9281 136.754 94.2336 136.311 94.7883 136.07C95.142 135.943 95.5032 135.836 95.8697 135.753C95.8938 135.688 95.3109 135.536 94.6637 135.841C94.0165 136.147 93.8034 136.693 93.8678 136.713Z" fill="#263238"/>
<path d="M91.0221 133.634C91.0824 133.678 91.5487 133.023 92.3768 132.545C93.2049 132.066 93.9848 131.966 93.9848 131.889C93.9848 131.813 93.1285 131.801 92.2441 132.328C91.3597 132.854 90.9618 133.602 91.0221 133.634Z" fill="#263238"/>
<path d="M90.2703 130.221C90.3105 130.281 90.8934 129.924 91.7014 129.767C92.5094 129.61 93.1808 129.702 93.1928 129.63C93.2049 129.558 92.5175 129.341 91.6491 129.522C90.7808 129.702 90.2261 130.173 90.2703 130.221Z" fill="#263238"/>
<path d="M89.7348 126.905C89.7831 126.965 90.3499 126.503 91.2142 126.394C92.0785 126.285 92.7418 126.603 92.7699 126.535C92.798 126.466 92.6372 126.386 92.3679 126.273C91.9922 126.139 91.59 126.095 91.1941 126.145C90.7987 126.188 90.4197 126.326 90.0886 126.547C89.8273 126.728 89.7147 126.884 89.7348 126.905Z" fill="#263238"/>
<path d="M91.0937 125.767C91.1095 125.621 91.0916 125.474 91.0414 125.337C90.9424 124.951 90.7675 124.589 90.5268 124.271C90.3705 124.024 90.1375 123.835 89.8635 123.733C89.7697 123.708 89.6705 123.712 89.5792 123.745C89.4879 123.778 89.4089 123.838 89.353 123.918C89.2565 124.08 89.2222 124.271 89.2565 124.456C89.3416 124.832 89.5552 125.166 89.8606 125.401C90.166 125.636 90.5438 125.757 90.9288 125.743C91.3086 125.722 91.6736 125.589 91.9772 125.359C92.2808 125.13 92.5092 124.816 92.6333 124.456C92.6653 124.366 92.6772 124.27 92.6681 124.175C92.6591 124.08 92.6294 123.988 92.581 123.906C92.5233 123.827 92.4421 123.768 92.349 123.738C92.2559 123.707 92.1557 123.707 92.0625 123.737C91.7948 123.842 91.5602 124.017 91.3831 124.243C91.1139 124.535 90.8989 124.873 90.7479 125.24C90.6841 125.365 90.6471 125.502 90.6394 125.642C90.8652 125.17 91.1591 124.734 91.5117 124.348C91.6748 124.159 91.8819 124.014 92.1147 123.926C92.1648 123.907 92.2196 123.906 92.2705 123.922C92.3214 123.938 92.3656 123.97 92.3961 124.014C92.4216 124.071 92.4348 124.133 92.4348 124.195C92.4348 124.257 92.4216 124.319 92.3961 124.376C92.2791 124.683 92.0763 124.95 91.8119 125.145C91.5475 125.341 91.2327 125.456 90.9047 125.477C90.5792 125.488 90.2598 125.387 89.999 125.192C89.7382 124.997 89.5515 124.719 89.4696 124.404C89.4418 124.276 89.4603 124.142 89.5218 124.026C89.5511 123.982 89.5935 123.947 89.6432 123.928C89.6929 123.908 89.7474 123.905 89.7992 123.918C90.0345 124.012 90.2351 124.176 90.3741 124.388C90.6935 124.802 90.9371 125.268 91.0937 125.767V125.767Z" fill="#263238"/>
<path d="M70.5961 62.6891L70.4313 65.1413C70.4313 65.1413 68.361 69.0608 68.172 72.5742C68.0595 74.6124 68.0152 77.6193 67.9951 79.7821C67.979 81.5228 68.4616 83.2316 69.3861 84.7066L73.5347 91.3597L72.9639 98.8731L80.4853 113.936L91.6167 111.122L90.2981 83.3237L85.8198 68.6427L84.9676 61.676L70.5961 62.6891Z" fill="#263238"/>
<path d="M93.0194 61.1614L93.2164 64.3573C93.2164 64.3573 102.157 45.3186 114.354 42.9709C122.277 41.4433 125.4 50.0823 122.619 56.9404C120.946 61.069 114 68.9723 113.992 69.1532C113.771 73.3943 109.453 72.7712 109.453 72.7712C109.453 72.7712 104.042 81.3137 102.434 82.982C101.333 84.1277 89.7109 83.7176 89.7109 83.7176L86.0568 76.1641L84.5854 61.6921L93.0194 61.1614Z" fill="#263238"/>
<path d="M77.5631 81.1208C77.5168 81.3565 77.4468 81.5868 77.354 81.8083C77.1892 82.2907 76.9802 82.9098 76.7229 83.6494C76.1963 85.2052 75.5169 87.3679 74.8416 89.788C74.1662 92.208 73.6838 94.423 73.3501 96.031C73.1934 96.7988 73.0647 97.442 72.9481 97.9405C72.9177 98.1779 72.8611 98.4111 72.7793 98.636C72.7812 98.3957 72.8055 98.1562 72.8517 97.9204C72.9079 97.4662 73.0125 96.8069 73.1572 95.9949C73.4466 94.3869 73.921 92.1477 74.5803 89.7196C75.2395 87.2916 75.9631 85.1328 76.538 83.5891C76.8234 82.8173 77.0686 82.1942 77.2495 81.7721C77.3332 81.5456 77.4382 81.3275 77.5631 81.1208Z" fill="#455A64"/>
<path d="M74.7883 78.1218C74.7649 78.7278 74.7058 79.3318 74.6114 79.9308C74.4828 81.0484 74.334 82.588 74.2496 84.2965C74.1652 86.005 74.1652 87.5568 74.1853 88.6783C74.2211 89.2835 74.2211 89.8902 74.1853 90.4954C74.1378 90.3387 74.1107 90.1766 74.1049 90.013C74.0687 89.6994 74.0325 89.2452 74.0004 88.6824C73.9247 87.2174 73.9247 85.7495 74.0004 84.2845C74.0709 82.8188 74.2158 81.3577 74.4345 79.9067C74.523 79.3519 74.6034 78.9017 74.6717 78.5962C74.6897 78.4337 74.7289 78.2742 74.7883 78.1218V78.1218Z" fill="#455A64"/>
<path d="M91.6161 110.531C91.6129 110.486 91.6129 110.44 91.6161 110.394C91.6161 110.29 91.6161 110.161 91.5839 109.992C91.5839 109.627 91.5276 109.116 91.4874 108.465C91.411 107.118 91.3065 105.205 91.1739 102.837C90.9327 98.0731 90.599 91.5205 90.2372 84.2845C90.1206 82.4755 90.1608 80.6906 89.7789 79.0585C89.4159 77.4594 88.7882 75.9322 87.9217 74.54C86.4647 72.1688 84.3309 70.2883 81.7952 69.1412C80.0929 68.3613 78.2582 67.9112 76.3883 67.8146C75.729 67.7864 75.2145 67.8146 74.8647 67.8146L74.4627 67.8347H74.326C75.008 67.7282 75.6986 67.6878 76.3883 67.7141C78.2796 67.7698 80.1414 68.1974 81.8676 68.9723C83.0624 69.5027 84.1784 70.1953 85.1841 71.0306C86.3339 71.999 87.3254 73.141 88.1227 74.4154C89.0016 75.8256 89.6376 77.3734 90.004 78.9942C90.406 80.6866 90.3538 82.4795 90.4704 84.2805C90.808 91.5165 91.1136 98.0691 91.3347 102.837C91.4312 105.197 91.5075 107.114 91.5638 108.465C91.5638 109.116 91.604 109.627 91.6161 109.996C91.6161 110.157 91.6161 110.29 91.6161 110.398C91.6161 110.507 91.6241 110.531 91.6161 110.531Z" fill="#455A64"/>
<path d="M86.5236 70.9743C86.4713 70.926 87.5366 69.5472 88.9034 67.8909C90.2702 66.2347 91.428 64.9282 91.4843 64.9724C91.5405 65.0166 90.4752 66.3995 89.1044 68.0557C87.7336 69.712 86.5799 71.0185 86.5236 70.9743Z" fill="#455A64"/>
<path d="M104.332 59.6942C105.385 57.9757 106.542 56.3231 107.797 54.7456C108.286 54.0742 108.841 53.4533 109.453 52.8923C109.01 53.5979 108.529 54.2783 108.01 54.9305C107.106 56.1727 105.884 57.9133 104.653 59.9193C103.423 61.9253 102.266 63.7624 102.052 65.2981C101.928 66.1249 102.008 66.9695 102.286 67.7583C102.127 67.5872 102.015 67.3782 101.96 67.1513C101.761 66.5411 101.702 65.894 101.787 65.2579C101.92 64.3276 102.22 63.4288 102.672 62.6047" fill="#455A64"/>
<path d="M110.538 50.42C110.595 50.4722 110.161 51.0149 109.891 51.8069C109.622 52.5988 109.614 53.2902 109.533 53.2943C109.453 53.2983 109.345 52.5667 109.646 51.7225C109.948 50.8783 110.494 50.3798 110.538 50.42Z" fill="#455A64"/>
<path d="M85.3455 90.7164C85.2812 90.6842 85.84 89.3777 86.5957 87.7979C87.3515 86.218 88.0188 84.9638 88.0831 84.9839C88.1474 85.004 87.5886 86.3185 86.8329 87.8984C86.0771 89.4782 85.4098 90.7445 85.3455 90.7164Z" fill="#455A64"/>
<path d="M79.0459 86.395C79.1143 86.3709 79.3997 86.9779 79.6851 87.7537C79.9705 88.5296 80.1434 89.1768 80.0871 89.201C80.0308 89.2251 79.7333 88.618 79.4519 87.8422C79.1705 87.0663 78.9776 86.4231 79.0459 86.395Z" fill="#455A64"/>
<path d="M64.586 35.6022C65.2292 30.0386 68.7989 28.7924 68.7989 28.7924L69.3215 61.6639L65.2211 78.6404C65.0998 79.1463 64.8759 79.622 64.5634 80.0379C64.2509 80.4539 63.8563 80.8013 63.4042 81.0587C62.952 81.316 62.4518 81.4779 61.9346 81.5342C61.4174 81.5905 60.8941 81.5401 60.3971 81.386L52.0918 78.8615C52.0918 78.8615 63.9468 41.174 64.586 35.6022Z" fill="#11B0DB"/>
<path d="M99.2461 32.7319C99.2461 32.7319 101.3 37.4072 101.3 39.8674C101.3 42.3277 103.761 58.267 101.3 61.6438C98.8401 65.0206 93.9919 64.8919 92.6292 64.7914C90.7518 64.6347 81.9963 48.4421 82.354 48.2331L87.2785 47.1637C87.2785 47.1637 90.7277 47.3768 92.3719 48.7717C94.0161 50.1667 95.6241 48.5587 95.6241 48.5587L99.1014 33.6163" fill="#11B0DB"/>
<path d="M92.3845 28.7923C92.3845 28.7923 98.0125 30.7219 99.2466 32.7319C100.481 34.7419 93.3815 61.0408 93.3815 61.0408L70.5961 62.6729C70.5961 62.6729 68.7991 62.3473 68.3087 60.7151C67.8183 59.083 68.7992 28.7762 68.7992 28.7762L75.1387 26.5331C75.1387 26.5331 77.8643 29.3471 79.826 29.9219C81.7878 30.4968 92.3845 28.7923 92.3845 28.7923Z" fill="#11B0DB"/>
<path d="M70.2263 36.0083C70.2446 36.0969 70.2527 36.1872 70.2504 36.2776C70.2504 36.4867 70.2504 36.744 70.2745 37.0535C70.2745 37.7289 70.2745 38.7057 70.2745 39.9117C70.1989 43.053 69.9654 46.1886 69.5751 49.3065C69.3459 51.1315 69.0726 52.8682 68.7912 54.436C68.5098 56.0038 68.2042 57.4068 68.2364 58.6047C68.2298 59.5487 68.4533 60.4801 68.8876 61.3182C69.0642 61.6163 69.2602 61.9023 69.4746 62.1745C69.4746 62.1745 69.3942 62.1222 69.2695 61.9936C69.0911 61.8017 68.9334 61.5915 68.7992 61.3665C68.3197 60.5257 68.0624 59.5766 68.0515 58.6087C67.9952 57.4027 68.2806 55.9555 68.554 54.3958C68.8273 52.836 69.0886 51.0954 69.3138 49.2743C69.772 45.6322 69.9931 42.3117 70.0936 39.9037C70.1338 38.7298 70.166 37.765 70.1901 37.0535C70.1901 36.744 70.1901 36.4867 70.2142 36.2776C70.2037 36.1878 70.2078 36.0968 70.2263 36.0083V36.0083Z" fill="#263238"/>
<path d="M92.3839 50.0825C92.1361 49.7472 91.8675 49.4276 91.58 49.1257C91.2626 48.8192 90.8974 48.5666 90.4986 48.378C90.0013 48.1638 89.4737 48.0282 88.9348 47.976C87.9581 47.8036 86.9546 47.8614 86.0042 48.1448C85.7247 48.2431 85.4647 48.3901 85.2364 48.579C85.0877 48.7317 84.9992 48.8121 84.9831 48.8041C84.9671 48.7961 85.0314 48.6875 85.164 48.5106C85.3794 48.2775 85.6427 48.0937 85.9359 47.972C86.9081 47.6242 87.9545 47.5369 88.971 47.7187C89.5363 47.7793 90.0877 47.9328 90.6031 48.173C91.0206 48.3821 91.3965 48.6654 91.7126 49.0091C91.926 49.2372 92.106 49.4943 92.2473 49.7729C92.3558 49.9578 92.3839 50.0744 92.3839 50.0825Z" fill="#263238"/>
<path d="M86.4503 55.1034C86.4905 55.1034 86.6714 55.7185 87.0895 56.6833C87.6471 57.9322 88.2905 59.1411 89.0151 60.3013C89.7294 61.47 90.5261 62.5863 91.3989 63.6419C91.6616 63.9604 91.9493 64.2575 92.2592 64.5303C92.3746 64.6257 92.4984 64.7105 92.6291 64.7836C92.6291 64.7836 92.4441 64.7836 92.1949 64.6107C91.8548 64.3619 91.5421 64.0775 91.2623 63.7625C89.4283 61.6854 87.9602 59.312 86.9207 56.7436C86.7659 56.3488 86.6317 55.9462 86.5187 55.5376C86.4766 55.3965 86.4536 55.2505 86.4503 55.1034Z" fill="#263238"/>
<path d="M95.1345 35.357C95.0783 35.3209 95.5968 34.5008 96.4531 33.6686C97.3093 32.8365 98.1375 32.334 98.1736 32.3903C98.2098 32.4465 97.4661 33.0375 96.634 33.8536C95.8019 34.6696 95.1989 35.4053 95.1345 35.357Z" fill="#263238"/>
<path d="M68.0152 29.6486C68.0513 29.5923 68.9719 30.1591 69.8 31.1842C70.6282 32.2093 71.006 33.2184 70.9417 33.2425C70.8774 33.2666 70.4071 32.334 69.595 31.3491C68.783 30.3642 67.9709 29.7089 68.0152 29.6486Z" fill="#263238"/>
<path d="M89.1323 58.5486C88.8139 58.152 88.544 57.7187 88.3283 57.2582C87.2032 55.0849 86.5201 52.7102 86.3183 50.2714C86.2549 49.7682 86.2549 49.2591 86.3183 48.7559C86.409 49.2506 86.4734 49.7498 86.5112 50.2513C86.6613 51.4483 86.9019 52.6322 87.2308 53.7929C87.567 54.951 87.9889 56.0824 88.4931 57.1778C88.7319 57.6223 88.9453 58.0799 89.1323 58.5486V58.5486Z" fill="#263238"/>
<path d="M97.6101 51.7265C97.31 51.4789 97.0279 51.2102 96.7659 50.9225C96.097 50.2608 95.3823 49.6469 94.6273 49.0854C94.2248 48.7733 93.791 48.5038 93.3329 48.2814C92.9706 48.1006 92.5553 48.0563 92.163 48.1568C91.9012 48.2334 91.6704 48.391 91.5038 48.607C91.3952 48.7678 91.3711 48.8804 91.351 48.8763C91.3309 48.8723 91.3269 48.7517 91.4193 48.5588C91.5652 48.2867 91.8098 48.081 92.1027 47.9839C92.5373 47.8404 93.0102 47.8677 93.4253 48.0603C93.9079 48.282 94.3627 48.56 94.7801 48.8884C95.5504 49.4544 96.2603 50.0983 96.8986 50.81C97.18 51.0784 97.4198 51.3873 97.6101 51.7265V51.7265Z" fill="#263238"/>
<g opacity="0.3">
<path opacity="0.3" d="M86.9771 56.9364C85.7992 57.2339 84.6053 56.5344 83.3912 56.4861C82.2897 56.4298 81.2365 56.8881 80.1752 57.1735C77.8556 57.7963 75.3964 57.6482 73.1684 56.7514C72.9029 56.6597 72.6613 56.51 72.4608 56.3133C72.3629 56.1906 72.299 56.0442 72.2757 55.8889C72.2525 55.7336 72.2705 55.5749 72.3282 55.4289C74.3744 55.4088 76.4165 55.4972 78.4667 55.4771C78.8827 55.5067 79.299 55.4249 79.6727 55.2399C79.7665 55.189 79.8423 55.1104 79.8898 55.0148C79.8898 55.0148 81.1159 54.9746 81.5541 54.9706C82.539 54.9706 83.6766 55.047 84.6615 55.0429C85.0917 55.0429 86.4746 55.1032 86.4424 55.1032" fill="black"/>
</g>
<g opacity="0.3">
<path opacity="0.3" d="M93.7227 48.1647C95.4714 48.4803 97.0966 49.2797 98.414 50.4722C98.5662 50.5971 98.6931 50.7499 98.7879 50.9224C98.8366 51.0075 98.8621 51.1038 98.8621 51.2018C98.8621 51.2998 98.8366 51.3962 98.7879 51.4812C98.7124 51.5752 98.6096 51.6434 98.4937 51.6766C98.3778 51.7097 98.2544 51.706 98.1407 51.6662C97.9138 51.5828 97.707 51.4527 97.5337 51.2842L93.6262 48.0079" fill="black"/>
</g>
<path d="M94.8169 36.8928C94.8788 37.4467 94.8909 38.0051 94.8531 38.5611C94.833 39.5862 94.7606 41.0093 94.6119 42.5811C94.4631 44.1529 94.2661 45.5559 94.0933 46.569C94.0295 47.1213 93.9137 47.6664 93.7476 48.1971C93.7649 47.6419 93.8199 47.0885 93.9124 46.5408C94.037 45.5238 94.2058 44.1288 94.3546 42.557C94.5033 40.9852 94.5998 39.5862 94.6681 38.5651C94.6795 38.005 94.7292 37.4462 94.8169 36.8928V36.8928Z" fill="#263238"/>
<path d="M77.0639 48.1568L74.6801 43.0192L66.4833 42.5046L66.1938 42.983L72.4088 54.9546L79.898 55.0149L77.0639 48.1568Z" fill="#455A64"/>
<path d="M76.7745 48.6351L74.3906 43.4936L66.1938 42.979L72.1193 55.441L78.7644 55.4892C79.1599 55.4943 79.5429 55.3509 79.8377 55.0872L79.898 55.031L76.7745 48.6351Z" fill="#455A64"/>
<path d="M70.5554 45.399C70.6146 45.4507 70.6877 45.4838 70.7656 45.4944C70.8435 45.505 70.9227 45.4925 70.9936 45.4585C71.0645 45.4245 71.1238 45.3705 71.1643 45.3031C71.2048 45.2358 71.2246 45.158 71.2214 45.0795C71.2181 45.0009 71.1919 44.9251 71.146 44.8613C71.1001 44.7975 71.0365 44.7485 70.9631 44.7205C70.8896 44.6925 70.8096 44.6866 70.7329 44.7036C70.6561 44.7206 70.586 44.7597 70.5313 44.8161C70.4933 44.8552 70.4636 44.9017 70.4442 44.9527C70.4247 45.0037 70.4158 45.0582 70.4181 45.1127C70.4203 45.1672 70.4337 45.2208 70.4573 45.27C70.4809 45.3192 70.5143 45.3631 70.5554 45.399Z" fill="#EBEBEB"/>
<path d="M86.3787 48.8963L83.2109 49.0813C82.8229 48.5312 82.3161 48.0755 81.7281 47.7477C81.1401 47.42 80.486 47.2286 79.814 47.1878L78.6844 47.1155L77.8563 47.9195C77.8563 47.9195 72.2966 47.815 72.0514 48.4863V48.7074V48.836L76.7749 49.4511C76.7749 49.4511 72.7549 49.1858 72.4976 49.1777C72.2404 49.1697 71.3761 49.0411 71.364 49.5154C71.364 49.9174 71.7982 50.243 72.4896 50.3878C72.771 50.4481 76.2483 50.9707 76.2483 50.9707L72.4012 50.6933C71.971 50.6611 71.9992 51.3566 72.2323 51.4611C72.4655 51.5656 77.2694 53.2862 77.2694 53.2862C76.8034 53.5568 76.2726 53.6957 75.7337 53.6882C75.0584 53.5997 73.9529 52.655 73.6876 53.053C73.4223 53.451 73.4544 53.6922 73.5911 53.7967C74.2962 54.2499 75.0323 54.6529 75.794 55.0027C76.3166 55.1796 81.6874 54.9103 81.6874 54.9103L87.2953 55.1032L86.3787 48.8963Z" fill="#FFC3BD"/>
<path d="M75.962 47.8833C76.6124 47.8624 77.2634 47.8798 77.9117 47.9356C78.5633 47.9527 79.2131 48.0105 79.8574 48.1085C79.2071 48.1319 78.5559 48.1144 77.9077 48.0562C77.2561 48.0415 76.6061 47.9837 75.962 47.8833V47.8833Z" fill="#936457"/>
<path d="M76.3046 47.6583C76.3046 47.6583 76.2483 47.5497 76.1558 47.3528C76.0634 47.1558 75.9187 46.8382 75.7538 46.4965C75.4081 45.7247 74.9498 44.7036 74.4192 43.5297H74.4514L72.574 43.4091L68.0435 43.1076L66.6727 43.0071L66.2988 42.975H66.1702H66.2988H66.6727L68.0475 43.0514L72.578 43.3287L74.4554 43.4534H74.4795V43.4735L75.79 46.4523L76.1639 47.3166C76.2805 47.5457 76.3046 47.6583 76.3046 47.6583Z" fill="#263238"/>
<path d="M107.986 75.1109L102.526 81.977C102.526 81.977 108.042 89.3095 107.157 90.6763L93.0874 81.0886L101.156 70.0416L107.986 75.1109Z" fill="#11B0DB"/>
<g opacity="0.6">
<path opacity="0.6" d="M98.7284 78.2585C98.5677 78.2008 98.3913 78.2045 98.2332 78.2691C98.0751 78.3337 97.9465 78.4545 97.8721 78.6082C97.809 78.7676 97.8092 78.9451 97.8728 79.1043C97.9363 79.2635 98.0583 79.3924 98.2138 79.4645C98.3857 79.5245 98.5737 79.5187 98.7415 79.4482C98.9093 79.3776 99.045 79.2474 99.1224 79.0826C99.1706 78.9099 99.1502 78.7253 99.0656 78.5672C98.9809 78.4092 98.8385 78.2899 98.6681 78.2344" fill="white"/>
</g>
<g opacity="0.6">
<path opacity="0.6" d="M93.0917 81.0885L93.8957 79.975L107.162 89.7074C107.255 89.8795 107.304 90.0723 107.304 90.2682C107.304 90.4641 107.255 90.6569 107.162 90.829L93.0917 81.0885Z" fill="white"/>
</g>
<path d="M102.8 82.0696C102.748 82.1339 102.398 81.9168 101.904 81.8887C101.409 81.8605 101.031 82.0133 100.991 81.9409C100.951 81.8686 101.333 81.5389 101.924 81.6032C102.515 81.6676 102.86 82.0173 102.8 82.0696Z" fill="#263238"/>
<path d="M103.797 83.7216C103.765 83.798 103.395 83.6975 102.957 83.8141C102.518 83.9307 102.233 84.1799 102.153 84.1277C102.072 84.0754 102.325 83.6654 102.868 83.5327C103.411 83.4 103.841 83.6573 103.797 83.7216Z" fill="#263238"/>
<path d="M103.343 86.0453C103.274 86.0132 103.427 85.6112 103.869 85.37C104.312 85.1288 104.73 85.2172 104.718 85.2936C104.706 85.37 104.368 85.4222 104.006 85.6273C103.644 85.8323 103.415 86.0855 103.343 86.0453Z" fill="#263238"/>
<path d="M103.87 80.3651C103.797 80.4053 103.56 80.0877 103.162 79.8344C102.764 79.5812 102.382 79.4847 102.39 79.4003C102.398 79.3159 102.857 79.2877 103.319 79.5932C103.781 79.8988 103.942 80.3369 103.87 80.3651Z" fill="#263238"/>
<path d="M104.946 78.9621C104.926 78.9902 104.629 78.8375 104.263 78.4515C104.047 78.2255 103.86 77.9729 103.708 77.6998C103.616 77.5397 103.535 77.3731 103.467 77.2013C103.422 77.1016 103.393 76.996 103.379 76.8878C103.371 76.8079 103.389 76.7277 103.431 76.6594C103.473 76.5911 103.537 76.5386 103.612 76.5099C103.679 76.4886 103.75 76.4833 103.82 76.4945C103.89 76.5056 103.956 76.5329 104.014 76.5742C104.102 76.6355 104.18 76.7117 104.243 76.7993C104.363 76.9417 104.469 77.0951 104.56 77.2576C104.717 77.533 104.828 77.8315 104.89 78.142C104.978 78.4193 104.978 78.7169 104.89 78.9942C104.842 78.9942 104.842 78.6726 104.697 78.1902C104.614 77.9075 104.494 77.6371 104.339 77.3862C104.25 77.2443 104.149 77.1098 104.038 76.9842C103.921 76.8395 103.797 76.7471 103.712 76.7873C103.628 76.8275 103.672 76.8074 103.672 76.8757C103.682 76.9548 103.704 77.0321 103.736 77.1048C103.795 77.2674 103.865 77.4258 103.945 77.5792C104.082 77.8401 104.241 78.0889 104.42 78.3229C104.729 78.7169 104.974 78.9259 104.946 78.9621Z" fill="#263238"/>
<path d="M104.786 78.9942C104.802 78.7004 104.911 78.4192 105.095 78.1902C105.27 77.927 105.489 77.6958 105.743 77.5068C105.894 77.3959 106.055 77.3003 106.225 77.2214C106.328 77.1582 106.446 77.1227 106.568 77.1185C106.689 77.1142 106.809 77.1414 106.916 77.1973C106.977 77.2434 107.023 77.3057 107.049 77.3768C107.075 77.4479 107.081 77.5251 107.065 77.5993C107.04 77.7044 107 77.8058 106.949 77.9008C106.86 78.0718 106.744 78.2278 106.607 78.3631C106.383 78.5911 106.107 78.7609 105.803 78.8575C105.668 78.9151 105.522 78.9448 105.375 78.9448C105.228 78.9448 105.082 78.9151 104.947 78.8575C105.218 78.8064 105.486 78.7407 105.751 78.6605C106.014 78.5519 106.251 78.3857 106.442 78.1741C106.555 78.0543 106.65 77.919 106.724 77.7721C106.808 77.6073 106.84 77.4505 106.776 77.4264C106.709 77.4046 106.639 77.3976 106.569 77.4059C106.5 77.4143 106.433 77.4377 106.374 77.4747C106.218 77.541 106.07 77.6232 105.932 77.7199C105.675 77.8844 105.445 78.0863 105.248 78.3188C104.943 78.7048 104.846 79.0103 104.786 78.9942Z" fill="#263238"/>
<path d="M109.454 72.7673L107.733 74.922L101.317 70.1623L102.487 68.3734L109.454 72.7673Z" fill="#FFC3BD"/>
</svg>
