<svg width="132" height="138" viewBox="0 0 132 138" fill="none" xmlns="http://www.w3.org/2000/svg">
<path d="M125.099 38.744C121.53 33.2435 115.564 29.1172 109.027 28.6843C103.569 28.3202 98.3015 30.4423 93.0567 32.0003C87.812 33.5583 81.9047 34.5063 77.0602 32.0003C70.2378 28.4579 68.2927 19.8184 64.1403 13.347C56.4454 1.35201 39.5042 -3.03335 26.312 2.33601C13.1199 7.70537 2.32866 21.9045 1.13146 36.12C-0.0657419 50.3355 3.18146 64.984 12.7197 75.5719C23.3928 89.2199 35.3878 95.2519 52.06 98.6762C69.0111 102.143 89.2552 102.333 107.984 93.52C123.656 86.1367 129.632 74.824 129.921 57.5122C130.022 50.9587 128.664 44.2446 125.099 38.744Z" fill="#D6F7FF"/>
<path d="M47.8057 137.39H22.7268L24.6226 119.134L47.8057 118.983V137.39Z" fill="#11B0DB"/>
<g opacity="0.4">
<path opacity="0.4" d="M47.8057 137.39H22.7268L24.6226 119.134L47.8057 118.983V137.39Z" fill="black"/>
</g>
<path d="M51.4626 118.983H26.3837V137.387H51.4626V118.983Z" fill="#11B0DB"/>
<g opacity="0.2">
<path opacity="0.2" d="M51.4626 118.983H26.3837V137.387H51.4626V118.983Z" fill="black"/>
</g>
<path d="M51.6726 127.894C51.6726 127.94 46.031 127.98 39.0742 127.98C32.1173 127.98 26.4691 127.94 26.4691 127.894C26.4691 127.849 32.1107 127.806 39.0742 127.806C46.0376 127.806 51.6726 127.845 51.6726 127.894Z" fill="#263238"/>
<path d="M30.8515 129.666C30.7378 128.75 30.7378 127.823 30.8515 126.907C30.9652 127.823 30.9652 128.75 30.8515 129.666Z" fill="#263238"/>
<path d="M48.2879 129.567C48.1742 128.75 48.1742 127.921 48.2879 127.104C48.4016 127.921 48.4016 128.75 48.2879 129.567Z" fill="#263238"/>
<path d="M42.7641 119.078C42.7641 119.078 42.7641 118.878 42.705 118.533C42.6176 118.045 42.4276 117.581 42.1474 117.172C41.7341 116.565 41.1608 116.083 40.491 115.781C39.6657 115.418 38.7681 115.249 37.867 115.286C36.9606 115.293 36.0662 115.494 35.243 115.873C34.5767 116.185 34.0001 116.66 33.567 117.254C33.2766 117.656 33.0682 118.11 32.9536 118.592C32.8749 118.937 32.8716 119.134 32.8552 119.134C32.8502 119.086 32.8502 119.037 32.8552 118.989C32.8556 118.852 32.8688 118.714 32.8946 118.579C32.9865 118.078 33.1845 117.603 33.4751 117.185C33.9074 116.561 34.4954 116.06 35.1807 115.732C36.0167 115.336 36.9287 115.125 37.8539 115.116C38.7803 115.077 39.7026 115.257 40.5468 115.64C41.2363 115.961 41.8217 116.469 42.236 117.106C42.5166 117.532 42.6951 118.017 42.7575 118.523C42.7696 118.66 42.7696 118.797 42.7575 118.933C42.768 118.981 42.7702 119.03 42.7641 119.078Z" fill="#263238"/>
<path d="M33.3574 47.9936C34.5559 47.4307 35.9034 47.2675 37.2016 47.5278C37.9002 47.6426 38.6284 47.8558 39.1007 48.3741C39.573 48.8923 39.6649 49.8205 39.1204 50.2699C38.769 50.5078 38.3456 50.6157 37.9232 50.575C36.9064 50.575 35.7814 50.3847 34.9712 50.9948C34.5087 51.3425 34.2004 51.923 33.6592 52.0936C33.3823 52.1573 33.0922 52.1293 32.8325 52.014C32.5729 51.8987 32.3577 51.7021 32.2193 51.454C31.9566 50.9485 31.8979 50.3615 32.0553 49.814C32.1176 49.4308 32.2675 49.0672 32.4934 48.7514C32.7192 48.4357 33.0149 48.1763 33.3574 47.9936Z" fill="#11B0DB"/>
<path d="M30.681 42.821C31.396 43.8444 32.7835 43.5066 33.4296 42.8834C34.0758 42.2602 34.3448 41.3549 34.594 40.4955C35.1582 38.5275 35.7289 36.4611 35.3091 34.457C35.2071 33.8501 34.9405 33.2829 34.5383 32.817C34.3342 32.5878 34.0734 32.4163 33.7821 32.3196C33.4908 32.2229 33.1793 32.2044 32.8786 32.266C32.1767 32.4497 31.7404 33.1352 31.4256 33.7912C30.4986 35.7187 30.0134 37.8287 30.0053 39.9674C30.0053 40.9514 30.1168 42.0043 30.681 42.8243" fill="#11B0DB"/>
<path d="M28.7161 44.2872C29.0838 43.8078 29.3287 43.2458 29.4293 42.65C29.5299 42.0543 29.4832 41.443 29.2934 40.8695C28.9045 39.7174 28.204 38.6956 27.2696 37.9175C26.2104 36.9794 24.9781 36.2573 23.6419 35.792C23.1223 35.58 22.5624 35.4848 22.0019 35.5132C21.7235 35.5292 21.4532 35.6131 21.2147 35.7578C20.9763 35.9025 20.7769 36.1034 20.6342 36.3431C20.2504 37.0712 20.6342 37.9535 21.0114 38.6719C21.71 39.9417 22.5073 41.1546 23.3959 42.2995C24.1077 43.2212 24.9277 44.1298 26.0199 44.5431C27.1122 44.9563 28.2405 44.9104 28.8178 44.156" fill="#11B0DB"/>
<path d="M30.6311 58.2273C30.6675 58.0744 30.6894 57.9185 30.6967 57.7615C30.7295 57.4335 30.7689 57.0006 30.8181 56.4954C30.8818 55.8722 30.977 55.2526 31.1034 54.639C31.2685 53.8914 31.4945 53.1586 31.7791 52.4479C32.0559 51.7367 32.4325 51.0686 32.8976 50.4635C33.2766 49.9706 33.7606 49.5684 34.3145 49.286C34.6861 49.1003 35.0846 48.9741 35.4953 48.9121C35.6514 48.9063 35.8064 48.8843 35.9578 48.8465C35.8008 48.8295 35.6425 48.8295 35.4855 48.8465C35.0563 48.8828 34.6367 48.9938 34.2457 49.1745C33.6622 49.4496 33.1503 49.856 32.75 50.3618C32.2652 50.9749 31.875 51.657 31.5921 52.3856C31.3098 53.1077 31.0903 53.8528 30.9361 54.6127C30.8162 55.2347 30.734 55.8635 30.6901 56.4954C30.6508 57.0334 30.6344 57.4794 30.6278 57.7681C30.6127 57.9208 30.6138 58.0747 30.6311 58.2273Z" fill="#263238"/>
<path d="M30.7172 57.253C30.727 57.1812 30.727 57.1084 30.7172 57.0365V56.4199C30.7172 55.8885 30.7172 55.1079 30.7434 54.16C30.7893 52.2477 30.9566 50.1945 31.2715 47.2949C31.5733 44.5725 31.9767 41.3909 32.4031 39.3377C32.495 38.8686 32.5868 38.4488 32.6721 38.0781C32.7574 37.7075 32.8262 37.3893 32.8951 37.1302C32.964 36.8711 33.0001 36.6907 33.0394 36.5333C33.0598 36.4639 33.072 36.3923 33.0755 36.3201C33.0418 36.3844 33.0164 36.4527 33.0001 36.5234L32.823 37.1105C32.7442 37.3664 32.6622 37.6845 32.5704 38.0552C32.4786 38.4258 32.3703 38.8424 32.2719 39.3114C31.7427 41.7493 31.3452 44.214 31.0813 46.6947C30.7533 49.5975 30.6221 52.2412 30.6089 54.1567C30.6089 55.1145 30.6089 55.8885 30.6417 56.4232C30.6417 56.6725 30.668 56.8758 30.6778 57.0398C30.6842 57.112 30.6974 57.1833 30.7172 57.253Z" fill="#263238"/>
<path d="M30.7298 52.1526C30.7484 51.9344 30.7484 51.7149 30.7298 51.4966C30.7068 51.0834 30.6478 50.4864 30.533 49.755C30.3921 48.8986 30.2027 48.051 29.9655 47.2162C29.6889 46.189 29.3336 45.1845 28.9028 44.2118C28.1675 42.4178 27.1116 40.7729 25.7868 39.3574C25.5574 39.1138 25.3119 38.8859 25.0521 38.6751C24.9406 38.58 24.8422 38.4849 24.7241 38.4094L24.4387 38.2126C24.2678 38.0883 24.0868 37.9786 23.8975 37.8846C24.5221 38.3732 25.1148 38.9013 25.672 39.4656C26.9534 40.8936 27.9817 42.5297 28.7126 44.3036C29.1338 45.2715 29.4899 46.2665 29.7786 47.2818C30.0226 48.1084 30.2241 48.947 30.3821 49.7943C30.5166 50.5192 30.592 51.1063 30.6379 51.5196C30.653 51.7326 30.6836 51.9442 30.7298 52.1526Z" fill="#263238"/>
<path d="M25.8029 61.1497L26.3113 68.1492H35.305L35.8167 61.1497H25.8029Z" fill="#263238"/>
<path d="M36.8896 58.3879H24.934V61.1464H36.8896V58.3879Z" fill="#263238"/>
<path d="M24.934 67.8802V68.6445H25.4948H36.6928V67.8802H24.934Z" fill="#455A64"/>
<path d="M26.0464 69.9925L25.4954 68.6444H36.2636L35.6207 69.9925H26.0464Z" fill="#455A64"/>
<path d="M35.65 63.4358C35.65 63.4358 35.65 63.4588 35.6073 63.5014L35.4728 63.6786L34.9513 64.3346L34.9251 64.3674L34.9054 64.3346L33.6164 62.5535H33.6918L32.4224 64.3477L32.3831 64.4067L32.3404 64.351C31.8714 63.7966 31.3564 63.1931 30.8382 62.5634H30.9235L30.8415 62.6683L29.4967 64.351L29.4508 64.4067L29.4114 64.3477L28.142 62.5568H28.2175L26.6562 64.3346L26.6267 64.3674L26.607 64.3313L26.1183 63.508L25.9936 63.2915C25.977 63.2672 25.9638 63.2407 25.9543 63.2128C25.974 63.234 25.9915 63.2571 26.0068 63.2817L26.1445 63.4916L26.6595 64.2985H26.6103L28.1453 62.4978L28.1847 62.4518L28.2208 62.501C28.6078 63.0422 29.0375 63.6458 29.5 64.2854H29.4114L30.7529 62.5962L30.8349 62.4945L30.8776 62.4387L30.9235 62.4912C31.4483 63.121 31.9534 63.7278 32.4224 64.2854H32.3372L33.6164 62.4978L33.6557 62.4453L33.6918 62.4978L34.9513 64.2985H34.9054C35.135 64.0262 35.3187 63.8065 35.4499 63.6425L35.5975 63.4752C35.6133 63.46 35.631 63.4468 35.65 63.4358Z" fill="#E0E0E0"/>
<path d="M35.942 61.1039C35.942 61.1334 33.6887 61.1596 30.9105 61.1596C28.1324 61.1596 25.8757 61.1334 25.8757 61.1039C25.8757 61.0743 28.1291 61.0481 30.904 61.0481C33.6788 61.0481 35.942 61.0711 35.942 61.1039Z" fill="#455A64"/>
<path d="M36.3977 68.7199C36.3977 68.7527 33.9476 68.7757 30.9267 68.7757C27.9058 68.7757 25.4589 68.7527 25.4589 68.7199C25.4589 68.6871 27.9058 68.6642 30.9267 68.6642C33.9476 68.6642 36.3977 68.6904 36.3977 68.7199Z" fill="#263238"/>
<path d="M82.9244 70.1466H109.256V68.8674H82.9244V70.1466Z" fill="#263238"/>
<path d="M113.337 70.1466L118.276 51.6409H97.714L93.2433 70.1466H113.337Z" fill="#263238"/>
<path d="M94.4768 68.7459H112.842L117.119 52.4968H98.6555L94.4768 68.7459Z" fill="#455A64"/>
<path d="M112.97 68.92H94.274L98.538 52.3396H117.339L112.97 68.92ZM94.6873 68.592H112.727L116.916 52.6676H98.8004L94.6873 68.592Z" fill="#263238"/>
<path d="M29.9853 73.7415H28.6569V137.229H29.9853V73.7415Z" fill="#455A64"/>
<path d="M31.3168 73.9219H29.9884V137.226H31.3168V73.9219Z" fill="#263238"/>
<path d="M111.91 73.7415H110.582V137.229H111.91V73.7415Z" fill="#455A64"/>
<path d="M113.238 73.9219H111.91V137.226H113.238V73.9219Z" fill="#263238"/>
<path d="M131.793 70.0514H13.2444V75.26H131.793V70.0514Z" fill="#455A64"/>
<path d="M111.247 75.2601H66.7802V83.88H111.247V75.2601Z" fill="#455A64"/>
<path d="M90.9964 78.973C90.9964 79.1676 90.9387 79.3579 90.8306 79.5197C90.7224 79.6815 90.5688 79.8076 90.389 79.8821C90.2092 79.9566 90.0113 79.9761 89.8204 79.9381C89.6295 79.9001 89.4542 79.8064 89.3166 79.6688C89.179 79.5312 89.0853 79.3559 89.0473 79.165C89.0093 78.9741 89.0288 78.7763 89.1033 78.5965C89.1778 78.4167 89.3039 78.263 89.4657 78.1548C89.6275 78.0467 89.8178 77.989 90.0124 77.989C90.2734 77.989 90.5237 78.0927 90.7082 78.2772C90.8927 78.4618 90.9964 78.712 90.9964 78.973Z" fill="#263238"/>
<path d="M120.934 75.2601C120.934 75.306 105.518 75.3454 86.5265 75.3454C67.5353 75.3454 52.1193 75.306 52.1193 75.2601C52.1193 75.2142 67.5353 75.1748 86.5265 75.1748C105.518 75.1748 120.934 75.2142 120.934 75.2601Z" fill="#263238"/>
<path d="M79.9 13.9866C80.0771 13.9866 82.4748 14.3867 82.4748 14.3867L85.7187 18.4736L86.2074 19.2477L81.8319 22.0455L79.9 19.1854L78.26 18.1194C78.5041 17.9329 78.795 17.8173 79.1005 17.7855C79.4061 17.7537 79.7145 17.8068 79.9918 17.939C80.6384 18.2108 81.3339 18.347 82.0353 18.3391L81.458 16.6991L79.6802 16.3449L79.9 13.9866Z" fill="#FFC3BD"/>
<path d="M80.1033 11.1265C80.1714 11.1087 80.2424 11.1053 80.3118 11.1168C80.3812 11.1282 80.4475 11.154 80.5062 11.1927C80.565 11.2314 80.615 11.2819 80.6529 11.3412C80.6909 11.4004 80.716 11.4669 80.7265 11.5365C80.9922 13.2125 81.7958 18.2572 82.0385 19.7365C82.059 19.8542 82.0347 19.9754 81.9703 20.0762C81.906 20.1769 81.8063 20.25 81.6909 20.2809L77.8303 21.3601C77.7637 21.3791 77.6937 21.3834 77.6253 21.3727C77.5568 21.3621 77.4915 21.3367 77.4338 21.2983C77.3762 21.26 77.3275 21.2096 77.2912 21.1506C77.2548 21.0916 77.2318 21.0254 77.2235 20.9566L76.1674 12.5828C76.1516 12.4602 76.1812 12.3362 76.2507 12.234C76.3202 12.1319 76.4248 12.0587 76.5446 12.0285L80.1033 11.1265Z" fill="#263238"/>
<path d="M77.5126 20.3269L81.4486 19.2281L80.4056 12.2613C80.3917 12.1675 80.3581 12.0777 80.3071 11.9977C80.256 11.9178 80.1886 11.8495 80.1093 11.7975C80.03 11.7455 79.9406 11.7108 79.8469 11.6957C79.7533 11.6807 79.6575 11.6857 79.5659 11.7103L76.4138 12.5467L77.5126 20.3269Z" fill="#EBEBEB"/>
<path d="M81.3661 15.2296L79.5981 16.5416C79.5981 16.5416 79.7458 17.0074 80.0147 17.0402C80.5876 16.9653 81.1536 16.8446 81.7072 16.6794L81.3661 15.2296Z" fill="#FFC3BD"/>
<path d="M81.1534 14.1702L79.3002 14.9836C79.3002 14.9836 79.1821 15.5871 79.8742 15.5018L79.2543 15.9479C79.2543 15.9479 79.4084 16.2169 80.1825 16.2497C80.9566 16.2825 81.7077 15.2066 81.7077 15.2066L81.1534 14.1702Z" fill="#FFC3BD"/>
<path d="M82.9931 16.2333C82.9931 16.2563 82.7668 16.2136 82.5208 15.984C82.3852 15.8572 82.2429 15.7378 82.0944 15.6265C82.0109 15.5651 81.9131 15.5262 81.8102 15.5136C81.7074 15.5009 81.6031 15.515 81.5072 15.5544C80.9927 15.8506 80.4553 16.1051 79.9 16.3153C80.3798 15.9509 80.8992 15.6417 81.4482 15.3936C81.5738 15.3425 81.7111 15.3266 81.8451 15.3477C81.9634 15.3756 82.0749 15.4269 82.1731 15.4986C82.3266 15.617 82.4673 15.7511 82.5929 15.8988C82.7184 16.0194 82.8521 16.1312 82.9931 16.2333Z" fill="#D1734A"/>
<path d="M82.63 20.8516C82.3123 20.4679 82.1149 19.9991 82.0624 19.5038C82.0099 19.0085 82.1046 18.5086 82.3348 18.0669C82.245 18.5335 82.2108 19.0092 82.2331 19.4839C82.3102 19.954 82.4435 20.4132 82.63 20.8516Z" fill="#D1734A"/>
<path d="M82.3997 14.987C82.3768 15.0067 82.2784 14.8657 82.0422 14.7902C81.7263 14.702 81.3885 14.7409 81.1009 14.8985C80.7532 15.0658 80.4449 15.279 80.1989 15.3806C79.9529 15.4823 79.779 15.5053 79.7757 15.4856C79.7725 15.4659 79.9201 15.4069 80.1431 15.2724C80.3661 15.1379 80.6548 14.9214 81.032 14.7443C81.21 14.6552 81.4041 14.6028 81.6027 14.5901C81.7682 14.5804 81.9336 14.6108 82.0849 14.6787C82.3309 14.8001 82.3997 14.9805 82.3997 14.987Z" fill="#D1734A"/>
<path d="M82.2462 26.608L91.8861 32.7974L89.331 40.1052C89.331 40.1052 82.7349 38.0683 82.8562 37.8551C82.9776 37.6419 82.2462 26.608 82.2462 26.608Z" fill="#11B0DB"/>
<path d="M79.7527 125.526L78.234 132.509C78.234 132.509 84.8236 136.396 84.6694 137.711L71.0246 135.258L72.9401 124.28L79.7527 125.526Z" fill="#263238"/>
<path d="M71.0246 135.258L71.2608 134.159L84.2561 136.924C84.2561 136.924 84.8137 137.298 84.6694 137.712L71.0246 135.258Z" fill="#455A64"/>
<path d="M64.2319 126.294L64.0056 133.434C64.0056 133.434 71.1921 136.058 71.2774 137.387L57.4128 137.449L57.3079 126.297L64.2319 126.294Z" fill="#263238"/>
<g opacity="0.6">
<path opacity="0.6" d="M57.4126 137.449L57.4454 136.324L70.7261 136.688C70.7261 136.688 71.346 136.954 71.2772 137.387L57.4126 137.449Z" fill="#455A64"/>
</g>
<path d="M66.243 9.17818L67.6567 25.5782L75.8567 24.9222C75.9059 23.9644 75.837 20.258 75.837 20.258C75.837 20.258 79.2515 19.7267 79.2941 16.322C79.3138 14.6623 79.0776 11.238 78.8284 8.15154C78.6998 6.50389 77.9306 4.97224 76.6859 3.88508C75.4411 2.79793 73.8199 2.24185 72.17 2.3361C71.3276 2.38519 70.5037 2.60253 69.7467 2.97529C68.9897 3.34805 68.3151 3.86867 67.7627 4.50643C67.2102 5.14418 66.7911 5.88615 66.5301 6.68853C66.2691 7.49091 66.1715 8.33745 66.243 9.17818Z" fill="#FFC3BD"/>
<path d="M75.84 20.1955C74.2636 20.2241 72.7143 19.7834 71.389 18.9294C71.389 18.9294 72.4419 21.3862 75.8466 21.0778L75.84 20.1955Z" fill="#D1734A"/>
<path d="M77.5121 10.5361C77.5131 10.6635 77.4642 10.7862 77.376 10.8781C77.2878 10.97 77.1671 11.0238 77.0398 11.0281C76.9778 11.033 76.9155 11.0254 76.8565 11.0059C76.7975 10.9863 76.743 10.9551 76.6962 10.9141C76.6494 10.8732 76.6113 10.8233 76.5842 10.7673C76.557 10.7114 76.5413 10.6506 76.538 10.5886C76.537 10.4617 76.5854 10.3395 76.6729 10.2476C76.7605 10.1558 76.8803 10.1017 77.007 10.0965C77.0692 10.0916 77.1317 10.0992 77.1909 10.1187C77.2501 10.1382 77.3048 10.1694 77.3518 10.2103C77.3988 10.2512 77.4372 10.3011 77.4648 10.357C77.4923 10.413 77.5084 10.4738 77.5121 10.5361Z" fill="#263238"/>
<path d="M78.1027 9.84726C78.0436 9.91286 77.673 9.63734 77.1482 9.64062C76.6234 9.6439 76.2396 9.90302 76.1838 9.8407C76.1281 9.77838 76.2166 9.69638 76.3839 9.57502C76.6115 9.4181 76.8816 9.33455 77.158 9.33558C77.4314 9.3346 77.6979 9.42077 77.919 9.58158C78.0797 9.70294 78.1355 9.82102 78.1027 9.84726Z" fill="#263238"/>
<path d="M72.4748 10.5361C72.4766 10.6632 72.4285 10.7859 72.3408 10.8779C72.2531 10.9699 72.1328 11.0238 72.0058 11.0281C71.9436 11.033 71.8811 11.0254 71.8219 11.0059C71.7627 10.9864 71.708 10.9553 71.661 10.9143C71.614 10.8734 71.5756 10.8235 71.548 10.7676C71.5205 10.7116 71.5044 10.6508 71.5007 10.5885C71.5006 10.4614 71.5497 10.3392 71.6378 10.2474C71.7258 10.1557 71.8459 10.1016 71.973 10.0965C72.0349 10.0921 72.097 10.1 72.1559 10.1197C72.2147 10.1394 72.269 10.1707 72.3157 10.2115C72.3623 10.2524 72.4005 10.3021 72.4278 10.3579C72.4551 10.4136 72.4711 10.4741 72.4748 10.5361Z" fill="#263238"/>
<path d="M72.9469 9.94564C72.8879 10.008 72.5173 9.73572 71.9925 9.739C71.4677 9.74228 71.0839 10.0014 71.0281 9.9358C70.9724 9.8702 71.0609 9.79476 71.2282 9.6734C71.4545 9.51392 71.7255 9.43011 72.0023 9.43397C72.2758 9.43183 72.5427 9.51811 72.7633 9.67996C72.924 9.80132 72.9765 9.91612 72.9469 9.94564Z" fill="#263238"/>
<path d="M74.856 13.8356C75.1329 13.7493 75.4193 13.6975 75.7088 13.6815C75.84 13.6815 75.968 13.6421 75.9909 13.5503C76.0016 13.4121 75.9708 13.2739 75.9024 13.1534C75.7744 12.8254 75.6432 12.4974 75.5055 12.1333C74.9544 10.6803 74.5576 9.48636 74.6166 9.46668C74.6756 9.447 75.1676 10.6048 75.7187 12.0546C75.8499 12.4154 75.9778 12.7565 76.0959 13.0812C76.1806 13.2435 76.2061 13.4303 76.168 13.6093C76.1486 13.6568 76.1183 13.699 76.0795 13.7326C76.0408 13.7662 75.9947 13.7903 75.945 13.8028C75.8713 13.8236 75.7952 13.8346 75.7187 13.8356C75.4324 13.8731 75.1424 13.8731 74.856 13.8356Z" fill="#263238"/>
<path d="M73.3077 14.1998C73.3929 14.1998 73.3929 14.7639 73.8817 15.1838C74.3704 15.6036 74.9739 15.5118 74.9804 15.6069C74.987 15.702 74.846 15.7151 74.5868 15.7217C74.2527 15.7237 73.9286 15.6075 73.6717 15.3937C73.4171 15.1916 73.2531 14.8966 73.2158 14.5737C73.2158 14.3375 73.2683 14.1965 73.3077 14.1998Z" fill="#263238"/>
<path d="M73.085 7.8891C73.0325 8.03342 72.5077 7.96454 71.8911 8.03998C71.2744 8.11542 70.7791 8.2827 70.6971 8.15478C70.6611 8.09246 70.7463 7.95798 70.9497 7.82678C71.217 7.65652 71.5199 7.54993 71.835 7.51524C72.15 7.48055 72.4688 7.51868 72.7668 7.6267C72.9931 7.7087 73.1047 7.8235 73.085 7.8891Z" fill="#263238"/>
<path d="M77.9127 8.32857C77.8209 8.44993 77.4568 8.32857 77.0238 8.32857C76.5909 8.32857 76.2203 8.41057 76.135 8.28593C76.0989 8.22361 76.1579 8.10553 76.3187 7.99073C76.5349 7.85627 76.7861 7.78888 77.0406 7.79705C77.2952 7.80522 77.5415 7.88859 77.7487 8.03665C77.9029 8.14817 77.9521 8.27281 77.9127 8.32857Z" fill="#263238"/>
<path d="M69.9356 5.43554H69.9159C69.3766 5.86697 69.0242 6.48953 68.9319 7.17394V7.24282C68.7974 8.22681 68.8236 9.21081 68.6793 10.1948C68.535 11.1788 68.2004 12.1628 67.4788 12.8188C67.1836 13.0943 66.6621 13.2846 66.4194 12.9631C66.3363 12.8295 66.2941 12.6744 66.298 12.5171C66.1143 10.1653 65.4715 8.07922 65.478 5.62906C65.4745 5.29966 65.5497 4.97418 65.6975 4.67977C65.8453 4.38536 66.0613 4.13055 66.3275 3.93658C66.8425 3.56922 67.469 3.18546 68.043 3.4577C68.617 3.72994 69.355 4.79922 69.7978 5.25186" fill="#263238"/>
<path d="M67.3942 10.7229C67.3351 10.6967 65.049 10.0276 65.1211 12.3629C65.1933 14.6983 67.5254 14.1407 67.5254 14.0751C67.5254 14.0095 67.3942 10.7229 67.3942 10.7229Z" fill="#FFC3BD"/>
<path d="M66.7836 13.2125C66.7836 13.2125 66.7442 13.2421 66.6786 13.2749C66.5829 13.3198 66.4735 13.3256 66.3736 13.2913C66.22 13.2007 66.0933 13.071 66.0062 12.9154C65.9192 12.7598 65.8751 12.5839 65.8783 12.4057C65.8662 12.2053 65.8987 12.0048 65.9734 11.8186C65.9922 11.744 66.0289 11.6751 66.0804 11.618C66.1318 11.5608 66.1964 11.5171 66.2686 11.4906C66.3151 11.4771 66.3647 11.4798 66.4094 11.4983C66.4541 11.5168 66.4912 11.5499 66.5146 11.5922C66.5474 11.6578 66.5343 11.7038 66.5474 11.707C66.5605 11.7103 66.5933 11.6677 66.5737 11.5726C66.5586 11.5145 66.5238 11.4635 66.4753 11.4282C66.4088 11.3837 66.3283 11.365 66.2489 11.3758C66.154 11.399 66.0664 11.4457 65.9942 11.5116C65.922 11.5775 65.8675 11.6605 65.8357 11.753C65.7428 11.9585 65.7022 12.1839 65.7176 12.4089C65.7471 12.8813 66.0029 13.3109 66.3408 13.3929C66.4043 13.409 66.4705 13.4105 66.5347 13.3975C66.5989 13.3844 66.6593 13.3571 66.7114 13.3175C66.7836 13.2683 66.7934 13.2158 66.7836 13.2125Z" fill="#D1734A"/>
<path d="M67.9674 3.81859C67.3934 2.88379 68.9678 1.54227 70.119 1.19459C71.2703 0.846912 72.789 1.39139 73.9337 1.77187C74.6586 2.01131 75.3769 2.34587 76.1411 2.31635C76.6497 2.26216 77.1479 2.13513 77.6204 1.93915C78.0924 1.73952 78.6004 1.63904 79.1128 1.64395C79.3687 1.64937 79.6183 1.72466 79.8345 1.86168C80.0507 1.99869 80.2253 2.19221 80.3395 2.42131C80.533 2.89363 80.2575 3.54307 79.7491 3.61195C79.9112 3.52386 80.0922 3.47626 80.2766 3.47318C80.4611 3.47011 80.6435 3.51166 80.8085 3.5943C80.9734 3.67693 81.1159 3.79821 81.2239 3.94779C81.3319 4.09738 81.4021 4.27084 81.4286 4.45341C81.455 4.63598 81.437 4.82224 81.376 4.99634C81.315 5.17043 81.2128 5.32721 81.0782 5.4533C80.9435 5.5794 80.7804 5.67108 80.6026 5.72055C80.4249 5.77001 80.2379 5.77579 80.0574 5.73739C80.3854 5.48483 80.8971 5.90139 80.8545 6.31467C80.8099 6.51875 80.7129 6.70772 80.5732 6.863C80.4335 7.01827 80.2557 7.1345 80.0574 7.20027C79.0734 7.62667 77.9484 7.48891 76.9414 7.15107C75.9345 6.81323 74.9997 6.28515 73.9894 5.92107C72.9792 5.55699 71.3162 4.90099 70.3158 5.26507C69.5778 5.52747 69.0629 6.41635 68.6463 6.21955C68.4497 6.11458 68.2805 5.96492 68.1524 5.78261C68.0242 5.60031 67.9406 5.39046 67.9083 5.16995C67.8532 4.73298 67.8687 4.29 67.9542 3.85795" fill="#263238"/>
<path d="M80.0285 3.53649C80.0088 3.53649 79.9104 3.70705 79.6578 3.97929C79.3007 4.3596 78.8559 4.64675 78.3622 4.81569C77.6366 5.07658 76.8378 5.04482 76.1351 4.72713C75.3414 4.36961 74.6624 3.64801 73.8719 2.99201C73.1472 2.31296 72.2311 1.87324 71.2479 1.73249C70.842 1.68272 70.4301 1.72629 70.0435 1.85987C69.657 1.99345 69.3061 2.21351 69.0175 2.50329C68.8314 2.7057 68.6883 2.9438 68.597 3.20316C68.5056 3.46251 68.4679 3.73772 68.4862 4.01209C68.499 4.15949 68.5333 4.30423 68.5878 4.44177C68.6305 4.53361 68.6567 4.57953 68.6633 4.57625C68.619 4.3897 68.5894 4.19997 68.5747 4.00881C68.5752 3.48925 68.7761 2.98991 69.1356 2.61481C69.4146 2.35112 69.7492 2.15349 70.1149 2.03654C70.4805 1.91958 70.8677 1.88629 71.2479 1.93913C72.1827 2.08776 73.0513 2.51403 73.7407 3.16257C74.5082 3.81857 75.2102 4.55001 76.0597 4.92065C76.686 5.18831 77.3819 5.24703 78.0442 5.0881C78.7065 4.92917 79.2999 4.56106 79.7366 4.03833C79.8299 3.92688 79.9112 3.80595 79.9793 3.67753C80.0154 3.58897 80.035 3.53977 80.0285 3.53649Z" fill="#455A64"/>
<path d="M66.7971 10.6214C66.7971 10.6214 66.8988 10.5558 66.9873 10.3721C67.1025 10.1059 67.1433 9.81341 67.1054 9.52584C67.0529 8.77472 66.3871 7.96784 66.3018 6.92808C66.2425 6.44782 66.333 5.96095 66.5609 5.53408C66.76 5.19683 67.0642 4.93413 67.4268 4.78624C67.6731 4.6824 67.9423 4.64507 68.2075 4.678C68.3945 4.7108 68.4961 4.75344 68.506 4.73376C68.4279 4.66187 68.3314 4.61305 68.2272 4.59272C67.9444 4.51907 67.6459 4.53279 67.3711 4.63208C66.9619 4.77629 66.6146 5.05646 66.3871 5.42584C66.1253 5.8887 66.0184 6.42312 66.082 6.95104C66.1427 7.4638 66.2949 7.96151 66.5314 8.42048C66.7188 8.77733 66.8567 9.15802 66.9414 9.55208C67.0059 9.91484 66.9554 10.2887 66.7971 10.6214Z" fill="#455A64"/>
<path d="M80.4977 131.515C80.4977 131.515 87.6054 96.6491 87.612 95.9537L74.9151 89.256L69.9951 130.174L80.4977 131.515Z" fill="#263238"/>
<path d="M64.511 132.683L74.3281 72.2558V59.2211L60.1125 60.2379C59.942 60.7463 56.3569 132.762 56.3569 132.762L57.7411 132.683H64.511Z" fill="#263238"/>
<path d="M82.0455 58.2994L87.6117 95.9539L75.1674 92.9363L70.0965 59.5262L82.0455 58.2994Z" fill="#263238"/>
<path d="M84.1905 74.519C84.1905 74.519 86.3553 72.6593 86.5685 71.2587C86.7817 69.8581 83.974 47.3147 83.974 47.3147L82.5406 28.6777C82.5406 29.0057 82.58 26.3293 82.147 26.1685C80.835 25.6733 78.1389 24.7745 78.1389 24.7745L76.5973 23.3904C76.5973 23.3904 79.3656 35.2246 79.9035 38.4587L84.1905 74.519Z" fill="#11B0DB"/>
<path d="M66.4165 22.1046L64.0877 23.6561L55.3531 27.0902L59.2333 41.7223L58.7118 50.2241L58.2165 55.6197C58.2165 55.6197 55.6155 68.9791 53.3195 77.0971C53.3195 77.0971 55.8811 81.9515 57.9869 82.6272L58.8627 83.1487L61.9852 60.2838L64.665 56.6758C64.9241 56.3281 65.1635 55.9706 65.3899 55.6033C66.0459 54.5307 67.5481 52.0937 68.7453 50.2142C70.3263 47.7313 72.3533 42.0897 71.7531 39.6821C71.1528 37.2746 66.4165 22.1046 66.4165 22.1046Z" fill="#11B0DB"/>
<path d="M60.4832 72.5477C62.5282 70.8928 64.2269 68.8508 65.4819 66.5387L60.4832 72.5477Z" fill="#263238"/>
<path d="M66.4158 22.1045L68.5183 35.5952C68.4612 37.3199 68.1756 39.0295 67.6688 40.6792L63.9165 52.8152C63.9165 52.8152 60.9645 59.4309 61.9846 60.2772C63.0046 61.1234 70.939 60.2772 70.939 60.2772L81.6777 58.7192C81.9172 58.6841 82.1342 58.5583 82.2838 58.3679C82.4333 58.1775 82.504 57.9369 82.4813 57.6958L80.8872 41.2236C80.3493 40.0855 80.1295 37.7567 79.9032 36.9301L76.597 23.3936L75.9213 23.305L74.4518 24.312L73.6778 24.3743L67.1801 21.2288L66.4158 22.1045Z" fill="#EBEBEB"/>
<path d="M64.458 51.0538C66.1932 45.6451 68.44 36.8514 68.44 36.8514C69.1386 41.4434 68.3744 46.1502 66.6655 50.4798C65.2682 54.0091 63.579 56.679 62.4179 60.2969L62.3818 60.4445C62.3818 60.4445 61.7258 60.4806 61.7717 59.513C61.8176 58.5454 62.7557 55.6655 63.3822 54.0714C64.0087 52.4774 64.458 51.0538 64.458 51.0538Z" fill="#E0E0E0"/>
<path d="M74.8259 25.4568H73.3663L72.9301 27.4543L74.206 28.9992L75.4917 28.8713L75.9116 27.4379L75.5672 26.6376L74.8259 25.4568Z" fill="#11B0DB"/>
<path d="M83.3384 37.1204C83.7976 37.2123 88.8685 40.6235 90.7118 40.2561C92.5552 39.8888 94.0476 38.1504 94.2444 37.9175C95.2907 36.6776 94.6347 34.1028 94.3329 33.132C94.2594 32.8951 94.1593 32.6673 94.0345 32.453L86.2051 19.005L81.5901 21.8094L86.3789 30.544L83.3384 37.1204Z" fill="#11B0DB"/>
<path d="M45.5753 53.3794C45.2719 52.586 45.1402 51.7372 45.1888 50.8892C45.2374 50.0411 45.4653 49.2129 45.8574 48.4594C46.9201 46.3569 48.6061 42.9621 48.9603 41.8469C49.4851 40.1905 54.392 27.4805 55.353 27.0869L59.617 41.4828L54.6642 51.9132L60.4698 62.852L55.6318 68.0672C55.6318 68.0672 46.4773 55.3015 45.7229 53.7238C45.6705 53.6101 45.6213 53.4953 45.5753 53.3794Z" fill="#11B0DB"/>
<path d="M60.6994 71.3865C61.6149 70.5298 62.4283 69.57 63.1233 68.5264C63.1168 68.5125 63.1135 68.4974 63.1135 68.4821C63.1135 68.4668 63.1168 68.4517 63.1233 68.4378C63.1345 68.4215 63.1491 68.4078 63.1661 68.3976C63.183 68.3874 63.202 68.381 63.2217 68.3788C63.4996 67.9481 63.7536 67.5024 63.9827 67.0438C63.1725 66.5158 62.1131 65.7318 63.2643 65.5547C64.6846 65.3514 65.6981 64.6626 65.8424 64.2854C65.9867 63.9082 65.5144 63.5703 65.1405 63.8098C64.7101 64.0305 64.2508 64.1895 63.776 64.2821C63.3969 64.3715 63.0054 64.3959 62.6182 64.3542C62.1688 64.305 60.3222 63.5047 59.9942 63.4457L56.5403 67.0799C56.5403 67.0799 59.1939 69.904 60.6994 71.3865Z" fill="#FFC3BD"/>
<path d="M83.3054 37.5205C83.2488 37.3915 83.2081 37.256 83.1841 37.1171C83.1152 36.8547 83.0299 36.4611 82.9348 35.9921C82.6918 34.7503 82.5134 33.4967 82.4001 32.2365C82.2874 30.9759 82.2414 29.7102 82.2624 28.4448C82.2624 27.9594 82.2886 27.569 82.3083 27.2968C82.3111 27.1558 82.3264 27.0153 82.3542 26.877C82.3775 27.0167 82.3841 27.1587 82.3739 27.3001C82.3739 27.6051 82.3739 27.9889 82.3739 28.4448C82.3739 29.4288 82.4297 30.7408 82.5609 32.2233C82.6921 33.7059 82.8889 35.0179 83.0463 35.9724C83.1217 36.4217 83.1873 36.8022 83.2398 37.104C83.2748 37.2405 83.2968 37.3799 83.3054 37.5205Z" fill="#263238"/>
<path d="M87.3202 38.2979C87.3202 38.2979 87.2808 38.2979 87.2086 38.2717C87.1073 38.2347 87.0096 38.1886 86.9167 38.1339C86.5753 37.9226 86.2896 37.6324 86.0836 37.2877C85.7954 36.7777 85.5937 36.2236 85.4866 35.6477C85.3187 34.9522 85.1884 34.2482 85.0963 33.5387C84.9585 32.0233 84.8437 30.6621 84.7683 29.6715C84.7355 29.2025 84.7093 28.8089 84.6863 28.4973C84.6706 28.3534 84.6706 28.2082 84.6863 28.0643C84.7232 28.204 84.7473 28.3467 84.7585 28.4907C84.7913 28.8187 84.8372 29.1927 84.8897 29.6584C84.9979 30.6424 85.1324 32.0167 85.2669 33.519C85.362 34.2668 85.503 34.9753 85.6441 35.6116C85.7389 36.1833 85.9226 36.7367 86.1885 37.2516C86.3796 37.5881 86.6415 37.879 86.9561 38.1044C87.1922 38.2323 87.3366 38.2848 87.3202 38.2979Z" fill="#263238"/>
<g opacity="0.3">
<path opacity="0.3" d="M84.6766 28.0775C84.2771 29.5888 84.0007 31.13 83.8501 32.6859C83.7118 33.6145 83.7609 34.5613 83.9944 35.4706C84.2764 36.3628 84.9357 37.1861 85.841 37.4386C85.4277 34.3948 85.0637 31.3455 84.7488 28.2907" fill="black"/>
</g>
<g opacity="0.3">
<path opacity="0.3" d="M57.8193 57.568C57.8193 57.568 59.3543 60.7136 60.2038 62.3601C61.975 55.0424 59.7282 47.341 60.4597 39.8495L59.1805 42.4309L58.8197 48.4037L58.5442 51.9068C58.5442 51.9068 58.2818 55.6755 57.8193 57.568Z" fill="black"/>
</g>
<path d="M59.0595 27.2247C59.1587 27.3517 59.2454 27.4879 59.3186 27.6314C59.4006 27.7659 59.4925 27.9332 59.5909 28.13C59.6893 28.3268 59.8106 28.5531 59.9189 28.809C60.1863 29.4068 60.4174 30.0201 60.611 30.6458C61.0777 32.1833 61.312 33.7819 61.3063 35.3887C61.3046 36.0469 61.2597 36.7043 61.1718 37.3567C61.1456 37.6355 61.0931 37.8847 61.0537 38.1012C61.0144 38.3177 60.975 38.5079 60.939 38.6588C60.9097 38.8181 60.8646 38.9742 60.8045 39.1246C60.8133 38.9632 60.8364 38.803 60.8733 38.6457C60.8996 38.4915 60.9324 38.3177 60.9619 38.0848C60.9914 37.8519 61.0308 37.6191 61.0537 37.3435C61.1212 36.6974 61.1529 36.0481 61.1489 35.3985C61.1387 34.605 61.0784 33.813 60.9685 33.0271C60.8473 32.2421 60.6776 31.4654 60.4601 30.7015C60.2767 30.0783 60.0577 29.4661 59.8041 28.868C59.7057 28.6089 59.5909 28.3859 59.5023 28.1825C59.4138 27.9791 59.3285 27.8119 59.2563 27.6741C59.1758 27.5313 59.1098 27.3807 59.0595 27.2247Z" fill="#263238"/>
<path d="M54.6181 52.0018C54.5951 52.0182 54.3754 51.6738 53.9621 51.1326C53.4109 50.4507 52.7569 49.8586 52.0236 49.3778C51.6309 49.1124 51.1563 48.9961 50.6854 49.0498C50.303 49.1203 49.9412 49.2749 49.6259 49.5024C49.0716 49.8829 48.7698 50.1814 48.7469 50.1584C48.8002 50.0731 48.8666 49.9968 48.9437 49.9321C49.1353 49.7408 49.3403 49.5632 49.557 49.4008C49.8793 49.157 50.2528 48.9899 50.6493 48.912C51.1564 48.8397 51.6725 48.9564 52.099 49.24C52.8508 49.7286 53.5094 50.3473 54.0441 51.067C54.2061 51.2831 54.3551 51.5088 54.4902 51.7427C54.546 51.8219 54.5891 51.9093 54.6181 52.0018Z" fill="#263238"/>
<path d="M53.5357 48.5546C54.1867 49.548 54.5604 50.6974 54.6181 51.8838C54.5656 51.8838 54.4377 51.1162 54.1359 50.2011C53.8342 49.286 53.4996 48.5841 53.5357 48.5546Z" fill="#263238"/>
<path d="M57.7183 57.3646C57.8125 57.4971 57.8949 57.6376 57.9643 57.7845L58.5875 58.962C59.1091 59.9624 59.8208 61.3564 60.6113 62.9209L60.6408 62.9767L60.5982 63.0193L60.2702 63.3473C58.9811 64.6889 57.8102 65.8992 56.9541 66.7651L55.934 67.7885C55.814 67.9192 55.6835 68.0399 55.5437 68.1493C55.6416 68.0048 55.7513 67.8688 55.8717 67.7425L56.8557 66.6831C57.6888 65.7909 58.8499 64.5708 60.1357 63.2293L60.4637 62.9013V62.9997C59.6765 61.4318 58.9811 60.0477 58.4957 59.0145L57.9217 57.814C57.8394 57.6712 57.7713 57.5207 57.7183 57.3646Z" fill="#263238"/>
<path d="M64.1075 50.7653C64.099 50.6704 64.099 50.5749 64.1075 50.4799C64.1075 50.2799 64.1075 50.0109 64.1075 49.6698C64.1239 48.9515 64.1469 47.9347 64.1764 46.6883C64.2059 45.4419 64.2387 43.9331 64.3076 42.2701C64.3494 40.4573 64.5959 38.6549 65.0423 36.8975C65.2903 35.9968 65.638 35.1266 66.0788 34.303L66.1411 34.4276C65.7329 34.3578 65.3617 34.1479 65.0915 33.8339C64.834 33.5398 64.6467 33.191 64.5438 32.8139C64.3936 32.116 64.3362 31.4013 64.3732 30.6884C64.3732 29.3535 64.3732 28.1595 64.3732 27.1624C64.3732 26.1653 64.3732 25.3879 64.3732 24.8238C64.3732 24.5614 64.3732 24.3515 64.3732 24.194C64.3655 24.1221 64.3655 24.0495 64.3732 23.9775C64.3856 24.049 64.3911 24.1215 64.3896 24.194C64.3896 24.3515 64.3896 24.5614 64.406 24.8238C64.406 25.3879 64.4257 26.1784 64.4421 27.1591C64.4585 28.1399 64.4651 29.3502 64.4782 30.6884C64.4454 31.3875 64.5049 32.0878 64.6553 32.7712C64.7533 33.1229 64.9293 33.4481 65.1703 33.7224C65.4148 34.0073 65.7513 34.1976 66.1215 34.2603L66.2395 34.28L66.1838 34.385C65.7492 35.197 65.4071 36.0551 65.1637 36.9434C64.7222 38.6887 64.4736 40.4771 64.4224 42.2767C64.347 43.9363 64.3043 45.4353 64.2518 46.6948C64.1994 47.9543 64.16 48.9515 64.1305 49.6731L64.0911 50.4832C64.1013 50.5769 64.1068 50.671 64.1075 50.7653Z" fill="#263238"/>
<path d="M78.162 24.968C78.1948 25.0251 78.2212 25.0856 78.2408 25.1484C78.2867 25.2862 78.3523 25.4764 78.4277 25.6765L79.1067 27.6445C79.3888 28.4875 79.7266 29.4879 80.0907 30.5965C80.2711 31.1639 80.4941 31.7412 80.6614 32.3808C80.7513 32.7134 80.7659 33.0619 80.704 33.4009C80.672 33.5818 80.6038 33.7543 80.5035 33.9082C80.4031 34.062 80.2728 34.1941 80.1202 34.2963L80.1464 34.175C80.422 34.585 80.7139 35.0212 80.9861 35.487C81.3953 36.1463 81.7048 36.8625 81.9045 37.6124C82.0578 38.3187 82.1076 39.0435 82.0521 39.7641C81.9734 41.1253 81.8848 42.3487 81.8127 43.3721C81.7405 44.3955 81.6782 45.2155 81.6323 45.8091C81.6093 46.0814 81.5896 46.3011 81.5765 46.4651C81.5731 46.5426 81.5622 46.6195 81.5437 46.6947C81.5359 46.6173 81.5359 46.5393 81.5437 46.4619C81.5437 46.2946 81.5601 46.0715 81.57 45.8059C81.5995 45.2089 81.6421 44.3791 81.6946 43.3655C81.7471 42.352 81.8225 41.1056 81.9012 39.7575C81.9467 39.053 81.8948 38.3455 81.7471 37.6551C81.5479 36.9226 81.2429 36.2232 80.8418 35.5788C80.5728 35.1262 80.2842 34.6932 80.0087 34.2668L79.9595 34.1947L80.0349 34.1487C80.1682 34.0591 80.2819 33.9435 80.3692 33.8087C80.4566 33.674 80.5158 33.523 80.5433 33.3648C80.6019 33.049 80.5896 32.7241 80.5073 32.4136C80.3498 31.797 80.1268 31.2033 79.9496 30.6424C79.5888 29.5174 79.2641 28.5137 78.9886 27.6675C78.7131 26.8212 78.513 26.1685 78.3621 25.6995C78.2933 25.4797 78.2408 25.2993 78.1981 25.1615C78.1814 25.098 78.1693 25.0333 78.162 24.968Z" fill="#263238"/>
<path d="M65.3967 65.7253C65.3605 65.8222 65.3096 65.9129 65.2458 65.9943C65.1409 66.1616 64.9834 66.3977 64.7833 66.6864C64.3799 67.2637 63.7993 68.0476 63.1433 68.8938C62.4873 69.7401 61.851 70.4813 61.3853 71.0061C61.1524 71.2685 60.9589 71.4785 60.8211 71.6195C60.6833 71.7606 60.6046 71.836 60.5948 71.8294C60.8075 71.5137 61.0409 71.2124 61.2934 70.9274C61.7362 70.3829 62.3463 69.6154 63.0089 68.7889C63.6714 67.9623 64.2586 67.1751 64.685 66.6142C64.9025 66.3027 65.1403 66.0057 65.3967 65.7253Z" fill="#455A64"/>
<path d="M70.536 61.4941C70.536 61.4941 70.536 61.5565 70.536 61.6778C70.536 61.7992 70.5032 61.9861 70.477 62.219C70.4245 62.6979 70.3425 63.3965 70.2408 64.292C70.0276 66.0927 69.7095 68.7003 69.2896 71.9147C68.4598 78.3468 67.2003 87.2192 65.8456 97.0198C65.17 101.923 64.5336 106.594 64.022 110.852C63.8875 111.914 63.7792 112.954 63.6284 113.961C63.4775 114.968 63.3233 115.929 63.179 116.88L62.3852 122.128C61.9031 125.336 61.5226 127.931 61.2733 129.728C61.1487 130.623 61.0568 131.322 61.0011 131.798C60.9748 132.034 60.9552 132.214 60.9486 132.336C60.9456 132.381 60.9456 132.427 60.9486 132.473C60.9486 132.513 60.9716 132.473 60.9716 132.473C60.9716 132.473 60.9453 132.473 60.9486 132.457C60.9423 132.411 60.9423 132.365 60.9486 132.319C60.9486 132.198 60.965 132.014 60.988 131.778C61.0306 131.302 61.1126 130.6 61.2274 129.702C61.457 127.901 61.8178 125.303 62.2836 122.095C62.523 120.488 62.7821 118.733 63.0576 116.847C63.202 115.903 63.3463 114.929 63.4972 113.925C63.648 112.921 63.753 111.882 63.8875 110.819C64.4057 106.555 65.0224 101.887 65.6948 96.9837C67.0494 87.1798 68.3188 78.314 69.1912 71.8852C69.6144 68.6773 69.9555 66.0763 70.1949 64.2723C70.3097 63.3769 70.4016 62.6815 70.4639 62.1993C70.4967 61.9697 70.5196 61.7893 70.536 61.6614C70.5524 61.5335 70.536 61.4941 70.536 61.4941Z" fill="#455A64"/>
<path d="M78.0208 131.191C78.0254 131.131 78.033 131.072 78.0438 131.014C78.0635 130.889 78.0897 130.715 78.1258 130.489C78.2078 130.023 78.3226 129.351 78.4538 128.485C78.7588 126.737 79.2016 124.221 79.7461 121.115L84.0888 96.8001C84.2151 96.2231 84.2505 95.6299 84.1938 95.042C84.1183 94.4582 84.0199 93.8678 83.9347 93.2905C83.7575 92.1294 83.5815 90.9868 83.4066 89.8629C83.0523 87.6194 82.7014 85.4546 82.3603 83.3947C81.6747 79.275 81.0122 75.5719 80.4218 72.469C79.8314 69.3662 79.3099 66.8635 78.9163 65.1415C78.7293 64.2789 78.5587 63.613 78.4538 63.1735C78.4046 62.9538 78.3652 62.7799 78.3357 62.6586C78.3062 62.5372 78.2996 62.4814 78.2996 62.4814C78.3202 62.5384 78.3377 62.5964 78.3521 62.6553L78.4899 63.167C78.6047 63.6163 78.7851 64.2789 78.9819 65.135C79.3951 66.8504 79.9331 69.353 80.5399 72.4526C81.1467 75.5522 81.8191 79.2554 82.5079 83.375C82.8555 85.4349 83.2065 87.5997 83.564 89.8432C83.739 90.9693 83.9161 92.1119 84.0954 93.2708C84.184 93.8546 84.2791 94.4319 84.3578 95.0289C84.4155 95.6355 84.379 96.2473 84.2496 96.8427C82.5407 106.325 80.9958 114.912 79.874 121.134C79.3066 124.237 78.8474 126.75 78.5292 128.495C78.3685 129.361 78.2406 130.033 78.1553 130.496C78.1127 130.719 78.0766 130.892 78.0536 131.014C78.0307 131.135 78.0208 131.191 78.0208 131.191Z" fill="#455A64"/>
<path d="M74.3278 71.8295C74.377 71.8295 73.7964 75.7392 73.0322 80.5477C72.268 85.3562 71.6152 89.2561 71.5759 89.2561C71.5365 89.2561 72.1105 85.3464 72.8715 80.5379C73.6324 75.7294 74.2819 71.8229 74.3278 71.8295Z" fill="#455A64"/>
<path d="M64.6293 132.575C64.5225 132.606 64.4124 132.625 64.3013 132.631C64.0947 132.654 63.7929 132.683 63.419 132.713C62.6744 132.772 61.6412 132.828 60.4998 132.844C59.3584 132.86 58.3219 132.844 57.574 132.808C57.2001 132.808 56.8983 132.775 56.6917 132.755C56.5807 132.757 56.47 132.742 56.3637 132.71C56.7664 132.679 57.1706 132.672 57.574 132.69C58.3219 132.69 59.3518 132.69 60.4932 132.673C61.6347 132.657 62.6613 132.621 63.4092 132.591C63.815 132.559 64.2227 132.553 64.6293 132.575Z" fill="#455A64"/>
<path d="M80.4978 131.516C80.3585 131.522 80.219 131.514 80.0813 131.493L78.9529 131.375C78.0017 131.266 76.6897 131.102 75.24 130.915C73.7902 130.728 72.4782 130.548 71.5303 130.41L70.4085 130.24C70.2699 130.223 70.1329 130.196 69.9985 130.158C70.1386 130.144 70.2798 130.15 70.4184 130.174C70.6841 130.197 71.0744 130.236 71.5467 130.289C72.4979 130.397 73.8132 130.558 75.2629 130.745C76.7127 130.932 78.0214 131.115 78.9693 131.253L80.0911 131.427C80.2297 131.44 80.3662 131.47 80.4978 131.516Z" fill="#455A64"/>
<path d="M66.6559 24.2858C66.7834 24.3515 66.9042 24.4295 67.0167 24.5186L67.981 25.1746C68.801 25.7355 69.949 26.4866 71.261 27.2345C71.753 27.5166 72.245 27.779 72.678 28.0151L72.5599 28.0676C72.8354 26.9786 73.0781 26.0438 73.2552 25.3846C73.3405 25.0762 73.4127 24.8204 73.4717 24.6105C73.4926 24.5163 73.5245 24.4249 73.5668 24.3382C73.5645 24.4348 73.5502 24.5306 73.5242 24.6236C73.4783 24.8368 73.4225 25.0959 73.3569 25.4075C73.2028 26.0635 72.983 27.0147 72.7009 28.107L72.678 28.2054L72.5861 28.1594C72.1368 27.9266 71.6513 27.6642 71.1593 27.3821C70.0344 26.7398 68.946 26.0357 67.899 25.273C67.4988 24.9811 67.1807 24.7318 66.9642 24.558C66.8517 24.4789 66.7483 24.3876 66.6559 24.2858Z" fill="#263238"/>
<path d="M77.4804 26.6998C77.0237 27.0653 76.5389 27.3943 76.0306 27.6838L75.9584 27.7297L75.9191 27.651L75.4763 26.7884C75.1483 26.1324 74.8367 25.5092 74.63 25.0631C74.5013 24.8287 74.398 24.5813 74.3217 24.3251C74.484 24.5379 74.6226 24.7677 74.735 25.0106C74.9712 25.4403 75.2893 26.0405 75.6272 26.7096L76.07 27.592L75.9584 27.5592C76.4443 27.2363 76.9529 26.9491 77.4804 26.6998Z" fill="#263238"/>
<path d="M75.3413 26.3784C75.2538 26.4644 75.157 26.5403 75.0526 26.6047C74.8722 26.7392 74.6164 26.9327 74.331 27.1131C74.0457 27.2935 73.7866 27.4805 73.5963 27.6051C73.4926 27.6768 73.3828 27.7394 73.2683 27.7921C73.356 27.7054 73.4528 27.6284 73.557 27.5625C73.7406 27.4313 73.9965 27.2509 74.2786 27.0574L75.0133 26.5654C75.117 26.4937 75.2268 26.4312 75.3413 26.3784Z" fill="#263238"/>
<path d="M74.3577 27.0574C74.1237 26.8735 73.9044 26.6717 73.7017 26.4538C73.4897 26.2503 73.2935 26.031 73.1146 25.7979C73.3422 25.9819 73.555 26.1837 73.7509 26.4014C73.9697 26.6041 74.1726 26.8234 74.3577 27.0574Z" fill="#263238"/>
<path d="M68.1782 56.1542C68.2752 56.974 68.5045 57.7727 68.8572 58.5191C69.258 59.2401 69.7743 59.8905 70.3857 60.4444C70.1609 60.3393 69.9574 60.1937 69.7854 60.0147C68.8946 59.1987 68.3246 58.0913 68.1782 56.8922C68.1344 56.6481 68.1344 56.3982 68.1782 56.1542Z" fill="#263238"/>
<path d="M70.0868 60.4773C68.9949 60.3842 67.9723 59.9037 67.2037 59.1227C67.2365 59.0833 67.8006 59.5326 68.5944 59.9033C69.3882 60.2739 70.0966 60.4248 70.0868 60.4773Z" fill="#263238"/>
<path d="M76.4958 49.978C76.5523 50.0888 76.5932 50.207 76.6172 50.329C76.6861 50.5586 76.7746 50.8932 76.873 51.313C77.0764 52.1428 77.3158 53.3007 77.5061 54.593C77.6963 55.8853 77.8046 57.0596 77.8538 57.9156C77.8767 58.342 77.8899 58.6864 77.8899 58.9259C77.906 59.0489 77.906 59.1735 77.8899 59.2965C77.8594 59.1763 77.8418 59.0531 77.8374 58.9292C77.8111 58.6536 77.7816 58.3191 77.7455 57.9222C77.6668 57.076 77.5422 55.905 77.3519 54.6192C77.1617 53.3335 76.9386 52.1756 76.7681 51.3392C76.6894 50.9489 76.6205 50.6176 76.5647 50.3552C76.5278 50.2324 76.5048 50.1059 76.4958 49.978Z" fill="#263238"/>
<path d="M74.3119 29.3336C73.8855 32.7415 73.5707 40.1576 73.4526 43.5983C73.3542 46.4716 73.364 49.3482 73.3739 52.2247C73.3739 53.153 73.3739 54.1107 73.7707 54.9537C74.4562 56.4723 76.1323 57.2497 77.6706 57.8663L74.3119 29.3336Z" fill="#E0E0E0"/>
<path d="M78.1361 57.3744L79.8975 53.0579L75.4924 28.8712L74.2067 28.9991C74.2067 28.9991 74.3871 54.1371 74.328 54.3634L78.1361 57.3744Z" fill="#11B0DB"/>
<path d="M75.4458 28.8712C75.2472 28.9341 75.0407 28.9683 74.8325 28.9729C74.6278 28.9999 74.4205 28.9999 74.2158 28.9729C74.4185 28.9378 74.6235 28.9181 74.8292 28.9139C75.0336 28.8867 75.2396 28.8725 75.4458 28.8712Z" fill="#263238"/>
</svg>
