<svg width="1043" height="366" viewBox="0 0 1043 366" fill="none" xmlns="http://www.w3.org/2000/svg">
<path d="M285.258 311.48C285.258 311.48 223.881 341.379 157.659 312.252C91.4364 283.126 52.5424 214.862 19.5736 160.388C-13.3951 105.914 -3.74719 45.6438 41.2188 13.5553C86.1849 -18.5333 122.704 17.1703 189.859 11.546C257.014 5.92168 274.047 -5.69614 333.489 25.9888C392.932 57.6738 412.132 146.203 375.078 217.421C338.024 288.639 285.258 311.48 285.258 311.48Z" fill="white" fill-opacity="0.1"/>
<path d="M843.174 356.473C843.174 356.473 886.169 377.541 932.559 357.018C978.948 336.495 1006.19 288.395 1029.29 250.012C1052.38 211.629 1045.62 169.161 1014.13 146.551C982.627 123.941 957.045 149.098 910.002 145.135C862.959 141.173 851.028 132.986 809.388 155.312C767.748 177.638 754.298 240.017 780.255 290.198C806.212 340.379 843.174 356.473 843.174 356.473Z" fill="white" fill-opacity="0.1"/>
</svg>
